%TF.GenerationSoftware,KiCad,Pcbnew,7.0.10-7.0.10~ubuntu22.04.1*%
%TF.CreationDate,2024-06-22T11:50:54+05:30*%
%TF.ProjectId,Light-CC,4c696768-742d-4434-932e-6b696361645f,rev?*%
%TF.SameCoordinates,PX4c4b400PY7270e00*%
%TF.FileFunction,Copper,L2,Bot*%
%TF.FilePolarity,Positive*%
%FSLAX46Y46*%
G04 Gerber Fmt 4.6, Leading zero omitted, Abs format (unit mm)*
G04 Created by KiCad (PCBNEW 7.0.10-7.0.10~ubuntu22.04.1) date 2024-06-22 11:50:54*
%MOMM*%
%LPD*%
G01*
G04 APERTURE LIST*
G04 Aperture macros list*
%AMRoundRect*
0 Rectangle with rounded corners*
0 $1 Rounding radius*
0 $2 $3 $4 $5 $6 $7 $8 $9 X,Y pos of 4 corners*
0 Add a 4 corners polygon primitive as box body*
4,1,4,$2,$3,$4,$5,$6,$7,$8,$9,$2,$3,0*
0 Add four circle primitives for the rounded corners*
1,1,$1+$1,$2,$3*
1,1,$1+$1,$4,$5*
1,1,$1+$1,$6,$7*
1,1,$1+$1,$8,$9*
0 Add four rect primitives between the rounded corners*
20,1,$1+$1,$2,$3,$4,$5,0*
20,1,$1+$1,$4,$5,$6,$7,0*
20,1,$1+$1,$6,$7,$8,$9,0*
20,1,$1+$1,$8,$9,$2,$3,0*%
G04 Aperture macros list end*
%TA.AperFunction,ComponentPad*%
%ADD10R,1.600000X1.600000*%
%TD*%
%TA.AperFunction,ComponentPad*%
%ADD11C,1.600000*%
%TD*%
%TA.AperFunction,ComponentPad*%
%ADD12R,1.700000X1.700000*%
%TD*%
%TA.AperFunction,ComponentPad*%
%ADD13O,1.700000X1.700000*%
%TD*%
%TA.AperFunction,ComponentPad*%
%ADD14O,1.400000X2.600000*%
%TD*%
%TA.AperFunction,ComponentPad*%
%ADD15O,1.600000X2.600000*%
%TD*%
%TA.AperFunction,ComponentPad*%
%ADD16RoundRect,0.250002X-1.499998X1.499998X-1.499998X-1.499998X1.499998X-1.499998X1.499998X1.499998X0*%
%TD*%
%TA.AperFunction,ComponentPad*%
%ADD17C,3.500000*%
%TD*%
%TA.AperFunction,ComponentPad*%
%ADD18RoundRect,0.249999X1.025001X-1.025001X1.025001X1.025001X-1.025001X1.025001X-1.025001X-1.025001X0*%
%TD*%
%TA.AperFunction,ComponentPad*%
%ADD19C,2.550000*%
%TD*%
%TA.AperFunction,SMDPad,CuDef*%
%ADD20RoundRect,0.225000X0.250000X-0.225000X0.250000X0.225000X-0.250000X0.225000X-0.250000X-0.225000X0*%
%TD*%
%TA.AperFunction,SMDPad,CuDef*%
%ADD21RoundRect,0.150000X0.150000X-0.650000X0.150000X0.650000X-0.150000X0.650000X-0.150000X-0.650000X0*%
%TD*%
%TA.AperFunction,SMDPad,CuDef*%
%ADD22RoundRect,0.250000X0.475000X-0.250000X0.475000X0.250000X-0.475000X0.250000X-0.475000X-0.250000X0*%
%TD*%
%TA.AperFunction,SMDPad,CuDef*%
%ADD23RoundRect,0.250000X0.250000X0.475000X-0.250000X0.475000X-0.250000X-0.475000X0.250000X-0.475000X0*%
%TD*%
%TA.AperFunction,SMDPad,CuDef*%
%ADD24RoundRect,0.250000X0.375000X0.625000X-0.375000X0.625000X-0.375000X-0.625000X0.375000X-0.625000X0*%
%TD*%
%TA.AperFunction,SMDPad,CuDef*%
%ADD25RoundRect,0.225000X-0.250000X0.225000X-0.250000X-0.225000X0.250000X-0.225000X0.250000X0.225000X0*%
%TD*%
%TA.AperFunction,SMDPad,CuDef*%
%ADD26RoundRect,0.150000X0.150000X-0.587500X0.150000X0.587500X-0.150000X0.587500X-0.150000X-0.587500X0*%
%TD*%
%TA.AperFunction,SMDPad,CuDef*%
%ADD27RoundRect,0.250000X-0.250000X-0.475000X0.250000X-0.475000X0.250000X0.475000X-0.250000X0.475000X0*%
%TD*%
%TA.AperFunction,SMDPad,CuDef*%
%ADD28RoundRect,0.250000X-0.650000X0.325000X-0.650000X-0.325000X0.650000X-0.325000X0.650000X0.325000X0*%
%TD*%
%TA.AperFunction,ComponentPad*%
%ADD29R,2.000000X2.000000*%
%TD*%
%TA.AperFunction,ComponentPad*%
%ADD30C,2.000000*%
%TD*%
%TA.AperFunction,ComponentPad*%
%ADD31R,3.000000X2.500000*%
%TD*%
%TA.AperFunction,SMDPad,CuDef*%
%ADD32RoundRect,0.200000X-0.275000X0.200000X-0.275000X-0.200000X0.275000X-0.200000X0.275000X0.200000X0*%
%TD*%
%TA.AperFunction,SMDPad,CuDef*%
%ADD33RoundRect,0.200000X0.275000X-0.200000X0.275000X0.200000X-0.275000X0.200000X-0.275000X-0.200000X0*%
%TD*%
%TA.AperFunction,ComponentPad*%
%ADD34R,1.800000X1.800000*%
%TD*%
%TA.AperFunction,ComponentPad*%
%ADD35C,1.800000*%
%TD*%
%TA.AperFunction,SMDPad,CuDef*%
%ADD36R,5.400000X2.900000*%
%TD*%
%TA.AperFunction,ComponentPad*%
%ADD37C,1.500000*%
%TD*%
%TA.AperFunction,SMDPad,CuDef*%
%ADD38RoundRect,0.200000X0.200000X0.275000X-0.200000X0.275000X-0.200000X-0.275000X0.200000X-0.275000X0*%
%TD*%
%TA.AperFunction,ViaPad*%
%ADD39C,0.706400*%
%TD*%
%TA.AperFunction,ViaPad*%
%ADD40C,0.800000*%
%TD*%
%TA.AperFunction,Conductor*%
%ADD41C,0.304800*%
%TD*%
%TA.AperFunction,Conductor*%
%ADD42C,0.254000*%
%TD*%
%TA.AperFunction,Conductor*%
%ADD43C,0.508000*%
%TD*%
%TA.AperFunction,Conductor*%
%ADD44C,0.609600*%
%TD*%
%TA.AperFunction,Conductor*%
%ADD45C,0.406400*%
%TD*%
%TA.AperFunction,Conductor*%
%ADD46C,0.812800*%
%TD*%
G04 APERTURE END LIST*
D10*
%TO.P,C8,1*%
%TO.N,+12V*%
X9000000Y31205112D03*
D11*
%TO.P,C8,2*%
%TO.N,Net-(D2-A)*%
X9000000Y28705112D03*
%TD*%
D12*
%TO.P,J4,1,Pin_1*%
%TO.N,/MCU/SWCLK*%
X56460000Y2250000D03*
D13*
%TO.P,J4,2,Pin_2*%
%TO.N,GND*%
X59000000Y2250000D03*
%TO.P,J4,3,Pin_3*%
%TO.N,/MCU/SWD*%
X61540000Y2250000D03*
%TD*%
D14*
%TO.P,J5,S1,SHIELD*%
%TO.N,GND*%
X26430000Y4930000D03*
D15*
X26430000Y760000D03*
D14*
X35070000Y4930000D03*
D15*
X35070000Y760000D03*
%TD*%
D10*
%TO.P,C7,1*%
%TO.N,+12V*%
X15750000Y31205112D03*
D11*
%TO.P,C7,2*%
%TO.N,Net-(D2-A)*%
X15750000Y28705112D03*
%TD*%
D16*
%TO.P,J3,1,Pin_1*%
%TO.N,Net-(J3-Pin_1)*%
X3000000Y23500000D03*
D17*
%TO.P,J3,2,Pin_2*%
%TO.N,Net-(J3-Pin_2)*%
X3000000Y16500000D03*
%TD*%
D16*
%TO.P,J1,1,Pin_1*%
%TO.N,+12V*%
X65750000Y23500000D03*
D17*
%TO.P,J1,2,Pin_2*%
%TO.N,GND*%
X65750000Y16500000D03*
%TD*%
D18*
%TO.P,J2,1,Pin_1*%
%TO.N,+3V3*%
X2790000Y6450000D03*
D19*
%TO.P,J2,2,Pin_2*%
%TO.N,Net-(D1-A)*%
X2790000Y11250000D03*
%TD*%
D20*
%TO.P,C19,1*%
%TO.N,+3V3*%
X51250000Y5725000D03*
%TO.P,C19,2*%
%TO.N,GND*%
X51250000Y7275000D03*
%TD*%
D21*
%TO.P,U2,1,~{CS}*%
%TO.N,/MCU/SS*%
X46905000Y3900000D03*
%TO.P,U2,2,DO(IO1)*%
%TO.N,/MCU/SD1*%
X45635000Y3900000D03*
%TO.P,U2,3,IO2*%
%TO.N,/MCU/SD2*%
X44365000Y3900000D03*
%TO.P,U2,4,GND*%
%TO.N,GND*%
X43095000Y3900000D03*
%TO.P,U2,5,DI(IO0)*%
%TO.N,/MCU/SD0*%
X43095000Y11100000D03*
%TO.P,U2,6,CLK*%
%TO.N,/MCU/SCLK*%
X44365000Y11100000D03*
%TO.P,U2,7,IO3*%
%TO.N,/MCU/SD3*%
X45635000Y11100000D03*
%TO.P,U2,8,VCC*%
%TO.N,+3V3*%
X46905000Y11100000D03*
%TD*%
D22*
%TO.P,C2,1*%
%TO.N,+12V*%
X58250000Y27300000D03*
%TO.P,C2,2*%
%TO.N,GND*%
X58250000Y29200000D03*
%TD*%
D23*
%TO.P,C20,1*%
%TO.N,+3V3*%
X40700000Y7000000D03*
%TO.P,C20,2*%
%TO.N,GND*%
X38800000Y7000000D03*
%TD*%
D24*
%TO.P,F1,1*%
%TO.N,+12V*%
X5400000Y28000000D03*
%TO.P,F1,2*%
%TO.N,Net-(J3-Pin_1)*%
X2600000Y28000000D03*
%TD*%
D25*
%TO.P,C10,1*%
%TO.N,+3V3*%
X51250000Y13775000D03*
%TO.P,C10,2*%
%TO.N,GND*%
X51250000Y12225000D03*
%TD*%
%TO.P,C18,1*%
%TO.N,+3V3*%
X55750000Y13775000D03*
%TO.P,C18,2*%
%TO.N,GND*%
X55750000Y12225000D03*
%TD*%
D26*
%TO.P,Q4,1,B*%
%TO.N,Net-(Q4-B)*%
X50700000Y21062500D03*
%TO.P,Q4,2,E*%
%TO.N,GND*%
X48800000Y21062500D03*
%TO.P,Q4,3,C*%
%TO.N,Net-(Q4-C)*%
X49750000Y22937500D03*
%TD*%
D25*
%TO.P,C14,1*%
%TO.N,Net-(U3-VREG_VOUT)*%
X57000000Y9775000D03*
%TO.P,C14,2*%
%TO.N,GND*%
X57000000Y8225000D03*
%TD*%
D27*
%TO.P,C3,1*%
%TO.N,+3V3*%
X53800000Y21750000D03*
%TO.P,C3,2*%
%TO.N,GND*%
X55700000Y21750000D03*
%TD*%
D28*
%TO.P,C9,1*%
%TO.N,+12V*%
X12500000Y31450000D03*
%TO.P,C9,2*%
%TO.N,Net-(D2-A)*%
X12500000Y28500000D03*
%TD*%
D25*
%TO.P,C16,1*%
%TO.N,+3V3*%
X52750000Y13775000D03*
%TO.P,C16,2*%
%TO.N,GND*%
X52750000Y12225000D03*
%TD*%
%TO.P,C17,1*%
%TO.N,+3V3*%
X54250000Y13775000D03*
%TO.P,C17,2*%
%TO.N,GND*%
X54250000Y12225000D03*
%TD*%
D22*
%TO.P,C1,1*%
%TO.N,+12V*%
X60250000Y27300000D03*
%TO.P,C1,2*%
%TO.N,GND*%
X60250000Y29200000D03*
%TD*%
D29*
%TO.P,SW1,A,A*%
%TO.N,Net-(R14-Pad2)*%
X38500000Y28500000D03*
D30*
%TO.P,SW1,B,B*%
%TO.N,Net-(R16-Pad1)*%
X38500000Y23500000D03*
%TO.P,SW1,C,C*%
%TO.N,+3V3*%
X38500000Y26000000D03*
D31*
%TO.P,SW1,MP*%
%TO.N,N/C*%
X31000000Y20400000D03*
X31000000Y31600000D03*
D30*
%TO.P,SW1,S1,S1*%
%TO.N,+3V3*%
X24000000Y28500000D03*
%TO.P,SW1,S2,S2*%
%TO.N,Net-(R18-Pad1)*%
X24000000Y23500000D03*
%TD*%
D32*
%TO.P,R6,1*%
%TO.N,Net-(J5-CC1)*%
X29500000Y3575000D03*
%TO.P,R6,2*%
%TO.N,GND*%
X29500000Y1925000D03*
%TD*%
D20*
%TO.P,C13,1*%
%TO.N,Net-(U3-VREG_VOUT)*%
X49000000Y12225000D03*
%TO.P,C13,2*%
%TO.N,GND*%
X49000000Y13775000D03*
%TD*%
D33*
%TO.P,R4,1*%
%TO.N,/MCU/SS*%
X49500000Y3925000D03*
%TO.P,R4,2*%
%TO.N,+3V3*%
X49500000Y5575000D03*
%TD*%
D34*
%TO.P,D3,1,RK*%
%TO.N,/MCU/R1*%
X49740000Y29000000D03*
D35*
%TO.P,D3,2,A*%
%TO.N,+3V3*%
X47581000Y29000000D03*
%TO.P,D3,3,GK*%
%TO.N,/MCU/G1*%
X45422000Y29000000D03*
%TO.P,D3,4,BK*%
%TO.N,/MCU/B1*%
X43263000Y29000000D03*
%TD*%
D36*
%TO.P,L1,1,1*%
%TO.N,Net-(D2-A)*%
X13750000Y24350000D03*
%TO.P,L1,2,2*%
%TO.N,Net-(J3-Pin_2)*%
X13750000Y14650000D03*
%TD*%
D27*
%TO.P,C15,1*%
%TO.N,+5V*%
X38800000Y2750000D03*
%TO.P,C15,2*%
%TO.N,GND*%
X40700000Y2750000D03*
%TD*%
D37*
%TO.P,Y1,1,1*%
%TO.N,Net-(U3-XOUT)*%
X60574562Y13662779D03*
%TO.P,Y1,2,2*%
%TO.N,Net-(U3-XIN)*%
X61421965Y8856917D03*
%TD*%
D20*
%TO.P,C22,1*%
%TO.N,+3V3*%
X54250000Y5725000D03*
%TO.P,C22,2*%
%TO.N,GND*%
X54250000Y7275000D03*
%TD*%
D38*
%TO.P,R11,1*%
%TO.N,/MCU/LED2*%
X47325000Y19250000D03*
%TO.P,R11,2*%
%TO.N,Net-(Q5-B)*%
X45675000Y19250000D03*
%TD*%
D32*
%TO.P,R7,1*%
%TO.N,Net-(J5-CC2)*%
X32500000Y3575000D03*
%TO.P,R7,2*%
%TO.N,GND*%
X32500000Y1925000D03*
%TD*%
D26*
%TO.P,Q6,1,B*%
%TO.N,Net-(Q6-B)*%
X44200000Y21062500D03*
%TO.P,Q6,2,E*%
%TO.N,GND*%
X42300000Y21062500D03*
%TO.P,Q6,3,C*%
%TO.N,Net-(Q6-C)*%
X43250000Y22937500D03*
%TD*%
D22*
%TO.P,C4,1*%
%TO.N,+12V*%
X56250000Y27300000D03*
%TO.P,C4,2*%
%TO.N,GND*%
X56250000Y29200000D03*
%TD*%
D20*
%TO.P,C21,1*%
%TO.N,+3V3*%
X52750000Y5725000D03*
%TO.P,C21,2*%
%TO.N,GND*%
X52750000Y7275000D03*
%TD*%
D39*
%TO.N,GND*%
X27500000Y30000000D03*
X13250000Y10750000D03*
X52500000Y10750000D03*
X53500000Y8750000D03*
X66000000Y5750000D03*
X10000000Y2500000D03*
X40000000Y31250000D03*
X54500000Y8750000D03*
X22500000Y6500000D03*
X52500000Y8750000D03*
X27500000Y32250000D03*
X28750000Y12000000D03*
X40000000Y21500000D03*
X35000000Y12500000D03*
X61500000Y19250000D03*
X48187500Y21062500D03*
X53500000Y10750000D03*
X66000000Y10000000D03*
D40*
X19000000Y11250000D03*
X34500000Y25000000D03*
D39*
X66500000Y12500000D03*
X30000000Y26750000D03*
X54500000Y10750000D03*
X7500000Y2500000D03*
X63000000Y13000000D03*
X43747079Y1473715D03*
X27500000Y26750000D03*
X59725000Y8225000D03*
X21000000Y11500000D03*
X10000000Y10750000D03*
X40000000Y13500000D03*
X40000000Y20000000D03*
X22750000Y18750000D03*
X62500000Y31000000D03*
X39750000Y5000000D03*
X62750000Y6250000D03*
X34250000Y10000000D03*
X22500000Y1750000D03*
X45000000Y13500000D03*
%TO.N,+3V3*%
X31750000Y26750000D03*
X35500000Y26250000D03*
X54303200Y16000000D03*
X21250000Y3500000D03*
X42500000Y6000000D03*
D40*
X53750000Y20250000D03*
D39*
X54500000Y4250000D03*
X50480975Y13980975D03*
X56750000Y19000000D03*
X46905000Y10100000D03*
%TO.N,Net-(U3-VREG_VOUT)*%
X48000000Y12500000D03*
X59500000Y10250000D03*
%TO.N,+5V*%
X28250000Y8000000D03*
X36750000Y7750000D03*
X37750000Y2750000D03*
%TO.N,Net-(J5-CC1)*%
X29500000Y3575000D03*
%TO.N,Net-(J5-CC2)*%
X32500000Y3575000D03*
%TO.N,/MCU/SS*%
X49500000Y3925000D03*
X47000000Y6500000D03*
%TO.N,/MCU/MCU_BOOT*%
X37500000Y10000000D03*
X37500000Y12000000D03*
%TO.N,Net-(Q4-B)*%
X50500000Y20000000D03*
%TO.N,/MCU/LED2*%
X47250000Y18750000D03*
%TO.N,/MCU/SD1*%
X45635000Y6750000D03*
%TO.N,/MCU/SD2*%
X44740044Y6892000D03*
%TO.N,/MCU/SD0*%
X43500000Y8750000D03*
%TO.N,/MCU/SCLK*%
X44500000Y9250000D03*
%TO.N,/MCU/SD3*%
X45750000Y9750000D03*
%TO.N,Net-(Q4-C)*%
X49750000Y24000000D03*
%TO.N,Net-(Q5-B)*%
X45750000Y20000000D03*
%TO.N,Net-(Q6-B)*%
X44000000Y20000000D03*
%TO.N,Net-(Q6-C)*%
X43250000Y24000000D03*
%TO.N,+12V*%
X62000000Y27300000D03*
%TD*%
D41*
%TO.N,GND*%
X51250000Y12225000D02*
X52750000Y12225000D01*
X48800000Y21950000D02*
X48250000Y22500000D01*
X60250000Y11250000D02*
X60250000Y8750000D01*
X55750000Y12225000D02*
X56525000Y12225000D01*
D42*
X49725000Y13775000D02*
X50000000Y13500000D01*
D43*
X29500000Y1925000D02*
X32500000Y1925000D01*
X35070000Y4930000D02*
X35070000Y760000D01*
D41*
X56525000Y12225000D02*
X57500000Y11250000D01*
X63000000Y11750000D02*
X63000000Y13000000D01*
X55275000Y7275000D02*
X54250000Y7275000D01*
X52750000Y12225000D02*
X54250000Y12225000D01*
X48250000Y24500000D02*
X47750000Y25000000D01*
X56225000Y8225000D02*
X55275000Y7275000D01*
X40700000Y2750000D02*
X40700000Y3800000D01*
D43*
X27675000Y1925000D02*
X29500000Y1925000D01*
D41*
X38800000Y5200000D02*
X39000000Y5000000D01*
X62500000Y11250000D02*
X63000000Y11750000D01*
X54250000Y7275000D02*
X52750000Y7275000D01*
D42*
X50000000Y12500000D02*
X50275000Y12225000D01*
X50000000Y13500000D02*
X50000000Y12500000D01*
D41*
X38800000Y7000000D02*
X38800000Y5200000D01*
D43*
X26510000Y760000D02*
X27675000Y1925000D01*
D41*
X52750000Y7275000D02*
X51250000Y7275000D01*
X57500000Y11250000D02*
X60250000Y11250000D01*
X48250000Y22500000D02*
X48250000Y24500000D01*
D43*
X26430000Y760000D02*
X26510000Y760000D01*
D41*
X39000000Y5000000D02*
X39750000Y5000000D01*
D43*
X32500000Y1925000D02*
X33905000Y1925000D01*
D41*
X59725000Y8225000D02*
X57000000Y8225000D01*
X54250000Y12225000D02*
X55750000Y12225000D01*
X43000000Y25000000D02*
X42300000Y24300000D01*
X57000000Y8225000D02*
X56225000Y8225000D01*
X60250000Y8750000D02*
X59725000Y8225000D01*
D43*
X33905000Y1925000D02*
X35070000Y760000D01*
D41*
X48800000Y21062500D02*
X48800000Y21950000D01*
X42300000Y24300000D02*
X42300000Y21062500D01*
X48187500Y21062500D02*
X48800000Y21062500D01*
D42*
X50275000Y12225000D02*
X51250000Y12225000D01*
D41*
X60250000Y11250000D02*
X62500000Y11250000D01*
X39750000Y4750000D02*
X39750000Y5000000D01*
D42*
X49000000Y13775000D02*
X49725000Y13775000D01*
D41*
X40700000Y3800000D02*
X39750000Y4750000D01*
D43*
X26430000Y4930000D02*
X26430000Y760000D01*
D41*
X47750000Y25000000D02*
X43000000Y25000000D01*
D44*
%TO.N,+3V3*%
X54250000Y13775000D02*
X52750000Y13775000D01*
X52750000Y5725000D02*
X54250000Y5725000D01*
D45*
X35500000Y26250000D02*
X32250000Y26250000D01*
D44*
X49500000Y5575000D02*
X50075000Y5575000D01*
X43250000Y7250000D02*
X42500000Y6500000D01*
X43750000Y7750000D02*
X43250000Y7250000D01*
X46905000Y11100000D02*
X46905000Y8905000D01*
D46*
X53750000Y20250000D02*
X53750000Y19000000D01*
D44*
X52750000Y13775000D02*
X51250000Y13775000D01*
D45*
X53800000Y20300000D02*
X53750000Y20250000D01*
D44*
X43000000Y7000000D02*
X43250000Y7250000D01*
D46*
X53750000Y19000000D02*
X53750000Y17250000D01*
X21250000Y3500000D02*
X12950000Y3500000D01*
D42*
X46905000Y10100000D02*
X46905000Y11100000D01*
D44*
X50686950Y13775000D02*
X51250000Y13775000D01*
X40700000Y7000000D02*
X43000000Y7000000D01*
D43*
X56750000Y19000000D02*
X53750000Y19000000D01*
D46*
X54250000Y16750000D02*
X54250000Y13775000D01*
D44*
X54250000Y4500000D02*
X54500000Y4250000D01*
X46905000Y8905000D02*
X45750000Y7750000D01*
D41*
X51100000Y5575000D02*
X51250000Y5725000D01*
D44*
X55750000Y13775000D02*
X54250000Y13775000D01*
X50480975Y13980975D02*
X50686950Y13775000D01*
D45*
X53800000Y21750000D02*
X53800000Y20300000D01*
D44*
X42500000Y6500000D02*
X42500000Y6000000D01*
X46905000Y14155000D02*
X46905000Y11100000D01*
X49211950Y15250000D02*
X48000000Y15250000D01*
X50225000Y5725000D02*
X52750000Y5725000D01*
D45*
X32250000Y26250000D02*
X31750000Y26750000D01*
D44*
X50480975Y13980975D02*
X49211950Y15250000D01*
D46*
X53750000Y17250000D02*
X54250000Y16750000D01*
D44*
X48000000Y15250000D02*
X46905000Y14155000D01*
D46*
X12950000Y3500000D02*
X10000000Y6450000D01*
D44*
X54250000Y5725000D02*
X54250000Y4500000D01*
D46*
X10000000Y6450000D02*
X2790000Y6450000D01*
D44*
X45750000Y7750000D02*
X43750000Y7750000D01*
X50075000Y5575000D02*
X50225000Y5725000D01*
D42*
%TO.N,Net-(U3-VREG_VOUT)*%
X49000000Y12225000D02*
X49000000Y10250000D01*
X48000000Y12500000D02*
X48275000Y12225000D01*
X49000000Y10250000D02*
X49500000Y9750000D01*
X48275000Y12225000D02*
X49000000Y12225000D01*
X49500000Y9750000D02*
X59000000Y9750000D01*
X59000000Y9750000D02*
X59500000Y10250000D01*
D43*
%TO.N,+5V*%
X36750000Y7750000D02*
X36500000Y8000000D01*
D41*
X38800000Y2750000D02*
X37750000Y2750000D01*
D43*
X36500000Y8000000D02*
X28250000Y8000000D01*
D46*
%TO.N,Net-(J3-Pin_1)*%
X2600000Y23900000D02*
X3000000Y23500000D01*
X2600000Y28000000D02*
X2600000Y23900000D01*
D42*
%TO.N,/MCU/SS*%
X46905000Y6405000D02*
X47000000Y6500000D01*
D45*
X46905000Y3900000D02*
X49475000Y3900000D01*
X49475000Y3900000D02*
X49500000Y3925000D01*
D42*
X46905000Y3900000D02*
X46905000Y6405000D01*
D41*
%TO.N,/MCU/MCU_BOOT*%
X37500000Y10000000D02*
X37500000Y12000000D01*
%TO.N,Net-(Q4-B)*%
X50700000Y20200000D02*
X50700000Y21062500D01*
X50500000Y20000000D02*
X50700000Y20200000D01*
%TO.N,/MCU/LED2*%
X47325000Y18825000D02*
X47250000Y18750000D01*
X47325000Y19250000D02*
X47325000Y18825000D01*
D42*
%TO.N,/MCU/SD1*%
X45635000Y6750000D02*
X45635000Y3900000D01*
%TO.N,/MCU/SD2*%
X44365000Y6516956D02*
X44365000Y3900000D01*
X44740044Y6892000D02*
X44365000Y6516956D01*
%TO.N,/MCU/SD0*%
X43500000Y8750000D02*
X43095000Y9155000D01*
X43095000Y9155000D02*
X43095000Y11100000D01*
%TO.N,/MCU/SCLK*%
X44500000Y9250000D02*
X44365000Y9385000D01*
X44365000Y9385000D02*
X44365000Y11100000D01*
%TO.N,/MCU/SD3*%
X45635000Y9865000D02*
X45635000Y11100000D01*
X45750000Y9750000D02*
X45635000Y9865000D01*
D41*
%TO.N,Net-(Q4-C)*%
X49750000Y22937500D02*
X49750000Y24000000D01*
%TO.N,Net-(Q5-B)*%
X45675000Y19925000D02*
X45675000Y19250000D01*
X45750000Y20000000D02*
X45675000Y19925000D01*
%TO.N,Net-(Q6-B)*%
X44200000Y21062500D02*
X44200000Y20200000D01*
X44200000Y20200000D02*
X44000000Y20000000D01*
%TO.N,Net-(Q6-C)*%
X43250000Y24000000D02*
X43250000Y22937500D01*
%TD*%
%TA.AperFunction,NonConductor*%
G36*
X68705203Y35381114D02*
G01*
X68723264Y35361714D01*
X68728710Y35354440D01*
X68733566Y35347953D01*
X68740024Y35338435D01*
X68796100Y35246928D01*
X68799206Y35241564D01*
X68846602Y35154763D01*
X68852330Y35142791D01*
X68875679Y35086422D01*
X68894181Y35041755D01*
X68895790Y35037665D01*
X68929627Y34946944D01*
X68934019Y34932558D01*
X68960793Y34821036D01*
X68961385Y34818447D01*
X68980828Y34729067D01*
X68983280Y34712438D01*
X68994485Y34570066D01*
X68994551Y34569185D01*
X68999184Y34504421D01*
X68999500Y34495573D01*
X68999500Y1504428D01*
X68999184Y1495580D01*
X68994551Y1430817D01*
X68994485Y1429936D01*
X68983280Y1287562D01*
X68980828Y1270933D01*
X68961390Y1181577D01*
X68960798Y1178988D01*
X68934019Y1067444D01*
X68929627Y1053058D01*
X68895790Y962337D01*
X68894169Y958216D01*
X68852330Y857211D01*
X68846602Y845239D01*
X68799206Y758438D01*
X68796100Y753074D01*
X68740024Y661567D01*
X68733566Y652049D01*
X68723269Y638293D01*
X68667337Y596420D01*
X68597645Y591434D01*
X68536321Y624917D01*
X68502835Y686239D01*
X68500000Y712601D01*
X68500000Y20326878D01*
X68501262Y20344525D01*
X68505500Y20374000D01*
X68505500Y28126000D01*
X68500710Y28170554D01*
X68500000Y28183807D01*
X68500000Y35287401D01*
X68519685Y35354440D01*
X68572489Y35400195D01*
X68641647Y35410139D01*
X68705203Y35381114D01*
G37*
%TD.AperFunction*%
%TA.AperFunction,NonConductor*%
G36*
X463684Y35375081D02*
G01*
X497167Y35313756D01*
X500000Y35287402D01*
X500000Y30016246D01*
X480315Y29949207D01*
X463681Y29928565D01*
X428892Y29893777D01*
X428855Y29893738D01*
X392728Y29853520D01*
X392718Y29853508D01*
X376076Y29832857D01*
X344433Y29788975D01*
X284663Y29658101D01*
X264976Y29591056D01*
X247238Y29467680D01*
X218213Y29404125D01*
X159435Y29366350D01*
X89566Y29366350D01*
X30787Y29404124D01*
X1762Y29467680D01*
X500Y29485327D01*
X500Y34495574D01*
X816Y34504418D01*
X859Y34505032D01*
X5490Y34569773D01*
X16719Y34712445D01*
X19170Y34729065D01*
X38631Y34818529D01*
X39181Y34820935D01*
X65984Y34932576D01*
X70365Y34946926D01*
X104251Y35037776D01*
X105778Y35041659D01*
X147676Y35142810D01*
X153387Y35154745D01*
X200826Y35241624D01*
X203871Y35246882D01*
X259989Y35338458D01*
X266417Y35347932D01*
X276737Y35361718D01*
X332670Y35403585D01*
X402362Y35408567D01*
X463684Y35375081D01*
G37*
%TD.AperFunction*%
%TA.AperFunction,NonConductor*%
G36*
X205703Y20574129D02*
G01*
X243477Y20515351D01*
X247789Y20493672D01*
X250229Y20470978D01*
X250232Y20470951D01*
X258885Y20417555D01*
X258885Y20417553D01*
X262097Y20408942D01*
X309168Y20282743D01*
X342653Y20221420D01*
X428877Y20106239D01*
X428880Y20106236D01*
X428885Y20106230D01*
X463680Y20071436D01*
X497166Y20010114D01*
X500000Y19983754D01*
X500000Y19766246D01*
X480315Y19699207D01*
X463681Y19678565D01*
X428892Y19643777D01*
X428855Y19643738D01*
X392728Y19603520D01*
X392718Y19603508D01*
X376076Y19582857D01*
X344433Y19538975D01*
X284663Y19408101D01*
X264976Y19341056D01*
X247238Y19217680D01*
X218213Y19154125D01*
X159435Y19116350D01*
X89566Y19116350D01*
X30787Y19154124D01*
X1762Y19217680D01*
X500Y19235327D01*
X500Y20480416D01*
X20185Y20547455D01*
X72989Y20593210D01*
X142147Y20603154D01*
X205703Y20574129D01*
G37*
%TD.AperFunction*%
%TA.AperFunction,NonConductor*%
G36*
X205703Y17603962D02*
G01*
X243477Y17545184D01*
X247883Y17522593D01*
X249118Y17510249D01*
X254508Y17456339D01*
X264229Y17408217D01*
X264232Y17408205D01*
X293861Y17312081D01*
X368013Y17188780D01*
X368016Y17188776D01*
X368017Y17188775D01*
X412178Y17134636D01*
X459953Y17090685D01*
X495963Y17030810D01*
X500000Y16999428D01*
X500000Y16002424D01*
X480315Y15935385D01*
X457203Y15908711D01*
X438656Y15892641D01*
X344433Y15783903D01*
X344430Y15783899D01*
X284664Y15653033D01*
X264976Y15585985D01*
X247238Y15462609D01*
X218213Y15399054D01*
X159435Y15361279D01*
X89566Y15361279D01*
X30787Y15399053D01*
X1762Y15462609D01*
X500Y15480256D01*
X500Y17510249D01*
X20185Y17577288D01*
X72989Y17623043D01*
X142147Y17632987D01*
X205703Y17603962D01*
G37*
%TD.AperFunction*%
%TA.AperFunction,NonConductor*%
G36*
X205703Y13824129D02*
G01*
X243477Y13765351D01*
X247789Y13743672D01*
X250229Y13720978D01*
X250232Y13720951D01*
X258885Y13667555D01*
X258885Y13667553D01*
X309166Y13532748D01*
X309168Y13532743D01*
X342653Y13471420D01*
X428877Y13356239D01*
X428880Y13356236D01*
X428885Y13356230D01*
X463680Y13321436D01*
X497166Y13260114D01*
X500000Y13233754D01*
X500000Y712600D01*
X480315Y645561D01*
X427511Y599806D01*
X358353Y589862D01*
X294797Y618887D01*
X276735Y638287D01*
X272894Y643418D01*
X266432Y652050D01*
X259974Y661567D01*
X203898Y753074D01*
X200807Y758412D01*
X153394Y845242D01*
X147668Y857211D01*
X105794Y958304D01*
X104236Y962265D01*
X70365Y1053075D01*
X65983Y1067430D01*
X39192Y1179021D01*
X38625Y1181500D01*
X19168Y1270946D01*
X16719Y1287551D01*
X5488Y1430260D01*
X5487Y1430266D01*
X816Y1495583D01*
X500Y1504427D01*
X500Y13730416D01*
X20185Y13797455D01*
X72989Y13843210D01*
X142147Y13853154D01*
X205703Y13824129D01*
G37*
%TD.AperFunction*%
%TA.AperFunction,NonConductor*%
G36*
X68354438Y480315D02*
G01*
X68400193Y427511D01*
X68410137Y358353D01*
X68381112Y294797D01*
X68361707Y276731D01*
X68347951Y266434D01*
X68338433Y259976D01*
X68246926Y203900D01*
X68241562Y200794D01*
X68154761Y153398D01*
X68142789Y147670D01*
X68041784Y105831D01*
X68037663Y104210D01*
X67946942Y70373D01*
X67932556Y65981D01*
X67821012Y39202D01*
X67818423Y38610D01*
X67729067Y19172D01*
X67712438Y16720D01*
X67570064Y5515D01*
X67569183Y5449D01*
X67513010Y1431D01*
X67504416Y816D01*
X67495572Y500D01*
X36488087Y500D01*
X36421048Y20185D01*
X36375293Y72989D01*
X36364559Y135307D01*
X36366247Y154608D01*
X36370500Y203216D01*
X36370500Y376000D01*
X36390185Y443039D01*
X36442989Y488794D01*
X36494500Y500000D01*
X68287399Y500000D01*
X68354438Y480315D01*
G37*
%TD.AperFunction*%
%TA.AperFunction,Conductor*%
%TO.N,GND*%
G36*
X48005801Y14438687D02*
G01*
X48061735Y14396816D01*
X48086152Y14331351D01*
X48080174Y14283502D01*
X48035144Y14147609D01*
X48025000Y14048323D01*
X48025000Y14025000D01*
X49126000Y14025000D01*
X49193039Y14005315D01*
X49238794Y13952511D01*
X49250000Y13901000D01*
X49250000Y13649000D01*
X49230315Y13581961D01*
X49177511Y13536206D01*
X49126000Y13525000D01*
X48025001Y13525000D01*
X48025001Y13501678D01*
X48035144Y13402393D01*
X48088452Y13241519D01*
X48091507Y13234968D01*
X48089015Y13233807D01*
X48104109Y13178624D01*
X48083179Y13111963D01*
X48029532Y13067199D01*
X47996317Y13057994D01*
X47855455Y13039448D01*
X47855454Y13039448D01*
X47720759Y12983656D01*
X47609786Y12898503D01*
X47544617Y12873309D01*
X47476172Y12887348D01*
X47426182Y12936162D01*
X47410300Y12996879D01*
X47410300Y13894336D01*
X47429985Y13961375D01*
X47446619Y13982017D01*
X47659102Y14194500D01*
X47874790Y14410188D01*
X47936110Y14443671D01*
X48005801Y14438687D01*
G37*
%TD.AperFunction*%
%TA.AperFunction,Conductor*%
G36*
X67937539Y34974815D02*
G01*
X67983294Y34922011D01*
X67994500Y34870500D01*
X67994500Y28579500D01*
X67974815Y28512461D01*
X67922011Y28466706D01*
X67870500Y28455500D01*
X61522219Y28455500D01*
X61455180Y28475185D01*
X61409425Y28527989D01*
X61399481Y28597147D01*
X61407451Y28623902D01*
X61407086Y28624023D01*
X61464505Y28797303D01*
X61464506Y28797310D01*
X61474999Y28900014D01*
X61475000Y28900027D01*
X61475000Y28950000D01*
X55025001Y28950000D01*
X55025001Y28900014D01*
X55035494Y28797303D01*
X55092914Y28624023D01*
X55091436Y28623534D01*
X55100654Y28562817D01*
X55072129Y28499036D01*
X55013649Y28460801D01*
X54977781Y28455500D01*
X54801361Y28455500D01*
X54779381Y28454322D01*
X54753034Y28451489D01*
X54753032Y28451488D01*
X54676521Y28427530D01*
X54676516Y28427529D01*
X54623770Y28398727D01*
X54620935Y28397178D01*
X54615188Y28394040D01*
X54568384Y28359002D01*
X54568363Y28358984D01*
X54391013Y28181635D01*
X54391012Y28181634D01*
X54376325Y28165284D01*
X54376313Y28165270D01*
X54359672Y28144621D01*
X54322509Y28073576D01*
X54302826Y28006544D01*
X54302825Y28006536D01*
X54295480Y27955448D01*
X54294500Y27948635D01*
X54294500Y26301362D01*
X54295678Y26279382D01*
X54298511Y26253035D01*
X54298512Y26253033D01*
X54307232Y26225185D01*
X54322166Y26177491D01*
X54322470Y26176522D01*
X54322471Y26176517D01*
X54336872Y26150145D01*
X54355956Y26115195D01*
X54355958Y26115192D01*
X54355960Y26115189D01*
X54390998Y26068385D01*
X54391002Y26068381D01*
X54391009Y26068371D01*
X54391016Y26068364D01*
X54568365Y25891014D01*
X54568366Y25891013D01*
X54584716Y25876326D01*
X54584730Y25876314D01*
X54584738Y25876307D01*
X54585272Y25875877D01*
X54605379Y25859673D01*
X54676424Y25822510D01*
X54743456Y25802827D01*
X54743458Y25802827D01*
X54743464Y25802825D01*
X54801362Y25794500D01*
X62863518Y25794500D01*
X62930557Y25774815D01*
X62951199Y25758181D01*
X63008181Y25701199D01*
X63041666Y25639876D01*
X63044500Y25613518D01*
X63044500Y20551362D01*
X63045678Y20529382D01*
X63048511Y20503035D01*
X63048512Y20503033D01*
X63065586Y20448506D01*
X63071343Y20430119D01*
X63072470Y20426522D01*
X63072471Y20426517D01*
X63082346Y20408433D01*
X63105956Y20365195D01*
X63105958Y20365192D01*
X63105960Y20365189D01*
X63140998Y20318385D01*
X63141002Y20318381D01*
X63141009Y20318371D01*
X63141013Y20318367D01*
X63141016Y20318364D01*
X63318365Y20141014D01*
X63318366Y20141013D01*
X63334716Y20126326D01*
X63334730Y20126314D01*
X63334738Y20126307D01*
X63343136Y20119540D01*
X63355379Y20109673D01*
X63426424Y20072510D01*
X63493456Y20052827D01*
X63493458Y20052827D01*
X63493464Y20052825D01*
X63551362Y20044500D01*
X63551366Y20044500D01*
X67870500Y20044500D01*
X67937539Y20024815D01*
X67983294Y19972011D01*
X67994500Y19920500D01*
X67994500Y17567587D01*
X67974815Y17500548D01*
X67922011Y17454793D01*
X67852853Y17444849D01*
X67789297Y17473874D01*
X67759288Y17512743D01*
X67702741Y17627407D01*
X67702734Y17627420D01*
X67538876Y17872650D01*
X67509593Y17906042D01*
X66448528Y16844978D01*
X66359754Y16986262D01*
X66236262Y17109754D01*
X66094976Y17198530D01*
X67156040Y18259595D01*
X67122649Y18288877D01*
X66877419Y18452735D01*
X66877406Y18452742D01*
X66612888Y18583188D01*
X66333599Y18677995D01*
X66333584Y18677999D01*
X66044324Y18735536D01*
X66044312Y18735538D01*
X65750000Y18754828D01*
X65455687Y18735538D01*
X65455675Y18735536D01*
X65166415Y18677999D01*
X65166400Y18677995D01*
X64887111Y18583188D01*
X64622593Y18452742D01*
X64622580Y18452735D01*
X64377346Y18288874D01*
X64377339Y18288869D01*
X64343959Y18259597D01*
X64343959Y18259595D01*
X65405024Y17198530D01*
X65263738Y17109754D01*
X65140246Y16986262D01*
X65051470Y16844977D01*
X63990405Y17906041D01*
X63990403Y17906041D01*
X63961131Y17872661D01*
X63961126Y17872654D01*
X63797265Y17627420D01*
X63797258Y17627407D01*
X63666812Y17362889D01*
X63572005Y17083600D01*
X63572001Y17083585D01*
X63514464Y16794325D01*
X63514462Y16794313D01*
X63495172Y16500000D01*
X63514462Y16205688D01*
X63514464Y16205676D01*
X63572001Y15916416D01*
X63572005Y15916401D01*
X63666812Y15637112D01*
X63797258Y15372594D01*
X63797265Y15372581D01*
X63961123Y15127351D01*
X63990405Y15093960D01*
X65051470Y16155025D01*
X65140246Y16013738D01*
X65263738Y15890246D01*
X65405023Y15801471D01*
X64343958Y14740407D01*
X64377350Y14711124D01*
X64622580Y14547266D01*
X64622593Y14547259D01*
X64887111Y14416813D01*
X65166400Y14322006D01*
X65166415Y14322002D01*
X65455675Y14264465D01*
X65455687Y14264463D01*
X65750000Y14245173D01*
X66044312Y14264463D01*
X66044324Y14264465D01*
X66333584Y14322002D01*
X66333599Y14322006D01*
X66612888Y14416813D01*
X66877406Y14547259D01*
X66877419Y14547266D01*
X67122648Y14711123D01*
X67156039Y14740407D01*
X66094976Y15801471D01*
X66236262Y15890246D01*
X66359754Y16013738D01*
X66448529Y16155024D01*
X67509593Y15093961D01*
X67538877Y15127352D01*
X67702734Y15372581D01*
X67702741Y15372594D01*
X67759288Y15487258D01*
X67806593Y15538677D01*
X67874188Y15556359D01*
X67940613Y15534689D01*
X67984777Y15480548D01*
X67994500Y15432414D01*
X67994500Y1129500D01*
X67974815Y1062461D01*
X67922011Y1016706D01*
X67870500Y1005500D01*
X61892235Y1005500D01*
X61825196Y1025185D01*
X61779441Y1077989D01*
X61769497Y1147147D01*
X61798522Y1210703D01*
X61856238Y1248161D01*
X61943954Y1274768D01*
X62126450Y1372315D01*
X62286410Y1503590D01*
X62417685Y1663550D01*
X62515232Y1846046D01*
X62575300Y2044066D01*
X62595583Y2250000D01*
X62575300Y2455934D01*
X62515232Y2653954D01*
X62417685Y2836450D01*
X62342897Y2927580D01*
X62286410Y2996411D01*
X62282037Y3000000D01*
X64394551Y3000000D01*
X64395389Y2989354D01*
X64402084Y2904286D01*
X64402466Y2894557D01*
X64402466Y2874266D01*
X64405638Y2854238D01*
X64406783Y2844571D01*
X64409547Y2809457D01*
X64414317Y2748852D01*
X64414317Y2748849D01*
X64414318Y2748847D01*
X64436728Y2655500D01*
X64438627Y2645954D01*
X64441802Y2625910D01*
X64448072Y2606610D01*
X64450714Y2597244D01*
X64473127Y2503886D01*
X64509866Y2415191D01*
X64513234Y2406063D01*
X64518194Y2390801D01*
X64519507Y2386760D01*
X64519508Y2386757D01*
X64519509Y2386756D01*
X64528716Y2368685D01*
X64532790Y2359847D01*
X64569532Y2271143D01*
X64619702Y2189272D01*
X64624456Y2180784D01*
X64627404Y2175000D01*
X64633666Y2162710D01*
X64633667Y2162709D01*
X64645587Y2146302D01*
X64650993Y2138210D01*
X64675132Y2098821D01*
X64701164Y2056341D01*
X64701168Y2056337D01*
X64701171Y2056332D01*
X64763512Y1983340D01*
X64769539Y1975696D01*
X64781468Y1959277D01*
X64795813Y1944932D01*
X64802422Y1937783D01*
X64864776Y1864776D01*
X64937790Y1802416D01*
X64944924Y1795821D01*
X64959276Y1781469D01*
X64975694Y1769541D01*
X64983327Y1763524D01*
X65056341Y1701164D01*
X65056343Y1701163D01*
X65056344Y1701162D01*
X65056345Y1701161D01*
X65138202Y1650999D01*
X65146295Y1645592D01*
X65162710Y1633666D01*
X65180798Y1624450D01*
X65189260Y1619711D01*
X65271141Y1569534D01*
X65271146Y1569532D01*
X65359843Y1532792D01*
X65368684Y1528717D01*
X65386760Y1519507D01*
X65406066Y1513234D01*
X65415166Y1509878D01*
X65503889Y1473127D01*
X65597247Y1450714D01*
X65606610Y1448073D01*
X65625910Y1441802D01*
X65625914Y1441801D01*
X65636176Y1440176D01*
X65645954Y1438628D01*
X65655477Y1436735D01*
X65748852Y1414317D01*
X65844591Y1406783D01*
X65854196Y1405646D01*
X65874271Y1402466D01*
X65874275Y1402466D01*
X65894557Y1402466D01*
X65904284Y1402085D01*
X66000000Y1394551D01*
X66095715Y1402085D01*
X66105443Y1402466D01*
X66125725Y1402466D01*
X66125729Y1402466D01*
X66145803Y1405646D01*
X66155408Y1406783D01*
X66251148Y1414317D01*
X66344527Y1436736D01*
X66354040Y1438627D01*
X66374090Y1441802D01*
X66393400Y1448077D01*
X66402745Y1450713D01*
X66470118Y1466887D01*
X66496096Y1473123D01*
X66496100Y1473125D01*
X66496111Y1473127D01*
X66584855Y1509887D01*
X66593921Y1513230D01*
X66613240Y1519507D01*
X66631341Y1528730D01*
X66640123Y1532779D01*
X66728859Y1569534D01*
X66810744Y1619714D01*
X66819193Y1624446D01*
X66837290Y1633666D01*
X66853714Y1645599D01*
X66861780Y1650989D01*
X66943659Y1701164D01*
X67016688Y1763538D01*
X67024282Y1769524D01*
X67040724Y1781469D01*
X67055083Y1795829D01*
X67062194Y1802404D01*
X67135224Y1864776D01*
X67197596Y1937806D01*
X67204171Y1944917D01*
X67218531Y1959276D01*
X67230476Y1975718D01*
X67236462Y1983312D01*
X67298836Y2056341D01*
X67349011Y2138220D01*
X67354401Y2146286D01*
X67366334Y2162710D01*
X67375554Y2180807D01*
X67380296Y2189272D01*
X67430466Y2271141D01*
X67467221Y2359877D01*
X67471270Y2368659D01*
X67480493Y2386760D01*
X67486770Y2406079D01*
X67490113Y2415145D01*
X67526873Y2503889D01*
X67527315Y2505727D01*
X67539705Y2557339D01*
X67549287Y2597255D01*
X67551926Y2606608D01*
X67558197Y2625907D01*
X67558199Y2625916D01*
X67558482Y2627704D01*
X67561373Y2645960D01*
X67563264Y2655473D01*
X67585683Y2748852D01*
X67593217Y2844589D01*
X67594355Y2854200D01*
X67597534Y2874271D01*
X67598119Y2904136D01*
X67598475Y2911401D01*
X67605449Y3000000D01*
X67598476Y3088598D01*
X67598119Y3095881D01*
X67597945Y3104732D01*
X67597534Y3125729D01*
X67594355Y3145801D01*
X67593216Y3155429D01*
X67585683Y3251148D01*
X67563265Y3344523D01*
X67561371Y3354054D01*
X67558199Y3374086D01*
X67558198Y3374090D01*
X67551927Y3393390D01*
X67549283Y3402764D01*
X67540852Y3437881D01*
X67526873Y3496111D01*
X67490122Y3584834D01*
X67486766Y3593934D01*
X67480493Y3613240D01*
X67471282Y3631318D01*
X67467208Y3640157D01*
X67430468Y3728854D01*
X67430466Y3728859D01*
X67380289Y3810740D01*
X67375547Y3819208D01*
X67366334Y3837290D01*
X67354408Y3853705D01*
X67349001Y3861798D01*
X67298839Y3943655D01*
X67298838Y3943656D01*
X67298837Y3943657D01*
X67298836Y3943659D01*
X67236476Y4016673D01*
X67230459Y4024306D01*
X67230458Y4024308D01*
X67218531Y4040724D01*
X67204173Y4055082D01*
X67197584Y4062210D01*
X67135224Y4135224D01*
X67111528Y4155462D01*
X67062217Y4197578D01*
X67055068Y4204187D01*
X67040723Y4218532D01*
X67024304Y4230461D01*
X67016660Y4236488D01*
X66943668Y4298829D01*
X66943663Y4298832D01*
X66943659Y4298836D01*
X66930127Y4307129D01*
X66861790Y4349007D01*
X66853698Y4354413D01*
X66837291Y4366333D01*
X66837292Y4366333D01*
X66837290Y4366334D01*
X66830364Y4369863D01*
X66819216Y4375544D01*
X66810728Y4380298D01*
X66728857Y4430468D01*
X66640153Y4467210D01*
X66631315Y4471284D01*
X66613244Y4480491D01*
X66613243Y4480492D01*
X66613240Y4480493D01*
X66607654Y4482308D01*
X66593937Y4486766D01*
X66584809Y4490134D01*
X66496114Y4526873D01*
X66402756Y4549286D01*
X66393390Y4551928D01*
X66374090Y4558198D01*
X66354046Y4561373D01*
X66344500Y4563272D01*
X66251152Y4585682D01*
X66251153Y4585682D01*
X66251151Y4585683D01*
X66251148Y4585683D01*
X66205531Y4589274D01*
X66155429Y4593217D01*
X66145762Y4594362D01*
X66125734Y4597534D01*
X66125729Y4597534D01*
X66105443Y4597534D01*
X66095715Y4597916D01*
X66000000Y4605449D01*
X65904284Y4597916D01*
X65894557Y4597534D01*
X65874272Y4597534D01*
X65874271Y4597534D01*
X65857612Y4594896D01*
X65854237Y4594361D01*
X65844571Y4593217D01*
X65748851Y4585683D01*
X65748844Y4585682D01*
X65655499Y4563272D01*
X65645953Y4561373D01*
X65625913Y4558199D01*
X65625904Y4558197D01*
X65606615Y4551929D01*
X65597244Y4549286D01*
X65503891Y4526875D01*
X65415185Y4490132D01*
X65406059Y4486765D01*
X65386757Y4480493D01*
X65368682Y4471284D01*
X65359851Y4467213D01*
X65271141Y4430466D01*
X65189275Y4380300D01*
X65180792Y4375549D01*
X65162716Y4366338D01*
X65162709Y4366333D01*
X65146298Y4354411D01*
X65138212Y4349009D01*
X65056339Y4298835D01*
X64983332Y4236482D01*
X64975692Y4230459D01*
X64959276Y4218532D01*
X64944918Y4204175D01*
X64937777Y4197575D01*
X64864775Y4135225D01*
X64802425Y4062223D01*
X64795825Y4055082D01*
X64781468Y4040724D01*
X64769541Y4024308D01*
X64763518Y4016668D01*
X64701165Y3943661D01*
X64650991Y3861788D01*
X64645589Y3853702D01*
X64633667Y3837291D01*
X64633662Y3837284D01*
X64624451Y3819208D01*
X64619700Y3810725D01*
X64569534Y3728859D01*
X64532787Y3640149D01*
X64528716Y3631318D01*
X64519507Y3613243D01*
X64513235Y3593941D01*
X64509868Y3584815D01*
X64473125Y3496109D01*
X64450714Y3402756D01*
X64448071Y3393385D01*
X64441803Y3374096D01*
X64441801Y3374087D01*
X64438627Y3354047D01*
X64436728Y3344501D01*
X64414318Y3251156D01*
X64414317Y3251149D01*
X64406783Y3155429D01*
X64405639Y3145763D01*
X64402466Y3125729D01*
X64402466Y3105445D01*
X64402084Y3095716D01*
X64394551Y3000000D01*
X62282037Y3000000D01*
X62165405Y3095716D01*
X62126450Y3127685D01*
X61943954Y3225232D01*
X61745934Y3285300D01*
X61745932Y3285301D01*
X61745934Y3285301D01*
X61540000Y3305583D01*
X61334067Y3285301D01*
X61136043Y3225231D01*
X61048114Y3178231D01*
X60953550Y3127685D01*
X60953548Y3127684D01*
X60953547Y3127683D01*
X60793589Y2996411D01*
X60662317Y2836453D01*
X60564767Y2653954D01*
X60544593Y2587448D01*
X60506296Y2529010D01*
X60442483Y2500553D01*
X60373416Y2511114D01*
X60321023Y2557339D01*
X60306158Y2591351D01*
X60273433Y2713484D01*
X60273429Y2713493D01*
X60173600Y2927578D01*
X60173599Y2927580D01*
X60038113Y3121074D01*
X60038108Y3121080D01*
X59871082Y3288106D01*
X59677578Y3423601D01*
X59463492Y3523430D01*
X59463486Y3523433D01*
X59250000Y3580636D01*
X59250000Y2685502D01*
X59142315Y2734680D01*
X59035763Y2750000D01*
X58964237Y2750000D01*
X58857685Y2734680D01*
X58750000Y2685502D01*
X58750000Y3580636D01*
X58749999Y3580636D01*
X58536513Y3523433D01*
X58536507Y3523430D01*
X58322422Y3423601D01*
X58322420Y3423600D01*
X58128926Y3288114D01*
X58128920Y3288109D01*
X57961891Y3121080D01*
X57961886Y3121074D01*
X57826400Y2927580D01*
X57826399Y2927578D01*
X57746882Y2757052D01*
X57700710Y2704613D01*
X57633516Y2685461D01*
X57566635Y2705677D01*
X57521300Y2758842D01*
X57510500Y2809457D01*
X57510500Y3119751D01*
X57510499Y3119753D01*
X57498868Y3178230D01*
X57498867Y3178231D01*
X57454552Y3244553D01*
X57388230Y3288868D01*
X57388229Y3288869D01*
X57329752Y3300500D01*
X57329748Y3300500D01*
X55590252Y3300500D01*
X55590247Y3300500D01*
X55531770Y3288869D01*
X55531769Y3288868D01*
X55465447Y3244553D01*
X55421132Y3178231D01*
X55421131Y3178230D01*
X55409500Y3119753D01*
X55409500Y1380248D01*
X55421131Y1321771D01*
X55421132Y1321770D01*
X55452539Y1274768D01*
X55465448Y1255448D01*
X55499639Y1232602D01*
X55544443Y1178989D01*
X55553150Y1109664D01*
X55522995Y1046637D01*
X55463551Y1009918D01*
X55430747Y1005500D01*
X36494000Y1005500D01*
X36426961Y1025185D01*
X36381206Y1077989D01*
X36370000Y1129500D01*
X36370000Y1316764D01*
X36369999Y1316767D01*
X36355141Y1486600D01*
X36355139Y1486611D01*
X36296269Y1706318D01*
X36296265Y1706327D01*
X36200134Y1912483D01*
X36069657Y2098821D01*
X35908820Y2259658D01*
X35722482Y2390135D01*
X35516328Y2486266D01*
X35320000Y2538873D01*
X35320000Y1326111D01*
X35295543Y1365610D01*
X35206038Y1433201D01*
X35098160Y1463895D01*
X34986479Y1453546D01*
X34886078Y1403552D01*
X34820000Y1331070D01*
X34820000Y2538873D01*
X34623671Y2486266D01*
X34417517Y2390135D01*
X34231179Y2259658D01*
X34070342Y2098821D01*
X33939865Y1912483D01*
X33843734Y1706327D01*
X33843730Y1706318D01*
X33784860Y1486611D01*
X33784858Y1486600D01*
X33770000Y1316767D01*
X33770000Y1010000D01*
X34770000Y1010000D01*
X34770000Y510000D01*
X33770000Y510000D01*
X33770000Y203236D01*
X33775943Y135308D01*
X33762176Y66808D01*
X33713561Y16624D01*
X33652415Y500D01*
X27847585Y500D01*
X27780546Y20185D01*
X27734791Y72989D01*
X27724057Y135308D01*
X27729999Y203236D01*
X27730000Y203236D01*
X27730000Y510000D01*
X26730000Y510000D01*
X26730000Y1010000D01*
X27730000Y1010000D01*
X27730000Y1316764D01*
X27729999Y1316767D01*
X27715141Y1486600D01*
X27715139Y1486611D01*
X27664661Y1675000D01*
X28525001Y1675000D01*
X28525001Y1668418D01*
X28531408Y1597898D01*
X28531409Y1597893D01*
X28581981Y1435604D01*
X28669927Y1290123D01*
X28790122Y1169928D01*
X28935604Y1081981D01*
X28935603Y1081981D01*
X29097894Y1031410D01*
X29097892Y1031410D01*
X29168418Y1025001D01*
X29249999Y1025002D01*
X29250000Y1025002D01*
X29250000Y1675000D01*
X29750000Y1675000D01*
X29750000Y1025001D01*
X29831581Y1025001D01*
X29902102Y1031409D01*
X29902107Y1031410D01*
X30064396Y1081982D01*
X30209877Y1169928D01*
X30330072Y1290123D01*
X30418019Y1435605D01*
X30468590Y1597894D01*
X30475000Y1668428D01*
X30475000Y1675000D01*
X31525001Y1675000D01*
X31525001Y1668418D01*
X31531408Y1597898D01*
X31531409Y1597893D01*
X31581981Y1435604D01*
X31669927Y1290123D01*
X31790122Y1169928D01*
X31935604Y1081981D01*
X31935603Y1081981D01*
X32097894Y1031410D01*
X32097892Y1031410D01*
X32168418Y1025001D01*
X32249999Y1025002D01*
X32250000Y1025002D01*
X32250000Y1675000D01*
X32750000Y1675000D01*
X32750000Y1025001D01*
X32831581Y1025001D01*
X32902102Y1031409D01*
X32902107Y1031410D01*
X33064396Y1081982D01*
X33209877Y1169928D01*
X33330072Y1290123D01*
X33418019Y1435605D01*
X33468590Y1597894D01*
X33475000Y1668428D01*
X33475000Y1675000D01*
X32750000Y1675000D01*
X32250000Y1675000D01*
X31525001Y1675000D01*
X30475000Y1675000D01*
X29750000Y1675000D01*
X29250000Y1675000D01*
X28525001Y1675000D01*
X27664661Y1675000D01*
X27656269Y1706318D01*
X27656265Y1706327D01*
X27560134Y1912483D01*
X27429657Y2098821D01*
X27353478Y2175000D01*
X28525000Y2175000D01*
X30474999Y2175000D01*
X31525000Y2175000D01*
X33474999Y2175000D01*
X33474999Y2181583D01*
X33468591Y2252103D01*
X33468590Y2252108D01*
X33418018Y2414397D01*
X33330072Y2559878D01*
X33209877Y2680073D01*
X33094204Y2750000D01*
X37191522Y2750000D01*
X37207859Y2625907D01*
X37210552Y2605456D01*
X37210552Y2605455D01*
X37266344Y2470760D01*
X37308984Y2415191D01*
X37355096Y2355096D01*
X37398373Y2321889D01*
X37470759Y2266345D01*
X37470760Y2266345D01*
X37470761Y2266344D01*
X37605455Y2210552D01*
X37722823Y2195100D01*
X37749999Y2191522D01*
X37750000Y2191522D01*
X37750001Y2191522D01*
X37765064Y2193506D01*
X37894545Y2210552D01*
X37948684Y2232978D01*
X38018151Y2240446D01*
X38080630Y2209171D01*
X38113176Y2159372D01*
X38126145Y2122310D01*
X38147207Y2062118D01*
X38227850Y1952850D01*
X38337118Y1872207D01*
X38346332Y1868983D01*
X38465299Y1827354D01*
X38495730Y1824500D01*
X38495734Y1824500D01*
X39104270Y1824500D01*
X39134699Y1827354D01*
X39134701Y1827354D01*
X39198790Y1849781D01*
X39262882Y1872207D01*
X39372150Y1952850D01*
X39452793Y2062118D01*
X39475158Y2126036D01*
X39515877Y2182808D01*
X39580830Y2208556D01*
X39649392Y2195100D01*
X39699795Y2146713D01*
X39709904Y2124083D01*
X39765642Y1955879D01*
X39765643Y1955876D01*
X39857684Y1806655D01*
X39981654Y1682685D01*
X40130875Y1590644D01*
X40130880Y1590642D01*
X40297302Y1535495D01*
X40297309Y1535494D01*
X40400019Y1525001D01*
X40449999Y1525002D01*
X40450000Y1525002D01*
X40450000Y2500000D01*
X40950000Y2500000D01*
X40950000Y1525001D01*
X40999972Y1525001D01*
X40999986Y1525002D01*
X41102697Y1535495D01*
X41269119Y1590642D01*
X41269124Y1590644D01*
X41418345Y1682685D01*
X41542315Y1806655D01*
X41634356Y1955876D01*
X41634358Y1955881D01*
X41689505Y2122303D01*
X41689506Y2122310D01*
X41699999Y2225014D01*
X41700000Y2225027D01*
X41700000Y2500000D01*
X40950000Y2500000D01*
X40450000Y2500000D01*
X40450000Y3975000D01*
X40950000Y3975000D01*
X40950000Y3000000D01*
X41699999Y3000000D01*
X41699999Y3274972D01*
X41699998Y3274987D01*
X41689505Y3377698D01*
X41634358Y3544120D01*
X41634356Y3544125D01*
X41569051Y3650000D01*
X42295000Y3650000D01*
X42295000Y3184351D01*
X42297899Y3147511D01*
X42297900Y3147505D01*
X42343716Y2989807D01*
X42343717Y2989804D01*
X42427314Y2848448D01*
X42427321Y2848439D01*
X42543438Y2732322D01*
X42543447Y2732315D01*
X42684801Y2648719D01*
X42842514Y2602900D01*
X42842511Y2602900D01*
X42844998Y2602705D01*
X42845000Y2602705D01*
X42845000Y3650000D01*
X42295000Y3650000D01*
X41569051Y3650000D01*
X41542315Y3693346D01*
X41418345Y3817316D01*
X41269124Y3909357D01*
X41269119Y3909359D01*
X41102697Y3964506D01*
X41102690Y3964507D01*
X40999986Y3975000D01*
X40950000Y3975000D01*
X40450000Y3975000D01*
X40449999Y3975001D01*
X40400029Y3975000D01*
X40400011Y3974999D01*
X40297302Y3964506D01*
X40130880Y3909359D01*
X40130875Y3909357D01*
X39981654Y3817316D01*
X39857684Y3693346D01*
X39765643Y3544125D01*
X39765641Y3544120D01*
X39709905Y3375918D01*
X39670132Y3318473D01*
X39605617Y3291650D01*
X39536841Y3303965D01*
X39485641Y3351508D01*
X39475158Y3373967D01*
X39452793Y3437881D01*
X39452792Y3437883D01*
X39372150Y3547150D01*
X39262882Y3627793D01*
X39262880Y3627794D01*
X39134700Y3672647D01*
X39104270Y3675500D01*
X39104266Y3675500D01*
X38495734Y3675500D01*
X38495730Y3675500D01*
X38465300Y3672647D01*
X38465298Y3672647D01*
X38337119Y3627794D01*
X38337117Y3627793D01*
X38227850Y3547150D01*
X38147207Y3437883D01*
X38113176Y3340629D01*
X38072454Y3283854D01*
X38007501Y3258107D01*
X37948683Y3267024D01*
X37894548Y3289447D01*
X37894546Y3289448D01*
X37894545Y3289448D01*
X37810598Y3300500D01*
X37750001Y3308478D01*
X37749999Y3308478D01*
X37605455Y3289448D01*
X37605454Y3289448D01*
X37470759Y3233656D01*
X37355096Y3144904D01*
X37266344Y3029241D01*
X37210552Y2894546D01*
X37210552Y2894545D01*
X37202904Y2836450D01*
X37191522Y2750000D01*
X33094204Y2750000D01*
X33064395Y2768020D01*
X33064396Y2768020D01*
X32983791Y2793137D01*
X32925643Y2831874D01*
X32897669Y2895900D01*
X32908751Y2964885D01*
X32955369Y3016928D01*
X32964369Y3021998D01*
X33013342Y3046950D01*
X33103050Y3136658D01*
X33160646Y3249696D01*
X33160646Y3249698D01*
X33160647Y3249699D01*
X33174846Y3339354D01*
X33175500Y3343481D01*
X33175499Y3806518D01*
X33160646Y3900304D01*
X33103050Y4013342D01*
X33103046Y4013346D01*
X33103045Y4013348D01*
X33013347Y4103046D01*
X33013344Y4103048D01*
X33013342Y4103050D01*
X32921198Y4150000D01*
X32900301Y4160648D01*
X32806524Y4175500D01*
X32193482Y4175500D01*
X32112519Y4162677D01*
X32099696Y4160646D01*
X31986658Y4103050D01*
X31986657Y4103049D01*
X31986652Y4103046D01*
X31896954Y4013348D01*
X31896951Y4013343D01*
X31896950Y4013342D01*
X31877751Y3975663D01*
X31839352Y3900302D01*
X31824500Y3806525D01*
X31824500Y3343483D01*
X31833150Y3288869D01*
X31839354Y3249696D01*
X31896950Y3136658D01*
X31896952Y3136656D01*
X31896954Y3136653D01*
X31986652Y3046955D01*
X31986654Y3046954D01*
X31986658Y3046950D01*
X32035612Y3022007D01*
X32086408Y2974032D01*
X32103203Y2906211D01*
X32080665Y2840076D01*
X32025950Y2796625D01*
X32016208Y2793137D01*
X31935603Y2768019D01*
X31790122Y2680073D01*
X31669927Y2559878D01*
X31581980Y2414396D01*
X31531409Y2252107D01*
X31525000Y2181573D01*
X31525000Y2175000D01*
X30474999Y2175000D01*
X30474999Y2181583D01*
X30468591Y2252103D01*
X30468590Y2252108D01*
X30418018Y2414397D01*
X30330072Y2559878D01*
X30209877Y2680073D01*
X30064395Y2768020D01*
X30064396Y2768020D01*
X29983791Y2793137D01*
X29925643Y2831874D01*
X29897669Y2895900D01*
X29908751Y2964885D01*
X29955369Y3016928D01*
X29964369Y3021998D01*
X30013342Y3046950D01*
X30103050Y3136658D01*
X30160646Y3249696D01*
X30160646Y3249698D01*
X30160647Y3249699D01*
X30174846Y3339354D01*
X30175500Y3343481D01*
X30175499Y3806518D01*
X30160646Y3900304D01*
X30103050Y4013342D01*
X30103046Y4013346D01*
X30103045Y4013348D01*
X30013347Y4103046D01*
X30013344Y4103048D01*
X30013342Y4103050D01*
X29921198Y4150000D01*
X29900301Y4160648D01*
X29806524Y4175500D01*
X29193482Y4175500D01*
X29112519Y4162677D01*
X29099696Y4160646D01*
X28986658Y4103050D01*
X28986657Y4103049D01*
X28986652Y4103046D01*
X28896954Y4013348D01*
X28896951Y4013343D01*
X28896950Y4013342D01*
X28877751Y3975663D01*
X28839352Y3900302D01*
X28824500Y3806525D01*
X28824500Y3343483D01*
X28833150Y3288869D01*
X28839354Y3249696D01*
X28896950Y3136658D01*
X28896952Y3136656D01*
X28896954Y3136653D01*
X28986652Y3046955D01*
X28986654Y3046954D01*
X28986658Y3046950D01*
X29035612Y3022007D01*
X29086408Y2974032D01*
X29103203Y2906211D01*
X29080665Y2840076D01*
X29025950Y2796625D01*
X29016208Y2793137D01*
X28935603Y2768019D01*
X28790122Y2680073D01*
X28669927Y2559878D01*
X28581980Y2414396D01*
X28531409Y2252107D01*
X28525000Y2181573D01*
X28525000Y2175000D01*
X27353478Y2175000D01*
X27268820Y2259658D01*
X27082482Y2390135D01*
X26876328Y2486266D01*
X26680000Y2538873D01*
X26680000Y1326111D01*
X26655543Y1365610D01*
X26566038Y1433201D01*
X26458160Y1463895D01*
X26346479Y1453546D01*
X26246078Y1403552D01*
X26180000Y1331070D01*
X26180000Y2538873D01*
X25983671Y2486266D01*
X25777517Y2390135D01*
X25591179Y2259658D01*
X25430342Y2098821D01*
X25299865Y1912483D01*
X25203734Y1706327D01*
X25203730Y1706318D01*
X25144860Y1486611D01*
X25144858Y1486600D01*
X25130000Y1316767D01*
X25130000Y1129500D01*
X25110315Y1062461D01*
X25057511Y1016706D01*
X25006000Y1005500D01*
X1129500Y1005500D01*
X1062461Y1025185D01*
X1016706Y1077989D01*
X1005500Y1129500D01*
X1005500Y3000000D01*
X1394551Y3000000D01*
X1395389Y2989354D01*
X1402084Y2904286D01*
X1402466Y2894557D01*
X1402466Y2874266D01*
X1405638Y2854238D01*
X1406783Y2844571D01*
X1409547Y2809457D01*
X1414317Y2748852D01*
X1414317Y2748849D01*
X1414318Y2748847D01*
X1436728Y2655500D01*
X1438627Y2645954D01*
X1441802Y2625910D01*
X1448072Y2606610D01*
X1450714Y2597244D01*
X1473127Y2503886D01*
X1509866Y2415191D01*
X1513234Y2406063D01*
X1518194Y2390801D01*
X1519507Y2386760D01*
X1519508Y2386757D01*
X1519509Y2386756D01*
X1528716Y2368685D01*
X1532790Y2359847D01*
X1569532Y2271143D01*
X1619702Y2189272D01*
X1624456Y2180784D01*
X1627404Y2175000D01*
X1633666Y2162710D01*
X1633667Y2162709D01*
X1645587Y2146302D01*
X1650993Y2138210D01*
X1675132Y2098821D01*
X1701164Y2056341D01*
X1701168Y2056337D01*
X1701171Y2056332D01*
X1763512Y1983340D01*
X1769539Y1975696D01*
X1781468Y1959277D01*
X1795813Y1944932D01*
X1802422Y1937783D01*
X1864776Y1864776D01*
X1937790Y1802416D01*
X1944924Y1795821D01*
X1959276Y1781469D01*
X1975694Y1769541D01*
X1983327Y1763524D01*
X2056341Y1701164D01*
X2056343Y1701163D01*
X2056344Y1701162D01*
X2056345Y1701161D01*
X2138202Y1650999D01*
X2146295Y1645592D01*
X2162710Y1633666D01*
X2180798Y1624450D01*
X2189260Y1619711D01*
X2271141Y1569534D01*
X2271146Y1569532D01*
X2359843Y1532792D01*
X2368684Y1528717D01*
X2386760Y1519507D01*
X2406066Y1513234D01*
X2415166Y1509878D01*
X2503889Y1473127D01*
X2597247Y1450714D01*
X2606610Y1448073D01*
X2625910Y1441802D01*
X2625914Y1441801D01*
X2636176Y1440176D01*
X2645954Y1438628D01*
X2655477Y1436735D01*
X2748852Y1414317D01*
X2844591Y1406783D01*
X2854196Y1405646D01*
X2874271Y1402466D01*
X2874275Y1402466D01*
X2894557Y1402466D01*
X2904284Y1402085D01*
X3000000Y1394551D01*
X3095715Y1402085D01*
X3105443Y1402466D01*
X3125725Y1402466D01*
X3125729Y1402466D01*
X3145803Y1405646D01*
X3155408Y1406783D01*
X3251148Y1414317D01*
X3344527Y1436736D01*
X3354040Y1438627D01*
X3374090Y1441802D01*
X3393400Y1448077D01*
X3402745Y1450713D01*
X3470118Y1466887D01*
X3496096Y1473123D01*
X3496100Y1473125D01*
X3496111Y1473127D01*
X3584855Y1509887D01*
X3593921Y1513230D01*
X3613240Y1519507D01*
X3631341Y1528730D01*
X3640123Y1532779D01*
X3728859Y1569534D01*
X3810744Y1619714D01*
X3819193Y1624446D01*
X3837290Y1633666D01*
X3853714Y1645599D01*
X3861780Y1650989D01*
X3943659Y1701164D01*
X4016688Y1763538D01*
X4024282Y1769524D01*
X4040724Y1781469D01*
X4055083Y1795829D01*
X4062194Y1802404D01*
X4135224Y1864776D01*
X4197596Y1937806D01*
X4204171Y1944917D01*
X4218531Y1959276D01*
X4230476Y1975718D01*
X4236462Y1983312D01*
X4298836Y2056341D01*
X4349011Y2138220D01*
X4354401Y2146286D01*
X4366334Y2162710D01*
X4375554Y2180807D01*
X4380296Y2189272D01*
X4430466Y2271141D01*
X4467221Y2359877D01*
X4471270Y2368659D01*
X4480493Y2386760D01*
X4486770Y2406079D01*
X4490113Y2415145D01*
X4526873Y2503889D01*
X4527315Y2505727D01*
X4539705Y2557339D01*
X4549287Y2597255D01*
X4551926Y2606608D01*
X4558197Y2625907D01*
X4558199Y2625916D01*
X4558482Y2627704D01*
X4561373Y2645960D01*
X4563264Y2655473D01*
X4585683Y2748852D01*
X4593217Y2844589D01*
X4594355Y2854200D01*
X4597534Y2874271D01*
X4598119Y2904136D01*
X4598475Y2911401D01*
X4605449Y3000000D01*
X4598476Y3088598D01*
X4598119Y3095881D01*
X4597945Y3104732D01*
X4597534Y3125729D01*
X4594355Y3145801D01*
X4593216Y3155429D01*
X4585683Y3251148D01*
X4563265Y3344523D01*
X4561371Y3354054D01*
X4558199Y3374086D01*
X4558198Y3374090D01*
X4551927Y3393390D01*
X4549283Y3402764D01*
X4540852Y3437881D01*
X4526873Y3496111D01*
X4490122Y3584834D01*
X4486766Y3593934D01*
X4480493Y3613240D01*
X4471282Y3631318D01*
X4467208Y3640157D01*
X4430468Y3728854D01*
X4430466Y3728859D01*
X4380289Y3810740D01*
X4375547Y3819208D01*
X4366334Y3837290D01*
X4354408Y3853705D01*
X4349001Y3861798D01*
X4298839Y3943655D01*
X4298838Y3943656D01*
X4298837Y3943657D01*
X4298836Y3943659D01*
X4236476Y4016673D01*
X4230459Y4024306D01*
X4230458Y4024308D01*
X4218531Y4040724D01*
X4204173Y4055082D01*
X4197584Y4062210D01*
X4135224Y4135224D01*
X4111528Y4155462D01*
X4062217Y4197578D01*
X4055068Y4204187D01*
X4040723Y4218532D01*
X4024304Y4230461D01*
X4016660Y4236488D01*
X3943668Y4298829D01*
X3943663Y4298832D01*
X3943659Y4298836D01*
X3930127Y4307129D01*
X3861790Y4349007D01*
X3853698Y4354413D01*
X3837291Y4366333D01*
X3837292Y4366333D01*
X3837290Y4366334D01*
X3830364Y4369863D01*
X3819216Y4375544D01*
X3810728Y4380298D01*
X3728857Y4430468D01*
X3640153Y4467210D01*
X3631315Y4471284D01*
X3613244Y4480491D01*
X3613243Y4480492D01*
X3613240Y4480493D01*
X3607654Y4482308D01*
X3593937Y4486766D01*
X3584809Y4490134D01*
X3496114Y4526873D01*
X3402756Y4549286D01*
X3393390Y4551928D01*
X3374090Y4558198D01*
X3354046Y4561373D01*
X3344500Y4563272D01*
X3251152Y4585682D01*
X3251153Y4585682D01*
X3251151Y4585683D01*
X3251148Y4585683D01*
X3205531Y4589274D01*
X3155429Y4593217D01*
X3145762Y4594362D01*
X3125734Y4597534D01*
X3125729Y4597534D01*
X3105443Y4597534D01*
X3095715Y4597916D01*
X3000000Y4605449D01*
X2904284Y4597916D01*
X2894557Y4597534D01*
X2874272Y4597534D01*
X2874271Y4597534D01*
X2857612Y4594896D01*
X2854237Y4594361D01*
X2844571Y4593217D01*
X2748851Y4585683D01*
X2748844Y4585682D01*
X2655499Y4563272D01*
X2645953Y4561373D01*
X2625913Y4558199D01*
X2625904Y4558197D01*
X2606615Y4551929D01*
X2597244Y4549286D01*
X2503891Y4526875D01*
X2415185Y4490132D01*
X2406059Y4486765D01*
X2386757Y4480493D01*
X2368682Y4471284D01*
X2359851Y4467213D01*
X2271141Y4430466D01*
X2189275Y4380300D01*
X2180792Y4375549D01*
X2162716Y4366338D01*
X2162709Y4366333D01*
X2146298Y4354411D01*
X2138212Y4349009D01*
X2056339Y4298835D01*
X1983332Y4236482D01*
X1975692Y4230459D01*
X1959276Y4218532D01*
X1944918Y4204175D01*
X1937777Y4197575D01*
X1864775Y4135225D01*
X1802425Y4062223D01*
X1795825Y4055082D01*
X1781468Y4040724D01*
X1769541Y4024308D01*
X1763518Y4016668D01*
X1701165Y3943661D01*
X1650991Y3861788D01*
X1645589Y3853702D01*
X1633667Y3837291D01*
X1633662Y3837284D01*
X1624451Y3819208D01*
X1619700Y3810725D01*
X1569534Y3728859D01*
X1532787Y3640149D01*
X1528716Y3631318D01*
X1519507Y3613243D01*
X1513235Y3593941D01*
X1509868Y3584815D01*
X1473125Y3496109D01*
X1450714Y3402756D01*
X1448071Y3393385D01*
X1441803Y3374096D01*
X1441801Y3374087D01*
X1438627Y3354047D01*
X1436728Y3344501D01*
X1414318Y3251156D01*
X1414317Y3251149D01*
X1406783Y3155429D01*
X1405639Y3145763D01*
X1402466Y3125729D01*
X1402466Y3105445D01*
X1402084Y3095716D01*
X1394551Y3000000D01*
X1005500Y3000000D01*
X1005500Y5370740D01*
X1314500Y5370740D01*
X1314501Y5370734D01*
X1317354Y5340300D01*
X1317354Y5340298D01*
X1317355Y5340297D01*
X1317355Y5340295D01*
X1362206Y5212118D01*
X1442849Y5102850D01*
X1485132Y5071644D01*
X1552117Y5022207D01*
X1594844Y5007256D01*
X1680298Y4977354D01*
X1687323Y4976696D01*
X1710733Y4974500D01*
X3869266Y4974501D01*
X3899700Y4977354D01*
X4027883Y5022207D01*
X4137150Y5102850D01*
X4217793Y5212117D01*
X4249570Y5302930D01*
X4262646Y5340298D01*
X4262646Y5340300D01*
X4265500Y5370730D01*
X4265500Y5719100D01*
X4285185Y5786139D01*
X4337989Y5831894D01*
X4389500Y5843100D01*
X9697252Y5843100D01*
X9764291Y5823415D01*
X9784933Y5806781D01*
X12486982Y3104732D01*
X12497676Y3092538D01*
X12517154Y3067154D01*
X12543478Y3046955D01*
X12545754Y3045209D01*
X12545774Y3045192D01*
X12609348Y2996411D01*
X12614682Y2992318D01*
X12643932Y2969874D01*
X12791567Y2908721D01*
X12910221Y2893100D01*
X12910223Y2893100D01*
X12950000Y2887863D01*
X12981720Y2892040D01*
X12997905Y2893100D01*
X21289772Y2893100D01*
X21289779Y2893100D01*
X21408433Y2908721D01*
X21556068Y2969874D01*
X21682846Y3067154D01*
X21780126Y3193931D01*
X21841279Y3341567D01*
X21862137Y3500000D01*
X21859052Y3523430D01*
X21841279Y3658432D01*
X21841279Y3658433D01*
X21780126Y3806068D01*
X21682846Y3932846D01*
X21556068Y4030126D01*
X21556065Y4030128D01*
X21420081Y4086454D01*
X21408433Y4091279D01*
X21393601Y4093232D01*
X21289786Y4106900D01*
X21289779Y4106900D01*
X13252748Y4106900D01*
X13185709Y4126585D01*
X13165067Y4143219D01*
X13033763Y4274523D01*
X25230000Y4274523D01*
X25245378Y4108561D01*
X25306240Y3894650D01*
X25405368Y3695575D01*
X25539391Y3518100D01*
X25703738Y3368279D01*
X25892820Y3251203D01*
X25892822Y3251202D01*
X26100195Y3170865D01*
X26180000Y3155948D01*
X26180000Y4213890D01*
X26204457Y4174390D01*
X26293962Y4106799D01*
X26401840Y4076105D01*
X26513521Y4086454D01*
X26613922Y4136448D01*
X26680000Y4208931D01*
X26680000Y3155948D01*
X26759804Y3170865D01*
X26967177Y3251202D01*
X26967179Y3251203D01*
X27156261Y3368279D01*
X27320608Y3518100D01*
X27454631Y3695575D01*
X27553760Y3894651D01*
X27572021Y3958833D01*
X27609300Y4017927D01*
X27672609Y4047485D01*
X27727837Y4043391D01*
X27795565Y4022500D01*
X27892038Y4022500D01*
X27892039Y4022500D01*
X27987431Y4036878D01*
X28103540Y4092793D01*
X28198008Y4180447D01*
X28262444Y4292052D01*
X28291120Y4417692D01*
X28288470Y4453049D01*
X28286278Y4482307D01*
X33208879Y4482307D01*
X33218509Y4353800D01*
X33265591Y4233836D01*
X33327251Y4156518D01*
X33344231Y4135225D01*
X33345943Y4133079D01*
X33355468Y4126585D01*
X33452419Y4060485D01*
X33575565Y4022500D01*
X33672038Y4022500D01*
X33672039Y4022500D01*
X33767431Y4036878D01*
X33767445Y4036885D01*
X33773475Y4038744D01*
X33843339Y4039698D01*
X33902627Y4002731D01*
X33929300Y3954189D01*
X33946240Y3894650D01*
X34045368Y3695575D01*
X34179391Y3518100D01*
X34343738Y3368279D01*
X34532820Y3251203D01*
X34532822Y3251202D01*
X34740195Y3170865D01*
X34820000Y3155948D01*
X34820000Y4213890D01*
X34844457Y4174390D01*
X34933962Y4106799D01*
X35041840Y4076105D01*
X35153521Y4086454D01*
X35253922Y4136448D01*
X35320000Y4208931D01*
X35320000Y3155948D01*
X35399804Y3170865D01*
X35607177Y3251202D01*
X35607179Y3251203D01*
X35796261Y3368279D01*
X35960608Y3518100D01*
X36094631Y3695575D01*
X36193759Y3894650D01*
X36254621Y4108561D01*
X36258461Y4150000D01*
X42295000Y4150000D01*
X42845000Y4150000D01*
X42845000Y5197297D01*
X42842503Y5197100D01*
X42684806Y5151284D01*
X42684803Y5151283D01*
X42543447Y5067686D01*
X42543438Y5067679D01*
X42427321Y4951562D01*
X42427314Y4951553D01*
X42343717Y4810197D01*
X42343716Y4810194D01*
X42297900Y4652496D01*
X42297899Y4652490D01*
X42295000Y4615650D01*
X42295000Y4150000D01*
X36258461Y4150000D01*
X36270000Y4274523D01*
X36270000Y4680000D01*
X35370000Y4680000D01*
X35370000Y5180000D01*
X36270000Y5180000D01*
X36270000Y5585478D01*
X36254621Y5751440D01*
X36193759Y5965351D01*
X36094631Y6164426D01*
X35960608Y6341901D01*
X35796261Y6491722D01*
X35607179Y6608798D01*
X35607177Y6608799D01*
X35399799Y6689136D01*
X35320000Y6704054D01*
X35320000Y5646111D01*
X35295543Y5685610D01*
X35206038Y5753201D01*
X35098160Y5783895D01*
X34986479Y5773546D01*
X34886078Y5723552D01*
X34820000Y5651070D01*
X34820000Y6704054D01*
X34740200Y6689136D01*
X34532822Y6608799D01*
X34532820Y6608798D01*
X34343738Y6491722D01*
X34179391Y6341901D01*
X34045368Y6164426D01*
X33946240Y5965351D01*
X33885378Y5751440D01*
X33870000Y5585478D01*
X33870000Y5180000D01*
X34770000Y5180000D01*
X34770000Y4680000D01*
X34063089Y4680000D01*
X33996050Y4699685D01*
X33966141Y4726689D01*
X33934060Y4766918D01*
X33934057Y4766921D01*
X33827581Y4839515D01*
X33827579Y4839516D01*
X33704436Y4877500D01*
X33704435Y4877500D01*
X33607961Y4877500D01*
X33607955Y4877500D01*
X33512569Y4863122D01*
X33396458Y4807207D01*
X33301992Y4719554D01*
X33301989Y4719549D01*
X33237557Y4607951D01*
X33237556Y4607948D01*
X33208880Y4482308D01*
X33208879Y4482307D01*
X28286278Y4482307D01*
X28281490Y4546201D01*
X28280279Y4549286D01*
X28257255Y4607951D01*
X28234408Y4666165D01*
X28162379Y4756486D01*
X28154058Y4766920D01*
X28154057Y4766921D01*
X28154056Y4766922D01*
X28047581Y4839515D01*
X28047579Y4839516D01*
X27924436Y4877500D01*
X27924435Y4877500D01*
X27827961Y4877500D01*
X27827955Y4877500D01*
X27732569Y4863122D01*
X27616458Y4807207D01*
X27515181Y4713233D01*
X27512526Y4716094D01*
X27470751Y4686634D01*
X27430735Y4680000D01*
X26730000Y4680000D01*
X26730000Y5180000D01*
X27630000Y5180000D01*
X27630000Y5585478D01*
X27614621Y5751440D01*
X27553759Y5965351D01*
X27454631Y6164426D01*
X27320608Y6341901D01*
X27156261Y6491722D01*
X26967179Y6608798D01*
X26967177Y6608799D01*
X26759799Y6689136D01*
X26680000Y6704054D01*
X26680000Y5646111D01*
X26655543Y5685610D01*
X26566038Y5753201D01*
X26458160Y5783895D01*
X26346479Y5773546D01*
X26246078Y5723552D01*
X26180000Y5651070D01*
X26180000Y6704054D01*
X26100200Y6689136D01*
X25892822Y6608799D01*
X25892820Y6608798D01*
X25703738Y6491722D01*
X25539391Y6341901D01*
X25405368Y6164426D01*
X25306240Y5965351D01*
X25245378Y5751440D01*
X25230000Y5585478D01*
X25230000Y5180000D01*
X26130000Y5180000D01*
X26130000Y4680000D01*
X25230000Y4680000D01*
X25230000Y4274523D01*
X13033763Y4274523D01*
X10919986Y6388300D01*
X15058773Y6388300D01*
X15088499Y6143475D01*
X15088500Y6143471D01*
X15088501Y6143467D01*
X15130057Y6000001D01*
X15153423Y5919330D01*
X15157117Y5906579D01*
X15262843Y5683766D01*
X15334841Y5579458D01*
X15402943Y5480796D01*
X15402946Y5480792D01*
X15573782Y5302932D01*
X15770942Y5154776D01*
X15770944Y5154775D01*
X15770948Y5154772D01*
X15989323Y5040160D01*
X16223256Y4962062D01*
X16223261Y4962062D01*
X16223265Y4962060D01*
X16466684Y4922500D01*
X16466687Y4922500D01*
X16651542Y4922500D01*
X16651552Y4922500D01*
X16835825Y4937376D01*
X17075284Y4996397D01*
X17193948Y5046955D01*
X17302165Y5093062D01*
X17302165Y5093063D01*
X17302174Y5093066D01*
X17510619Y5224879D01*
X17695220Y5388421D01*
X17851197Y5579458D01*
X17974510Y5793042D01*
X18061964Y6023640D01*
X18111296Y6265281D01*
X18114930Y6355456D01*
X18121226Y6511699D01*
X18121226Y6511706D01*
X18092292Y6750000D01*
X37800001Y6750000D01*
X37800001Y6475029D01*
X37800002Y6475015D01*
X37810494Y6372303D01*
X37865641Y6205881D01*
X37865643Y6205876D01*
X37957684Y6056655D01*
X38081654Y5932685D01*
X38230875Y5840644D01*
X38230880Y5840642D01*
X38397302Y5785495D01*
X38397309Y5785494D01*
X38500019Y5775001D01*
X39050000Y5775001D01*
X39099972Y5775001D01*
X39099986Y5775002D01*
X39202697Y5785495D01*
X39369119Y5840642D01*
X39369124Y5840644D01*
X39518345Y5932685D01*
X39642315Y6056655D01*
X39734356Y6205876D01*
X39734359Y6205883D01*
X39790094Y6374082D01*
X39829866Y6431527D01*
X39894382Y6458351D01*
X39963158Y6446036D01*
X40014358Y6398494D01*
X40024841Y6376035D01*
X40047206Y6312120D01*
X40047207Y6312118D01*
X40127850Y6202850D01*
X40237118Y6122207D01*
X40279845Y6107256D01*
X40365299Y6077354D01*
X40395730Y6074500D01*
X40395734Y6074500D01*
X41004270Y6074500D01*
X41034699Y6077354D01*
X41034701Y6077354D01*
X41113984Y6105097D01*
X41162882Y6122207D01*
X41272150Y6202850D01*
X41352793Y6312118D01*
X41374971Y6375500D01*
X41387623Y6411655D01*
X41428345Y6468431D01*
X41493298Y6494178D01*
X41504664Y6494700D01*
X41870700Y6494700D01*
X41937739Y6475015D01*
X41983494Y6422211D01*
X41994700Y6370700D01*
X41994700Y6251651D01*
X41985261Y6204199D01*
X41960553Y6144549D01*
X41960552Y6144545D01*
X41943279Y6013342D01*
X41941522Y6000000D01*
X41954647Y5900304D01*
X41960552Y5855456D01*
X41960552Y5855455D01*
X42016344Y5720760D01*
X42043316Y5685610D01*
X42105096Y5605096D01*
X42180464Y5547265D01*
X42220759Y5516345D01*
X42220760Y5516345D01*
X42220761Y5516344D01*
X42355455Y5460552D01*
X42483183Y5443737D01*
X42499999Y5441522D01*
X42500000Y5441522D01*
X42500001Y5441522D01*
X42515064Y5443506D01*
X42644545Y5460552D01*
X42779239Y5516344D01*
X42894904Y5605096D01*
X42983656Y5720761D01*
X43039448Y5855455D01*
X43058478Y6000000D01*
X43039448Y6144545D01*
X43018344Y6195493D01*
X43010876Y6264960D01*
X43042151Y6327440D01*
X43045172Y6330571D01*
X43341414Y6626814D01*
X43347862Y6632818D01*
X43385807Y6665696D01*
X43388506Y6669897D01*
X43405133Y6690533D01*
X43632854Y6918252D01*
X43922983Y7208381D01*
X43984306Y7241866D01*
X44010664Y7244700D01*
X44101238Y7244700D01*
X44168277Y7225015D01*
X44214032Y7172211D01*
X44223976Y7103053D01*
X44215800Y7073251D01*
X44211197Y7062137D01*
X44200596Y7036546D01*
X44200596Y7036545D01*
X44181566Y6892002D01*
X44184674Y6868390D01*
X44173906Y6799355D01*
X44149415Y6764527D01*
X44147364Y6762476D01*
X44139390Y6755168D01*
X44110250Y6730717D01*
X44110248Y6730715D01*
X44091228Y6697772D01*
X44085420Y6688654D01*
X44063604Y6657497D01*
X44061473Y6652928D01*
X44054225Y6635428D01*
X44052501Y6630691D01*
X44045896Y6593236D01*
X44043557Y6582682D01*
X44033712Y6545940D01*
X44037028Y6508054D01*
X44037500Y6497245D01*
X44037500Y4940134D01*
X44017815Y4873095D01*
X43965011Y4827340D01*
X43895853Y4817396D01*
X43832297Y4846421D01*
X43806768Y4877013D01*
X43762685Y4951553D01*
X43762678Y4951562D01*
X43646561Y5067679D01*
X43646552Y5067686D01*
X43505196Y5151283D01*
X43505193Y5151284D01*
X43347494Y5197100D01*
X43347497Y5197100D01*
X43345000Y5197297D01*
X43345000Y2602705D01*
X43345001Y2602705D01*
X43347486Y2602900D01*
X43505198Y2648719D01*
X43646552Y2732315D01*
X43646561Y2732322D01*
X43762678Y2848439D01*
X43762687Y2848450D01*
X43814419Y2935925D01*
X43865487Y2983609D01*
X43934229Y2996113D01*
X43998818Y2969468D01*
X44008337Y2960930D01*
X44008513Y2960805D01*
X44008514Y2960805D01*
X44008517Y2960802D01*
X44113607Y2909427D01*
X44118453Y2908721D01*
X44181739Y2899500D01*
X44181740Y2899500D01*
X44548261Y2899500D01*
X44570971Y2902809D01*
X44616393Y2909427D01*
X44721483Y2960802D01*
X44804198Y3043517D01*
X44855573Y3148607D01*
X44865500Y3216740D01*
X44865500Y4583260D01*
X44863882Y4594362D01*
X44860536Y4617327D01*
X44855573Y4651393D01*
X44804198Y4756483D01*
X44804196Y4756485D01*
X44804196Y4756486D01*
X44728819Y4831863D01*
X44695334Y4893186D01*
X44692500Y4919544D01*
X44692500Y6218518D01*
X44712185Y6285557D01*
X44764989Y6331312D01*
X44800312Y6341457D01*
X44884589Y6352552D01*
X45019283Y6408344D01*
X45034172Y6419769D01*
X45099339Y6444964D01*
X45167784Y6430927D01*
X45208033Y6396882D01*
X45240096Y6355096D01*
X45258985Y6340603D01*
X45300188Y6284178D01*
X45307500Y6242226D01*
X45307500Y4919544D01*
X45287815Y4852505D01*
X45271181Y4831863D01*
X45195803Y4756486D01*
X45144426Y4651392D01*
X45134500Y4583261D01*
X45134500Y3216740D01*
X45144426Y3148609D01*
X45195803Y3043515D01*
X45278514Y2960804D01*
X45278515Y2960804D01*
X45278517Y2960802D01*
X45383607Y2909427D01*
X45388453Y2908721D01*
X45451739Y2899500D01*
X45451740Y2899500D01*
X45818261Y2899500D01*
X45840971Y2902809D01*
X45886393Y2909427D01*
X45991483Y2960802D01*
X46074198Y3043517D01*
X46125573Y3148607D01*
X46135500Y3216740D01*
X46404500Y3216740D01*
X46414426Y3148609D01*
X46465803Y3043515D01*
X46548514Y2960804D01*
X46548515Y2960804D01*
X46548517Y2960802D01*
X46653607Y2909427D01*
X46658453Y2908721D01*
X46721739Y2899500D01*
X46721740Y2899500D01*
X47088261Y2899500D01*
X47110971Y2902809D01*
X47156393Y2909427D01*
X47261483Y2960802D01*
X47344198Y3043517D01*
X47395573Y3148607D01*
X47405500Y3216740D01*
X47405500Y3372300D01*
X47425185Y3439339D01*
X47477989Y3485094D01*
X47529500Y3496300D01*
X48835945Y3496300D01*
X48902984Y3476615D01*
X48923626Y3459981D01*
X48986652Y3396955D01*
X48986654Y3396954D01*
X48986658Y3396950D01*
X49091606Y3343476D01*
X49099698Y3339353D01*
X49193475Y3324501D01*
X49193481Y3324500D01*
X49806518Y3324501D01*
X49900304Y3339354D01*
X50013342Y3396950D01*
X50103050Y3486658D01*
X50160646Y3599696D01*
X50160646Y3599698D01*
X50160647Y3599699D01*
X50175190Y3691522D01*
X50175500Y3693481D01*
X50175499Y4156518D01*
X50160646Y4250304D01*
X50103050Y4363342D01*
X50103046Y4363346D01*
X50103045Y4363348D01*
X50013347Y4453046D01*
X50013344Y4453048D01*
X50013342Y4453050D01*
X49936517Y4492195D01*
X49900301Y4510648D01*
X49806524Y4525500D01*
X49193482Y4525500D01*
X49112519Y4512677D01*
X49099696Y4510646D01*
X48986658Y4453050D01*
X48986657Y4453049D01*
X48986652Y4453046D01*
X48896954Y4363348D01*
X48891217Y4355450D01*
X48888116Y4357703D01*
X48853087Y4320611D01*
X48790574Y4303700D01*
X47529500Y4303700D01*
X47462461Y4323385D01*
X47416706Y4376189D01*
X47405500Y4427700D01*
X47405500Y4583261D01*
X47400536Y4617327D01*
X47395573Y4651393D01*
X47344198Y4756483D01*
X47344196Y4756485D01*
X47344196Y4756486D01*
X47268819Y4831863D01*
X47235334Y4893186D01*
X47232500Y4919544D01*
X47232500Y5343483D01*
X48824500Y5343483D01*
X48830923Y5302932D01*
X48839354Y5249696D01*
X48896950Y5136658D01*
X48896952Y5136656D01*
X48896954Y5136653D01*
X48986652Y5046955D01*
X48986654Y5046954D01*
X48986658Y5046950D01*
X49099694Y4989355D01*
X49099698Y4989353D01*
X49193475Y4974501D01*
X49193481Y4974500D01*
X49806518Y4974501D01*
X49900304Y4989354D01*
X50013342Y5046950D01*
X50013342Y5046951D01*
X50022038Y5051381D01*
X50022992Y5049507D01*
X50074733Y5068391D01*
X50088646Y5069386D01*
X50097472Y5069700D01*
X50111136Y5069700D01*
X50111138Y5069700D01*
X50124683Y5071649D01*
X50133445Y5072590D01*
X50161532Y5074599D01*
X50183508Y5076169D01*
X50183510Y5076170D01*
X50183514Y5076170D01*
X50188196Y5077917D01*
X50213884Y5084474D01*
X50218823Y5085183D01*
X50264486Y5106038D01*
X50272616Y5109406D01*
X50319655Y5126949D01*
X50323647Y5129939D01*
X50346453Y5143470D01*
X50350995Y5145543D01*
X50388932Y5178417D01*
X50395820Y5183966D01*
X50410300Y5194804D01*
X50411594Y5193075D01*
X50467187Y5218443D01*
X50484797Y5219700D01*
X50627190Y5219700D01*
X50694229Y5200015D01*
X50714872Y5183380D01*
X50746775Y5151476D01*
X50746778Y5151474D01*
X50746780Y5151472D01*
X50866874Y5090281D01*
X50866876Y5090281D01*
X50866878Y5090280D01*
X50966507Y5074500D01*
X50966512Y5074500D01*
X51533493Y5074500D01*
X51633121Y5090280D01*
X51633121Y5090281D01*
X51633126Y5090281D01*
X51753220Y5151472D01*
X51785128Y5183380D01*
X51846450Y5216866D01*
X51872810Y5219700D01*
X52127190Y5219700D01*
X52194229Y5200015D01*
X52214872Y5183380D01*
X52246775Y5151476D01*
X52246778Y5151474D01*
X52246780Y5151472D01*
X52366874Y5090281D01*
X52366876Y5090281D01*
X52366878Y5090280D01*
X52466507Y5074500D01*
X52466512Y5074500D01*
X53033493Y5074500D01*
X53133121Y5090280D01*
X53133121Y5090281D01*
X53133126Y5090281D01*
X53253220Y5151472D01*
X53285128Y5183380D01*
X53346450Y5216866D01*
X53372810Y5219700D01*
X53620700Y5219700D01*
X53687739Y5200015D01*
X53733494Y5147211D01*
X53744700Y5095700D01*
X53744700Y4567655D01*
X53741868Y4541303D01*
X53740804Y4536415D01*
X53744384Y4486375D01*
X53744700Y4477529D01*
X53744700Y4463859D01*
X53746644Y4450335D01*
X53747589Y4441545D01*
X53751170Y4391485D01*
X53752917Y4386802D01*
X53759471Y4361126D01*
X53760183Y4356177D01*
X53760183Y4356176D01*
X53760184Y4356174D01*
X53781021Y4310547D01*
X53784408Y4302372D01*
X53801948Y4255348D01*
X53801949Y4255345D01*
X53804940Y4251350D01*
X53818465Y4228554D01*
X53820541Y4224008D01*
X53820542Y4224006D01*
X53820543Y4224005D01*
X53853408Y4186076D01*
X53858953Y4179195D01*
X53867135Y4168265D01*
X53867142Y4168257D01*
X53867146Y4168252D01*
X53867153Y4168245D01*
X53876798Y4158600D01*
X53882830Y4152122D01*
X53897471Y4135225D01*
X53915696Y4114193D01*
X53919899Y4111492D01*
X53940538Y4094860D01*
X53964753Y4070645D01*
X53991633Y4030417D01*
X54016343Y3970762D01*
X54029060Y3954189D01*
X54105096Y3855096D01*
X54168405Y3806518D01*
X54220759Y3766345D01*
X54220760Y3766345D01*
X54220761Y3766344D01*
X54355455Y3710552D01*
X54483183Y3693737D01*
X54499999Y3691522D01*
X54500000Y3691522D01*
X54500001Y3691522D01*
X54515064Y3693506D01*
X54644545Y3710552D01*
X54779239Y3766344D01*
X54894904Y3855096D01*
X54983656Y3970761D01*
X55039448Y4105455D01*
X55058478Y4250000D01*
X55039448Y4394545D01*
X54983656Y4529239D01*
X54983655Y4529240D01*
X54983655Y4529241D01*
X54894905Y4644903D01*
X54886448Y4651392D01*
X54803813Y4714800D01*
X54762611Y4771228D01*
X54755300Y4813176D01*
X54755300Y5102190D01*
X54774985Y5169229D01*
X54791614Y5189867D01*
X54848528Y5246780D01*
X54909719Y5366874D01*
X54910330Y5370733D01*
X54925500Y5466507D01*
X54925500Y5983494D01*
X54909720Y6083122D01*
X54909719Y6083124D01*
X54909719Y6083126D01*
X54848528Y6203220D01*
X54848526Y6203222D01*
X54848523Y6203226D01*
X54829575Y6222174D01*
X54796090Y6283497D01*
X54801074Y6353189D01*
X54842946Y6409122D01*
X54852160Y6415394D01*
X54952731Y6477427D01*
X55072572Y6597268D01*
X55072575Y6597272D01*
X55161542Y6741508D01*
X55161547Y6741519D01*
X55214855Y6902394D01*
X55224999Y7001678D01*
X55225000Y7001691D01*
X55225000Y7025000D01*
X50275001Y7025000D01*
X50275001Y7001678D01*
X50285144Y6902393D01*
X50338452Y6741519D01*
X50338457Y6741508D01*
X50427424Y6597272D01*
X50427427Y6597268D01*
X50547267Y6477428D01*
X50547271Y6477425D01*
X50575783Y6459838D01*
X50622508Y6407890D01*
X50633729Y6338927D01*
X50605886Y6274845D01*
X50547817Y6235990D01*
X50510686Y6230300D01*
X50292653Y6230300D01*
X50266296Y6233134D01*
X50261421Y6234195D01*
X50261413Y6234195D01*
X50211374Y6230616D01*
X50202528Y6230300D01*
X50188858Y6230300D01*
X50175336Y6228356D01*
X50166546Y6227411D01*
X50116486Y6223830D01*
X50116483Y6223829D01*
X50111796Y6222081D01*
X50086120Y6215528D01*
X50081180Y6214818D01*
X50081173Y6214816D01*
X50035528Y6193972D01*
X50027358Y6190588D01*
X49972039Y6169953D01*
X49971426Y6171595D01*
X49913537Y6159010D01*
X49903003Y6160220D01*
X49806525Y6175500D01*
X49193482Y6175500D01*
X49112519Y6162677D01*
X49099696Y6160646D01*
X48986658Y6103050D01*
X48986657Y6103049D01*
X48986652Y6103046D01*
X48896954Y6013348D01*
X48896951Y6013343D01*
X48896950Y6013342D01*
X48890152Y6000000D01*
X48839352Y5900302D01*
X48824500Y5806525D01*
X48824500Y5343483D01*
X47232500Y5343483D01*
X47232500Y5919330D01*
X47252185Y5986369D01*
X47281014Y6017706D01*
X47288747Y6023640D01*
X47394904Y6105096D01*
X47483656Y6220761D01*
X47539448Y6355455D01*
X47558478Y6500000D01*
X47539448Y6644545D01*
X47483656Y6779239D01*
X47483655Y6779240D01*
X47483655Y6779241D01*
X47423632Y6857464D01*
X47394904Y6894904D01*
X47337071Y6939280D01*
X47279240Y6983656D01*
X47211892Y7011552D01*
X47144545Y7039448D01*
X47072272Y7048963D01*
X47000001Y7058478D01*
X46999999Y7058478D01*
X46855455Y7039448D01*
X46855454Y7039448D01*
X46720759Y6983656D01*
X46605096Y6894904D01*
X46516344Y6779241D01*
X46464024Y6652928D01*
X46460552Y6644545D01*
X46441522Y6500000D01*
X46453486Y6409122D01*
X46460552Y6355456D01*
X46460552Y6355455D01*
X46513765Y6226986D01*
X46516344Y6220761D01*
X46551876Y6174454D01*
X46577070Y6109287D01*
X46577500Y6098969D01*
X46577500Y4919544D01*
X46557815Y4852505D01*
X46541181Y4831863D01*
X46465803Y4756486D01*
X46414426Y4651392D01*
X46404500Y4583261D01*
X46404500Y3216740D01*
X46135500Y3216740D01*
X46135500Y4583260D01*
X46133882Y4594362D01*
X46130536Y4617327D01*
X46125573Y4651393D01*
X46074198Y4756483D01*
X46074196Y4756485D01*
X46074196Y4756486D01*
X45998819Y4831863D01*
X45965334Y4893186D01*
X45962500Y4919544D01*
X45962500Y6242226D01*
X45982185Y6309265D01*
X46011013Y6340601D01*
X46029904Y6355096D01*
X46118656Y6470761D01*
X46174448Y6605455D01*
X46193478Y6750000D01*
X46191835Y6762476D01*
X46191263Y6766817D01*
X46174448Y6894545D01*
X46118656Y7029239D01*
X46118655Y7029240D01*
X46118655Y7029241D01*
X46029902Y7144906D01*
X46028165Y7146643D01*
X46027167Y7148471D01*
X46024956Y7151352D01*
X46025405Y7151697D01*
X45994680Y7207966D01*
X45999664Y7277658D01*
X46034641Y7328035D01*
X46063932Y7353417D01*
X46070820Y7358966D01*
X46081748Y7367146D01*
X46091404Y7376804D01*
X46097888Y7382840D01*
X46135807Y7415696D01*
X46138506Y7419897D01*
X46155137Y7440537D01*
X46239600Y7525000D01*
X50275000Y7525000D01*
X51000000Y7525000D01*
X51500000Y7525000D01*
X52500000Y7525000D01*
X53000000Y7525000D01*
X54000000Y7525000D01*
X54000000Y8225000D01*
X54500000Y8225000D01*
X54500000Y7525000D01*
X55224999Y7525000D01*
X55224999Y7548308D01*
X55224998Y7548323D01*
X55214855Y7647608D01*
X55161547Y7808482D01*
X55161542Y7808493D01*
X55072575Y7952729D01*
X55072572Y7952733D01*
X55050305Y7975000D01*
X56025001Y7975000D01*
X56025001Y7951678D01*
X56035144Y7852393D01*
X56088452Y7691519D01*
X56088457Y7691508D01*
X56177424Y7547272D01*
X56177427Y7547268D01*
X56297267Y7427428D01*
X56297271Y7427425D01*
X56441507Y7338458D01*
X56441518Y7338453D01*
X56602393Y7285145D01*
X56701683Y7275001D01*
X56749999Y7275002D01*
X56750000Y7275002D01*
X56750000Y7975000D01*
X57250000Y7975000D01*
X57250000Y7275001D01*
X57298308Y7275001D01*
X57298322Y7275002D01*
X57397607Y7285145D01*
X57558481Y7338453D01*
X57558492Y7338458D01*
X57702728Y7427425D01*
X57702732Y7427428D01*
X57822572Y7547268D01*
X57822575Y7547272D01*
X57911542Y7691508D01*
X57911547Y7691519D01*
X57964855Y7852394D01*
X57974999Y7951678D01*
X57975000Y7951691D01*
X57975000Y7975000D01*
X57250000Y7975000D01*
X56750000Y7975000D01*
X56025001Y7975000D01*
X55050305Y7975000D01*
X54952732Y8072573D01*
X54952728Y8072576D01*
X54808492Y8161543D01*
X54808481Y8161548D01*
X54647606Y8214856D01*
X54548322Y8225000D01*
X54500000Y8225000D01*
X54000000Y8225000D01*
X53999999Y8225001D01*
X53951693Y8225000D01*
X53951675Y8224999D01*
X53852392Y8214856D01*
X53691518Y8161548D01*
X53691507Y8161543D01*
X53565097Y8083571D01*
X53497705Y8065130D01*
X53434903Y8083571D01*
X53308492Y8161543D01*
X53308481Y8161548D01*
X53147606Y8214856D01*
X53048322Y8225000D01*
X53000000Y8225000D01*
X53000000Y7525000D01*
X52500000Y7525000D01*
X52500000Y8225000D01*
X52499999Y8225001D01*
X52451693Y8225000D01*
X52451675Y8224999D01*
X52352392Y8214856D01*
X52191518Y8161548D01*
X52191507Y8161543D01*
X52065097Y8083571D01*
X51997705Y8065130D01*
X51934903Y8083571D01*
X51808492Y8161543D01*
X51808481Y8161548D01*
X51647606Y8214856D01*
X51548322Y8225000D01*
X51500000Y8225000D01*
X51500000Y7525000D01*
X51000000Y7525000D01*
X51000000Y8225000D01*
X50999999Y8225001D01*
X50951693Y8225000D01*
X50951675Y8224999D01*
X50852392Y8214856D01*
X50691518Y8161548D01*
X50691507Y8161543D01*
X50547271Y8072576D01*
X50547267Y8072573D01*
X50427427Y7952733D01*
X50427424Y7952729D01*
X50338457Y7808493D01*
X50338452Y7808482D01*
X50285144Y7647607D01*
X50275000Y7548323D01*
X50275000Y7525000D01*
X46239600Y7525000D01*
X47214463Y8499863D01*
X47235103Y8516494D01*
X47239304Y8519193D01*
X47272163Y8557117D01*
X47278200Y8563599D01*
X47287851Y8573249D01*
X47287851Y8573250D01*
X47287855Y8573253D01*
X47296055Y8584208D01*
X47301573Y8591056D01*
X47334457Y8629005D01*
X47336528Y8633542D01*
X47350065Y8656359D01*
X47353051Y8660346D01*
X47370584Y8707358D01*
X47373971Y8715532D01*
X47394817Y8761177D01*
X47395526Y8766116D01*
X47402085Y8791809D01*
X47403830Y8796486D01*
X47407410Y8846549D01*
X47408356Y8855341D01*
X47410299Y8868857D01*
X47410300Y8868862D01*
X47410300Y8882519D01*
X47410616Y8891366D01*
X47411912Y8909484D01*
X47414196Y8941418D01*
X47413132Y8946308D01*
X47410300Y8972658D01*
X47410300Y9848350D01*
X47419739Y9895803D01*
X47444448Y9955455D01*
X47463478Y10100000D01*
X47444448Y10244545D01*
X47429434Y10280792D01*
X47419739Y10304199D01*
X47410300Y10351651D01*
X47410300Y12003122D01*
X47429985Y12070161D01*
X47482789Y12115916D01*
X47551947Y12125860D01*
X47609782Y12101500D01*
X47720761Y12016344D01*
X47855455Y11960552D01*
X48000000Y11941522D01*
X48043830Y11947293D01*
X48112863Y11936528D01*
X48131142Y11925926D01*
X48134455Y11923606D01*
X48139058Y11921460D01*
X48156482Y11914243D01*
X48161254Y11912507D01*
X48161261Y11912503D01*
X48198729Y11905897D01*
X48209271Y11903560D01*
X48246016Y11893713D01*
X48256822Y11892767D01*
X48256563Y11889812D01*
X48308338Y11879410D01*
X48358525Y11830798D01*
X48361137Y11825940D01*
X48401469Y11746784D01*
X48401476Y11746775D01*
X48496774Y11651477D01*
X48496777Y11651475D01*
X48496780Y11651472D01*
X48604796Y11596435D01*
X48655591Y11548463D01*
X48672500Y11485952D01*
X48672500Y10269712D01*
X48672028Y10258903D01*
X48668712Y10221018D01*
X48678557Y10184278D01*
X48680898Y10173718D01*
X48687503Y10136259D01*
X48689232Y10131509D01*
X48696468Y10114041D01*
X48698606Y10109455D01*
X48720420Y10078302D01*
X48726232Y10069179D01*
X48745247Y10036243D01*
X48745250Y10036239D01*
X48774390Y10011789D01*
X48782367Y10004479D01*
X49254478Y9532367D01*
X49261785Y9524393D01*
X49286239Y9495250D01*
X49286240Y9495249D01*
X49319172Y9476237D01*
X49328300Y9470422D01*
X49359455Y9448606D01*
X49364058Y9446460D01*
X49381482Y9439243D01*
X49386254Y9437507D01*
X49386261Y9437503D01*
X49423729Y9430897D01*
X49434271Y9428560D01*
X49471016Y9418713D01*
X49508903Y9422029D01*
X49519711Y9422500D01*
X56261428Y9422500D01*
X56328467Y9402815D01*
X56371911Y9354796D01*
X56375997Y9346778D01*
X56401471Y9296782D01*
X56401476Y9296775D01*
X56420424Y9277827D01*
X56453909Y9216504D01*
X56448925Y9146812D01*
X56407053Y9090879D01*
X56397841Y9084608D01*
X56297268Y9022574D01*
X56177427Y8902733D01*
X56177424Y8902729D01*
X56088457Y8758493D01*
X56088452Y8758482D01*
X56035144Y8597607D01*
X56025000Y8498323D01*
X56025000Y8475000D01*
X57974999Y8475000D01*
X57974999Y8498308D01*
X57974998Y8498323D01*
X57964855Y8597608D01*
X57911547Y8758482D01*
X57911542Y8758493D01*
X57850833Y8856917D01*
X60466866Y8856917D01*
X60485217Y8670586D01*
X60485218Y8670584D01*
X60539569Y8491415D01*
X60627827Y8326294D01*
X60627829Y8326291D01*
X60746607Y8181560D01*
X60891338Y8062782D01*
X60891341Y8062780D01*
X61055568Y7975000D01*
X61056464Y7974521D01*
X61227472Y7922646D01*
X61235631Y7920171D01*
X61235633Y7920170D01*
X61252339Y7918525D01*
X61421965Y7901818D01*
X61608296Y7920170D01*
X61787466Y7974521D01*
X61952590Y8062781D01*
X62097322Y8181560D01*
X62216101Y8326292D01*
X62304361Y8491416D01*
X62358712Y8670586D01*
X62377064Y8856917D01*
X62358712Y9043248D01*
X62304361Y9222418D01*
X62280882Y9266345D01*
X62216102Y9387541D01*
X62216100Y9387544D01*
X62097322Y9532275D01*
X61952591Y9651053D01*
X61952588Y9651055D01*
X61787467Y9739313D01*
X61608298Y9793664D01*
X61608296Y9793665D01*
X61421965Y9812016D01*
X61235633Y9793665D01*
X61235631Y9793664D01*
X61056462Y9739313D01*
X60891341Y9651055D01*
X60891338Y9651053D01*
X60746607Y9532275D01*
X60627829Y9387544D01*
X60627827Y9387541D01*
X60539569Y9222420D01*
X60485218Y9043251D01*
X60485217Y9043249D01*
X60466866Y8856917D01*
X57850833Y8856917D01*
X57822575Y8902729D01*
X57822572Y8902733D01*
X57702732Y9022573D01*
X57702728Y9022576D01*
X57602159Y9084608D01*
X57555434Y9136556D01*
X57544213Y9205518D01*
X57572056Y9269600D01*
X57579565Y9277818D01*
X57598528Y9296780D01*
X57628088Y9354796D01*
X57676061Y9405590D01*
X57738572Y9422500D01*
X58980289Y9422500D01*
X58991096Y9422029D01*
X59028984Y9418713D01*
X59065753Y9428567D01*
X59076257Y9430895D01*
X59113739Y9437503D01*
X59113744Y9437507D01*
X59118531Y9439248D01*
X59135919Y9446451D01*
X59140537Y9448605D01*
X59140543Y9448606D01*
X59171706Y9470428D01*
X59180794Y9476218D01*
X59213760Y9495250D01*
X59238224Y9524407D01*
X59245498Y9532346D01*
X59372528Y9659376D01*
X59433848Y9692857D01*
X59476392Y9694630D01*
X59499999Y9691522D01*
X59500000Y9691522D01*
X59644545Y9710552D01*
X59779239Y9766344D01*
X59894904Y9855096D01*
X59983656Y9970761D01*
X60039448Y10105455D01*
X60058478Y10250000D01*
X60039448Y10394545D01*
X59983656Y10529239D01*
X59983655Y10529240D01*
X59983655Y10529241D01*
X59934699Y10593041D01*
X59894904Y10644904D01*
X59814519Y10706585D01*
X59779240Y10733656D01*
X59711892Y10761552D01*
X59644545Y10789448D01*
X59572272Y10798963D01*
X59500001Y10808478D01*
X59499999Y10808478D01*
X59355455Y10789448D01*
X59355454Y10789448D01*
X59220759Y10733656D01*
X59105096Y10644904D01*
X59016344Y10529241D01*
X58960552Y10394546D01*
X58960552Y10394545D01*
X58941947Y10253226D01*
X58941522Y10250000D01*
X58943369Y10235965D01*
X58944630Y10226390D01*
X58933862Y10157355D01*
X58909376Y10122532D01*
X58900669Y10113824D01*
X58839348Y10080335D01*
X58812983Y10077500D01*
X57764049Y10077500D01*
X57697010Y10097185D01*
X57653564Y10145205D01*
X57652836Y10146634D01*
X57598528Y10253220D01*
X57598524Y10253224D01*
X57598523Y10253226D01*
X57503225Y10348524D01*
X57503221Y10348527D01*
X57503220Y10348528D01*
X57383126Y10409719D01*
X57383124Y10409720D01*
X57383121Y10409721D01*
X57283493Y10425500D01*
X57283488Y10425500D01*
X56716512Y10425500D01*
X56716507Y10425500D01*
X56616878Y10409721D01*
X56616874Y10409720D01*
X56616874Y10409719D01*
X56536811Y10368925D01*
X56496778Y10348527D01*
X56496774Y10348524D01*
X56401476Y10253226D01*
X56401473Y10253221D01*
X56401472Y10253220D01*
X56347164Y10146634D01*
X56346436Y10145205D01*
X56298461Y10094409D01*
X56235951Y10077500D01*
X49687017Y10077500D01*
X49619978Y10097185D01*
X49599336Y10113819D01*
X49363819Y10349336D01*
X49330334Y10410659D01*
X49327500Y10437017D01*
X49327500Y11485952D01*
X49347185Y11552991D01*
X49395203Y11596435D01*
X49503220Y11651472D01*
X49598528Y11746780D01*
X49659719Y11866874D01*
X49661248Y11876529D01*
X49675500Y11966507D01*
X49675500Y11975000D01*
X50275001Y11975000D01*
X50275001Y11951678D01*
X50285144Y11852393D01*
X50338452Y11691519D01*
X50338457Y11691508D01*
X50427424Y11547272D01*
X50427427Y11547268D01*
X50547267Y11427428D01*
X50547271Y11427425D01*
X50691507Y11338458D01*
X50691518Y11338453D01*
X50852393Y11285145D01*
X50951683Y11275001D01*
X50999999Y11275002D01*
X51000000Y11275002D01*
X51000000Y11975000D01*
X51500000Y11975000D01*
X51500000Y11275001D01*
X51548308Y11275001D01*
X51548322Y11275002D01*
X51647607Y11285145D01*
X51808481Y11338453D01*
X51808488Y11338456D01*
X51934902Y11416430D01*
X52002295Y11434871D01*
X52065098Y11416430D01*
X52191511Y11338456D01*
X52191518Y11338453D01*
X52352393Y11285145D01*
X52451683Y11275001D01*
X52499999Y11275002D01*
X52500000Y11275002D01*
X52500000Y11975000D01*
X53000000Y11975000D01*
X53000000Y11275001D01*
X53048308Y11275001D01*
X53048322Y11275002D01*
X53147607Y11285145D01*
X53308481Y11338453D01*
X53308488Y11338456D01*
X53434902Y11416430D01*
X53502295Y11434871D01*
X53565098Y11416430D01*
X53691511Y11338456D01*
X53691518Y11338453D01*
X53852393Y11285145D01*
X53951683Y11275001D01*
X53999999Y11275002D01*
X54000000Y11275002D01*
X54000000Y11975000D01*
X54500000Y11975000D01*
X54500000Y11275001D01*
X54548308Y11275001D01*
X54548322Y11275002D01*
X54647607Y11285145D01*
X54808481Y11338453D01*
X54808488Y11338456D01*
X54934902Y11416430D01*
X55002295Y11434871D01*
X55065098Y11416430D01*
X55191511Y11338456D01*
X55191518Y11338453D01*
X55352393Y11285145D01*
X55451683Y11275001D01*
X55499999Y11275002D01*
X55500000Y11275002D01*
X55500000Y11975000D01*
X56000000Y11975000D01*
X56000000Y11275001D01*
X56048308Y11275001D01*
X56048322Y11275002D01*
X56147607Y11285145D01*
X56308481Y11338453D01*
X56308492Y11338458D01*
X56452728Y11427425D01*
X56452732Y11427428D01*
X56572572Y11547268D01*
X56572575Y11547272D01*
X56661542Y11691508D01*
X56661547Y11691519D01*
X56714855Y11852394D01*
X56724999Y11951678D01*
X56725000Y11951691D01*
X56725000Y11975000D01*
X56000000Y11975000D01*
X55500000Y11975000D01*
X54500000Y11975000D01*
X54000000Y11975000D01*
X53000000Y11975000D01*
X52500000Y11975000D01*
X51500000Y11975000D01*
X51000000Y11975000D01*
X50275001Y11975000D01*
X49675500Y11975000D01*
X49675500Y12483494D01*
X49659720Y12583122D01*
X49659719Y12583124D01*
X49659719Y12583126D01*
X49598528Y12703220D01*
X49598526Y12703222D01*
X49598523Y12703226D01*
X49579575Y12722174D01*
X49546090Y12783497D01*
X49551074Y12853189D01*
X49592946Y12909122D01*
X49602160Y12915394D01*
X49702731Y12977427D01*
X49822572Y13097268D01*
X49822575Y13097272D01*
X49911542Y13241508D01*
X49911547Y13241519D01*
X49964856Y13402394D01*
X49968488Y13437944D01*
X49994884Y13502636D01*
X50052065Y13542788D01*
X50121876Y13545651D01*
X50167329Y13523720D01*
X50201736Y13497319D01*
X50253195Y13476005D01*
X50294312Y13446355D01*
X50294441Y13446503D01*
X50296100Y13445066D01*
X50299451Y13442649D01*
X50301145Y13440694D01*
X50339068Y13407833D01*
X50345535Y13401813D01*
X50355201Y13392147D01*
X50355209Y13392140D01*
X50366145Y13383953D01*
X50373035Y13378401D01*
X50410955Y13345543D01*
X50415497Y13343469D01*
X50438299Y13329942D01*
X50442296Y13326949D01*
X50489318Y13309411D01*
X50497471Y13306034D01*
X50543127Y13285183D01*
X50548059Y13284474D01*
X50573734Y13277924D01*
X50577644Y13276466D01*
X50633580Y13234601D01*
X50658004Y13169140D01*
X50643160Y13100865D01*
X50599421Y13054743D01*
X50547267Y13022573D01*
X50427427Y12902733D01*
X50427424Y12902729D01*
X50338457Y12758493D01*
X50338452Y12758482D01*
X50285144Y12597607D01*
X50275000Y12498323D01*
X50275000Y12475000D01*
X56724999Y12475000D01*
X56724999Y12498308D01*
X56724998Y12498323D01*
X56714855Y12597608D01*
X56661547Y12758482D01*
X56661542Y12758493D01*
X56572575Y12902729D01*
X56572572Y12902733D01*
X56452732Y13022573D01*
X56452728Y13022576D01*
X56352159Y13084608D01*
X56305434Y13136556D01*
X56294213Y13205518D01*
X56322056Y13269600D01*
X56329565Y13277818D01*
X56348528Y13296780D01*
X56409719Y13416874D01*
X56413492Y13440696D01*
X56425500Y13516507D01*
X56425500Y13662779D01*
X59619463Y13662779D01*
X59637814Y13476448D01*
X59637815Y13476446D01*
X59692166Y13297277D01*
X59780424Y13132156D01*
X59780426Y13132153D01*
X59899204Y12987422D01*
X60043935Y12868644D01*
X60043938Y12868642D01*
X60203235Y12783497D01*
X60209061Y12780383D01*
X60369817Y12731618D01*
X60388228Y12726033D01*
X60388230Y12726032D01*
X60393632Y12725500D01*
X60574562Y12707680D01*
X60760893Y12726032D01*
X60940063Y12780383D01*
X61105187Y12868643D01*
X61249919Y12987422D01*
X61368698Y13132154D01*
X61456958Y13297278D01*
X61511309Y13476448D01*
X61529661Y13662779D01*
X61511309Y13849110D01*
X61456958Y14028280D01*
X61446245Y14048323D01*
X61368699Y14193403D01*
X61368697Y14193406D01*
X61249919Y14338137D01*
X61105188Y14456915D01*
X61105185Y14456917D01*
X60940064Y14545175D01*
X60760895Y14599526D01*
X60760893Y14599527D01*
X60574562Y14617878D01*
X60388230Y14599527D01*
X60388228Y14599526D01*
X60209059Y14545175D01*
X60043938Y14456917D01*
X60043935Y14456915D01*
X59899204Y14338137D01*
X59780426Y14193406D01*
X59780424Y14193403D01*
X59692166Y14028282D01*
X59637815Y13849113D01*
X59637814Y13849111D01*
X59619463Y13662779D01*
X56425500Y13662779D01*
X56425500Y14033494D01*
X56409720Y14133122D01*
X56409719Y14133124D01*
X56409719Y14133126D01*
X56348528Y14253220D01*
X56348526Y14253222D01*
X56348523Y14253226D01*
X56253225Y14348524D01*
X56253221Y14348527D01*
X56253220Y14348528D01*
X56133126Y14409719D01*
X56133124Y14409720D01*
X56133121Y14409721D01*
X56033493Y14425500D01*
X56033488Y14425500D01*
X55466512Y14425500D01*
X55466507Y14425500D01*
X55366878Y14409721D01*
X55366874Y14409720D01*
X55366874Y14409719D01*
X55295190Y14373194D01*
X55246778Y14348527D01*
X55246775Y14348525D01*
X55214872Y14316620D01*
X55153550Y14283134D01*
X55127190Y14280300D01*
X54980900Y14280300D01*
X54913861Y14299985D01*
X54868106Y14352789D01*
X54856900Y14404300D01*
X54856900Y15955582D01*
X54857961Y15971768D01*
X54861678Y16000000D01*
X54861678Y16000001D01*
X54857961Y16028234D01*
X54856900Y16044419D01*
X54856900Y16702095D01*
X54857961Y16718281D01*
X54862137Y16750001D01*
X54862137Y16750002D01*
X54841279Y16908432D01*
X54841277Y16908437D01*
X54780128Y17056067D01*
X54780126Y17056070D01*
X54704800Y17154235D01*
X54704798Y17154237D01*
X54682845Y17182847D01*
X54657462Y17202324D01*
X54645267Y17213019D01*
X54393219Y17465067D01*
X54359734Y17526390D01*
X54356900Y17552748D01*
X54356900Y18421500D01*
X54376585Y18488539D01*
X54429389Y18534294D01*
X54480900Y18545500D01*
X56390672Y18545500D01*
X56457711Y18525815D01*
X56466151Y18519881D01*
X56470761Y18516344D01*
X56605455Y18460552D01*
X56733183Y18443737D01*
X56749999Y18441522D01*
X56750000Y18441522D01*
X56750001Y18441522D01*
X56765064Y18443506D01*
X56894545Y18460552D01*
X57029239Y18516344D01*
X57144904Y18605096D01*
X57233656Y18720761D01*
X57289448Y18855455D01*
X57308478Y19000000D01*
X57289448Y19144545D01*
X57233656Y19279239D01*
X57233655Y19279240D01*
X57233655Y19279241D01*
X57199706Y19323484D01*
X57144904Y19394904D01*
X57084150Y19441522D01*
X57029240Y19483656D01*
X56950323Y19516344D01*
X56894545Y19539448D01*
X56822272Y19548963D01*
X56750001Y19558478D01*
X56749999Y19558478D01*
X56605455Y19539448D01*
X56605454Y19539448D01*
X56470761Y19483657D01*
X56467780Y19481369D01*
X56466158Y19480125D01*
X56400991Y19454930D01*
X56390672Y19454500D01*
X54480900Y19454500D01*
X54413861Y19474185D01*
X54368106Y19526989D01*
X54356900Y19578500D01*
X54356900Y20289773D01*
X54356899Y20289787D01*
X54353134Y20318385D01*
X54341279Y20408433D01*
X54302093Y20503035D01*
X54280126Y20556069D01*
X54229324Y20622276D01*
X54204130Y20687446D01*
X54203700Y20697762D01*
X54203700Y20766211D01*
X54223385Y20833250D01*
X54257178Y20864285D01*
X54255404Y20866688D01*
X54262882Y20872207D01*
X54372150Y20952850D01*
X54452793Y21062118D01*
X54475158Y21126036D01*
X54515877Y21182808D01*
X54580830Y21208556D01*
X54649392Y21195100D01*
X54699795Y21146713D01*
X54709904Y21124083D01*
X54765642Y20955879D01*
X54765643Y20955876D01*
X54857684Y20806655D01*
X54981654Y20682685D01*
X55130875Y20590644D01*
X55130880Y20590642D01*
X55297302Y20535495D01*
X55297309Y20535494D01*
X55400019Y20525001D01*
X55449999Y20525002D01*
X55450000Y20525002D01*
X55450000Y21500000D01*
X55950000Y21500000D01*
X55950000Y20525001D01*
X55999972Y20525001D01*
X55999986Y20525002D01*
X56102697Y20535495D01*
X56269119Y20590642D01*
X56269124Y20590644D01*
X56418345Y20682685D01*
X56542315Y20806655D01*
X56634356Y20955876D01*
X56634358Y20955881D01*
X56689505Y21122303D01*
X56689506Y21122310D01*
X56699999Y21225014D01*
X56700000Y21225027D01*
X56700000Y21500000D01*
X55950000Y21500000D01*
X55450000Y21500000D01*
X55450000Y22975000D01*
X55950000Y22975000D01*
X55950000Y22000000D01*
X56699999Y22000000D01*
X56699999Y22274972D01*
X56699998Y22274987D01*
X56689505Y22377698D01*
X56634358Y22544120D01*
X56634356Y22544125D01*
X56542315Y22693346D01*
X56418345Y22817316D01*
X56269124Y22909357D01*
X56269119Y22909359D01*
X56102697Y22964506D01*
X56102690Y22964507D01*
X55999986Y22975000D01*
X55950000Y22975000D01*
X55450000Y22975000D01*
X55449999Y22975001D01*
X55400029Y22975000D01*
X55400011Y22974999D01*
X55297302Y22964506D01*
X55130880Y22909359D01*
X55130875Y22909357D01*
X54981654Y22817316D01*
X54857684Y22693346D01*
X54765643Y22544125D01*
X54765641Y22544120D01*
X54709905Y22375918D01*
X54670132Y22318473D01*
X54605617Y22291650D01*
X54536841Y22303965D01*
X54485641Y22351508D01*
X54475158Y22373967D01*
X54464293Y22405017D01*
X54452793Y22437882D01*
X54372150Y22547150D01*
X54262882Y22627793D01*
X54262880Y22627794D01*
X54134700Y22672647D01*
X54104270Y22675500D01*
X54104266Y22675500D01*
X53495734Y22675500D01*
X53495730Y22675500D01*
X53465300Y22672647D01*
X53465298Y22672647D01*
X53337119Y22627794D01*
X53337117Y22627793D01*
X53227850Y22547150D01*
X53147207Y22437883D01*
X53147206Y22437881D01*
X53102353Y22309702D01*
X53102353Y22309700D01*
X53099500Y22279270D01*
X53099500Y21220731D01*
X53102353Y21190301D01*
X53102353Y21190299D01*
X53147206Y21062120D01*
X53147207Y21062118D01*
X53225616Y20955876D01*
X53227850Y20952850D01*
X53320163Y20884721D01*
X53362412Y20829075D01*
X53367871Y20759419D01*
X53334804Y20697870D01*
X53322020Y20686581D01*
X53317157Y20682850D01*
X53317155Y20682848D01*
X53219874Y20556069D01*
X53219872Y20556066D01*
X53158721Y20408434D01*
X53158721Y20408433D01*
X53143100Y20289787D01*
X53143100Y17297906D01*
X53142039Y17281721D01*
X53137863Y17250002D01*
X53137863Y17249997D01*
X53142567Y17214264D01*
X53142570Y17214246D01*
X53158721Y17091568D01*
X53158721Y17091567D01*
X53219872Y16943935D01*
X53219874Y16943932D01*
X53317154Y16817154D01*
X53342536Y16797678D01*
X53354731Y16786983D01*
X53606781Y16534933D01*
X53640266Y16473610D01*
X53643100Y16447252D01*
X53643100Y14404300D01*
X53623415Y14337261D01*
X53570611Y14291506D01*
X53519100Y14280300D01*
X53372810Y14280300D01*
X53305771Y14299985D01*
X53285128Y14316620D01*
X53253224Y14348525D01*
X53253221Y14348527D01*
X53253220Y14348528D01*
X53133126Y14409719D01*
X53133124Y14409720D01*
X53133121Y14409721D01*
X53033493Y14425500D01*
X53033488Y14425500D01*
X52466512Y14425500D01*
X52466507Y14425500D01*
X52366878Y14409721D01*
X52366874Y14409720D01*
X52366874Y14409719D01*
X52295190Y14373194D01*
X52246778Y14348527D01*
X52246775Y14348525D01*
X52214872Y14316620D01*
X52153550Y14283134D01*
X52127190Y14280300D01*
X51872810Y14280300D01*
X51805771Y14299985D01*
X51785128Y14316620D01*
X51753224Y14348525D01*
X51753221Y14348527D01*
X51753220Y14348528D01*
X51633126Y14409719D01*
X51633124Y14409720D01*
X51633121Y14409721D01*
X51533493Y14425500D01*
X51533488Y14425500D01*
X50966512Y14425500D01*
X50966507Y14425500D01*
X50890400Y14413446D01*
X50821106Y14422401D01*
X50795519Y14437541D01*
X50760214Y14464631D01*
X50760213Y14464632D01*
X50760211Y14464633D01*
X50700558Y14489342D01*
X50660330Y14516222D01*
X49617090Y15559462D01*
X49600458Y15580101D01*
X49597757Y15584304D01*
X49597752Y15584308D01*
X49559828Y15617170D01*
X49553350Y15623202D01*
X49543705Y15632847D01*
X49543698Y15632854D01*
X49543693Y15632858D01*
X49543685Y15632865D01*
X49532755Y15641047D01*
X49525874Y15646592D01*
X49487945Y15679457D01*
X49487944Y15679458D01*
X49487942Y15679459D01*
X49483396Y15681535D01*
X49460600Y15695060D01*
X49456605Y15698051D01*
X49456602Y15698052D01*
X49456599Y15698053D01*
X49449452Y15700719D01*
X49409578Y15715592D01*
X49401403Y15718979D01*
X49355776Y15739816D01*
X49355774Y15739817D01*
X49355773Y15739817D01*
X49350824Y15740529D01*
X49325148Y15747083D01*
X49320465Y15748830D01*
X49270405Y15752411D01*
X49261615Y15753356D01*
X49248091Y15755300D01*
X49248088Y15755300D01*
X49234422Y15755300D01*
X49225576Y15755616D01*
X49175536Y15759195D01*
X49175528Y15759195D01*
X49170654Y15758134D01*
X49144297Y15755300D01*
X48067653Y15755300D01*
X48041296Y15758134D01*
X48036421Y15759195D01*
X48036413Y15759195D01*
X47986374Y15755616D01*
X47977528Y15755300D01*
X47963858Y15755300D01*
X47950336Y15753356D01*
X47941546Y15752411D01*
X47891486Y15748830D01*
X47891483Y15748829D01*
X47886796Y15747081D01*
X47861120Y15740528D01*
X47856180Y15739818D01*
X47856177Y15739817D01*
X47810530Y15718972D01*
X47802358Y15715587D01*
X47755347Y15698053D01*
X47755340Y15698049D01*
X47751340Y15695054D01*
X47728557Y15681537D01*
X47724007Y15679460D01*
X47724007Y15679459D01*
X47686083Y15646598D01*
X47679197Y15641049D01*
X47668249Y15632853D01*
X47658578Y15623183D01*
X47652108Y15617159D01*
X47614196Y15584308D01*
X47614188Y15584299D01*
X47611490Y15580100D01*
X47594861Y15559466D01*
X46595537Y14560141D01*
X46574904Y14543512D01*
X46570698Y14540810D01*
X46570693Y14540805D01*
X46537833Y14502884D01*
X46531815Y14496419D01*
X46522145Y14486747D01*
X46513951Y14475803D01*
X46508406Y14468923D01*
X46475544Y14430997D01*
X46475542Y14430994D01*
X46473464Y14426443D01*
X46459945Y14403658D01*
X46456952Y14399660D01*
X46456946Y14399650D01*
X46439412Y14352642D01*
X46436028Y14344472D01*
X46415184Y14298827D01*
X46415182Y14298820D01*
X46414472Y14293880D01*
X46407919Y14268204D01*
X46406171Y14263517D01*
X46406170Y14263514D01*
X46402589Y14213454D01*
X46401644Y14204664D01*
X46399700Y14191142D01*
X46399700Y14177473D01*
X46399384Y14168628D01*
X46395805Y14118582D01*
X46396866Y14113703D01*
X46399700Y14087348D01*
X46399700Y10351651D01*
X46390261Y10304199D01*
X46365553Y10244549D01*
X46365552Y10244544D01*
X46361111Y10210812D01*
X46332844Y10146916D01*
X46274519Y10108445D01*
X46204655Y10107614D01*
X46150491Y10139317D01*
X46144905Y10144903D01*
X46144904Y10144904D01*
X46138879Y10149527D01*
X46097677Y10205953D01*
X46093522Y10275699D01*
X46102966Y10302362D01*
X46125572Y10348605D01*
X46125573Y10348608D01*
X46126017Y10351651D01*
X46135500Y10416740D01*
X46135500Y11783260D01*
X46125573Y11851393D01*
X46074198Y11956483D01*
X46074196Y11956485D01*
X46074196Y11956486D01*
X45991485Y12039197D01*
X45980637Y12044500D01*
X45928147Y12070161D01*
X45886391Y12090574D01*
X45818261Y12100500D01*
X45818260Y12100500D01*
X45451740Y12100500D01*
X45451739Y12100500D01*
X45383608Y12090574D01*
X45278514Y12039197D01*
X45195803Y11956486D01*
X45144426Y11851392D01*
X45134500Y11783261D01*
X45134500Y10416740D01*
X45144426Y10348609D01*
X45144427Y10348607D01*
X45195802Y10243517D01*
X45251857Y10187462D01*
X45285341Y10126141D01*
X45280357Y10056449D01*
X45269483Y10036808D01*
X45270406Y10036275D01*
X45266345Y10029242D01*
X45210552Y9894546D01*
X45210552Y9894545D01*
X45191522Y9750001D01*
X45191522Y9749998D01*
X45209251Y9615332D01*
X45198485Y9546297D01*
X45176389Y9521403D01*
X45231962Y9504365D01*
X45262063Y9476340D01*
X45266344Y9470761D01*
X45355096Y9355096D01*
X45421050Y9304488D01*
X45470759Y9266345D01*
X45470760Y9266345D01*
X45470761Y9266344D01*
X45605455Y9210552D01*
X45733183Y9193737D01*
X45749999Y9191522D01*
X45750000Y9191522D01*
X45750001Y9191522D01*
X45765064Y9193506D01*
X45894545Y9210552D01*
X46029239Y9266344D01*
X46144904Y9355096D01*
X46177325Y9397349D01*
X46233751Y9438551D01*
X46303497Y9442706D01*
X46364417Y9408495D01*
X46397171Y9346778D01*
X46399700Y9321862D01*
X46399700Y9165664D01*
X46380015Y9098625D01*
X46363381Y9077983D01*
X45577017Y8291619D01*
X45515694Y8258134D01*
X45489336Y8255300D01*
X44069774Y8255300D01*
X44002735Y8274985D01*
X43956980Y8327789D01*
X43947036Y8396947D01*
X43971399Y8454787D01*
X43983655Y8470760D01*
X43983654Y8470760D01*
X43983656Y8470761D01*
X44039448Y8605455D01*
X44047817Y8669028D01*
X44076083Y8732923D01*
X44134408Y8771394D01*
X44204272Y8772225D01*
X44218209Y8767402D01*
X44220758Y8766347D01*
X44220761Y8766344D01*
X44355455Y8710552D01*
X44483183Y8693737D01*
X44499999Y8691522D01*
X44500000Y8691522D01*
X44500001Y8691522D01*
X44515064Y8693506D01*
X44644545Y8710552D01*
X44779239Y8766344D01*
X44894904Y8855096D01*
X44983656Y8970761D01*
X45039448Y9105455D01*
X45058478Y9250000D01*
X45040748Y9384670D01*
X45051513Y9453703D01*
X45073608Y9478599D01*
X45018036Y9495637D01*
X44987936Y9523661D01*
X44981256Y9532367D01*
X44894904Y9644904D01*
X44796046Y9720760D01*
X44779237Y9733658D01*
X44769042Y9737881D01*
X44714640Y9781725D01*
X44692579Y9848020D01*
X44692500Y9852440D01*
X44692500Y10080457D01*
X44712185Y10147496D01*
X44728814Y10168134D01*
X44804198Y10243517D01*
X44855573Y10348607D01*
X44865500Y10416740D01*
X44865500Y11783260D01*
X44855573Y11851393D01*
X44804198Y11956483D01*
X44804196Y11956485D01*
X44804196Y11956486D01*
X44721485Y12039197D01*
X44710637Y12044500D01*
X44658147Y12070161D01*
X44616391Y12090574D01*
X44548261Y12100500D01*
X44548260Y12100500D01*
X44181740Y12100500D01*
X44181739Y12100500D01*
X44113608Y12090574D01*
X44008514Y12039197D01*
X43925803Y11956486D01*
X43874426Y11851392D01*
X43864500Y11783261D01*
X43864500Y10416740D01*
X43874426Y10348609D01*
X43874427Y10348607D01*
X43925802Y10243517D01*
X44001182Y10168137D01*
X44034666Y10106816D01*
X44037500Y10080457D01*
X44037500Y9598902D01*
X44019298Y9536915D01*
X44020406Y9536275D01*
X44016345Y9529242D01*
X43960552Y9394546D01*
X43960552Y9394545D01*
X43952182Y9330973D01*
X43923915Y9267077D01*
X43865590Y9228607D01*
X43795725Y9227776D01*
X43781790Y9232599D01*
X43779239Y9233656D01*
X43644545Y9289448D01*
X43629112Y9291480D01*
X43530313Y9304488D01*
X43466417Y9332755D01*
X43427947Y9391080D01*
X43422500Y9427427D01*
X43422500Y10080457D01*
X43442185Y10147496D01*
X43458814Y10168134D01*
X43534198Y10243517D01*
X43585573Y10348607D01*
X43595500Y10416740D01*
X43595500Y11783260D01*
X43585573Y11851393D01*
X43534198Y11956483D01*
X43534196Y11956485D01*
X43534196Y11956486D01*
X43451485Y12039197D01*
X43440637Y12044500D01*
X43388147Y12070161D01*
X43346391Y12090574D01*
X43278261Y12100500D01*
X43278260Y12100500D01*
X42911740Y12100500D01*
X42911739Y12100500D01*
X42843608Y12090574D01*
X42738514Y12039197D01*
X42655803Y11956486D01*
X42604426Y11851392D01*
X42594500Y11783261D01*
X42594500Y10416740D01*
X42604426Y10348609D01*
X42604427Y10348607D01*
X42655802Y10243517D01*
X42731182Y10168137D01*
X42764666Y10106816D01*
X42767500Y10080457D01*
X42767500Y9174712D01*
X42767028Y9163903D01*
X42763712Y9126018D01*
X42773557Y9089278D01*
X42775898Y9078718D01*
X42782503Y9041259D01*
X42784232Y9036509D01*
X42791468Y9019041D01*
X42793606Y9014455D01*
X42815420Y8983302D01*
X42821232Y8974179D01*
X42840247Y8941243D01*
X42840250Y8941240D01*
X42869383Y8916795D01*
X42877362Y8909484D01*
X42909373Y8877472D01*
X42942857Y8816148D01*
X42944630Y8773610D01*
X42941522Y8749999D01*
X42960552Y8605456D01*
X42960552Y8605455D01*
X43016344Y8470760D01*
X43031030Y8451621D01*
X43105096Y8355096D01*
X43220761Y8266344D01*
X43283349Y8240419D01*
X43337749Y8196581D01*
X43359815Y8130287D01*
X43342536Y8062588D01*
X43323575Y8038179D01*
X42918252Y7632854D01*
X42827017Y7541619D01*
X42765694Y7508134D01*
X42739336Y7505300D01*
X41504664Y7505300D01*
X41437625Y7524985D01*
X41391870Y7577789D01*
X41387623Y7588345D01*
X41352793Y7687881D01*
X41352792Y7687883D01*
X41310472Y7745225D01*
X41272150Y7797150D01*
X41162882Y7877793D01*
X41162880Y7877794D01*
X41034700Y7922647D01*
X41004270Y7925500D01*
X41004266Y7925500D01*
X40395734Y7925500D01*
X40395730Y7925500D01*
X40365300Y7922647D01*
X40365298Y7922647D01*
X40237119Y7877794D01*
X40237117Y7877793D01*
X40127850Y7797150D01*
X40047207Y7687883D01*
X40024842Y7623967D01*
X39984120Y7567192D01*
X39919167Y7541445D01*
X39850605Y7554902D01*
X39800203Y7603289D01*
X39790095Y7625919D01*
X39734358Y7794120D01*
X39734356Y7794125D01*
X39642315Y7943346D01*
X39518345Y8067316D01*
X39369124Y8159357D01*
X39369119Y8159359D01*
X39202697Y8214506D01*
X39202690Y8214507D01*
X39099986Y8225000D01*
X39050000Y8225000D01*
X39050000Y5775001D01*
X38500019Y5775001D01*
X38549999Y5775002D01*
X38550000Y5775002D01*
X38550000Y6750000D01*
X37800001Y6750000D01*
X18092292Y6750000D01*
X18091500Y6756526D01*
X18091499Y6756527D01*
X18091499Y6756533D01*
X18022883Y6993421D01*
X17917157Y7216234D01*
X17777058Y7419203D01*
X17777055Y7419206D01*
X17777053Y7419209D01*
X17606217Y7597069D01*
X17409057Y7745225D01*
X17409053Y7745228D01*
X17409052Y7745228D01*
X17310121Y7797151D01*
X17190682Y7859838D01*
X17190678Y7859840D01*
X17190677Y7859840D01*
X16956744Y7937938D01*
X16956742Y7937939D01*
X16956740Y7937939D01*
X16956734Y7937941D01*
X16713316Y7977500D01*
X16713313Y7977500D01*
X16528448Y7977500D01*
X16528438Y7977500D01*
X16344175Y7962625D01*
X16104713Y7903603D01*
X15877834Y7806939D01*
X15877826Y7806935D01*
X15877826Y7806934D01*
X15862354Y7797150D01*
X15669376Y7675118D01*
X15484781Y7511581D01*
X15484777Y7511577D01*
X15328803Y7320543D01*
X15328799Y7320538D01*
X15205490Y7106960D01*
X15118037Y6876365D01*
X15068704Y6634723D01*
X15068703Y6634716D01*
X15058773Y6388302D01*
X15058773Y6388300D01*
X10919986Y6388300D01*
X10463017Y6845269D01*
X10452322Y6857464D01*
X10443938Y6868390D01*
X10432846Y6882846D01*
X10374848Y6927349D01*
X10374846Y6927351D01*
X10306068Y6980126D01*
X10306063Y6980129D01*
X10254079Y7001661D01*
X10254078Y7001661D01*
X10158433Y7041279D01*
X10089289Y7050382D01*
X10035754Y7057430D01*
X10035736Y7057433D01*
X10000004Y7062137D01*
X10000000Y7062137D01*
X9968279Y7057961D01*
X9952095Y7056900D01*
X4389499Y7056900D01*
X4322460Y7076585D01*
X4276705Y7129389D01*
X4265499Y7180900D01*
X4265499Y7529261D01*
X4265499Y7529266D01*
X4262646Y7559700D01*
X4260024Y7567192D01*
X4217793Y7687883D01*
X4137150Y7797151D01*
X4052208Y7859840D01*
X4027883Y7877793D01*
X4027881Y7877794D01*
X3899701Y7922647D01*
X3869270Y7925500D01*
X1710739Y7925500D01*
X1696751Y7924189D01*
X1680300Y7922646D01*
X1680297Y7922646D01*
X1680296Y7922645D01*
X1680294Y7922645D01*
X1552117Y7877794D01*
X1442849Y7797151D01*
X1362206Y7687882D01*
X1317353Y7559703D01*
X1317353Y7559701D01*
X1314500Y7529271D01*
X1314500Y5370740D01*
X1005500Y5370740D01*
X1005500Y8000000D01*
X27691522Y8000000D01*
X27705405Y7894546D01*
X27710552Y7855456D01*
X27710552Y7855455D01*
X27766344Y7720760D01*
X27791573Y7687881D01*
X27855096Y7605096D01*
X27914258Y7559700D01*
X27970759Y7516345D01*
X27970760Y7516345D01*
X27970761Y7516344D01*
X28105455Y7460552D01*
X28233183Y7443737D01*
X28249999Y7441522D01*
X28250000Y7441522D01*
X28250001Y7441522D01*
X28265064Y7443506D01*
X28394545Y7460552D01*
X28529239Y7516344D01*
X28533841Y7519876D01*
X28599009Y7545070D01*
X28609328Y7545500D01*
X36152532Y7545500D01*
X36219571Y7525815D01*
X36261545Y7477374D01*
X36262281Y7477798D01*
X36264482Y7473984D01*
X36265326Y7473011D01*
X36266188Y7471030D01*
X36266343Y7470762D01*
X36286994Y7443849D01*
X36355096Y7355096D01*
X36424359Y7301949D01*
X36470759Y7266345D01*
X36470760Y7266345D01*
X36470761Y7266344D01*
X36605455Y7210552D01*
X36733183Y7193737D01*
X36749999Y7191522D01*
X36750000Y7191522D01*
X36750001Y7191522D01*
X36765064Y7193506D01*
X36894545Y7210552D01*
X36989781Y7250000D01*
X37800000Y7250000D01*
X38550000Y7250000D01*
X38550000Y8225000D01*
X38549999Y8225001D01*
X38500029Y8225000D01*
X38500011Y8224999D01*
X38397302Y8214506D01*
X38230880Y8159359D01*
X38230875Y8159357D01*
X38081654Y8067316D01*
X37957684Y7943346D01*
X37865643Y7794125D01*
X37865641Y7794120D01*
X37810494Y7627698D01*
X37810493Y7627691D01*
X37800000Y7524987D01*
X37800000Y7250000D01*
X36989781Y7250000D01*
X37029239Y7266344D01*
X37144904Y7355096D01*
X37233656Y7470761D01*
X37289448Y7605455D01*
X37308478Y7750000D01*
X37289448Y7894545D01*
X37233656Y8029239D01*
X37233655Y8029240D01*
X37233655Y8029241D01*
X37191966Y8083571D01*
X37144904Y8144904D01*
X37059349Y8210552D01*
X37029240Y8233656D01*
X36894541Y8289450D01*
X36886694Y8291552D01*
X36887049Y8292877D01*
X36831009Y8317675D01*
X36814155Y8335025D01*
X36812631Y8336936D01*
X36785994Y8355097D01*
X36764951Y8369444D01*
X36761185Y8372117D01*
X36714773Y8406370D01*
X36707165Y8410390D01*
X36699430Y8414115D01*
X36699429Y8414116D01*
X36699428Y8414116D01*
X36644294Y8431123D01*
X36639890Y8432572D01*
X36585449Y8451622D01*
X36577031Y8453216D01*
X36568506Y8454500D01*
X36568505Y8454500D01*
X36510821Y8454500D01*
X36506184Y8454587D01*
X36504405Y8454654D01*
X36448538Y8456745D01*
X36439305Y8455704D01*
X36439212Y8456525D01*
X36423838Y8454500D01*
X28609328Y8454500D01*
X28542289Y8474185D01*
X28533848Y8480120D01*
X28529239Y8483656D01*
X28529238Y8483657D01*
X28443440Y8519195D01*
X28394545Y8539448D01*
X28260376Y8557112D01*
X28250001Y8558478D01*
X28249999Y8558478D01*
X28105455Y8539448D01*
X28105454Y8539448D01*
X27970759Y8483656D01*
X27855096Y8394904D01*
X27766344Y8279241D01*
X27710552Y8144546D01*
X27710552Y8144545D01*
X27699788Y8062782D01*
X27691522Y8000000D01*
X1005500Y8000000D01*
X1005500Y11249995D01*
X1309443Y11249995D01*
X1329634Y11006317D01*
X1329636Y11006305D01*
X1389663Y10769266D01*
X1487888Y10545334D01*
X1621632Y10340622D01*
X1787242Y10160723D01*
X1787252Y10160714D01*
X1980208Y10010530D01*
X1980212Y10010527D01*
X2195267Y9894145D01*
X2195270Y9894144D01*
X2426541Y9814749D01*
X2426543Y9814749D01*
X2426545Y9814748D01*
X2667737Y9774500D01*
X2667738Y9774500D01*
X2912262Y9774500D01*
X2912263Y9774500D01*
X3153455Y9814748D01*
X3384733Y9894145D01*
X3599788Y10010527D01*
X3792754Y10160719D01*
X3958368Y10340623D01*
X4092111Y10545333D01*
X4190336Y10769264D01*
X4250364Y11006308D01*
X4250365Y11006317D01*
X4270557Y11249995D01*
X4270557Y11250006D01*
X4250365Y11493684D01*
X4250363Y11493696D01*
X4222153Y11605095D01*
X4190336Y11730736D01*
X4092111Y11954667D01*
X4060454Y12003122D01*
X3958367Y12159379D01*
X3792757Y12339278D01*
X3792747Y12339287D01*
X3599791Y12489471D01*
X3599787Y12489474D01*
X3384734Y12605855D01*
X3384729Y12605857D01*
X3153458Y12685252D01*
X2972561Y12715438D01*
X2912263Y12725500D01*
X2667737Y12725500D01*
X2619498Y12717451D01*
X2426541Y12685252D01*
X2195270Y12605857D01*
X2195265Y12605855D01*
X1980212Y12489474D01*
X1980208Y12489471D01*
X1787252Y12339287D01*
X1787242Y12339278D01*
X1621632Y12159379D01*
X1487888Y11954667D01*
X1389663Y11730735D01*
X1329636Y11493696D01*
X1329634Y11493684D01*
X1309443Y11250006D01*
X1309443Y11249995D01*
X1005500Y11249995D01*
X1005500Y13170500D01*
X1025185Y13237539D01*
X1077989Y13283294D01*
X1129500Y13294500D01*
X7613518Y13294500D01*
X7680557Y13274815D01*
X7701199Y13258181D01*
X7758181Y13201199D01*
X7791666Y13139876D01*
X7794500Y13113518D01*
X7794500Y12801362D01*
X7795678Y12779382D01*
X7798511Y12753035D01*
X7798512Y12753033D01*
X7822470Y12676522D01*
X7822471Y12676517D01*
X7827293Y12667687D01*
X7855956Y12615195D01*
X7855958Y12615192D01*
X7855960Y12615189D01*
X7890998Y12568385D01*
X7891002Y12568381D01*
X7891009Y12568371D01*
X7891016Y12568364D01*
X8318365Y12141014D01*
X8318366Y12141013D01*
X8334716Y12126326D01*
X8334730Y12126314D01*
X8334738Y12126307D01*
X8335293Y12125860D01*
X8355379Y12109673D01*
X8426424Y12072510D01*
X8493456Y12052827D01*
X8493458Y12052827D01*
X8493464Y12052825D01*
X8551362Y12044500D01*
X15078008Y12044500D01*
X15145047Y12024815D01*
X15190802Y11972011D01*
X15200746Y11902853D01*
X15193950Y11876529D01*
X15118037Y11676365D01*
X15068704Y11434723D01*
X15068703Y11434716D01*
X15058773Y11188302D01*
X15058773Y11188300D01*
X15088499Y10943475D01*
X15088500Y10943471D01*
X15088501Y10943467D01*
X15157117Y10706579D01*
X15262843Y10483766D01*
X15356191Y10348527D01*
X15402943Y10280796D01*
X15402946Y10280792D01*
X15573782Y10102932D01*
X15770942Y9954776D01*
X15770944Y9954775D01*
X15770948Y9954772D01*
X15989323Y9840160D01*
X16223256Y9762062D01*
X16223261Y9762062D01*
X16223265Y9762060D01*
X16466684Y9722500D01*
X16466687Y9722500D01*
X16651542Y9722500D01*
X16651552Y9722500D01*
X16835825Y9737376D01*
X17075284Y9796397D01*
X17197222Y9848350D01*
X17302165Y9893062D01*
X17302165Y9893063D01*
X17302174Y9893066D01*
X17471276Y10000000D01*
X36941522Y10000000D01*
X36955458Y9894144D01*
X36960552Y9855456D01*
X36960552Y9855455D01*
X37016344Y9720760D01*
X37060720Y9662929D01*
X37105096Y9605096D01*
X37168023Y9556811D01*
X37220759Y9516345D01*
X37220760Y9516345D01*
X37220761Y9516344D01*
X37355455Y9460552D01*
X37474950Y9444820D01*
X37499999Y9441522D01*
X37500000Y9441522D01*
X37500001Y9441522D01*
X37525050Y9444820D01*
X37644545Y9460552D01*
X37779239Y9516344D01*
X37894904Y9605096D01*
X37983656Y9720761D01*
X38039448Y9855455D01*
X38058478Y10000000D01*
X38039448Y10144545D01*
X37983656Y10279239D01*
X37983655Y10279240D01*
X37983655Y10279241D01*
X37894903Y10394906D01*
X37889219Y10400590D01*
X37855734Y10461913D01*
X37852900Y10488271D01*
X37852900Y11511730D01*
X37872585Y11578769D01*
X37889219Y11599411D01*
X37894899Y11605093D01*
X37894904Y11605096D01*
X37983656Y11720761D01*
X38039448Y11855455D01*
X38058478Y12000000D01*
X38039448Y12144545D01*
X37983656Y12279239D01*
X37983655Y12279240D01*
X37983655Y12279241D01*
X37952735Y12319536D01*
X37894904Y12394904D01*
X37837071Y12439280D01*
X37779240Y12483656D01*
X37711892Y12511552D01*
X37644545Y12539448D01*
X37554020Y12551366D01*
X37500001Y12558478D01*
X37499999Y12558478D01*
X37355455Y12539448D01*
X37355454Y12539448D01*
X37220759Y12483656D01*
X37105096Y12394904D01*
X37016344Y12279241D01*
X36960552Y12144546D01*
X36960552Y12144545D01*
X36946683Y12039198D01*
X36941522Y12000000D01*
X36954034Y11904960D01*
X36960552Y11855456D01*
X36960552Y11855455D01*
X37016344Y11720760D01*
X37105097Y11605095D01*
X37110781Y11599411D01*
X37144266Y11538088D01*
X37147100Y11511730D01*
X37147100Y10488271D01*
X37127415Y10421232D01*
X37110781Y10400590D01*
X37105096Y10394906D01*
X37016344Y10279241D01*
X36960552Y10144546D01*
X36960552Y10144545D01*
X36946294Y10036243D01*
X36941522Y10000000D01*
X17471276Y10000000D01*
X17510619Y10024879D01*
X17695220Y10188421D01*
X17851197Y10379458D01*
X17859908Y10394545D01*
X17884429Y10437017D01*
X17974510Y10593042D01*
X18061964Y10823640D01*
X18111296Y11065281D01*
X18118739Y11249995D01*
X18121226Y11311699D01*
X18121226Y11311706D01*
X18091500Y11556526D01*
X18091499Y11556527D01*
X18091499Y11556533D01*
X18022883Y11793421D01*
X18002122Y11837173D01*
X17987807Y11867343D01*
X17976852Y11936348D01*
X18004943Y12000322D01*
X18063162Y12038953D01*
X18099835Y12044500D01*
X18448639Y12044500D01*
X18451180Y12044637D01*
X18470607Y12045678D01*
X18470614Y12045679D01*
X18470618Y12045679D01*
X18496965Y12048512D01*
X18573482Y12072471D01*
X18634805Y12105956D01*
X18681629Y12141009D01*
X18858991Y12318371D01*
X18873693Y12334738D01*
X18890327Y12355380D01*
X18927490Y12426425D01*
X18944246Y12483488D01*
X18947173Y12493457D01*
X18947173Y12493458D01*
X18947175Y12493464D01*
X18955500Y12551362D01*
X18955500Y17698638D01*
X18954322Y17720607D01*
X18951488Y17746965D01*
X18927529Y17823482D01*
X18894044Y17884805D01*
X18894039Y17884812D01*
X18859001Y17931616D01*
X18858998Y17931619D01*
X18858991Y17931629D01*
X18785546Y18005074D01*
X18681634Y18108987D01*
X18681633Y18108988D01*
X18665283Y18123675D01*
X18665269Y18123687D01*
X18644620Y18140328D01*
X18573575Y18177491D01*
X18506543Y18197174D01*
X18501452Y18197906D01*
X18448638Y18205500D01*
X18448634Y18205500D01*
X6386482Y18205500D01*
X6319443Y18225185D01*
X6298801Y18241819D01*
X6241819Y18298801D01*
X6208334Y18360124D01*
X6205500Y18386482D01*
X6205500Y18943483D01*
X45074500Y18943483D01*
X45076249Y18932442D01*
X45089354Y18849696D01*
X45146950Y18736658D01*
X45146952Y18736656D01*
X45146954Y18736653D01*
X45236652Y18646955D01*
X45236654Y18646954D01*
X45236658Y18646950D01*
X45329501Y18599644D01*
X45349698Y18589353D01*
X45443475Y18574501D01*
X45443481Y18574500D01*
X45906518Y18574501D01*
X46000304Y18589354D01*
X46113342Y18646950D01*
X46203050Y18736658D01*
X46209848Y18750000D01*
X46691522Y18750000D01*
X46703109Y18661986D01*
X46710552Y18605456D01*
X46710552Y18605455D01*
X46766344Y18470760D01*
X46804143Y18421500D01*
X46855096Y18355096D01*
X46928462Y18298801D01*
X46970759Y18266345D01*
X46970760Y18266345D01*
X46970761Y18266344D01*
X47105455Y18210552D01*
X47233183Y18193737D01*
X47249999Y18191522D01*
X47250000Y18191522D01*
X47250001Y18191522D01*
X47265064Y18193506D01*
X47394545Y18210552D01*
X47529239Y18266344D01*
X47644904Y18355096D01*
X47733656Y18470761D01*
X47789448Y18605455D01*
X47794203Y18641577D01*
X47822467Y18705469D01*
X47829445Y18713054D01*
X47853050Y18736658D01*
X47910646Y18849696D01*
X47910646Y18849698D01*
X47910647Y18849699D01*
X47921282Y18916853D01*
X47925500Y18943481D01*
X47925499Y19556518D01*
X47910646Y19650304D01*
X47853050Y19763342D01*
X47853046Y19763346D01*
X47853045Y19763348D01*
X47763347Y19853046D01*
X47763344Y19853048D01*
X47763342Y19853050D01*
X47686517Y19892195D01*
X47650301Y19910648D01*
X47556524Y19925500D01*
X47093482Y19925500D01*
X47012519Y19912677D01*
X46999696Y19910646D01*
X46886658Y19853050D01*
X46886657Y19853049D01*
X46886652Y19853046D01*
X46796954Y19763348D01*
X46796951Y19763343D01*
X46739352Y19650302D01*
X46724500Y19556525D01*
X46724500Y18952888D01*
X46715064Y18905443D01*
X46710553Y18894551D01*
X46710552Y18894550D01*
X46691522Y18750001D01*
X46691522Y18750000D01*
X46209848Y18750000D01*
X46260646Y18849696D01*
X46260646Y18849698D01*
X46260647Y18849699D01*
X46271282Y18916853D01*
X46275500Y18943481D01*
X46275499Y19556518D01*
X46260646Y19650304D01*
X46255611Y19660185D01*
X46242716Y19728851D01*
X46251533Y19763922D01*
X46289448Y19855455D01*
X46308478Y20000000D01*
X46289448Y20144545D01*
X46233656Y20279239D01*
X46233655Y20279240D01*
X46233655Y20279241D01*
X46202735Y20319536D01*
X46144904Y20394904D01*
X46083866Y20441740D01*
X46029240Y20483656D01*
X45929423Y20525001D01*
X45894545Y20539448D01*
X45804020Y20551366D01*
X45750001Y20558478D01*
X45749999Y20558478D01*
X45605455Y20539448D01*
X45605454Y20539448D01*
X45470759Y20483656D01*
X45355096Y20394904D01*
X45266344Y20279241D01*
X45210552Y20144546D01*
X45210552Y20144545D01*
X45191522Y20000001D01*
X45191522Y20000000D01*
X45205887Y19890889D01*
X45195122Y19821853D01*
X45170631Y19787023D01*
X45146950Y19763342D01*
X45089352Y19650302D01*
X45074500Y19556525D01*
X45074500Y18943483D01*
X6205500Y18943483D01*
X6205500Y19130248D01*
X29299500Y19130248D01*
X29311131Y19071771D01*
X29311132Y19071770D01*
X29355447Y19005448D01*
X29421769Y18961133D01*
X29421770Y18961132D01*
X29480247Y18949501D01*
X29480250Y18949500D01*
X29480252Y18949500D01*
X32519750Y18949500D01*
X32519751Y18949501D01*
X32536781Y18952888D01*
X32578229Y18961132D01*
X32578229Y18961133D01*
X32578231Y18961133D01*
X32644552Y19005448D01*
X32688867Y19071769D01*
X32688867Y19071771D01*
X32688868Y19071771D01*
X32700499Y19130248D01*
X32700500Y19130250D01*
X32700500Y20812500D01*
X41500000Y20812500D01*
X41500000Y20409351D01*
X41502899Y20372511D01*
X41502900Y20372505D01*
X41548716Y20214807D01*
X41548717Y20214804D01*
X41632314Y20073448D01*
X41632321Y20073439D01*
X41748438Y19957322D01*
X41748447Y19957315D01*
X41889801Y19873719D01*
X42047514Y19827900D01*
X42047511Y19827900D01*
X42049998Y19827705D01*
X42050000Y19827705D01*
X42050000Y20812500D01*
X42550000Y20812500D01*
X42550000Y19827705D01*
X42550001Y19827705D01*
X42552486Y19827900D01*
X42710198Y19873719D01*
X42851552Y19957315D01*
X42851561Y19957322D01*
X42894239Y20000000D01*
X43441522Y20000000D01*
X43458147Y19873719D01*
X43460552Y19855456D01*
X43460552Y19855455D01*
X43516344Y19720760D01*
X43560720Y19662929D01*
X43605096Y19605096D01*
X43668405Y19556518D01*
X43720759Y19516345D01*
X43720760Y19516345D01*
X43720761Y19516344D01*
X43855455Y19460552D01*
X43983183Y19443737D01*
X43999999Y19441522D01*
X44000000Y19441522D01*
X44000001Y19441522D01*
X44015064Y19443506D01*
X44144545Y19460552D01*
X44279239Y19516344D01*
X44394904Y19605096D01*
X44483656Y19720761D01*
X44539448Y19855455D01*
X44558478Y20000000D01*
X44547306Y20084854D01*
X44551919Y20130855D01*
X44551208Y20130973D01*
X44554469Y20150516D01*
X44554514Y20150711D01*
X44554601Y20151303D01*
X44554653Y20151609D01*
X44554722Y20151598D01*
X44558136Y20166165D01*
X44558167Y20166267D01*
X44562877Y20164836D01*
X44572585Y20197895D01*
X44589219Y20218537D01*
X44639196Y20268515D01*
X44639198Y20268517D01*
X44690573Y20373607D01*
X44700500Y20441740D01*
X44700500Y20812500D01*
X48000000Y20812500D01*
X48000000Y20409351D01*
X48002899Y20372511D01*
X48002900Y20372505D01*
X48048716Y20214807D01*
X48048717Y20214804D01*
X48132314Y20073448D01*
X48132321Y20073439D01*
X48248438Y19957322D01*
X48248447Y19957315D01*
X48389801Y19873719D01*
X48547514Y19827900D01*
X48547511Y19827900D01*
X48549998Y19827705D01*
X48550000Y19827705D01*
X48550000Y20812500D01*
X49050000Y20812500D01*
X49050000Y19827705D01*
X49050001Y19827705D01*
X49052486Y19827900D01*
X49210198Y19873719D01*
X49351552Y19957315D01*
X49351561Y19957322D01*
X49394239Y20000000D01*
X49941522Y20000000D01*
X49958147Y19873719D01*
X49960552Y19855456D01*
X49960552Y19855455D01*
X50016344Y19720760D01*
X50060720Y19662929D01*
X50105096Y19605096D01*
X50168405Y19556518D01*
X50220759Y19516345D01*
X50220760Y19516345D01*
X50220761Y19516344D01*
X50355455Y19460552D01*
X50483183Y19443737D01*
X50499999Y19441522D01*
X50500000Y19441522D01*
X50500001Y19441522D01*
X50515064Y19443506D01*
X50644545Y19460552D01*
X50779239Y19516344D01*
X50894904Y19605096D01*
X50983656Y19720761D01*
X51039448Y19855455D01*
X51058478Y20000000D01*
X51047306Y20084854D01*
X51051919Y20130855D01*
X51051208Y20130973D01*
X51054469Y20150516D01*
X51054514Y20150711D01*
X51054601Y20151303D01*
X51054653Y20151609D01*
X51054722Y20151598D01*
X51058136Y20166165D01*
X51058167Y20166267D01*
X51062877Y20164836D01*
X51072585Y20197895D01*
X51089219Y20218537D01*
X51139196Y20268515D01*
X51139198Y20268517D01*
X51190573Y20373607D01*
X51200500Y20441740D01*
X51200500Y21683260D01*
X51190573Y21751393D01*
X51139198Y21856483D01*
X51139196Y21856485D01*
X51139196Y21856486D01*
X51056485Y21939197D01*
X50951391Y21990574D01*
X50883261Y22000500D01*
X50883260Y22000500D01*
X50516740Y22000500D01*
X50516739Y22000500D01*
X50448608Y21990574D01*
X50343514Y21939197D01*
X50260803Y21856486D01*
X50209426Y21751392D01*
X50199500Y21683261D01*
X50199500Y20528494D01*
X50179815Y20461455D01*
X50150987Y20430119D01*
X50105095Y20394905D01*
X50016344Y20279241D01*
X49960552Y20144546D01*
X49960552Y20144545D01*
X49956497Y20113741D01*
X49941522Y20000000D01*
X49394239Y20000000D01*
X49467678Y20073439D01*
X49467685Y20073448D01*
X49551282Y20214804D01*
X49551283Y20214807D01*
X49597099Y20372505D01*
X49597100Y20372511D01*
X49599999Y20409351D01*
X49600000Y20409366D01*
X49600000Y20812500D01*
X49050000Y20812500D01*
X48550000Y20812500D01*
X48000000Y20812500D01*
X44700500Y20812500D01*
X44700500Y21312500D01*
X48000000Y21312500D01*
X48550000Y21312500D01*
X49050000Y21312500D01*
X49600000Y21312500D01*
X49600000Y21715635D01*
X49599999Y21715650D01*
X49597100Y21752490D01*
X49597099Y21752496D01*
X49571414Y21840905D01*
X49571613Y21910775D01*
X49609555Y21969445D01*
X49673194Y21998288D01*
X49690490Y21999500D01*
X49933261Y21999500D01*
X49955971Y22002809D01*
X50001393Y22009427D01*
X50106483Y22060802D01*
X50189198Y22143517D01*
X50240573Y22248607D01*
X50250500Y22316740D01*
X50250500Y23558260D01*
X50240573Y23626393D01*
X50240571Y23626398D01*
X50240230Y23627097D01*
X50240074Y23628007D01*
X50237730Y23635595D01*
X50238726Y23635903D01*
X50228473Y23695970D01*
X50237071Y23729006D01*
X50289448Y23855455D01*
X50308478Y24000000D01*
X50289448Y24144545D01*
X50233656Y24279239D01*
X50233655Y24279240D01*
X50233655Y24279241D01*
X50202735Y24319536D01*
X50144904Y24394904D01*
X50087071Y24439280D01*
X50029240Y24483656D01*
X49961892Y24511552D01*
X49894545Y24539448D01*
X49822272Y24548963D01*
X49750001Y24558478D01*
X49749999Y24558478D01*
X49605455Y24539448D01*
X49605454Y24539448D01*
X49470759Y24483656D01*
X49355096Y24394904D01*
X49266344Y24279241D01*
X49210552Y24144546D01*
X49210552Y24144545D01*
X49191522Y24000001D01*
X49191522Y24000000D01*
X49210552Y23855456D01*
X49210552Y23855455D01*
X49262929Y23729006D01*
X49270398Y23659536D01*
X49259773Y23627101D01*
X49259428Y23626396D01*
X49259425Y23626389D01*
X49249500Y23558261D01*
X49249500Y22405017D01*
X49229815Y22337978D01*
X49177011Y22292223D01*
X49107853Y22282279D01*
X49090907Y22285940D01*
X49052494Y22297100D01*
X49050000Y22297297D01*
X49050000Y21312500D01*
X48550000Y21312500D01*
X48550000Y22297297D01*
X48547503Y22297100D01*
X48389806Y22251284D01*
X48389803Y22251283D01*
X48248447Y22167686D01*
X48248438Y22167679D01*
X48132321Y22051562D01*
X48132314Y22051553D01*
X48048717Y21910197D01*
X48048716Y21910194D01*
X48002900Y21752496D01*
X48002899Y21752490D01*
X48000000Y21715650D01*
X48000000Y21312500D01*
X44700500Y21312500D01*
X44700500Y21683260D01*
X44690573Y21751393D01*
X44639198Y21856483D01*
X44639196Y21856485D01*
X44639196Y21856486D01*
X44556485Y21939197D01*
X44451391Y21990574D01*
X44383261Y22000500D01*
X44383260Y22000500D01*
X44016740Y22000500D01*
X44016739Y22000500D01*
X43948608Y21990574D01*
X43843514Y21939197D01*
X43760803Y21856486D01*
X43709426Y21751392D01*
X43699500Y21683261D01*
X43699500Y20528494D01*
X43679815Y20461455D01*
X43650987Y20430119D01*
X43605095Y20394905D01*
X43516344Y20279241D01*
X43460552Y20144546D01*
X43460552Y20144545D01*
X43456497Y20113741D01*
X43441522Y20000000D01*
X42894239Y20000000D01*
X42967678Y20073439D01*
X42967685Y20073448D01*
X43051282Y20214804D01*
X43051283Y20214807D01*
X43097099Y20372505D01*
X43097100Y20372511D01*
X43099999Y20409351D01*
X43100000Y20409366D01*
X43100000Y20812500D01*
X42550000Y20812500D01*
X42050000Y20812500D01*
X41500000Y20812500D01*
X32700500Y20812500D01*
X32700500Y21312500D01*
X41500000Y21312500D01*
X42050000Y21312500D01*
X42550000Y21312500D01*
X43100000Y21312500D01*
X43100000Y21715635D01*
X43099999Y21715650D01*
X43097100Y21752490D01*
X43097099Y21752496D01*
X43071414Y21840905D01*
X43071613Y21910775D01*
X43109555Y21969445D01*
X43173194Y21998288D01*
X43190490Y21999500D01*
X43433261Y21999500D01*
X43455971Y22002809D01*
X43501393Y22009427D01*
X43606483Y22060802D01*
X43689198Y22143517D01*
X43740573Y22248607D01*
X43750500Y22316740D01*
X43750500Y23558260D01*
X43740573Y23626393D01*
X43740571Y23626398D01*
X43740230Y23627097D01*
X43740074Y23628007D01*
X43737730Y23635595D01*
X43738726Y23635903D01*
X43728473Y23695970D01*
X43737071Y23729006D01*
X43789448Y23855455D01*
X43808478Y24000000D01*
X43789448Y24144545D01*
X43733656Y24279239D01*
X43733655Y24279240D01*
X43733655Y24279241D01*
X43702735Y24319536D01*
X43644904Y24394904D01*
X43587071Y24439280D01*
X43529240Y24483656D01*
X43461892Y24511552D01*
X43394545Y24539448D01*
X43322272Y24548963D01*
X43250001Y24558478D01*
X43249999Y24558478D01*
X43105455Y24539448D01*
X43105454Y24539448D01*
X42970759Y24483656D01*
X42855096Y24394904D01*
X42766344Y24279241D01*
X42710552Y24144546D01*
X42710552Y24144545D01*
X42691522Y24000001D01*
X42691522Y24000000D01*
X42710552Y23855456D01*
X42710552Y23855455D01*
X42762929Y23729006D01*
X42770398Y23659536D01*
X42759773Y23627101D01*
X42759428Y23626396D01*
X42759425Y23626389D01*
X42749500Y23558261D01*
X42749500Y22405017D01*
X42729815Y22337978D01*
X42677011Y22292223D01*
X42607853Y22282279D01*
X42590907Y22285940D01*
X42552494Y22297100D01*
X42550000Y22297297D01*
X42550000Y21312500D01*
X42050000Y21312500D01*
X42050000Y22297297D01*
X42047503Y22297100D01*
X41889806Y22251284D01*
X41889803Y22251283D01*
X41748447Y22167686D01*
X41748438Y22167679D01*
X41632321Y22051562D01*
X41632314Y22051553D01*
X41548717Y21910197D01*
X41548716Y21910194D01*
X41502900Y21752496D01*
X41502899Y21752490D01*
X41500000Y21715650D01*
X41500000Y21312500D01*
X32700500Y21312500D01*
X32700500Y21669751D01*
X32700499Y21669753D01*
X32688868Y21728230D01*
X32688867Y21728231D01*
X32644552Y21794553D01*
X32578230Y21838868D01*
X32578229Y21838869D01*
X32519752Y21850500D01*
X32519748Y21850500D01*
X29480252Y21850500D01*
X29480247Y21850500D01*
X29421770Y21838869D01*
X29421769Y21838868D01*
X29355447Y21794553D01*
X29311132Y21728231D01*
X29311131Y21728230D01*
X29299500Y21669753D01*
X29299500Y19130248D01*
X6205500Y19130248D01*
X6205500Y19198639D01*
X6204321Y19220619D01*
X6201488Y19246966D01*
X6201487Y19246968D01*
X6191382Y19279239D01*
X6177529Y19323482D01*
X6144044Y19384805D01*
X6108991Y19431629D01*
X6024275Y19516345D01*
X5931634Y19608987D01*
X5931633Y19608988D01*
X5915283Y19623675D01*
X5915269Y19623687D01*
X5894620Y19640328D01*
X5823575Y19677491D01*
X5756543Y19697174D01*
X5755894Y19697268D01*
X5698638Y19705500D01*
X1129500Y19705500D01*
X1062461Y19725185D01*
X1016706Y19777989D01*
X1005500Y19829500D01*
X1005500Y19920500D01*
X1025185Y19987539D01*
X1077989Y20033294D01*
X1129500Y20044500D01*
X4948639Y20044500D01*
X4951180Y20044637D01*
X4970607Y20045678D01*
X4970614Y20045679D01*
X4970618Y20045679D01*
X4996965Y20048512D01*
X5073482Y20072471D01*
X5134805Y20105956D01*
X5181629Y20141009D01*
X5358991Y20318371D01*
X5373693Y20334738D01*
X5390327Y20355380D01*
X5427490Y20426425D01*
X5447175Y20493464D01*
X5455500Y20551362D01*
X5455500Y25698638D01*
X5454322Y25720607D01*
X5451488Y25746965D01*
X5427529Y25823482D01*
X5394044Y25884805D01*
X5393287Y25885816D01*
X5359001Y25931616D01*
X5358998Y25931619D01*
X5358991Y25931629D01*
X5280233Y26010387D01*
X5181634Y26108987D01*
X5181633Y26108988D01*
X5165283Y26123675D01*
X5165269Y26123687D01*
X5144620Y26140328D01*
X5073575Y26177491D01*
X5006543Y26197174D01*
X4994511Y26198904D01*
X4948638Y26205500D01*
X4948634Y26205500D01*
X4386482Y26205500D01*
X4319443Y26225185D01*
X4298801Y26241819D01*
X4241819Y26298801D01*
X4208334Y26360124D01*
X4205500Y26386482D01*
X4205500Y28763583D01*
X4225185Y28830622D01*
X4277989Y28876377D01*
X4338343Y28887267D01*
X4385699Y28883880D01*
X4410834Y28883624D01*
X4433616Y28890062D01*
X4503480Y28889352D01*
X4561872Y28850982D01*
X4590249Y28787134D01*
X4584381Y28729786D01*
X4577354Y28709702D01*
X4577353Y28709700D01*
X4574500Y28679270D01*
X4574500Y27320731D01*
X4577353Y27290301D01*
X4577353Y27290299D01*
X4622206Y27162120D01*
X4622207Y27162118D01*
X4702850Y27052850D01*
X4812118Y26972207D01*
X4840928Y26962126D01*
X4940299Y26927354D01*
X4970730Y26924500D01*
X5809853Y26924500D01*
X5876892Y26904815D01*
X5922647Y26852011D01*
X5932591Y26782853D01*
X5922648Y26748990D01*
X5912615Y26727022D01*
X5903587Y26703550D01*
X5903586Y26703547D01*
X5896133Y26612404D01*
X5896133Y26612402D01*
X5904910Y26551362D01*
X5906078Y26543242D01*
X5911170Y26518627D01*
X5936677Y26470760D01*
X5954179Y26437917D01*
X5954181Y26437914D01*
X5999940Y26385105D01*
X6008542Y26376326D01*
X6017526Y26367157D01*
X6017527Y26367156D01*
X6017529Y26367155D01*
X6097339Y26322512D01*
X6097343Y26322510D01*
X6164382Y26302825D01*
X6222280Y26294500D01*
X6222284Y26294500D01*
X6948639Y26294500D01*
X6951180Y26294637D01*
X6970607Y26295678D01*
X6970614Y26295679D01*
X6970618Y26295679D01*
X6996965Y26298512D01*
X7073482Y26322471D01*
X7134805Y26355956D01*
X7181629Y26391009D01*
X7287319Y26496699D01*
X7348642Y26530184D01*
X7418334Y26525200D01*
X7462679Y26496701D01*
X7521463Y26437917D01*
X7568375Y26391005D01*
X7584716Y26376326D01*
X7584730Y26376314D01*
X7584738Y26376307D01*
X7593136Y26369540D01*
X7605379Y26359673D01*
X7676424Y26322510D01*
X7743456Y26302827D01*
X7743458Y26302827D01*
X7743464Y26302825D01*
X7801362Y26294500D01*
X8113518Y26294500D01*
X8180557Y26274815D01*
X8201199Y26258181D01*
X8258181Y26201199D01*
X8291666Y26139876D01*
X8294500Y26113518D01*
X8294500Y21051362D01*
X8295678Y21029382D01*
X8298511Y21003035D01*
X8298512Y21003033D01*
X8322470Y20926522D01*
X8322471Y20926517D01*
X8336872Y20900145D01*
X8355956Y20865195D01*
X8355958Y20865192D01*
X8355960Y20865189D01*
X8390998Y20818385D01*
X8391002Y20818381D01*
X8391009Y20818371D01*
X8391013Y20818367D01*
X8391016Y20818364D01*
X8568365Y20641014D01*
X8568366Y20641013D01*
X8584716Y20626326D01*
X8584730Y20626314D01*
X8584738Y20626307D01*
X8593136Y20619540D01*
X8605379Y20609673D01*
X8676424Y20572510D01*
X8743456Y20552827D01*
X8743458Y20552827D01*
X8743464Y20552825D01*
X8801362Y20544500D01*
X8801366Y20544500D01*
X18698639Y20544500D01*
X18701180Y20544637D01*
X18720607Y20545678D01*
X18720614Y20545679D01*
X18720618Y20545679D01*
X18746965Y20548512D01*
X18823482Y20572471D01*
X18884805Y20605956D01*
X18931629Y20641009D01*
X19108991Y20818371D01*
X19123693Y20834738D01*
X19140327Y20855380D01*
X19177490Y20926425D01*
X19197175Y20993464D01*
X19205500Y21051362D01*
X19205500Y23500000D01*
X22794357Y23500000D01*
X22814884Y23278465D01*
X22814885Y23278463D01*
X22875769Y23064477D01*
X22875775Y23064462D01*
X22974938Y22865317D01*
X22974943Y22865309D01*
X23109020Y22687762D01*
X23273437Y22537877D01*
X23273439Y22537875D01*
X23462595Y22420755D01*
X23462596Y22420755D01*
X23462599Y22420753D01*
X23670060Y22340382D01*
X23888757Y22299500D01*
X23888759Y22299500D01*
X24111241Y22299500D01*
X24111243Y22299500D01*
X24329940Y22340382D01*
X24537401Y22420753D01*
X24726562Y22537876D01*
X24874397Y22672646D01*
X24890979Y22687762D01*
X24892379Y22689615D01*
X25025058Y22865311D01*
X25124229Y23064472D01*
X25185115Y23278464D01*
X25205643Y23500000D01*
X37294357Y23500000D01*
X37314884Y23278465D01*
X37314885Y23278463D01*
X37375769Y23064477D01*
X37375775Y23064462D01*
X37474938Y22865317D01*
X37474943Y22865309D01*
X37609020Y22687762D01*
X37773437Y22537877D01*
X37773439Y22537875D01*
X37962595Y22420755D01*
X37962596Y22420755D01*
X37962599Y22420753D01*
X38170060Y22340382D01*
X38388757Y22299500D01*
X38388759Y22299500D01*
X38611241Y22299500D01*
X38611243Y22299500D01*
X38829940Y22340382D01*
X39037401Y22420753D01*
X39226562Y22537876D01*
X39374397Y22672646D01*
X39390979Y22687762D01*
X39392379Y22689615D01*
X39525058Y22865311D01*
X39624229Y23064472D01*
X39685115Y23278464D01*
X39705643Y23500000D01*
X39693078Y23635595D01*
X39685115Y23721536D01*
X39685114Y23721538D01*
X39682989Y23729006D01*
X39624229Y23935528D01*
X39592126Y24000000D01*
X39525061Y24134684D01*
X39525056Y24134692D01*
X39390979Y24312239D01*
X39226562Y24462124D01*
X39226560Y24462126D01*
X39037404Y24579246D01*
X39037395Y24579250D01*
X38965560Y24607079D01*
X38895101Y24634375D01*
X38839701Y24676946D01*
X38816110Y24742712D01*
X38831821Y24810793D01*
X38881844Y24859572D01*
X38895093Y24865623D01*
X39037401Y24920753D01*
X39226562Y25037876D01*
X39390981Y25187764D01*
X39525058Y25365311D01*
X39624229Y25564472D01*
X39685115Y25778464D01*
X39705643Y26000000D01*
X39685115Y26221536D01*
X39624229Y26435528D01*
X39623041Y26437914D01*
X39525061Y26634684D01*
X39525056Y26634692D01*
X39390979Y26812239D01*
X39226562Y26962124D01*
X39226560Y26962126D01*
X39052218Y27070073D01*
X39005582Y27122101D01*
X38994478Y27191082D01*
X39022431Y27255117D01*
X39080566Y27293873D01*
X39117495Y27299500D01*
X39519750Y27299500D01*
X39519751Y27299501D01*
X39534568Y27302448D01*
X39578229Y27311132D01*
X39578229Y27311133D01*
X39578231Y27311133D01*
X39644552Y27355448D01*
X39688867Y27421769D01*
X39688867Y27421771D01*
X39688868Y27421771D01*
X39700499Y27480248D01*
X39700500Y27480250D01*
X39700500Y29000000D01*
X42157785Y29000000D01*
X42176602Y28796918D01*
X42232417Y28600753D01*
X42232422Y28600740D01*
X42323327Y28418179D01*
X42446237Y28255419D01*
X42596958Y28118020D01*
X42596960Y28118018D01*
X42683457Y28064462D01*
X42770363Y28010652D01*
X42960544Y27936976D01*
X43161024Y27899500D01*
X43161026Y27899500D01*
X43364974Y27899500D01*
X43364976Y27899500D01*
X43565456Y27936976D01*
X43755637Y28010652D01*
X43929041Y28118019D01*
X44079764Y28255421D01*
X44202673Y28418179D01*
X44223896Y28460801D01*
X44231500Y28476071D01*
X44279002Y28527308D01*
X44346665Y28544730D01*
X44413006Y28522805D01*
X44453500Y28476071D01*
X44465741Y28451488D01*
X44482327Y28418179D01*
X44498187Y28397177D01*
X44605237Y28255419D01*
X44755958Y28118020D01*
X44755960Y28118018D01*
X44842457Y28064462D01*
X44929363Y28010652D01*
X45119544Y27936976D01*
X45320024Y27899500D01*
X45320026Y27899500D01*
X45523974Y27899500D01*
X45523976Y27899500D01*
X45724456Y27936976D01*
X45914637Y28010652D01*
X46088041Y28118019D01*
X46238764Y28255421D01*
X46361673Y28418179D01*
X46382896Y28460801D01*
X46390500Y28476071D01*
X46438002Y28527308D01*
X46505665Y28544730D01*
X46572006Y28522805D01*
X46612500Y28476071D01*
X46624741Y28451488D01*
X46641327Y28418179D01*
X46657187Y28397177D01*
X46764237Y28255419D01*
X46914958Y28118020D01*
X46914960Y28118018D01*
X47001457Y28064462D01*
X47088363Y28010652D01*
X47278544Y27936976D01*
X47479024Y27899500D01*
X47479026Y27899500D01*
X47682974Y27899500D01*
X47682976Y27899500D01*
X47883456Y27936976D01*
X48073637Y28010652D01*
X48247041Y28118019D01*
X48397764Y28255421D01*
X48416546Y28280294D01*
X48472654Y28321928D01*
X48542366Y28326621D01*
X48603548Y28292879D01*
X48636776Y28231416D01*
X48639500Y28205566D01*
X48639500Y28080248D01*
X48651131Y28021771D01*
X48651132Y28021770D01*
X48695447Y27955448D01*
X48761769Y27911133D01*
X48761770Y27911132D01*
X48820247Y27899501D01*
X48820250Y27899500D01*
X48820252Y27899500D01*
X50659750Y27899500D01*
X50659751Y27899501D01*
X50674568Y27902448D01*
X50718229Y27911132D01*
X50718229Y27911133D01*
X50718231Y27911133D01*
X50784552Y27955448D01*
X50828867Y28021769D01*
X50828867Y28021771D01*
X50828868Y28021771D01*
X50840499Y28080248D01*
X50840500Y28080250D01*
X50840500Y29450000D01*
X55025000Y29450000D01*
X56000000Y29450000D01*
X56000000Y30200000D01*
X56500000Y30200000D01*
X56500000Y29450000D01*
X58000000Y29450000D01*
X58000000Y30200000D01*
X58500000Y30200000D01*
X58500000Y29450000D01*
X60000000Y29450000D01*
X60000000Y30200000D01*
X60500000Y30200000D01*
X60500000Y29450000D01*
X61474999Y29450000D01*
X61474999Y29499972D01*
X61474998Y29499987D01*
X61464505Y29602698D01*
X61409358Y29769120D01*
X61409356Y29769125D01*
X61317315Y29918346D01*
X61193345Y30042316D01*
X61044124Y30134357D01*
X61044119Y30134359D01*
X60877697Y30189506D01*
X60877690Y30189507D01*
X60774986Y30200000D01*
X60500000Y30200000D01*
X60000000Y30200000D01*
X59725029Y30200000D01*
X59725012Y30199999D01*
X59622302Y30189506D01*
X59455880Y30134359D01*
X59455875Y30134357D01*
X59315097Y30047523D01*
X59247704Y30029083D01*
X59184903Y30047523D01*
X59044124Y30134357D01*
X59044119Y30134359D01*
X58877697Y30189506D01*
X58877690Y30189507D01*
X58774986Y30200000D01*
X58500000Y30200000D01*
X58000000Y30200000D01*
X57725029Y30200000D01*
X57725012Y30199999D01*
X57622302Y30189506D01*
X57455880Y30134359D01*
X57455875Y30134357D01*
X57315097Y30047523D01*
X57247704Y30029083D01*
X57184903Y30047523D01*
X57044124Y30134357D01*
X57044119Y30134359D01*
X56877697Y30189506D01*
X56877690Y30189507D01*
X56774986Y30200000D01*
X56500000Y30200000D01*
X56000000Y30200000D01*
X55725029Y30200000D01*
X55725012Y30199999D01*
X55622302Y30189506D01*
X55455880Y30134359D01*
X55455875Y30134357D01*
X55306654Y30042316D01*
X55182684Y29918346D01*
X55090643Y29769125D01*
X55090641Y29769120D01*
X55035494Y29602698D01*
X55035493Y29602691D01*
X55025000Y29499987D01*
X55025000Y29450000D01*
X50840500Y29450000D01*
X50840500Y29919751D01*
X50840499Y29919753D01*
X50828868Y29978230D01*
X50828867Y29978231D01*
X50784552Y30044553D01*
X50718230Y30088868D01*
X50718229Y30088869D01*
X50659752Y30100500D01*
X50659748Y30100500D01*
X48820252Y30100500D01*
X48820247Y30100500D01*
X48761770Y30088869D01*
X48761769Y30088868D01*
X48695447Y30044553D01*
X48651132Y29978231D01*
X48651131Y29978230D01*
X48639500Y29919753D01*
X48639500Y29794435D01*
X48619815Y29727396D01*
X48567011Y29681641D01*
X48497853Y29671697D01*
X48434297Y29700722D01*
X48416547Y29719707D01*
X48397763Y29744581D01*
X48247041Y29881981D01*
X48247039Y29881983D01*
X48073642Y29989345D01*
X48073635Y29989349D01*
X47923469Y30047523D01*
X47883456Y30063024D01*
X47682976Y30100500D01*
X47479024Y30100500D01*
X47278544Y30063024D01*
X47278541Y30063024D01*
X47278541Y30063023D01*
X47088364Y29989349D01*
X47088357Y29989345D01*
X46914960Y29881983D01*
X46914958Y29881981D01*
X46764237Y29744582D01*
X46641327Y29581822D01*
X46612500Y29523929D01*
X46564997Y29472692D01*
X46497334Y29455271D01*
X46430994Y29477197D01*
X46390500Y29523929D01*
X46363461Y29578230D01*
X46361673Y29581821D01*
X46279122Y29691136D01*
X46238762Y29744582D01*
X46088041Y29881981D01*
X46088039Y29881983D01*
X45914642Y29989345D01*
X45914635Y29989349D01*
X45764469Y30047523D01*
X45724456Y30063024D01*
X45523976Y30100500D01*
X45320024Y30100500D01*
X45119544Y30063024D01*
X45119541Y30063024D01*
X45119541Y30063023D01*
X44929364Y29989349D01*
X44929357Y29989345D01*
X44755960Y29881983D01*
X44755958Y29881981D01*
X44605237Y29744582D01*
X44482327Y29581822D01*
X44453500Y29523929D01*
X44405997Y29472692D01*
X44338334Y29455271D01*
X44271994Y29477197D01*
X44231500Y29523929D01*
X44204461Y29578230D01*
X44202673Y29581821D01*
X44120122Y29691136D01*
X44079762Y29744582D01*
X43929041Y29881981D01*
X43929039Y29881983D01*
X43755642Y29989345D01*
X43755635Y29989349D01*
X43605469Y30047523D01*
X43565456Y30063024D01*
X43364976Y30100500D01*
X43161024Y30100500D01*
X42960544Y30063024D01*
X42960541Y30063024D01*
X42960541Y30063023D01*
X42770364Y29989349D01*
X42770357Y29989345D01*
X42596960Y29881983D01*
X42596958Y29881981D01*
X42446237Y29744582D01*
X42323327Y29581822D01*
X42232422Y29399261D01*
X42232417Y29399248D01*
X42176602Y29203083D01*
X42157785Y29000001D01*
X42157785Y29000000D01*
X39700500Y29000000D01*
X39700500Y29519751D01*
X39700499Y29519753D01*
X39688868Y29578230D01*
X39688867Y29578231D01*
X39644552Y29644553D01*
X39578230Y29688868D01*
X39578229Y29688869D01*
X39519752Y29700500D01*
X39519748Y29700500D01*
X37480252Y29700500D01*
X37480247Y29700500D01*
X37421770Y29688869D01*
X37421769Y29688868D01*
X37355447Y29644553D01*
X37311132Y29578231D01*
X37311131Y29578230D01*
X37299500Y29519753D01*
X37299500Y27480248D01*
X37311131Y27421771D01*
X37311132Y27421770D01*
X37355447Y27355448D01*
X37421769Y27311133D01*
X37421770Y27311132D01*
X37480247Y27299501D01*
X37480250Y27299500D01*
X37882505Y27299500D01*
X37949544Y27279815D01*
X37995299Y27227011D01*
X38005243Y27157853D01*
X37976218Y27094297D01*
X37947782Y27070073D01*
X37773439Y26962126D01*
X37773437Y26962124D01*
X37609020Y26812239D01*
X37474943Y26634692D01*
X37474938Y26634684D01*
X37375775Y26435539D01*
X37375769Y26435524D01*
X37314885Y26221538D01*
X37314884Y26221536D01*
X37294357Y26000001D01*
X37294357Y26000000D01*
X37314884Y25778465D01*
X37314885Y25778463D01*
X37375769Y25564477D01*
X37375775Y25564462D01*
X37474938Y25365317D01*
X37474943Y25365309D01*
X37609020Y25187762D01*
X37773437Y25037877D01*
X37773439Y25037875D01*
X37962595Y24920755D01*
X37962596Y24920755D01*
X37962599Y24920753D01*
X38104898Y24865626D01*
X38160298Y24823054D01*
X38183889Y24757287D01*
X38168178Y24689207D01*
X38118154Y24640428D01*
X38104906Y24634378D01*
X37998693Y24593231D01*
X37962601Y24579248D01*
X37962595Y24579246D01*
X37773439Y24462126D01*
X37773437Y24462124D01*
X37609020Y24312239D01*
X37474943Y24134692D01*
X37474938Y24134684D01*
X37375775Y23935539D01*
X37375769Y23935524D01*
X37314885Y23721538D01*
X37314884Y23721536D01*
X37294357Y23500001D01*
X37294357Y23500000D01*
X25205643Y23500000D01*
X25193078Y23635595D01*
X25185115Y23721536D01*
X25185114Y23721538D01*
X25182989Y23729006D01*
X25124229Y23935528D01*
X25092126Y24000000D01*
X25025061Y24134684D01*
X25025056Y24134692D01*
X24890979Y24312239D01*
X24726562Y24462124D01*
X24726560Y24462126D01*
X24537404Y24579246D01*
X24537398Y24579248D01*
X24537393Y24579250D01*
X24329940Y24659618D01*
X24111243Y24700500D01*
X23888757Y24700500D01*
X23670060Y24659618D01*
X23538864Y24608793D01*
X23462601Y24579248D01*
X23462595Y24579246D01*
X23273439Y24462126D01*
X23273437Y24462124D01*
X23109020Y24312239D01*
X22974943Y24134692D01*
X22974938Y24134684D01*
X22875775Y23935539D01*
X22875769Y23935524D01*
X22814885Y23721538D01*
X22814884Y23721536D01*
X22794357Y23500001D01*
X22794357Y23500000D01*
X19205500Y23500000D01*
X19205500Y26113518D01*
X19225185Y26180556D01*
X19241819Y26201198D01*
X19298802Y26258181D01*
X19358991Y26318370D01*
X19373693Y26334738D01*
X19373698Y26334746D01*
X19373704Y26334751D01*
X19390325Y26355377D01*
X19390325Y26355378D01*
X19390327Y26355380D01*
X19427490Y26426425D01*
X19447175Y26493464D01*
X19455500Y26551362D01*
X19455500Y26750000D01*
X31191522Y26750000D01*
X31209637Y26612402D01*
X31210552Y26605456D01*
X31210552Y26605455D01*
X31266344Y26470760D01*
X31293379Y26435528D01*
X31355096Y26355096D01*
X31423215Y26302827D01*
X31470759Y26266345D01*
X31470760Y26266345D01*
X31470761Y26266344D01*
X31605455Y26210552D01*
X31693941Y26198903D01*
X31757836Y26170639D01*
X31765436Y26163646D01*
X31919329Y26009753D01*
X32009753Y25919329D01*
X32029724Y25909154D01*
X32046307Y25898991D01*
X32064439Y25885818D01*
X32064442Y25885816D01*
X32077359Y25881620D01*
X32085747Y25878894D01*
X32103722Y25871450D01*
X32123695Y25861273D01*
X32145833Y25857767D01*
X32164734Y25853230D01*
X32186061Y25846300D01*
X32218230Y25846300D01*
X35074467Y25846300D01*
X35141506Y25826615D01*
X35149953Y25820676D01*
X35220759Y25766345D01*
X35220760Y25766345D01*
X35220761Y25766344D01*
X35355455Y25710552D01*
X35483183Y25693737D01*
X35499999Y25691522D01*
X35500000Y25691522D01*
X35500001Y25691522D01*
X35515064Y25693506D01*
X35644545Y25710552D01*
X35779239Y25766344D01*
X35894904Y25855096D01*
X35983656Y25970761D01*
X36039448Y26105455D01*
X36058478Y26250000D01*
X36058078Y26253035D01*
X36049477Y26318365D01*
X36039448Y26394545D01*
X35983656Y26529239D01*
X35983655Y26529240D01*
X35983655Y26529241D01*
X35952735Y26569536D01*
X35894904Y26644904D01*
X35836108Y26690019D01*
X35779240Y26733656D01*
X35711892Y26761552D01*
X35644545Y26789448D01*
X35518359Y26806061D01*
X35500001Y26808478D01*
X35499999Y26808478D01*
X35355455Y26789448D01*
X35355454Y26789448D01*
X35220759Y26733656D01*
X35149953Y26679324D01*
X35084784Y26654130D01*
X35074467Y26653700D01*
X32468580Y26653700D01*
X32401541Y26673385D01*
X32380899Y26690019D01*
X32336354Y26734564D01*
X32302869Y26795887D01*
X32301099Y26806043D01*
X32289448Y26894545D01*
X32233656Y27029239D01*
X32233655Y27029240D01*
X32233655Y27029241D01*
X32195284Y27079247D01*
X32144904Y27144904D01*
X32072449Y27200500D01*
X32029240Y27233656D01*
X31952153Y27265586D01*
X31894545Y27289448D01*
X31818186Y27299501D01*
X31750001Y27308478D01*
X31749999Y27308478D01*
X31605455Y27289448D01*
X31605454Y27289448D01*
X31470759Y27233656D01*
X31355096Y27144904D01*
X31266344Y27029241D01*
X31210552Y26894546D01*
X31210552Y26894545D01*
X31196716Y26789448D01*
X31191522Y26750000D01*
X19455500Y26750000D01*
X19455500Y28500000D01*
X22794357Y28500000D01*
X22814884Y28278465D01*
X22814885Y28278463D01*
X22875769Y28064477D01*
X22875775Y28064462D01*
X22974938Y27865317D01*
X22974943Y27865309D01*
X23109020Y27687762D01*
X23273437Y27537877D01*
X23273439Y27537875D01*
X23462595Y27420755D01*
X23462596Y27420755D01*
X23462599Y27420753D01*
X23670060Y27340382D01*
X23888757Y27299500D01*
X23888759Y27299500D01*
X24111241Y27299500D01*
X24111243Y27299500D01*
X24329940Y27340382D01*
X24537401Y27420753D01*
X24726562Y27537876D01*
X24866282Y27665249D01*
X24890979Y27687762D01*
X24914636Y27719088D01*
X25025058Y27865311D01*
X25124229Y28064472D01*
X25185115Y28278464D01*
X25205643Y28500000D01*
X25203049Y28527989D01*
X25185115Y28721536D01*
X25185114Y28721538D01*
X25182767Y28729786D01*
X25124229Y28935528D01*
X25117023Y28950000D01*
X25025061Y29134684D01*
X25025056Y29134692D01*
X24890979Y29312239D01*
X24726562Y29462124D01*
X24726560Y29462126D01*
X24537404Y29579246D01*
X24537398Y29579248D01*
X24329940Y29659618D01*
X24111243Y29700500D01*
X23888757Y29700500D01*
X23670060Y29659618D01*
X23538864Y29608793D01*
X23462601Y29579248D01*
X23462595Y29579246D01*
X23273439Y29462126D01*
X23273437Y29462124D01*
X23109020Y29312239D01*
X22974943Y29134692D01*
X22974938Y29134684D01*
X22875775Y28935539D01*
X22875769Y28935524D01*
X22814885Y28721538D01*
X22814884Y28721536D01*
X22794357Y28500001D01*
X22794357Y28500000D01*
X19455500Y28500000D01*
X19455500Y29698638D01*
X19454322Y29720607D01*
X19451488Y29746965D01*
X19427529Y29823482D01*
X19394044Y29884805D01*
X19387167Y29893992D01*
X19359001Y29931616D01*
X19358998Y29931619D01*
X19358991Y29931629D01*
X19273890Y30016730D01*
X19181634Y30108987D01*
X19181633Y30108988D01*
X19165283Y30123675D01*
X19165269Y30123687D01*
X19164930Y30123960D01*
X19154801Y30132123D01*
X19144620Y30140328D01*
X19073575Y30177491D01*
X19006543Y30197174D01*
X19005894Y30197268D01*
X18948638Y30205500D01*
X18948634Y30205500D01*
X18766729Y30205500D01*
X18699690Y30225185D01*
X18653935Y30277989D01*
X18646421Y30330248D01*
X29299500Y30330248D01*
X29311131Y30271771D01*
X29311132Y30271770D01*
X29355447Y30205448D01*
X29421769Y30161133D01*
X29421770Y30161132D01*
X29480247Y30149501D01*
X29480250Y30149500D01*
X29480252Y30149500D01*
X32519750Y30149500D01*
X32519751Y30149501D01*
X32534568Y30152448D01*
X32578229Y30161132D01*
X32578229Y30161133D01*
X32578231Y30161133D01*
X32644552Y30205448D01*
X32688867Y30271769D01*
X32688867Y30271771D01*
X32688868Y30271771D01*
X32700499Y30330248D01*
X32700500Y30330250D01*
X32700500Y32869751D01*
X32700499Y32869753D01*
X32688868Y32928230D01*
X32688867Y32928231D01*
X32644552Y32994553D01*
X32636400Y33000000D01*
X64394551Y33000000D01*
X64401522Y32911421D01*
X64402084Y32904286D01*
X64402466Y32894557D01*
X64402466Y32874266D01*
X64405638Y32854238D01*
X64406783Y32844571D01*
X64410726Y32794469D01*
X64414317Y32748852D01*
X64414317Y32748849D01*
X64414318Y32748847D01*
X64436728Y32655500D01*
X64438627Y32645954D01*
X64441802Y32625910D01*
X64448072Y32606610D01*
X64450714Y32597244D01*
X64473127Y32503886D01*
X64509866Y32415191D01*
X64513234Y32406063D01*
X64518194Y32390801D01*
X64519507Y32386760D01*
X64519508Y32386757D01*
X64519509Y32386756D01*
X64528716Y32368685D01*
X64532790Y32359847D01*
X64569532Y32271143D01*
X64619702Y32189272D01*
X64624456Y32180784D01*
X64630137Y32169636D01*
X64633666Y32162710D01*
X64633667Y32162709D01*
X64645587Y32146302D01*
X64650993Y32138210D01*
X64676156Y32097150D01*
X64701164Y32056341D01*
X64701168Y32056337D01*
X64701171Y32056332D01*
X64763512Y31983340D01*
X64769539Y31975696D01*
X64781468Y31959277D01*
X64795813Y31944932D01*
X64802422Y31937783D01*
X64864776Y31864776D01*
X64937790Y31802416D01*
X64944924Y31795821D01*
X64959276Y31781469D01*
X64975694Y31769541D01*
X64983327Y31763524D01*
X65056341Y31701164D01*
X65056343Y31701163D01*
X65056344Y31701162D01*
X65056345Y31701161D01*
X65138202Y31650999D01*
X65146295Y31645592D01*
X65162710Y31633666D01*
X65180798Y31624450D01*
X65189260Y31619711D01*
X65271141Y31569534D01*
X65271146Y31569532D01*
X65359843Y31532792D01*
X65368684Y31528717D01*
X65386760Y31519507D01*
X65406066Y31513234D01*
X65415166Y31509878D01*
X65503889Y31473127D01*
X65597247Y31450714D01*
X65606610Y31448073D01*
X65625910Y31441802D01*
X65625914Y31441801D01*
X65636176Y31440176D01*
X65645954Y31438628D01*
X65655477Y31436735D01*
X65748852Y31414317D01*
X65844591Y31406783D01*
X65854196Y31405646D01*
X65874271Y31402466D01*
X65874275Y31402466D01*
X65894557Y31402466D01*
X65904284Y31402085D01*
X66000000Y31394551D01*
X66095715Y31402085D01*
X66105443Y31402466D01*
X66125725Y31402466D01*
X66125729Y31402466D01*
X66145803Y31405646D01*
X66155408Y31406783D01*
X66251148Y31414317D01*
X66344527Y31436736D01*
X66354040Y31438627D01*
X66374090Y31441802D01*
X66393400Y31448077D01*
X66402745Y31450713D01*
X66470118Y31466887D01*
X66496096Y31473123D01*
X66496100Y31473125D01*
X66496111Y31473127D01*
X66584855Y31509887D01*
X66593921Y31513230D01*
X66613240Y31519507D01*
X66631341Y31528730D01*
X66640123Y31532779D01*
X66728859Y31569534D01*
X66810744Y31619714D01*
X66819193Y31624446D01*
X66837290Y31633666D01*
X66853714Y31645599D01*
X66861780Y31650989D01*
X66943659Y31701164D01*
X67016688Y31763538D01*
X67024282Y31769524D01*
X67040724Y31781469D01*
X67055083Y31795829D01*
X67062194Y31802404D01*
X67135224Y31864776D01*
X67197596Y31937806D01*
X67204171Y31944917D01*
X67218531Y31959276D01*
X67230476Y31975718D01*
X67236462Y31983312D01*
X67298836Y32056341D01*
X67349011Y32138220D01*
X67354401Y32146286D01*
X67366334Y32162710D01*
X67375554Y32180807D01*
X67380296Y32189272D01*
X67430466Y32271141D01*
X67467221Y32359877D01*
X67471270Y32368659D01*
X67480493Y32386760D01*
X67486770Y32406079D01*
X67490113Y32415145D01*
X67526873Y32503889D01*
X67527315Y32505727D01*
X67533113Y32529882D01*
X67549287Y32597255D01*
X67551926Y32606608D01*
X67558197Y32625907D01*
X67558199Y32625916D01*
X67558482Y32627704D01*
X67561373Y32645960D01*
X67563264Y32655473D01*
X67585683Y32748852D01*
X67593217Y32844589D01*
X67594355Y32854200D01*
X67597534Y32874271D01*
X67598119Y32904136D01*
X67598475Y32911401D01*
X67605449Y33000000D01*
X67598476Y33088598D01*
X67598119Y33095881D01*
X67597534Y33125722D01*
X67597534Y33125729D01*
X67594355Y33145801D01*
X67593216Y33155429D01*
X67585683Y33251148D01*
X67563265Y33344523D01*
X67561371Y33354054D01*
X67558199Y33374086D01*
X67558198Y33374090D01*
X67551927Y33393390D01*
X67549283Y33402764D01*
X67526873Y33496110D01*
X67526519Y33496965D01*
X67490122Y33584834D01*
X67486766Y33593934D01*
X67480493Y33613240D01*
X67471282Y33631318D01*
X67467208Y33640157D01*
X67430468Y33728854D01*
X67430466Y33728859D01*
X67380289Y33810740D01*
X67375547Y33819208D01*
X67366334Y33837290D01*
X67354408Y33853705D01*
X67349001Y33861798D01*
X67298839Y33943655D01*
X67298838Y33943656D01*
X67298837Y33943657D01*
X67298836Y33943659D01*
X67236476Y34016673D01*
X67230459Y34024306D01*
X67230458Y34024308D01*
X67218531Y34040724D01*
X67204173Y34055082D01*
X67197584Y34062210D01*
X67135224Y34135224D01*
X67062220Y34197575D01*
X67062217Y34197578D01*
X67055068Y34204187D01*
X67040723Y34218532D01*
X67024304Y34230461D01*
X67016660Y34236488D01*
X66943668Y34298829D01*
X66943663Y34298832D01*
X66943659Y34298836D01*
X66930127Y34307129D01*
X66861790Y34349007D01*
X66853698Y34354413D01*
X66837291Y34366333D01*
X66837292Y34366333D01*
X66837290Y34366334D01*
X66830364Y34369863D01*
X66819216Y34375544D01*
X66810728Y34380298D01*
X66728857Y34430468D01*
X66640153Y34467210D01*
X66631315Y34471284D01*
X66613244Y34480491D01*
X66613243Y34480492D01*
X66613240Y34480493D01*
X66609199Y34481806D01*
X66593937Y34486766D01*
X66584809Y34490134D01*
X66496114Y34526873D01*
X66402756Y34549286D01*
X66393390Y34551928D01*
X66374090Y34558198D01*
X66354046Y34561373D01*
X66344500Y34563272D01*
X66251152Y34585682D01*
X66251153Y34585682D01*
X66251151Y34585683D01*
X66251148Y34585683D01*
X66205531Y34589274D01*
X66155429Y34593217D01*
X66145762Y34594362D01*
X66125734Y34597534D01*
X66125729Y34597534D01*
X66105443Y34597534D01*
X66095715Y34597916D01*
X66000000Y34605449D01*
X65904284Y34597916D01*
X65894557Y34597534D01*
X65874272Y34597534D01*
X65874271Y34597534D01*
X65857612Y34594896D01*
X65854237Y34594361D01*
X65844571Y34593217D01*
X65748851Y34585683D01*
X65748844Y34585682D01*
X65655499Y34563272D01*
X65645953Y34561373D01*
X65625913Y34558199D01*
X65625904Y34558197D01*
X65606615Y34551929D01*
X65597244Y34549286D01*
X65503891Y34526875D01*
X65415185Y34490132D01*
X65406059Y34486765D01*
X65386757Y34480493D01*
X65368682Y34471284D01*
X65359851Y34467213D01*
X65271141Y34430466D01*
X65189275Y34380300D01*
X65180792Y34375549D01*
X65162716Y34366338D01*
X65162709Y34366333D01*
X65146298Y34354411D01*
X65138212Y34349009D01*
X65056339Y34298835D01*
X64983332Y34236482D01*
X64975692Y34230459D01*
X64959276Y34218532D01*
X64944918Y34204175D01*
X64937777Y34197575D01*
X64864775Y34135225D01*
X64802425Y34062223D01*
X64795825Y34055082D01*
X64781468Y34040724D01*
X64769541Y34024308D01*
X64763518Y34016668D01*
X64701165Y33943661D01*
X64650991Y33861788D01*
X64645589Y33853702D01*
X64633667Y33837291D01*
X64633662Y33837284D01*
X64624451Y33819208D01*
X64619700Y33810725D01*
X64569534Y33728859D01*
X64532787Y33640149D01*
X64528716Y33631318D01*
X64519507Y33613243D01*
X64513235Y33593941D01*
X64509868Y33584815D01*
X64473125Y33496109D01*
X64450714Y33402756D01*
X64448071Y33393385D01*
X64441803Y33374096D01*
X64441801Y33374087D01*
X64438627Y33354047D01*
X64436728Y33344501D01*
X64414318Y33251156D01*
X64414317Y33251149D01*
X64406783Y33155429D01*
X64405639Y33145763D01*
X64402466Y33125729D01*
X64402466Y33105445D01*
X64402084Y33095716D01*
X64394551Y33000000D01*
X32636400Y33000000D01*
X32578230Y33038868D01*
X32578229Y33038869D01*
X32519752Y33050500D01*
X32519748Y33050500D01*
X29480252Y33050500D01*
X29480247Y33050500D01*
X29421770Y33038869D01*
X29421769Y33038868D01*
X29355447Y32994553D01*
X29311132Y32928231D01*
X29311131Y32928230D01*
X29299500Y32869753D01*
X29299500Y30330248D01*
X18646421Y30330248D01*
X18643991Y30347147D01*
X18656853Y30386974D01*
X18677490Y30426425D01*
X18697175Y30493464D01*
X18705500Y30551362D01*
X18705500Y33448638D01*
X18704322Y33470607D01*
X18701777Y33494273D01*
X18701488Y33496966D01*
X18701487Y33496968D01*
X18698491Y33506536D01*
X18677529Y33573482D01*
X18644044Y33634805D01*
X18644039Y33634812D01*
X18609001Y33681616D01*
X18608998Y33681619D01*
X18608991Y33681629D01*
X18561761Y33728859D01*
X18431634Y33858987D01*
X18431633Y33858988D01*
X18415283Y33873675D01*
X18415269Y33873687D01*
X18394620Y33890328D01*
X18323575Y33927491D01*
X18256543Y33947174D01*
X18255894Y33947268D01*
X18198638Y33955500D01*
X6051362Y33955500D01*
X6051361Y33955500D01*
X6029381Y33954322D01*
X6003034Y33951489D01*
X6003032Y33951488D01*
X5926521Y33927530D01*
X5926516Y33927529D01*
X5865188Y33894040D01*
X5818384Y33859002D01*
X5818363Y33858984D01*
X5641013Y33681635D01*
X5641012Y33681634D01*
X5626325Y33665284D01*
X5626313Y33665270D01*
X5609672Y33644621D01*
X5572509Y33573576D01*
X5552826Y33506544D01*
X5552825Y33506536D01*
X5544501Y33448639D01*
X5544500Y33448635D01*
X5544500Y31386482D01*
X5524815Y31319443D01*
X5508181Y31298801D01*
X5451199Y31241819D01*
X5389876Y31208334D01*
X5363518Y31205500D01*
X4551361Y31205500D01*
X4529381Y31204322D01*
X4503034Y31201489D01*
X4503032Y31201488D01*
X4426521Y31177530D01*
X4426516Y31177529D01*
X4365188Y31144040D01*
X4318384Y31109002D01*
X4318363Y31108984D01*
X4141013Y30931635D01*
X4141012Y30931634D01*
X4126325Y30915284D01*
X4126313Y30915270D01*
X4109672Y30894621D01*
X4072509Y30823576D01*
X4052826Y30756544D01*
X4044500Y30698635D01*
X4044500Y30016730D01*
X4024815Y29949691D01*
X3972011Y29903936D01*
X3902853Y29893992D01*
X3863026Y29906854D01*
X3823573Y29927491D01*
X3756543Y29947174D01*
X3755894Y29947268D01*
X3698638Y29955500D01*
X1129500Y29955500D01*
X1062461Y29975185D01*
X1016706Y30027989D01*
X1005500Y30079500D01*
X1005500Y33000000D01*
X1394551Y33000000D01*
X1401522Y32911421D01*
X1402084Y32904286D01*
X1402466Y32894557D01*
X1402466Y32874266D01*
X1405638Y32854238D01*
X1406783Y32844571D01*
X1410726Y32794469D01*
X1414317Y32748852D01*
X1414317Y32748849D01*
X1414318Y32748847D01*
X1436728Y32655500D01*
X1438627Y32645954D01*
X1441802Y32625910D01*
X1448072Y32606610D01*
X1450714Y32597244D01*
X1473127Y32503886D01*
X1509866Y32415191D01*
X1513234Y32406063D01*
X1518194Y32390801D01*
X1519507Y32386760D01*
X1519508Y32386757D01*
X1519509Y32386756D01*
X1528716Y32368685D01*
X1532790Y32359847D01*
X1569532Y32271143D01*
X1619702Y32189272D01*
X1624456Y32180784D01*
X1630137Y32169636D01*
X1633666Y32162710D01*
X1633667Y32162709D01*
X1645587Y32146302D01*
X1650993Y32138210D01*
X1676156Y32097150D01*
X1701164Y32056341D01*
X1701168Y32056337D01*
X1701171Y32056332D01*
X1763512Y31983340D01*
X1769539Y31975696D01*
X1781468Y31959277D01*
X1795813Y31944932D01*
X1802422Y31937783D01*
X1864776Y31864776D01*
X1937790Y31802416D01*
X1944924Y31795821D01*
X1959276Y31781469D01*
X1975694Y31769541D01*
X1983327Y31763524D01*
X2056341Y31701164D01*
X2056343Y31701163D01*
X2056344Y31701162D01*
X2056345Y31701161D01*
X2138202Y31650999D01*
X2146295Y31645592D01*
X2162710Y31633666D01*
X2180798Y31624450D01*
X2189260Y31619711D01*
X2271141Y31569534D01*
X2271146Y31569532D01*
X2359843Y31532792D01*
X2368684Y31528717D01*
X2386760Y31519507D01*
X2406066Y31513234D01*
X2415166Y31509878D01*
X2503889Y31473127D01*
X2597247Y31450714D01*
X2606610Y31448073D01*
X2625910Y31441802D01*
X2625914Y31441801D01*
X2636176Y31440176D01*
X2645954Y31438628D01*
X2655477Y31436735D01*
X2748852Y31414317D01*
X2844591Y31406783D01*
X2854196Y31405646D01*
X2874271Y31402466D01*
X2874275Y31402466D01*
X2894557Y31402466D01*
X2904284Y31402085D01*
X3000000Y31394551D01*
X3095715Y31402085D01*
X3105443Y31402466D01*
X3125725Y31402466D01*
X3125729Y31402466D01*
X3145803Y31405646D01*
X3155408Y31406783D01*
X3251148Y31414317D01*
X3344527Y31436736D01*
X3354040Y31438627D01*
X3374090Y31441802D01*
X3393400Y31448077D01*
X3402745Y31450713D01*
X3470118Y31466887D01*
X3496096Y31473123D01*
X3496100Y31473125D01*
X3496111Y31473127D01*
X3584855Y31509887D01*
X3593921Y31513230D01*
X3613240Y31519507D01*
X3631341Y31528730D01*
X3640123Y31532779D01*
X3728859Y31569534D01*
X3810744Y31619714D01*
X3819193Y31624446D01*
X3837290Y31633666D01*
X3853714Y31645599D01*
X3861780Y31650989D01*
X3943659Y31701164D01*
X4016688Y31763538D01*
X4024282Y31769524D01*
X4040724Y31781469D01*
X4055083Y31795829D01*
X4062194Y31802404D01*
X4135224Y31864776D01*
X4197596Y31937806D01*
X4204171Y31944917D01*
X4218531Y31959276D01*
X4230476Y31975718D01*
X4236462Y31983312D01*
X4298836Y32056341D01*
X4349011Y32138220D01*
X4354401Y32146286D01*
X4366334Y32162710D01*
X4375554Y32180807D01*
X4380296Y32189272D01*
X4430466Y32271141D01*
X4467221Y32359877D01*
X4471270Y32368659D01*
X4480493Y32386760D01*
X4486770Y32406079D01*
X4490113Y32415145D01*
X4526873Y32503889D01*
X4527315Y32505727D01*
X4533113Y32529882D01*
X4549287Y32597255D01*
X4551926Y32606608D01*
X4558197Y32625907D01*
X4558199Y32625916D01*
X4558482Y32627704D01*
X4561373Y32645960D01*
X4563264Y32655473D01*
X4585683Y32748852D01*
X4593217Y32844589D01*
X4594355Y32854200D01*
X4597534Y32874271D01*
X4598119Y32904136D01*
X4598475Y32911401D01*
X4605449Y33000000D01*
X4598476Y33088598D01*
X4598119Y33095881D01*
X4597534Y33125722D01*
X4597534Y33125729D01*
X4594355Y33145801D01*
X4593216Y33155429D01*
X4585683Y33251148D01*
X4563265Y33344523D01*
X4561371Y33354054D01*
X4558199Y33374086D01*
X4558198Y33374090D01*
X4551927Y33393390D01*
X4549283Y33402764D01*
X4526873Y33496110D01*
X4526519Y33496965D01*
X4490122Y33584834D01*
X4486766Y33593934D01*
X4480493Y33613240D01*
X4471282Y33631318D01*
X4467208Y33640157D01*
X4430468Y33728854D01*
X4430466Y33728859D01*
X4380289Y33810740D01*
X4375547Y33819208D01*
X4366334Y33837290D01*
X4354408Y33853705D01*
X4349001Y33861798D01*
X4298839Y33943655D01*
X4298838Y33943656D01*
X4298837Y33943657D01*
X4298836Y33943659D01*
X4236476Y34016673D01*
X4230459Y34024306D01*
X4230458Y34024308D01*
X4218531Y34040724D01*
X4204173Y34055082D01*
X4197584Y34062210D01*
X4135224Y34135224D01*
X4062220Y34197575D01*
X4062217Y34197578D01*
X4055068Y34204187D01*
X4040723Y34218532D01*
X4024304Y34230461D01*
X4016660Y34236488D01*
X3943668Y34298829D01*
X3943663Y34298832D01*
X3943659Y34298836D01*
X3930127Y34307129D01*
X3861790Y34349007D01*
X3853698Y34354413D01*
X3837291Y34366333D01*
X3837292Y34366333D01*
X3837290Y34366334D01*
X3830364Y34369863D01*
X3819216Y34375544D01*
X3810728Y34380298D01*
X3728857Y34430468D01*
X3640153Y34467210D01*
X3631315Y34471284D01*
X3613244Y34480491D01*
X3613243Y34480492D01*
X3613240Y34480493D01*
X3609199Y34481806D01*
X3593937Y34486766D01*
X3584809Y34490134D01*
X3496114Y34526873D01*
X3402756Y34549286D01*
X3393390Y34551928D01*
X3374090Y34558198D01*
X3354046Y34561373D01*
X3344500Y34563272D01*
X3251152Y34585682D01*
X3251153Y34585682D01*
X3251151Y34585683D01*
X3251148Y34585683D01*
X3205531Y34589274D01*
X3155429Y34593217D01*
X3145762Y34594362D01*
X3125734Y34597534D01*
X3125729Y34597534D01*
X3105443Y34597534D01*
X3095715Y34597916D01*
X3000000Y34605449D01*
X2904284Y34597916D01*
X2894557Y34597534D01*
X2874272Y34597534D01*
X2874271Y34597534D01*
X2857612Y34594896D01*
X2854237Y34594361D01*
X2844571Y34593217D01*
X2748851Y34585683D01*
X2748844Y34585682D01*
X2655499Y34563272D01*
X2645953Y34561373D01*
X2625913Y34558199D01*
X2625904Y34558197D01*
X2606615Y34551929D01*
X2597244Y34549286D01*
X2503891Y34526875D01*
X2415185Y34490132D01*
X2406059Y34486765D01*
X2386757Y34480493D01*
X2368682Y34471284D01*
X2359851Y34467213D01*
X2271141Y34430466D01*
X2189275Y34380300D01*
X2180792Y34375549D01*
X2162716Y34366338D01*
X2162709Y34366333D01*
X2146298Y34354411D01*
X2138212Y34349009D01*
X2056339Y34298835D01*
X1983332Y34236482D01*
X1975692Y34230459D01*
X1959276Y34218532D01*
X1944918Y34204175D01*
X1937777Y34197575D01*
X1864775Y34135225D01*
X1802425Y34062223D01*
X1795825Y34055082D01*
X1781468Y34040724D01*
X1769541Y34024308D01*
X1763518Y34016668D01*
X1701165Y33943661D01*
X1650991Y33861788D01*
X1645589Y33853702D01*
X1633667Y33837291D01*
X1633662Y33837284D01*
X1624451Y33819208D01*
X1619700Y33810725D01*
X1569534Y33728859D01*
X1532787Y33640149D01*
X1528716Y33631318D01*
X1519507Y33613243D01*
X1513235Y33593941D01*
X1509868Y33584815D01*
X1473125Y33496109D01*
X1450714Y33402756D01*
X1448071Y33393385D01*
X1441803Y33374096D01*
X1441801Y33374087D01*
X1438627Y33354047D01*
X1436728Y33344501D01*
X1414318Y33251156D01*
X1414317Y33251149D01*
X1406783Y33155429D01*
X1405639Y33145763D01*
X1402466Y33125729D01*
X1402466Y33105445D01*
X1402084Y33095716D01*
X1394551Y33000000D01*
X1005500Y33000000D01*
X1005500Y34870500D01*
X1025185Y34937539D01*
X1077989Y34983294D01*
X1129500Y34994500D01*
X67870500Y34994500D01*
X67937539Y34974815D01*
G37*
%TD.AperFunction*%
%TD*%
%TA.AperFunction,NonConductor*%
G36*
X25072539Y480315D02*
G01*
X25118294Y427511D01*
X25129500Y376000D01*
X25129500Y203212D01*
X25135441Y135307D01*
X25121674Y66807D01*
X25073059Y16624D01*
X25011913Y500D01*
X1504428Y500D01*
X1495583Y816D01*
X1485521Y1536D01*
X1430815Y5449D01*
X1429934Y5515D01*
X1287560Y16720D01*
X1270931Y19172D01*
X1181575Y38610D01*
X1178986Y39202D01*
X1067442Y65981D01*
X1053056Y70373D01*
X999050Y90516D01*
X962324Y104215D01*
X958245Y105819D01*
X913578Y124321D01*
X857209Y147670D01*
X845237Y153398D01*
X758436Y200794D01*
X753072Y203900D01*
X661565Y259976D01*
X652044Y266436D01*
X638289Y276733D01*
X596418Y332667D01*
X591434Y402359D01*
X624919Y463682D01*
X686243Y497166D01*
X712600Y500000D01*
X25005500Y500000D01*
X25072539Y480315D01*
G37*
%TD.AperFunction*%
%TA.AperFunction,NonConductor*%
G36*
X67504418Y35999184D02*
G01*
X67569734Y35994513D01*
X67569740Y35994512D01*
X67712449Y35983281D01*
X67729054Y35980832D01*
X67818500Y35961375D01*
X67820979Y35960808D01*
X67932570Y35934017D01*
X67946925Y35929635D01*
X68037735Y35895764D01*
X68041696Y35894206D01*
X68142794Y35852330D01*
X68154758Y35846606D01*
X68241588Y35799193D01*
X68246915Y35796108D01*
X68338433Y35740026D01*
X68347953Y35733566D01*
X68361711Y35723267D01*
X68403583Y35667334D01*
X68408567Y35597643D01*
X68375083Y35536319D01*
X68313760Y35502834D01*
X68287401Y35500000D01*
X712598Y35500000D01*
X645559Y35519685D01*
X599804Y35572489D01*
X589860Y35641647D01*
X618885Y35705203D01*
X638277Y35723259D01*
X652068Y35733583D01*
X661542Y35740011D01*
X753118Y35796129D01*
X758376Y35799174D01*
X845255Y35846613D01*
X857190Y35852324D01*
X958341Y35894222D01*
X962224Y35895749D01*
X1053083Y35929638D01*
X1067420Y35934015D01*
X1179060Y35960818D01*
X1181454Y35961365D01*
X1270949Y35980833D01*
X1287546Y35983281D01*
X1430227Y35994510D01*
X1495582Y35999184D01*
X1504426Y35999500D01*
X67495574Y35999500D01*
X67504418Y35999184D01*
G37*
%TD.AperFunction*%
%TA.AperFunction,Conductor*%
%TO.N,+12V*%
G36*
X3765677Y29730315D02*
G01*
X3786319Y29713681D01*
X3963681Y29536319D01*
X3997166Y29474996D01*
X4000000Y29448638D01*
X4000000Y26250000D01*
X4250000Y26000000D01*
X4948638Y26000000D01*
X5015677Y25980315D01*
X5036319Y25963681D01*
X5213681Y25786319D01*
X5247166Y25724996D01*
X5250000Y25698638D01*
X5250000Y20551362D01*
X5230315Y20484323D01*
X5213681Y20463681D01*
X5036319Y20286319D01*
X4974996Y20252834D01*
X4948638Y20250000D01*
X1051362Y20250000D01*
X984323Y20269685D01*
X963681Y20286319D01*
X786319Y20463681D01*
X752834Y20525004D01*
X750000Y20551362D01*
X750000Y21945733D01*
X1049500Y21945733D01*
X1052353Y21915302D01*
X1052353Y21915300D01*
X1097206Y21787121D01*
X1177850Y21677851D01*
X1232485Y21637529D01*
X1287119Y21597207D01*
X1329846Y21582256D01*
X1415300Y21552354D01*
X1445732Y21549500D01*
X1445736Y21549500D01*
X4554268Y21549500D01*
X4584698Y21552354D01*
X4584700Y21552354D01*
X4648789Y21574781D01*
X4712881Y21597207D01*
X4822149Y21677851D01*
X4902793Y21787119D01*
X4925219Y21851211D01*
X4947646Y21915300D01*
X4947646Y21915302D01*
X4950500Y21945733D01*
X4950500Y25054268D01*
X4947646Y25084699D01*
X4947646Y25084701D01*
X4902793Y25212880D01*
X4902793Y25212881D01*
X4862471Y25267515D01*
X4822149Y25322150D01*
X4748121Y25376784D01*
X4712881Y25402793D01*
X4712879Y25402794D01*
X4584699Y25447647D01*
X4554268Y25450500D01*
X4554264Y25450500D01*
X3330900Y25450500D01*
X3263861Y25470185D01*
X3218106Y25522989D01*
X3206900Y25574500D01*
X3206900Y26923646D01*
X3226585Y26990685D01*
X3257264Y27023414D01*
X3297150Y27052850D01*
X3377793Y27162118D01*
X3400219Y27226210D01*
X3422646Y27290299D01*
X3422646Y27290301D01*
X3425500Y27320731D01*
X3425500Y28679270D01*
X3422646Y28709700D01*
X3422646Y28709702D01*
X3377793Y28837881D01*
X3377792Y28837883D01*
X3297150Y28947150D01*
X3187882Y29027793D01*
X3187880Y29027794D01*
X3059700Y29072647D01*
X3029270Y29075500D01*
X3029266Y29075500D01*
X2170734Y29075500D01*
X2170730Y29075500D01*
X2140300Y29072647D01*
X2140298Y29072647D01*
X2012119Y29027794D01*
X2012117Y29027793D01*
X1902850Y28947150D01*
X1822207Y28837883D01*
X1822206Y28837881D01*
X1777353Y28709702D01*
X1777353Y28709700D01*
X1774500Y28679270D01*
X1774500Y27320731D01*
X1777353Y27290301D01*
X1777353Y27290299D01*
X1822206Y27162120D01*
X1822207Y27162118D01*
X1902850Y27052850D01*
X1942733Y27023415D01*
X1984984Y26967771D01*
X1993100Y26923646D01*
X1993100Y25574500D01*
X1973415Y25507461D01*
X1920611Y25461706D01*
X1869100Y25450500D01*
X1445732Y25450500D01*
X1415301Y25447647D01*
X1415299Y25447647D01*
X1287120Y25402794D01*
X1177850Y25322150D01*
X1097206Y25212880D01*
X1052353Y25084701D01*
X1052353Y25084699D01*
X1049500Y25054268D01*
X1049500Y21945733D01*
X750000Y21945733D01*
X750000Y29448638D01*
X769685Y29515677D01*
X786319Y29536319D01*
X963681Y29713681D01*
X1025004Y29747166D01*
X1051362Y29750000D01*
X3698638Y29750000D01*
X3765677Y29730315D01*
G37*
%TD.AperFunction*%
%TD*%
%TA.AperFunction,Conductor*%
%TO.N,Net-(J3-Pin_2)*%
G36*
X5765677Y19480315D02*
G01*
X5786319Y19463681D01*
X5963681Y19286319D01*
X5997166Y19224996D01*
X6000000Y19198638D01*
X6000000Y18250000D01*
X6250000Y18000000D01*
X18448638Y18000000D01*
X18515677Y17980315D01*
X18536319Y17963681D01*
X18713681Y17786319D01*
X18747166Y17724996D01*
X18750000Y17698638D01*
X18750000Y12551362D01*
X18730315Y12484323D01*
X18713681Y12463681D01*
X18536319Y12286319D01*
X18474996Y12252834D01*
X18448638Y12250000D01*
X17800309Y12250000D01*
X17733270Y12269685D01*
X17710880Y12288103D01*
X17606222Y12397064D01*
X17606218Y12397068D01*
X17409057Y12545225D01*
X17409053Y12545228D01*
X17409052Y12545228D01*
X17293537Y12605855D01*
X17190682Y12659838D01*
X17190678Y12659840D01*
X17190677Y12659840D01*
X16956744Y12737938D01*
X16956742Y12737939D01*
X16956740Y12737939D01*
X16956728Y12737942D01*
X16955454Y12738149D01*
X16954994Y12738370D01*
X16951888Y12739135D01*
X16952047Y12739782D01*
X16892443Y12768338D01*
X16855757Y12827802D01*
X16857043Y12897659D01*
X16876092Y12934854D01*
X16893352Y12957910D01*
X16893354Y12957914D01*
X16943596Y13092621D01*
X16943598Y13092628D01*
X16949999Y13152156D01*
X16950000Y13152173D01*
X16950000Y14400000D01*
X14000000Y14400000D01*
X14000000Y12700000D01*
X15597215Y12700000D01*
X15664254Y12680315D01*
X15710009Y12627511D01*
X15719953Y12558353D01*
X15690928Y12494797D01*
X15671708Y12476870D01*
X15669378Y12475120D01*
X15484785Y12311585D01*
X15484780Y12311580D01*
X15484780Y12311579D01*
X15471712Y12295575D01*
X15414068Y12256097D01*
X15375664Y12250000D01*
X8551362Y12250000D01*
X8484323Y12269685D01*
X8463681Y12286319D01*
X8036319Y12713681D01*
X8002834Y12775004D01*
X8000000Y12801362D01*
X8000000Y13250000D01*
X7750000Y13500000D01*
X1051362Y13500000D01*
X984323Y13519685D01*
X963681Y13536319D01*
X786319Y13713681D01*
X752834Y13775004D01*
X750000Y13801362D01*
X750000Y15443567D01*
X769685Y15510606D01*
X822489Y15556361D01*
X891647Y15566305D01*
X955203Y15537280D01*
X985212Y15498411D01*
X1047258Y15372594D01*
X1047265Y15372581D01*
X1211123Y15127351D01*
X1240405Y15093960D01*
X2301470Y16155025D01*
X2390246Y16013738D01*
X2513738Y15890246D01*
X2655023Y15801471D01*
X1593958Y14740407D01*
X1627350Y14711124D01*
X1872580Y14547266D01*
X1872593Y14547259D01*
X2137111Y14416813D01*
X2416400Y14322006D01*
X2416415Y14322002D01*
X2705675Y14264465D01*
X2705687Y14264463D01*
X3000000Y14245173D01*
X3294312Y14264463D01*
X3294324Y14264465D01*
X3583584Y14322002D01*
X3583599Y14322006D01*
X3813359Y14400000D01*
X10550000Y14400000D01*
X10550000Y13152156D01*
X10556401Y13092628D01*
X10556403Y13092621D01*
X10606645Y12957914D01*
X10606649Y12957907D01*
X10692809Y12842813D01*
X10692812Y12842810D01*
X10807906Y12756650D01*
X10807913Y12756646D01*
X10942620Y12706404D01*
X10942627Y12706402D01*
X11002155Y12700001D01*
X11002172Y12700000D01*
X13500000Y12700000D01*
X13500000Y14400000D01*
X10550000Y14400000D01*
X3813359Y14400000D01*
X3862888Y14416813D01*
X4127406Y14547259D01*
X4127419Y14547266D01*
X4372648Y14711123D01*
X4406039Y14740407D01*
X4246446Y14900000D01*
X10550000Y14900000D01*
X13500000Y14900000D01*
X13500000Y16600000D01*
X14000000Y16600000D01*
X14000000Y14900000D01*
X16950000Y14900000D01*
X16950000Y16147828D01*
X16949999Y16147845D01*
X16943598Y16207373D01*
X16943596Y16207380D01*
X16893354Y16342087D01*
X16893350Y16342094D01*
X16807190Y16457188D01*
X16807187Y16457191D01*
X16692093Y16543351D01*
X16692086Y16543355D01*
X16557379Y16593597D01*
X16557372Y16593599D01*
X16497844Y16600000D01*
X14000000Y16600000D01*
X13500000Y16600000D01*
X11002155Y16600000D01*
X10942627Y16593599D01*
X10942620Y16593597D01*
X10807913Y16543355D01*
X10807906Y16543351D01*
X10692812Y16457191D01*
X10692809Y16457188D01*
X10606649Y16342094D01*
X10606645Y16342087D01*
X10556403Y16207380D01*
X10556401Y16207373D01*
X10550000Y16147845D01*
X10550000Y14900000D01*
X4246446Y14900000D01*
X3344976Y15801471D01*
X3486262Y15890246D01*
X3609754Y16013738D01*
X3698529Y16155024D01*
X4759593Y15093961D01*
X4788877Y15127352D01*
X4952734Y15372581D01*
X4952741Y15372594D01*
X5083187Y15637112D01*
X5177994Y15916401D01*
X5177998Y15916416D01*
X5235535Y16205676D01*
X5235537Y16205688D01*
X5254827Y16500000D01*
X5235537Y16794313D01*
X5235535Y16794325D01*
X5177998Y17083585D01*
X5177994Y17083600D01*
X5083187Y17362889D01*
X4952741Y17627407D01*
X4952734Y17627420D01*
X4788876Y17872650D01*
X4759593Y17906042D01*
X3698528Y16844978D01*
X3609754Y16986262D01*
X3486262Y17109754D01*
X3344976Y17198530D01*
X4406040Y18259595D01*
X4372649Y18288877D01*
X4127419Y18452735D01*
X4127406Y18452742D01*
X3862888Y18583188D01*
X3583599Y18677995D01*
X3583584Y18677999D01*
X3294324Y18735536D01*
X3294312Y18735538D01*
X3000000Y18754828D01*
X2705687Y18735538D01*
X2705675Y18735536D01*
X2416415Y18677999D01*
X2416400Y18677995D01*
X2137111Y18583188D01*
X1872593Y18452742D01*
X1872580Y18452735D01*
X1627346Y18288874D01*
X1627339Y18288869D01*
X1593959Y18259597D01*
X1593959Y18259595D01*
X2655024Y17198530D01*
X2513738Y17109754D01*
X2390246Y16986262D01*
X2301470Y16844976D01*
X1240405Y17906041D01*
X1240403Y17906041D01*
X1211131Y17872661D01*
X1211126Y17872654D01*
X1047265Y17627420D01*
X1047258Y17627407D01*
X985212Y17501590D01*
X937907Y17450170D01*
X870311Y17432489D01*
X803887Y17454159D01*
X759723Y17508301D01*
X750000Y17556434D01*
X750000Y19198638D01*
X769685Y19265677D01*
X786319Y19286319D01*
X963681Y19463681D01*
X1025004Y19497166D01*
X1051362Y19500000D01*
X5698638Y19500000D01*
X5765677Y19480315D01*
G37*
%TD.AperFunction*%
%TD*%
%TA.AperFunction,Conductor*%
%TO.N,+12V*%
G36*
X67943039Y28230315D02*
G01*
X67988794Y28177511D01*
X68000000Y28126000D01*
X68000000Y20374000D01*
X67980315Y20306961D01*
X67927511Y20261206D01*
X67876000Y20250000D01*
X63551362Y20250000D01*
X63484323Y20269685D01*
X63463681Y20286319D01*
X63286319Y20463681D01*
X63252834Y20525004D01*
X63250000Y20551362D01*
X63250000Y25750000D01*
X63000000Y26000000D01*
X54801362Y26000000D01*
X54734323Y26019685D01*
X54713681Y26036319D01*
X54536319Y26213681D01*
X54502834Y26275004D01*
X54500000Y26301362D01*
X54500000Y27948638D01*
X54519685Y28015677D01*
X54536319Y28036319D01*
X54713681Y28213681D01*
X54775004Y28247166D01*
X54801362Y28250000D01*
X67876000Y28250000D01*
X67943039Y28230315D01*
G37*
%TD.AperFunction*%
%TD*%
%TA.AperFunction,Conductor*%
%TO.N,Net-(D2-A)*%
G36*
X15006570Y29980315D02*
G01*
X15052325Y29927511D01*
X15062269Y29858353D01*
X15033244Y29794797D01*
X15024792Y29787176D01*
X15024526Y29784138D01*
X15705599Y29103066D01*
X15624852Y29090277D01*
X15511955Y29032753D01*
X15422359Y28943157D01*
X15364835Y28830260D01*
X15352046Y28749514D01*
X14670974Y29430586D01*
X14670973Y29430586D01*
X14619868Y29357600D01*
X14619866Y29357596D01*
X14523734Y29151439D01*
X14523730Y29151430D01*
X14464860Y28931723D01*
X14464858Y28931712D01*
X14445034Y28705115D01*
X14445034Y28705110D01*
X14464858Y28478513D01*
X14464860Y28478502D01*
X14523730Y28258795D01*
X14523735Y28258781D01*
X14619863Y28052634D01*
X14670974Y27979640D01*
X15352046Y28660712D01*
X15364835Y28579964D01*
X15422359Y28467067D01*
X15511955Y28377471D01*
X15624852Y28319947D01*
X15705599Y28307159D01*
X15024526Y27626087D01*
X15097513Y27574980D01*
X15097521Y27574976D01*
X15303668Y27478848D01*
X15303682Y27478843D01*
X15523389Y27419973D01*
X15523400Y27419971D01*
X15749998Y27400146D01*
X15750002Y27400146D01*
X15976599Y27419971D01*
X15976610Y27419973D01*
X16196317Y27478843D01*
X16196331Y27478848D01*
X16402478Y27574976D01*
X16475471Y27626088D01*
X15794400Y28307159D01*
X15875148Y28319947D01*
X15988045Y28377471D01*
X16077641Y28467067D01*
X16135165Y28579964D01*
X16147953Y28660712D01*
X16829024Y27979641D01*
X16880136Y28052634D01*
X16976264Y28258781D01*
X16976269Y28258795D01*
X17035139Y28478502D01*
X17035141Y28478513D01*
X17054966Y28705110D01*
X17054966Y28705115D01*
X17035141Y28931712D01*
X17035139Y28931723D01*
X16976269Y29151430D01*
X16976264Y29151444D01*
X16880136Y29357591D01*
X16880132Y29357599D01*
X16829025Y29430586D01*
X16147953Y28749514D01*
X16135165Y28830260D01*
X16077641Y28943157D01*
X15988045Y29032753D01*
X15875148Y29090277D01*
X15794401Y29103066D01*
X16475472Y29784138D01*
X16474721Y29792718D01*
X16445718Y29829003D01*
X16438526Y29898501D01*
X16470048Y29960856D01*
X16530278Y29996269D01*
X16560467Y30000000D01*
X18948638Y30000000D01*
X19015677Y29980315D01*
X19036319Y29963681D01*
X19213681Y29786319D01*
X19247166Y29724996D01*
X19250000Y29698638D01*
X19250000Y26551362D01*
X19230315Y26484323D01*
X19213681Y26463681D01*
X19000000Y26250001D01*
X19000000Y21051362D01*
X18980315Y20984323D01*
X18963681Y20963681D01*
X18786319Y20786319D01*
X18724996Y20752834D01*
X18698638Y20750000D01*
X8801362Y20750000D01*
X8734323Y20769685D01*
X8713681Y20786319D01*
X8536319Y20963681D01*
X8502834Y21025004D01*
X8500000Y21051362D01*
X8500000Y24100000D01*
X10550000Y24100000D01*
X10550000Y22852156D01*
X10556401Y22792628D01*
X10556403Y22792621D01*
X10606645Y22657914D01*
X10606649Y22657907D01*
X10692809Y22542813D01*
X10692812Y22542810D01*
X10807906Y22456650D01*
X10807913Y22456646D01*
X10942620Y22406404D01*
X10942627Y22406402D01*
X11002155Y22400001D01*
X11002172Y22400000D01*
X13500000Y22400000D01*
X13500000Y24100000D01*
X14000000Y24100000D01*
X14000000Y22400000D01*
X16497828Y22400000D01*
X16497844Y22400001D01*
X16557372Y22406402D01*
X16557379Y22406404D01*
X16692086Y22456646D01*
X16692093Y22456650D01*
X16807187Y22542810D01*
X16807190Y22542813D01*
X16893350Y22657907D01*
X16893354Y22657914D01*
X16943596Y22792621D01*
X16943598Y22792628D01*
X16949999Y22852156D01*
X16950000Y22852173D01*
X16950000Y24100000D01*
X14000000Y24100000D01*
X13500000Y24100000D01*
X10550000Y24100000D01*
X8500000Y24100000D01*
X8500000Y24600000D01*
X10550000Y24600000D01*
X13500000Y24600000D01*
X13500000Y26300000D01*
X14000000Y26300000D01*
X14000000Y24600000D01*
X16950000Y24600000D01*
X16950000Y25847828D01*
X16949999Y25847845D01*
X16943598Y25907373D01*
X16943596Y25907380D01*
X16893354Y26042087D01*
X16893350Y26042094D01*
X16807190Y26157188D01*
X16807187Y26157191D01*
X16692093Y26243351D01*
X16692086Y26243355D01*
X16557379Y26293597D01*
X16557372Y26293599D01*
X16497844Y26300000D01*
X14000000Y26300000D01*
X13500000Y26300000D01*
X11002155Y26300000D01*
X10942627Y26293599D01*
X10942620Y26293597D01*
X10807913Y26243355D01*
X10807906Y26243351D01*
X10692812Y26157191D01*
X10692809Y26157188D01*
X10606649Y26042094D01*
X10606645Y26042087D01*
X10556403Y25907380D01*
X10556401Y25907373D01*
X10550000Y25847845D01*
X10550000Y24600000D01*
X8500000Y24600000D01*
X8500000Y26250000D01*
X8250000Y26500000D01*
X7801362Y26500000D01*
X7734323Y26519685D01*
X7713681Y26536319D01*
X7536319Y26713681D01*
X7502834Y26775004D01*
X7500000Y26801362D01*
X7500000Y28338498D01*
X7519685Y28405537D01*
X7572489Y28451292D01*
X7641647Y28461236D01*
X7705203Y28432211D01*
X7742977Y28373433D01*
X7743775Y28370591D01*
X7773730Y28258795D01*
X7773735Y28258781D01*
X7869863Y28052634D01*
X7920974Y27979640D01*
X8602046Y28660712D01*
X8614835Y28579964D01*
X8672359Y28467067D01*
X8761955Y28377471D01*
X8874852Y28319947D01*
X8955599Y28307159D01*
X8274526Y27626087D01*
X8347513Y27574980D01*
X8347521Y27574976D01*
X8553668Y27478848D01*
X8553682Y27478843D01*
X8773389Y27419973D01*
X8773400Y27419971D01*
X8999998Y27400146D01*
X9000002Y27400146D01*
X9226599Y27419971D01*
X9226610Y27419973D01*
X9446317Y27478843D01*
X9446331Y27478848D01*
X9652478Y27574976D01*
X9725471Y27626088D01*
X9044400Y28307159D01*
X9125148Y28319947D01*
X9238045Y28377471D01*
X9327641Y28467067D01*
X9385165Y28579964D01*
X9397953Y28660712D01*
X10079024Y27979641D01*
X10130136Y28052634D01*
X10222169Y28250000D01*
X11100001Y28250000D01*
X11100001Y28125014D01*
X11110494Y28022303D01*
X11165641Y27855881D01*
X11165643Y27855876D01*
X11257684Y27706655D01*
X11381654Y27582685D01*
X11530875Y27490644D01*
X11530880Y27490642D01*
X11697302Y27435495D01*
X11697309Y27435494D01*
X11800019Y27425001D01*
X12249999Y27425001D01*
X12250000Y27425002D01*
X12250000Y28250000D01*
X12750000Y28250000D01*
X12750000Y27425001D01*
X13199972Y27425001D01*
X13199986Y27425002D01*
X13302697Y27435495D01*
X13469119Y27490642D01*
X13469124Y27490644D01*
X13618345Y27582685D01*
X13742315Y27706655D01*
X13834356Y27855876D01*
X13834358Y27855881D01*
X13889505Y28022303D01*
X13889506Y28022310D01*
X13899999Y28125014D01*
X13900000Y28125027D01*
X13900000Y28250000D01*
X12750000Y28250000D01*
X12250000Y28250000D01*
X11100001Y28250000D01*
X10222169Y28250000D01*
X10226264Y28258781D01*
X10226269Y28258795D01*
X10285139Y28478502D01*
X10285141Y28478513D01*
X10304966Y28705110D01*
X10304966Y28705115D01*
X10301039Y28750000D01*
X11100000Y28750000D01*
X12250000Y28750000D01*
X12250000Y29575000D01*
X12750000Y29575000D01*
X12750000Y28750000D01*
X13899999Y28750000D01*
X13899999Y28874972D01*
X13899998Y28874987D01*
X13889505Y28977698D01*
X13834358Y29144120D01*
X13834356Y29144125D01*
X13742315Y29293346D01*
X13618345Y29417316D01*
X13469124Y29509357D01*
X13469119Y29509359D01*
X13302697Y29564506D01*
X13302690Y29564507D01*
X13199986Y29575000D01*
X12750000Y29575000D01*
X12250000Y29575000D01*
X11800028Y29575000D01*
X11800012Y29574999D01*
X11697302Y29564506D01*
X11530880Y29509359D01*
X11530875Y29509357D01*
X11381654Y29417316D01*
X11257684Y29293346D01*
X11165643Y29144125D01*
X11165641Y29144120D01*
X11110494Y28977698D01*
X11110493Y28977691D01*
X11100000Y28874987D01*
X11100000Y28750000D01*
X10301039Y28750000D01*
X10285141Y28931712D01*
X10285139Y28931723D01*
X10226269Y29151430D01*
X10226264Y29151444D01*
X10130136Y29357591D01*
X10130132Y29357599D01*
X10079025Y29430586D01*
X9397953Y28749514D01*
X9385165Y28830260D01*
X9327641Y28943157D01*
X9238045Y29032753D01*
X9125148Y29090277D01*
X9044401Y29103066D01*
X9725472Y29784138D01*
X9724721Y29792718D01*
X9695718Y29829003D01*
X9688526Y29898501D01*
X9720048Y29960856D01*
X9780278Y29996269D01*
X9810467Y30000000D01*
X14939531Y30000000D01*
X15006570Y29980315D01*
G37*
%TD.AperFunction*%
%TA.AperFunction,Conductor*%
G36*
X8256570Y29980315D02*
G01*
X8302325Y29927511D01*
X8312269Y29858353D01*
X8283244Y29794797D01*
X8274792Y29787176D01*
X8274526Y29784138D01*
X8955599Y29103066D01*
X8874852Y29090277D01*
X8761955Y29032753D01*
X8672359Y28943157D01*
X8614835Y28830260D01*
X8602046Y28749514D01*
X7920974Y29430586D01*
X7920973Y29430586D01*
X7869868Y29357600D01*
X7869866Y29357596D01*
X7773734Y29151439D01*
X7773731Y29151433D01*
X7743775Y29039633D01*
X7707410Y28979973D01*
X7644563Y28949444D01*
X7575187Y28957739D01*
X7521309Y29002224D01*
X7500035Y29068776D01*
X7500000Y29071727D01*
X7500000Y29698638D01*
X7519685Y29765677D01*
X7536319Y29786319D01*
X7713681Y29963681D01*
X7775004Y29997166D01*
X7801362Y30000000D01*
X8189531Y30000000D01*
X8256570Y29980315D01*
G37*
%TD.AperFunction*%
%TD*%
%TA.AperFunction,Conductor*%
%TO.N,+12V*%
G36*
X18265677Y33730315D02*
G01*
X18286319Y33713681D01*
X18463681Y33536319D01*
X18497166Y33474996D01*
X18500000Y33448638D01*
X18500000Y30551362D01*
X18480315Y30484323D01*
X18463681Y30463681D01*
X18286319Y30286319D01*
X18224996Y30252834D01*
X18198638Y30250000D01*
X17174000Y30250000D01*
X17106961Y30269685D01*
X17061206Y30322489D01*
X17050000Y30374000D01*
X17050000Y30955112D01*
X16065686Y30955112D01*
X16077641Y30967067D01*
X16135165Y31079964D01*
X16154986Y31205112D01*
X16135165Y31330260D01*
X16077641Y31443157D01*
X16065686Y31455112D01*
X17050000Y31455112D01*
X17050000Y32052940D01*
X17049999Y32052957D01*
X17043598Y32112485D01*
X17043596Y32112492D01*
X16993354Y32247199D01*
X16993350Y32247206D01*
X16907190Y32362300D01*
X16907187Y32362303D01*
X16792093Y32448463D01*
X16792086Y32448467D01*
X16657379Y32498709D01*
X16657372Y32498711D01*
X16597844Y32505112D01*
X16000000Y32505112D01*
X16000000Y31520798D01*
X15988045Y31532753D01*
X15875148Y31590277D01*
X15781481Y31605112D01*
X15718519Y31605112D01*
X15624852Y31590277D01*
X15511955Y31532753D01*
X15500000Y31520798D01*
X15500000Y32505112D01*
X14902155Y32505112D01*
X14842627Y32498711D01*
X14842620Y32498709D01*
X14707913Y32448467D01*
X14707906Y32448463D01*
X14592812Y32362303D01*
X14592809Y32362300D01*
X14506649Y32247206D01*
X14506645Y32247199D01*
X14456403Y32112492D01*
X14456401Y32112485D01*
X14450000Y32052957D01*
X14450000Y31455112D01*
X15434314Y31455112D01*
X15422359Y31443157D01*
X15364835Y31330260D01*
X15345014Y31205112D01*
X15364835Y31079964D01*
X15422359Y30967067D01*
X15434314Y30955112D01*
X14450000Y30955112D01*
X14450000Y30374000D01*
X14430315Y30306961D01*
X14377511Y30261206D01*
X14326000Y30250000D01*
X13597280Y30250000D01*
X13530241Y30269685D01*
X13484486Y30322489D01*
X13474542Y30391647D01*
X13503567Y30455203D01*
X13532183Y30479539D01*
X13618345Y30532685D01*
X13742315Y30656655D01*
X13834356Y30805876D01*
X13834358Y30805881D01*
X13889505Y30972303D01*
X13889506Y30972310D01*
X13899999Y31075014D01*
X13900000Y31075027D01*
X13900000Y31200000D01*
X11100001Y31200000D01*
X11100001Y31075014D01*
X11110494Y30972303D01*
X11165641Y30805881D01*
X11165643Y30805876D01*
X11257684Y30656655D01*
X11381654Y30532685D01*
X11467817Y30479539D01*
X11514541Y30427591D01*
X11525764Y30358628D01*
X11497920Y30294546D01*
X11439852Y30255690D01*
X11402720Y30250000D01*
X10424000Y30250000D01*
X10356961Y30269685D01*
X10311206Y30322489D01*
X10300000Y30374000D01*
X10300000Y30955112D01*
X9315686Y30955112D01*
X9327641Y30967067D01*
X9385165Y31079964D01*
X9404986Y31205112D01*
X9385165Y31330260D01*
X9327641Y31443157D01*
X9315686Y31455112D01*
X10300000Y31455112D01*
X10300000Y31700000D01*
X11100000Y31700000D01*
X12250000Y31700000D01*
X12250000Y32525000D01*
X12750000Y32525000D01*
X12750000Y31700000D01*
X13899999Y31700000D01*
X13899999Y31824972D01*
X13899998Y31824987D01*
X13889505Y31927698D01*
X13834358Y32094120D01*
X13834356Y32094125D01*
X13742315Y32243346D01*
X13618345Y32367316D01*
X13469124Y32459357D01*
X13469119Y32459359D01*
X13302697Y32514506D01*
X13302690Y32514507D01*
X13199986Y32525000D01*
X12750000Y32525000D01*
X12250000Y32525000D01*
X11800028Y32525000D01*
X11800012Y32524999D01*
X11697302Y32514506D01*
X11530880Y32459359D01*
X11530875Y32459357D01*
X11381654Y32367316D01*
X11257684Y32243346D01*
X11165643Y32094125D01*
X11165641Y32094120D01*
X11110494Y31927698D01*
X11110493Y31927691D01*
X11100000Y31824987D01*
X11100000Y31700000D01*
X10300000Y31700000D01*
X10300000Y32052940D01*
X10299999Y32052957D01*
X10293598Y32112485D01*
X10293596Y32112492D01*
X10243354Y32247199D01*
X10243350Y32247206D01*
X10157190Y32362300D01*
X10157187Y32362303D01*
X10042093Y32448463D01*
X10042086Y32448467D01*
X9907379Y32498709D01*
X9907372Y32498711D01*
X9847844Y32505112D01*
X9250000Y32505112D01*
X9250000Y31520798D01*
X9238045Y31532753D01*
X9125148Y31590277D01*
X9031481Y31605112D01*
X8968519Y31605112D01*
X8874852Y31590277D01*
X8761955Y31532753D01*
X8750000Y31520798D01*
X8750000Y32505112D01*
X8152155Y32505112D01*
X8092627Y32498711D01*
X8092620Y32498709D01*
X7957913Y32448467D01*
X7957906Y32448463D01*
X7842812Y32362303D01*
X7842809Y32362300D01*
X7756649Y32247206D01*
X7756645Y32247199D01*
X7706403Y32112492D01*
X7706401Y32112485D01*
X7700000Y32052957D01*
X7700000Y31455112D01*
X8684314Y31455112D01*
X8672359Y31443157D01*
X8614835Y31330260D01*
X8595014Y31205112D01*
X8614835Y31079964D01*
X8672359Y30967067D01*
X8684314Y30955112D01*
X7700000Y30955112D01*
X7700000Y30374000D01*
X7680315Y30306961D01*
X7627511Y30261206D01*
X7576000Y30250000D01*
X7499999Y30250000D01*
X7250000Y30000001D01*
X7250000Y26801362D01*
X7230315Y26734323D01*
X7213681Y26713681D01*
X7036319Y26536319D01*
X6974996Y26502834D01*
X6948638Y26500000D01*
X6222280Y26500000D01*
X6155241Y26519685D01*
X6109486Y26572489D01*
X6099542Y26641647D01*
X6128567Y26705203D01*
X6157183Y26729539D01*
X6243345Y26782685D01*
X6367315Y26906655D01*
X6459356Y27055876D01*
X6459358Y27055881D01*
X6514505Y27222303D01*
X6514506Y27222310D01*
X6524999Y27325014D01*
X6525000Y27325027D01*
X6525000Y27750000D01*
X5274000Y27750000D01*
X5206961Y27769685D01*
X5161206Y27822489D01*
X5150000Y27874000D01*
X5150000Y29375000D01*
X5650000Y29375000D01*
X5650000Y28250000D01*
X6524999Y28250000D01*
X6524999Y28674972D01*
X6524998Y28674987D01*
X6514505Y28777698D01*
X6459358Y28944120D01*
X6459356Y28944125D01*
X6367315Y29093346D01*
X6243345Y29217316D01*
X6094124Y29309357D01*
X6094119Y29309359D01*
X5927697Y29364506D01*
X5927690Y29364507D01*
X5824986Y29375000D01*
X5650000Y29375000D01*
X5150000Y29375000D01*
X4975029Y29375000D01*
X4975012Y29374999D01*
X4872302Y29364506D01*
X4705880Y29309359D01*
X4705875Y29309357D01*
X4556654Y29217316D01*
X4461681Y29122342D01*
X4400358Y29088857D01*
X4330666Y29093841D01*
X4274733Y29135713D01*
X4250316Y29201177D01*
X4250000Y29210023D01*
X4250000Y30698638D01*
X4269685Y30765677D01*
X4286319Y30786319D01*
X4463681Y30963681D01*
X4525004Y30997166D01*
X4551362Y31000000D01*
X5500000Y31000000D01*
X5750000Y31250000D01*
X5750000Y33448638D01*
X5769685Y33515677D01*
X5786319Y33536319D01*
X5963681Y33713681D01*
X6025004Y33747166D01*
X6051362Y33750000D01*
X18198638Y33750000D01*
X18265677Y33730315D01*
G37*
%TD.AperFunction*%
%TD*%
M02*
