M48
; DRILL file {KiCad 7.0.10-7.0.10~ubuntu22.04.1} date Saturday 22 June 2024 11:50:56 AM
; FORMAT={-:-/ absolute / metric / decimal}
; #@! TF.CreationDate,2024-06-22T11:50:56+05:30
; #@! TF.GenerationSoftware,Kicad,Pcbnew,7.0.10-7.0.10~ubuntu22.04.1
; #@! TF.FileFunction,MixedPlating,1,2
FMAT,2
METRIC
; #@! TA.AperFunction,Plated,PTH,ViaDrill
T1C0.300
; #@! TA.AperFunction,Plated,PTH,ViaDrill
T2C0.400
; #@! TA.AperFunction,Plated,PTH,ComponentDrill
T3C0.600
; #@! TA.AperFunction,Plated,PTH,ComponentDrill
T4C0.800
; #@! TA.AperFunction,Plated,PTH,ComponentDrill
T5C0.900
; #@! TA.AperFunction,Plated,PTH,ComponentDrill
T6C1.000
; #@! TA.AperFunction,Plated,PTH,ComponentDrill
T7C1.550
; #@! TA.AperFunction,Plated,PTH,ComponentDrill
T8C2.000
; #@! TA.AperFunction,NonPlated,NPTH,ComponentDrill
T9C0.600
; #@! TA.AperFunction,NonPlated,NPTH,ComponentDrill
T10C2.800
%
G90
G05
T1
X7.5Y2.5
X10.0Y10.75
X10.0Y2.5
X13.25Y10.75
X21.0Y11.5
X21.25Y3.5
X22.5Y6.5
X22.5Y1.75
X22.75Y18.75
X27.5Y32.25
X27.5Y30.0
X27.5Y26.75
X28.25Y8.0
X28.75Y12.0
X29.5Y3.575
X30.0Y26.75
X31.75Y26.75
X32.5Y3.575
X34.25Y10.0
X35.0Y12.5
X35.5Y26.25
X36.75Y7.75
X37.5Y12.0
X37.5Y10.0
X37.75Y2.75
X39.75Y5.0
X40.0Y31.25
X40.0Y21.5
X40.0Y20.0
X40.0Y13.5
X42.5Y6.0
X43.25Y24.0
X43.5Y8.75
X43.747Y1.474
X44.0Y20.0
X44.5Y9.25
X44.74Y6.892
X45.0Y13.5
X45.635Y6.75
X45.75Y20.0
X45.75Y9.75
X46.905Y10.1
X47.0Y6.5
X47.25Y18.75
X48.0Y12.5
X48.188Y21.062
X49.5Y3.925
X49.75Y24.0
X50.481Y13.981
X50.5Y20.0
X52.5Y10.75
X52.5Y8.75
X53.5Y10.75
X53.5Y8.75
X54.303Y16.0
X54.5Y10.75
X54.5Y8.75
X54.5Y4.25
X56.75Y19.0
X59.5Y10.25
X59.725Y8.225
X61.5Y19.25
X62.0Y27.3
X62.5Y31.0
X62.75Y6.25
X63.0Y13.0
X66.0Y10.0
X66.0Y5.75
X66.5Y12.5
T2
X19.0Y11.25
X34.5Y25.0
X53.75Y20.25
T4
X9.0Y31.205
X9.0Y28.705
X15.75Y31.205
X15.75Y28.705
X60.575Y13.663
X61.422Y8.857
T5
X43.263Y29.0
X45.422Y29.0
X47.581Y29.0
X49.74Y29.0
T6
X24.0Y28.5
X24.0Y23.5
X38.5Y28.5
X38.5Y26.0
X38.5Y23.5
X56.46Y2.25
X59.0Y2.25
X61.54Y2.25
T7
X2.79Y11.25
X2.79Y6.45
X3.0Y23.5
X3.0Y16.5
X65.75Y23.5
X65.75Y16.5
T9
X27.86Y4.45
X33.64Y4.45
T10
X16.59Y11.25
X16.59Y6.45
T3
G00X26.43Y4.38
M15
G01X26.43Y5.48
M16
G05
G00X26.43Y0.36
M15
G01X26.43Y1.16
M16
G05
G00X35.07Y4.38
M15
G01X35.07Y5.48
M16
G05
G00X35.07Y0.36
M15
G01X35.07Y1.16
M16
G05
T8
G00X31.25Y31.6
M15
G01X30.75Y31.6
M16
G05
G00X31.25Y20.4
M15
G01X30.75Y20.4
M16
G05
M30
