%TF.GenerationSoftware,KiCad,Pcbnew,7.0.10-7.0.10~ubuntu22.04.1*%
%TF.CreationDate,2024-06-22T11:50:55+05:30*%
%TF.ProjectId,Light-CC,4c696768-742d-4434-932e-6b696361645f,rev?*%
%TF.SameCoordinates,PX4c4b400PY7270e00*%
%TF.FileFunction,Legend,Bot*%
%TF.FilePolarity,Positive*%
%FSLAX46Y46*%
G04 Gerber Fmt 4.6, Leading zero omitted, Abs format (unit mm)*
G04 Created by KiCad (PCBNEW 7.0.10-7.0.10~ubuntu22.04.1) date 2024-06-22 11:50:55*
%MOMM*%
%LPD*%
G01*
G04 APERTURE LIST*
%ADD10C,0.200000*%
%ADD11C,2.000000*%
%ADD12C,0.150000*%
%ADD13C,0.120000*%
G04 APERTURE END LIST*
D10*
X20154136Y8382781D02*
X20630326Y8382781D01*
X20630326Y8382781D02*
X20630326Y9382781D01*
X19820802Y8382781D02*
X19820802Y9049448D01*
X19820802Y9382781D02*
X19868421Y9335162D01*
X19868421Y9335162D02*
X19820802Y9287543D01*
X19820802Y9287543D02*
X19773183Y9335162D01*
X19773183Y9335162D02*
X19820802Y9382781D01*
X19820802Y9382781D02*
X19820802Y9287543D01*
X18916041Y9049448D02*
X18916041Y8239924D01*
X18916041Y8239924D02*
X18963660Y8144686D01*
X18963660Y8144686D02*
X19011279Y8097067D01*
X19011279Y8097067D02*
X19106517Y8049448D01*
X19106517Y8049448D02*
X19249374Y8049448D01*
X19249374Y8049448D02*
X19344612Y8097067D01*
X18916041Y8430400D02*
X19011279Y8382781D01*
X19011279Y8382781D02*
X19201755Y8382781D01*
X19201755Y8382781D02*
X19296993Y8430400D01*
X19296993Y8430400D02*
X19344612Y8478020D01*
X19344612Y8478020D02*
X19392231Y8573258D01*
X19392231Y8573258D02*
X19392231Y8858972D01*
X19392231Y8858972D02*
X19344612Y8954210D01*
X19344612Y8954210D02*
X19296993Y9001829D01*
X19296993Y9001829D02*
X19201755Y9049448D01*
X19201755Y9049448D02*
X19011279Y9049448D01*
X19011279Y9049448D02*
X18916041Y9001829D01*
X18439850Y8382781D02*
X18439850Y9382781D01*
X18011279Y8382781D02*
X18011279Y8906591D01*
X18011279Y8906591D02*
X18058898Y9001829D01*
X18058898Y9001829D02*
X18154136Y9049448D01*
X18154136Y9049448D02*
X18296993Y9049448D01*
X18296993Y9049448D02*
X18392231Y9001829D01*
X18392231Y9001829D02*
X18439850Y8954210D01*
X17677945Y9049448D02*
X17296993Y9049448D01*
X17535088Y9382781D02*
X17535088Y8525639D01*
X17535088Y8525639D02*
X17487469Y8430400D01*
X17487469Y8430400D02*
X17392231Y8382781D01*
X17392231Y8382781D02*
X17296993Y8382781D01*
X16963659Y8763734D02*
X16201755Y8763734D01*
X15154136Y8478020D02*
X15201755Y8430400D01*
X15201755Y8430400D02*
X15344612Y8382781D01*
X15344612Y8382781D02*
X15439850Y8382781D01*
X15439850Y8382781D02*
X15582707Y8430400D01*
X15582707Y8430400D02*
X15677945Y8525639D01*
X15677945Y8525639D02*
X15725564Y8620877D01*
X15725564Y8620877D02*
X15773183Y8811353D01*
X15773183Y8811353D02*
X15773183Y8954210D01*
X15773183Y8954210D02*
X15725564Y9144686D01*
X15725564Y9144686D02*
X15677945Y9239924D01*
X15677945Y9239924D02*
X15582707Y9335162D01*
X15582707Y9335162D02*
X15439850Y9382781D01*
X15439850Y9382781D02*
X15344612Y9382781D01*
X15344612Y9382781D02*
X15201755Y9335162D01*
X15201755Y9335162D02*
X15154136Y9287543D01*
X14154136Y8478020D02*
X14201755Y8430400D01*
X14201755Y8430400D02*
X14344612Y8382781D01*
X14344612Y8382781D02*
X14439850Y8382781D01*
X14439850Y8382781D02*
X14582707Y8430400D01*
X14582707Y8430400D02*
X14677945Y8525639D01*
X14677945Y8525639D02*
X14725564Y8620877D01*
X14725564Y8620877D02*
X14773183Y8811353D01*
X14773183Y8811353D02*
X14773183Y8954210D01*
X14773183Y8954210D02*
X14725564Y9144686D01*
X14725564Y9144686D02*
X14677945Y9239924D01*
X14677945Y9239924D02*
X14582707Y9335162D01*
X14582707Y9335162D02*
X14439850Y9382781D01*
X14439850Y9382781D02*
X14344612Y9382781D01*
X14344612Y9382781D02*
X14201755Y9335162D01*
X14201755Y9335162D02*
X14154136Y9287543D01*
X13963660Y8287543D02*
X13201755Y8287543D01*
X13106516Y9382781D02*
X12773183Y8382781D01*
X12773183Y8382781D02*
X12439850Y9382781D01*
X11582707Y8382781D02*
X12154135Y8382781D01*
X11868421Y8382781D02*
X11868421Y9382781D01*
X11868421Y9382781D02*
X11963659Y9239924D01*
X11963659Y9239924D02*
X12058897Y9144686D01*
X12058897Y9144686D02*
X12154135Y9097067D01*
D11*
X8000000Y3000000D02*
X21500000Y3000000D01*
D12*
X51609580Y4142858D02*
X51657200Y4190477D01*
X51657200Y4190477D02*
X51704819Y4333334D01*
X51704819Y4333334D02*
X51704819Y4428572D01*
X51704819Y4428572D02*
X51657200Y4571429D01*
X51657200Y4571429D02*
X51561961Y4666667D01*
X51561961Y4666667D02*
X51466723Y4714286D01*
X51466723Y4714286D02*
X51276247Y4761905D01*
X51276247Y4761905D02*
X51133390Y4761905D01*
X51133390Y4761905D02*
X50942914Y4714286D01*
X50942914Y4714286D02*
X50847676Y4666667D01*
X50847676Y4666667D02*
X50752438Y4571429D01*
X50752438Y4571429D02*
X50704819Y4428572D01*
X50704819Y4428572D02*
X50704819Y4333334D01*
X50704819Y4333334D02*
X50752438Y4190477D01*
X50752438Y4190477D02*
X50800057Y4142858D01*
X51704819Y3190477D02*
X51704819Y3761905D01*
X51704819Y3476191D02*
X50704819Y3476191D01*
X50704819Y3476191D02*
X50847676Y3571429D01*
X50847676Y3571429D02*
X50942914Y3666667D01*
X50942914Y3666667D02*
X50990533Y3761905D01*
X51704819Y2714286D02*
X51704819Y2523810D01*
X51704819Y2523810D02*
X51657200Y2428572D01*
X51657200Y2428572D02*
X51609580Y2380953D01*
X51609580Y2380953D02*
X51466723Y2285715D01*
X51466723Y2285715D02*
X51276247Y2238096D01*
X51276247Y2238096D02*
X50895295Y2238096D01*
X50895295Y2238096D02*
X50800057Y2285715D01*
X50800057Y2285715D02*
X50752438Y2333334D01*
X50752438Y2333334D02*
X50704819Y2428572D01*
X50704819Y2428572D02*
X50704819Y2619048D01*
X50704819Y2619048D02*
X50752438Y2714286D01*
X50752438Y2714286D02*
X50800057Y2761905D01*
X50800057Y2761905D02*
X50895295Y2809524D01*
X50895295Y2809524D02*
X51133390Y2809524D01*
X51133390Y2809524D02*
X51228628Y2761905D01*
X51228628Y2761905D02*
X51276247Y2714286D01*
X51276247Y2714286D02*
X51323866Y2619048D01*
X51323866Y2619048D02*
X51323866Y2428572D01*
X51323866Y2428572D02*
X51276247Y2333334D01*
X51276247Y2333334D02*
X51228628Y2285715D01*
X51228628Y2285715D02*
X51133390Y2238096D01*
X48014819Y9511905D02*
X48824342Y9511905D01*
X48824342Y9511905D02*
X48919580Y9464286D01*
X48919580Y9464286D02*
X48967200Y9416667D01*
X48967200Y9416667D02*
X49014819Y9321429D01*
X49014819Y9321429D02*
X49014819Y9130953D01*
X49014819Y9130953D02*
X48967200Y9035715D01*
X48967200Y9035715D02*
X48919580Y8988096D01*
X48919580Y8988096D02*
X48824342Y8940477D01*
X48824342Y8940477D02*
X48014819Y8940477D01*
X48110057Y8511905D02*
X48062438Y8464286D01*
X48062438Y8464286D02*
X48014819Y8369048D01*
X48014819Y8369048D02*
X48014819Y8130953D01*
X48014819Y8130953D02*
X48062438Y8035715D01*
X48062438Y8035715D02*
X48110057Y7988096D01*
X48110057Y7988096D02*
X48205295Y7940477D01*
X48205295Y7940477D02*
X48300533Y7940477D01*
X48300533Y7940477D02*
X48443390Y7988096D01*
X48443390Y7988096D02*
X49014819Y8559524D01*
X49014819Y8559524D02*
X49014819Y7940477D01*
X58609580Y31166667D02*
X58657200Y31214286D01*
X58657200Y31214286D02*
X58704819Y31357143D01*
X58704819Y31357143D02*
X58704819Y31452381D01*
X58704819Y31452381D02*
X58657200Y31595238D01*
X58657200Y31595238D02*
X58561961Y31690476D01*
X58561961Y31690476D02*
X58466723Y31738095D01*
X58466723Y31738095D02*
X58276247Y31785714D01*
X58276247Y31785714D02*
X58133390Y31785714D01*
X58133390Y31785714D02*
X57942914Y31738095D01*
X57942914Y31738095D02*
X57847676Y31690476D01*
X57847676Y31690476D02*
X57752438Y31595238D01*
X57752438Y31595238D02*
X57704819Y31452381D01*
X57704819Y31452381D02*
X57704819Y31357143D01*
X57704819Y31357143D02*
X57752438Y31214286D01*
X57752438Y31214286D02*
X57800057Y31166667D01*
X57800057Y30785714D02*
X57752438Y30738095D01*
X57752438Y30738095D02*
X57704819Y30642857D01*
X57704819Y30642857D02*
X57704819Y30404762D01*
X57704819Y30404762D02*
X57752438Y30309524D01*
X57752438Y30309524D02*
X57800057Y30261905D01*
X57800057Y30261905D02*
X57895295Y30214286D01*
X57895295Y30214286D02*
X57990533Y30214286D01*
X57990533Y30214286D02*
X58133390Y30261905D01*
X58133390Y30261905D02*
X58704819Y30833333D01*
X58704819Y30833333D02*
X58704819Y30214286D01*
X40392857Y8140420D02*
X40440476Y8092800D01*
X40440476Y8092800D02*
X40583333Y8045181D01*
X40583333Y8045181D02*
X40678571Y8045181D01*
X40678571Y8045181D02*
X40821428Y8092800D01*
X40821428Y8092800D02*
X40916666Y8188039D01*
X40916666Y8188039D02*
X40964285Y8283277D01*
X40964285Y8283277D02*
X41011904Y8473753D01*
X41011904Y8473753D02*
X41011904Y8616610D01*
X41011904Y8616610D02*
X40964285Y8807086D01*
X40964285Y8807086D02*
X40916666Y8902324D01*
X40916666Y8902324D02*
X40821428Y8997562D01*
X40821428Y8997562D02*
X40678571Y9045181D01*
X40678571Y9045181D02*
X40583333Y9045181D01*
X40583333Y9045181D02*
X40440476Y8997562D01*
X40440476Y8997562D02*
X40392857Y8949943D01*
X40011904Y8949943D02*
X39964285Y8997562D01*
X39964285Y8997562D02*
X39869047Y9045181D01*
X39869047Y9045181D02*
X39630952Y9045181D01*
X39630952Y9045181D02*
X39535714Y8997562D01*
X39535714Y8997562D02*
X39488095Y8949943D01*
X39488095Y8949943D02*
X39440476Y8854705D01*
X39440476Y8854705D02*
X39440476Y8759467D01*
X39440476Y8759467D02*
X39488095Y8616610D01*
X39488095Y8616610D02*
X40059523Y8045181D01*
X40059523Y8045181D02*
X39440476Y8045181D01*
X38821428Y9045181D02*
X38726190Y9045181D01*
X38726190Y9045181D02*
X38630952Y8997562D01*
X38630952Y8997562D02*
X38583333Y8949943D01*
X38583333Y8949943D02*
X38535714Y8854705D01*
X38535714Y8854705D02*
X38488095Y8664229D01*
X38488095Y8664229D02*
X38488095Y8426134D01*
X38488095Y8426134D02*
X38535714Y8235658D01*
X38535714Y8235658D02*
X38583333Y8140420D01*
X38583333Y8140420D02*
X38630952Y8092800D01*
X38630952Y8092800D02*
X38726190Y8045181D01*
X38726190Y8045181D02*
X38821428Y8045181D01*
X38821428Y8045181D02*
X38916666Y8092800D01*
X38916666Y8092800D02*
X38964285Y8140420D01*
X38964285Y8140420D02*
X39011904Y8235658D01*
X39011904Y8235658D02*
X39059523Y8426134D01*
X39059523Y8426134D02*
X39059523Y8664229D01*
X39059523Y8664229D02*
X39011904Y8854705D01*
X39011904Y8854705D02*
X38964285Y8949943D01*
X38964285Y8949943D02*
X38916666Y8997562D01*
X38916666Y8997562D02*
X38821428Y9045181D01*
X5833333Y30068991D02*
X6166666Y30068991D01*
X6166666Y29545181D02*
X6166666Y30545181D01*
X6166666Y30545181D02*
X5690476Y30545181D01*
X4785714Y29545181D02*
X5357142Y29545181D01*
X5071428Y29545181D02*
X5071428Y30545181D01*
X5071428Y30545181D02*
X5166666Y30402324D01*
X5166666Y30402324D02*
X5261904Y30307086D01*
X5261904Y30307086D02*
X5357142Y30259467D01*
X51609580Y16642858D02*
X51657200Y16690477D01*
X51657200Y16690477D02*
X51704819Y16833334D01*
X51704819Y16833334D02*
X51704819Y16928572D01*
X51704819Y16928572D02*
X51657200Y17071429D01*
X51657200Y17071429D02*
X51561961Y17166667D01*
X51561961Y17166667D02*
X51466723Y17214286D01*
X51466723Y17214286D02*
X51276247Y17261905D01*
X51276247Y17261905D02*
X51133390Y17261905D01*
X51133390Y17261905D02*
X50942914Y17214286D01*
X50942914Y17214286D02*
X50847676Y17166667D01*
X50847676Y17166667D02*
X50752438Y17071429D01*
X50752438Y17071429D02*
X50704819Y16928572D01*
X50704819Y16928572D02*
X50704819Y16833334D01*
X50704819Y16833334D02*
X50752438Y16690477D01*
X50752438Y16690477D02*
X50800057Y16642858D01*
X51704819Y15690477D02*
X51704819Y16261905D01*
X51704819Y15976191D02*
X50704819Y15976191D01*
X50704819Y15976191D02*
X50847676Y16071429D01*
X50847676Y16071429D02*
X50942914Y16166667D01*
X50942914Y16166667D02*
X50990533Y16261905D01*
X50704819Y15071429D02*
X50704819Y14976191D01*
X50704819Y14976191D02*
X50752438Y14880953D01*
X50752438Y14880953D02*
X50800057Y14833334D01*
X50800057Y14833334D02*
X50895295Y14785715D01*
X50895295Y14785715D02*
X51085771Y14738096D01*
X51085771Y14738096D02*
X51323866Y14738096D01*
X51323866Y14738096D02*
X51514342Y14785715D01*
X51514342Y14785715D02*
X51609580Y14833334D01*
X51609580Y14833334D02*
X51657200Y14880953D01*
X51657200Y14880953D02*
X51704819Y14976191D01*
X51704819Y14976191D02*
X51704819Y15071429D01*
X51704819Y15071429D02*
X51657200Y15166667D01*
X51657200Y15166667D02*
X51609580Y15214286D01*
X51609580Y15214286D02*
X51514342Y15261905D01*
X51514342Y15261905D02*
X51323866Y15309524D01*
X51323866Y15309524D02*
X51085771Y15309524D01*
X51085771Y15309524D02*
X50895295Y15261905D01*
X50895295Y15261905D02*
X50800057Y15214286D01*
X50800057Y15214286D02*
X50752438Y15166667D01*
X50752438Y15166667D02*
X50704819Y15071429D01*
X56109580Y16642858D02*
X56157200Y16690477D01*
X56157200Y16690477D02*
X56204819Y16833334D01*
X56204819Y16833334D02*
X56204819Y16928572D01*
X56204819Y16928572D02*
X56157200Y17071429D01*
X56157200Y17071429D02*
X56061961Y17166667D01*
X56061961Y17166667D02*
X55966723Y17214286D01*
X55966723Y17214286D02*
X55776247Y17261905D01*
X55776247Y17261905D02*
X55633390Y17261905D01*
X55633390Y17261905D02*
X55442914Y17214286D01*
X55442914Y17214286D02*
X55347676Y17166667D01*
X55347676Y17166667D02*
X55252438Y17071429D01*
X55252438Y17071429D02*
X55204819Y16928572D01*
X55204819Y16928572D02*
X55204819Y16833334D01*
X55204819Y16833334D02*
X55252438Y16690477D01*
X55252438Y16690477D02*
X55300057Y16642858D01*
X56204819Y15690477D02*
X56204819Y16261905D01*
X56204819Y15976191D02*
X55204819Y15976191D01*
X55204819Y15976191D02*
X55347676Y16071429D01*
X55347676Y16071429D02*
X55442914Y16166667D01*
X55442914Y16166667D02*
X55490533Y16261905D01*
X55633390Y15119048D02*
X55585771Y15214286D01*
X55585771Y15214286D02*
X55538152Y15261905D01*
X55538152Y15261905D02*
X55442914Y15309524D01*
X55442914Y15309524D02*
X55395295Y15309524D01*
X55395295Y15309524D02*
X55300057Y15261905D01*
X55300057Y15261905D02*
X55252438Y15214286D01*
X55252438Y15214286D02*
X55204819Y15119048D01*
X55204819Y15119048D02*
X55204819Y14928572D01*
X55204819Y14928572D02*
X55252438Y14833334D01*
X55252438Y14833334D02*
X55300057Y14785715D01*
X55300057Y14785715D02*
X55395295Y14738096D01*
X55395295Y14738096D02*
X55442914Y14738096D01*
X55442914Y14738096D02*
X55538152Y14785715D01*
X55538152Y14785715D02*
X55585771Y14833334D01*
X55585771Y14833334D02*
X55633390Y14928572D01*
X55633390Y14928572D02*
X55633390Y15119048D01*
X55633390Y15119048D02*
X55681009Y15214286D01*
X55681009Y15214286D02*
X55728628Y15261905D01*
X55728628Y15261905D02*
X55823866Y15309524D01*
X55823866Y15309524D02*
X56014342Y15309524D01*
X56014342Y15309524D02*
X56109580Y15261905D01*
X56109580Y15261905D02*
X56157200Y15214286D01*
X56157200Y15214286D02*
X56204819Y15119048D01*
X56204819Y15119048D02*
X56204819Y14928572D01*
X56204819Y14928572D02*
X56157200Y14833334D01*
X56157200Y14833334D02*
X56109580Y14785715D01*
X56109580Y14785715D02*
X56014342Y14738096D01*
X56014342Y14738096D02*
X55823866Y14738096D01*
X55823866Y14738096D02*
X55728628Y14785715D01*
X55728628Y14785715D02*
X55681009Y14833334D01*
X55681009Y14833334D02*
X55633390Y14928572D01*
X49845238Y24199943D02*
X49940476Y24247562D01*
X49940476Y24247562D02*
X50035714Y24342800D01*
X50035714Y24342800D02*
X50178571Y24485658D01*
X50178571Y24485658D02*
X50273809Y24533277D01*
X50273809Y24533277D02*
X50369047Y24533277D01*
X50321428Y24295181D02*
X50416666Y24342800D01*
X50416666Y24342800D02*
X50511904Y24438039D01*
X50511904Y24438039D02*
X50559523Y24628515D01*
X50559523Y24628515D02*
X50559523Y24961848D01*
X50559523Y24961848D02*
X50511904Y25152324D01*
X50511904Y25152324D02*
X50416666Y25247562D01*
X50416666Y25247562D02*
X50321428Y25295181D01*
X50321428Y25295181D02*
X50130952Y25295181D01*
X50130952Y25295181D02*
X50035714Y25247562D01*
X50035714Y25247562D02*
X49940476Y25152324D01*
X49940476Y25152324D02*
X49892857Y24961848D01*
X49892857Y24961848D02*
X49892857Y24628515D01*
X49892857Y24628515D02*
X49940476Y24438039D01*
X49940476Y24438039D02*
X50035714Y24342800D01*
X50035714Y24342800D02*
X50130952Y24295181D01*
X50130952Y24295181D02*
X50321428Y24295181D01*
X49035714Y24961848D02*
X49035714Y24295181D01*
X49273809Y25342800D02*
X49511904Y24628515D01*
X49511904Y24628515D02*
X48892857Y24628515D01*
X57359580Y6617858D02*
X57407200Y6665477D01*
X57407200Y6665477D02*
X57454819Y6808334D01*
X57454819Y6808334D02*
X57454819Y6903572D01*
X57454819Y6903572D02*
X57407200Y7046429D01*
X57407200Y7046429D02*
X57311961Y7141667D01*
X57311961Y7141667D02*
X57216723Y7189286D01*
X57216723Y7189286D02*
X57026247Y7236905D01*
X57026247Y7236905D02*
X56883390Y7236905D01*
X56883390Y7236905D02*
X56692914Y7189286D01*
X56692914Y7189286D02*
X56597676Y7141667D01*
X56597676Y7141667D02*
X56502438Y7046429D01*
X56502438Y7046429D02*
X56454819Y6903572D01*
X56454819Y6903572D02*
X56454819Y6808334D01*
X56454819Y6808334D02*
X56502438Y6665477D01*
X56502438Y6665477D02*
X56550057Y6617858D01*
X57454819Y5665477D02*
X57454819Y6236905D01*
X57454819Y5951191D02*
X56454819Y5951191D01*
X56454819Y5951191D02*
X56597676Y6046429D01*
X56597676Y6046429D02*
X56692914Y6141667D01*
X56692914Y6141667D02*
X56740533Y6236905D01*
X56788152Y4808334D02*
X57454819Y4808334D01*
X56407200Y5046429D02*
X57121485Y5284524D01*
X57121485Y5284524D02*
X57121485Y4665477D01*
X57666666Y21390420D02*
X57714285Y21342800D01*
X57714285Y21342800D02*
X57857142Y21295181D01*
X57857142Y21295181D02*
X57952380Y21295181D01*
X57952380Y21295181D02*
X58095237Y21342800D01*
X58095237Y21342800D02*
X58190475Y21438039D01*
X58190475Y21438039D02*
X58238094Y21533277D01*
X58238094Y21533277D02*
X58285713Y21723753D01*
X58285713Y21723753D02*
X58285713Y21866610D01*
X58285713Y21866610D02*
X58238094Y22057086D01*
X58238094Y22057086D02*
X58190475Y22152324D01*
X58190475Y22152324D02*
X58095237Y22247562D01*
X58095237Y22247562D02*
X57952380Y22295181D01*
X57952380Y22295181D02*
X57857142Y22295181D01*
X57857142Y22295181D02*
X57714285Y22247562D01*
X57714285Y22247562D02*
X57666666Y22199943D01*
X57333332Y22295181D02*
X56714285Y22295181D01*
X56714285Y22295181D02*
X57047618Y21914229D01*
X57047618Y21914229D02*
X56904761Y21914229D01*
X56904761Y21914229D02*
X56809523Y21866610D01*
X56809523Y21866610D02*
X56761904Y21818991D01*
X56761904Y21818991D02*
X56714285Y21723753D01*
X56714285Y21723753D02*
X56714285Y21485658D01*
X56714285Y21485658D02*
X56761904Y21390420D01*
X56761904Y21390420D02*
X56809523Y21342800D01*
X56809523Y21342800D02*
X56904761Y21295181D01*
X56904761Y21295181D02*
X57190475Y21295181D01*
X57190475Y21295181D02*
X57285713Y21342800D01*
X57285713Y21342800D02*
X57333332Y21390420D01*
X12859580Y33666667D02*
X12907200Y33714286D01*
X12907200Y33714286D02*
X12954819Y33857143D01*
X12954819Y33857143D02*
X12954819Y33952381D01*
X12954819Y33952381D02*
X12907200Y34095238D01*
X12907200Y34095238D02*
X12811961Y34190476D01*
X12811961Y34190476D02*
X12716723Y34238095D01*
X12716723Y34238095D02*
X12526247Y34285714D01*
X12526247Y34285714D02*
X12383390Y34285714D01*
X12383390Y34285714D02*
X12192914Y34238095D01*
X12192914Y34238095D02*
X12097676Y34190476D01*
X12097676Y34190476D02*
X12002438Y34095238D01*
X12002438Y34095238D02*
X11954819Y33952381D01*
X11954819Y33952381D02*
X11954819Y33857143D01*
X11954819Y33857143D02*
X12002438Y33714286D01*
X12002438Y33714286D02*
X12050057Y33666667D01*
X12954819Y33190476D02*
X12954819Y33000000D01*
X12954819Y33000000D02*
X12907200Y32904762D01*
X12907200Y32904762D02*
X12859580Y32857143D01*
X12859580Y32857143D02*
X12716723Y32761905D01*
X12716723Y32761905D02*
X12526247Y32714286D01*
X12526247Y32714286D02*
X12145295Y32714286D01*
X12145295Y32714286D02*
X12050057Y32761905D01*
X12050057Y32761905D02*
X12002438Y32809524D01*
X12002438Y32809524D02*
X11954819Y32904762D01*
X11954819Y32904762D02*
X11954819Y33095238D01*
X11954819Y33095238D02*
X12002438Y33190476D01*
X12002438Y33190476D02*
X12050057Y33238095D01*
X12050057Y33238095D02*
X12145295Y33285714D01*
X12145295Y33285714D02*
X12383390Y33285714D01*
X12383390Y33285714D02*
X12478628Y33238095D01*
X12478628Y33238095D02*
X12526247Y33190476D01*
X12526247Y33190476D02*
X12573866Y33095238D01*
X12573866Y33095238D02*
X12573866Y32904762D01*
X12573866Y32904762D02*
X12526247Y32809524D01*
X12526247Y32809524D02*
X12478628Y32761905D01*
X12478628Y32761905D02*
X12383390Y32714286D01*
X53109580Y16642858D02*
X53157200Y16690477D01*
X53157200Y16690477D02*
X53204819Y16833334D01*
X53204819Y16833334D02*
X53204819Y16928572D01*
X53204819Y16928572D02*
X53157200Y17071429D01*
X53157200Y17071429D02*
X53061961Y17166667D01*
X53061961Y17166667D02*
X52966723Y17214286D01*
X52966723Y17214286D02*
X52776247Y17261905D01*
X52776247Y17261905D02*
X52633390Y17261905D01*
X52633390Y17261905D02*
X52442914Y17214286D01*
X52442914Y17214286D02*
X52347676Y17166667D01*
X52347676Y17166667D02*
X52252438Y17071429D01*
X52252438Y17071429D02*
X52204819Y16928572D01*
X52204819Y16928572D02*
X52204819Y16833334D01*
X52204819Y16833334D02*
X52252438Y16690477D01*
X52252438Y16690477D02*
X52300057Y16642858D01*
X53204819Y15690477D02*
X53204819Y16261905D01*
X53204819Y15976191D02*
X52204819Y15976191D01*
X52204819Y15976191D02*
X52347676Y16071429D01*
X52347676Y16071429D02*
X52442914Y16166667D01*
X52442914Y16166667D02*
X52490533Y16261905D01*
X52204819Y14833334D02*
X52204819Y15023810D01*
X52204819Y15023810D02*
X52252438Y15119048D01*
X52252438Y15119048D02*
X52300057Y15166667D01*
X52300057Y15166667D02*
X52442914Y15261905D01*
X52442914Y15261905D02*
X52633390Y15309524D01*
X52633390Y15309524D02*
X53014342Y15309524D01*
X53014342Y15309524D02*
X53109580Y15261905D01*
X53109580Y15261905D02*
X53157200Y15214286D01*
X53157200Y15214286D02*
X53204819Y15119048D01*
X53204819Y15119048D02*
X53204819Y14928572D01*
X53204819Y14928572D02*
X53157200Y14833334D01*
X53157200Y14833334D02*
X53109580Y14785715D01*
X53109580Y14785715D02*
X53014342Y14738096D01*
X53014342Y14738096D02*
X52776247Y14738096D01*
X52776247Y14738096D02*
X52681009Y14785715D01*
X52681009Y14785715D02*
X52633390Y14833334D01*
X52633390Y14833334D02*
X52585771Y14928572D01*
X52585771Y14928572D02*
X52585771Y15119048D01*
X52585771Y15119048D02*
X52633390Y15214286D01*
X52633390Y15214286D02*
X52681009Y15261905D01*
X52681009Y15261905D02*
X52776247Y15309524D01*
X54609580Y16642858D02*
X54657200Y16690477D01*
X54657200Y16690477D02*
X54704819Y16833334D01*
X54704819Y16833334D02*
X54704819Y16928572D01*
X54704819Y16928572D02*
X54657200Y17071429D01*
X54657200Y17071429D02*
X54561961Y17166667D01*
X54561961Y17166667D02*
X54466723Y17214286D01*
X54466723Y17214286D02*
X54276247Y17261905D01*
X54276247Y17261905D02*
X54133390Y17261905D01*
X54133390Y17261905D02*
X53942914Y17214286D01*
X53942914Y17214286D02*
X53847676Y17166667D01*
X53847676Y17166667D02*
X53752438Y17071429D01*
X53752438Y17071429D02*
X53704819Y16928572D01*
X53704819Y16928572D02*
X53704819Y16833334D01*
X53704819Y16833334D02*
X53752438Y16690477D01*
X53752438Y16690477D02*
X53800057Y16642858D01*
X54704819Y15690477D02*
X54704819Y16261905D01*
X54704819Y15976191D02*
X53704819Y15976191D01*
X53704819Y15976191D02*
X53847676Y16071429D01*
X53847676Y16071429D02*
X53942914Y16166667D01*
X53942914Y16166667D02*
X53990533Y16261905D01*
X53704819Y15357143D02*
X53704819Y14690477D01*
X53704819Y14690477D02*
X54704819Y15119048D01*
X60609580Y31166667D02*
X60657200Y31214286D01*
X60657200Y31214286D02*
X60704819Y31357143D01*
X60704819Y31357143D02*
X60704819Y31452381D01*
X60704819Y31452381D02*
X60657200Y31595238D01*
X60657200Y31595238D02*
X60561961Y31690476D01*
X60561961Y31690476D02*
X60466723Y31738095D01*
X60466723Y31738095D02*
X60276247Y31785714D01*
X60276247Y31785714D02*
X60133390Y31785714D01*
X60133390Y31785714D02*
X59942914Y31738095D01*
X59942914Y31738095D02*
X59847676Y31690476D01*
X59847676Y31690476D02*
X59752438Y31595238D01*
X59752438Y31595238D02*
X59704819Y31452381D01*
X59704819Y31452381D02*
X59704819Y31357143D01*
X59704819Y31357143D02*
X59752438Y31214286D01*
X59752438Y31214286D02*
X59800057Y31166667D01*
X60704819Y30214286D02*
X60704819Y30785714D01*
X60704819Y30500000D02*
X59704819Y30500000D01*
X59704819Y30500000D02*
X59847676Y30595238D01*
X59847676Y30595238D02*
X59942914Y30690476D01*
X59942914Y30690476D02*
X59990533Y30785714D01*
X36833332Y17342800D02*
X36690475Y17295181D01*
X36690475Y17295181D02*
X36452380Y17295181D01*
X36452380Y17295181D02*
X36357142Y17342800D01*
X36357142Y17342800D02*
X36309523Y17390420D01*
X36309523Y17390420D02*
X36261904Y17485658D01*
X36261904Y17485658D02*
X36261904Y17580896D01*
X36261904Y17580896D02*
X36309523Y17676134D01*
X36309523Y17676134D02*
X36357142Y17723753D01*
X36357142Y17723753D02*
X36452380Y17771372D01*
X36452380Y17771372D02*
X36642856Y17818991D01*
X36642856Y17818991D02*
X36738094Y17866610D01*
X36738094Y17866610D02*
X36785713Y17914229D01*
X36785713Y17914229D02*
X36833332Y18009467D01*
X36833332Y18009467D02*
X36833332Y18104705D01*
X36833332Y18104705D02*
X36785713Y18199943D01*
X36785713Y18199943D02*
X36738094Y18247562D01*
X36738094Y18247562D02*
X36642856Y18295181D01*
X36642856Y18295181D02*
X36404761Y18295181D01*
X36404761Y18295181D02*
X36261904Y18247562D01*
X35928570Y18295181D02*
X35690475Y17295181D01*
X35690475Y17295181D02*
X35499999Y18009467D01*
X35499999Y18009467D02*
X35309523Y17295181D01*
X35309523Y17295181D02*
X35071428Y18295181D01*
X34166666Y17295181D02*
X34738094Y17295181D01*
X34452380Y17295181D02*
X34452380Y18295181D01*
X34452380Y18295181D02*
X34547618Y18152324D01*
X34547618Y18152324D02*
X34642856Y18057086D01*
X34642856Y18057086D02*
X34738094Y18009467D01*
X29954819Y5416667D02*
X29478628Y5750000D01*
X29954819Y5988095D02*
X28954819Y5988095D01*
X28954819Y5988095D02*
X28954819Y5607143D01*
X28954819Y5607143D02*
X29002438Y5511905D01*
X29002438Y5511905D02*
X29050057Y5464286D01*
X29050057Y5464286D02*
X29145295Y5416667D01*
X29145295Y5416667D02*
X29288152Y5416667D01*
X29288152Y5416667D02*
X29383390Y5464286D01*
X29383390Y5464286D02*
X29431009Y5511905D01*
X29431009Y5511905D02*
X29478628Y5607143D01*
X29478628Y5607143D02*
X29478628Y5988095D01*
X28954819Y4559524D02*
X28954819Y4750000D01*
X28954819Y4750000D02*
X29002438Y4845238D01*
X29002438Y4845238D02*
X29050057Y4892857D01*
X29050057Y4892857D02*
X29192914Y4988095D01*
X29192914Y4988095D02*
X29383390Y5035714D01*
X29383390Y5035714D02*
X29764342Y5035714D01*
X29764342Y5035714D02*
X29859580Y4988095D01*
X29859580Y4988095D02*
X29907200Y4940476D01*
X29907200Y4940476D02*
X29954819Y4845238D01*
X29954819Y4845238D02*
X29954819Y4654762D01*
X29954819Y4654762D02*
X29907200Y4559524D01*
X29907200Y4559524D02*
X29859580Y4511905D01*
X29859580Y4511905D02*
X29764342Y4464286D01*
X29764342Y4464286D02*
X29526247Y4464286D01*
X29526247Y4464286D02*
X29431009Y4511905D01*
X29431009Y4511905D02*
X29383390Y4559524D01*
X29383390Y4559524D02*
X29335771Y4654762D01*
X29335771Y4654762D02*
X29335771Y4845238D01*
X29335771Y4845238D02*
X29383390Y4940476D01*
X29383390Y4940476D02*
X29431009Y4988095D01*
X29431009Y4988095D02*
X29526247Y5035714D01*
X49359580Y16642858D02*
X49407200Y16690477D01*
X49407200Y16690477D02*
X49454819Y16833334D01*
X49454819Y16833334D02*
X49454819Y16928572D01*
X49454819Y16928572D02*
X49407200Y17071429D01*
X49407200Y17071429D02*
X49311961Y17166667D01*
X49311961Y17166667D02*
X49216723Y17214286D01*
X49216723Y17214286D02*
X49026247Y17261905D01*
X49026247Y17261905D02*
X48883390Y17261905D01*
X48883390Y17261905D02*
X48692914Y17214286D01*
X48692914Y17214286D02*
X48597676Y17166667D01*
X48597676Y17166667D02*
X48502438Y17071429D01*
X48502438Y17071429D02*
X48454819Y16928572D01*
X48454819Y16928572D02*
X48454819Y16833334D01*
X48454819Y16833334D02*
X48502438Y16690477D01*
X48502438Y16690477D02*
X48550057Y16642858D01*
X49454819Y15690477D02*
X49454819Y16261905D01*
X49454819Y15976191D02*
X48454819Y15976191D01*
X48454819Y15976191D02*
X48597676Y16071429D01*
X48597676Y16071429D02*
X48692914Y16166667D01*
X48692914Y16166667D02*
X48740533Y16261905D01*
X48454819Y15357143D02*
X48454819Y14738096D01*
X48454819Y14738096D02*
X48835771Y15071429D01*
X48835771Y15071429D02*
X48835771Y14928572D01*
X48835771Y14928572D02*
X48883390Y14833334D01*
X48883390Y14833334D02*
X48931009Y14785715D01*
X48931009Y14785715D02*
X49026247Y14738096D01*
X49026247Y14738096D02*
X49264342Y14738096D01*
X49264342Y14738096D02*
X49359580Y14785715D01*
X49359580Y14785715D02*
X49407200Y14833334D01*
X49407200Y14833334D02*
X49454819Y14928572D01*
X49454819Y14928572D02*
X49454819Y15214286D01*
X49454819Y15214286D02*
X49407200Y15309524D01*
X49407200Y15309524D02*
X49359580Y15357143D01*
X49954819Y2416667D02*
X49478628Y2750000D01*
X49954819Y2988095D02*
X48954819Y2988095D01*
X48954819Y2988095D02*
X48954819Y2607143D01*
X48954819Y2607143D02*
X49002438Y2511905D01*
X49002438Y2511905D02*
X49050057Y2464286D01*
X49050057Y2464286D02*
X49145295Y2416667D01*
X49145295Y2416667D02*
X49288152Y2416667D01*
X49288152Y2416667D02*
X49383390Y2464286D01*
X49383390Y2464286D02*
X49431009Y2511905D01*
X49431009Y2511905D02*
X49478628Y2607143D01*
X49478628Y2607143D02*
X49478628Y2988095D01*
X49288152Y1559524D02*
X49954819Y1559524D01*
X48907200Y1797619D02*
X49621485Y2035714D01*
X49621485Y2035714D02*
X49621485Y1416667D01*
X47239594Y32505181D02*
X47239594Y33505181D01*
X47239594Y33505181D02*
X47001499Y33505181D01*
X47001499Y33505181D02*
X46858642Y33457562D01*
X46858642Y33457562D02*
X46763404Y33362324D01*
X46763404Y33362324D02*
X46715785Y33267086D01*
X46715785Y33267086D02*
X46668166Y33076610D01*
X46668166Y33076610D02*
X46668166Y32933753D01*
X46668166Y32933753D02*
X46715785Y32743277D01*
X46715785Y32743277D02*
X46763404Y32648039D01*
X46763404Y32648039D02*
X46858642Y32552800D01*
X46858642Y32552800D02*
X47001499Y32505181D01*
X47001499Y32505181D02*
X47239594Y32505181D01*
X46334832Y33505181D02*
X45715785Y33505181D01*
X45715785Y33505181D02*
X46049118Y33124229D01*
X46049118Y33124229D02*
X45906261Y33124229D01*
X45906261Y33124229D02*
X45811023Y33076610D01*
X45811023Y33076610D02*
X45763404Y33028991D01*
X45763404Y33028991D02*
X45715785Y32933753D01*
X45715785Y32933753D02*
X45715785Y32695658D01*
X45715785Y32695658D02*
X45763404Y32600420D01*
X45763404Y32600420D02*
X45811023Y32552800D01*
X45811023Y32552800D02*
X45906261Y32505181D01*
X45906261Y32505181D02*
X46191975Y32505181D01*
X46191975Y32505181D02*
X46287213Y32552800D01*
X46287213Y32552800D02*
X46334832Y32600420D01*
X8666666Y11045181D02*
X9142856Y11045181D01*
X9142856Y11045181D02*
X9142856Y12045181D01*
X7809523Y11045181D02*
X8380951Y11045181D01*
X8095237Y11045181D02*
X8095237Y12045181D01*
X8095237Y12045181D02*
X8190475Y11902324D01*
X8190475Y11902324D02*
X8285713Y11807086D01*
X8285713Y11807086D02*
X8380951Y11759467D01*
X40392857Y3890420D02*
X40440476Y3842800D01*
X40440476Y3842800D02*
X40583333Y3795181D01*
X40583333Y3795181D02*
X40678571Y3795181D01*
X40678571Y3795181D02*
X40821428Y3842800D01*
X40821428Y3842800D02*
X40916666Y3938039D01*
X40916666Y3938039D02*
X40964285Y4033277D01*
X40964285Y4033277D02*
X41011904Y4223753D01*
X41011904Y4223753D02*
X41011904Y4366610D01*
X41011904Y4366610D02*
X40964285Y4557086D01*
X40964285Y4557086D02*
X40916666Y4652324D01*
X40916666Y4652324D02*
X40821428Y4747562D01*
X40821428Y4747562D02*
X40678571Y4795181D01*
X40678571Y4795181D02*
X40583333Y4795181D01*
X40583333Y4795181D02*
X40440476Y4747562D01*
X40440476Y4747562D02*
X40392857Y4699943D01*
X39440476Y3795181D02*
X40011904Y3795181D01*
X39726190Y3795181D02*
X39726190Y4795181D01*
X39726190Y4795181D02*
X39821428Y4652324D01*
X39821428Y4652324D02*
X39916666Y4557086D01*
X39916666Y4557086D02*
X40011904Y4509467D01*
X38535714Y4795181D02*
X39011904Y4795181D01*
X39011904Y4795181D02*
X39059523Y4318991D01*
X39059523Y4318991D02*
X39011904Y4366610D01*
X39011904Y4366610D02*
X38916666Y4414229D01*
X38916666Y4414229D02*
X38678571Y4414229D01*
X38678571Y4414229D02*
X38583333Y4366610D01*
X38583333Y4366610D02*
X38535714Y4318991D01*
X38535714Y4318991D02*
X38488095Y4223753D01*
X38488095Y4223753D02*
X38488095Y3985658D01*
X38488095Y3985658D02*
X38535714Y3890420D01*
X38535714Y3890420D02*
X38583333Y3842800D01*
X38583333Y3842800D02*
X38678571Y3795181D01*
X38678571Y3795181D02*
X38916666Y3795181D01*
X38916666Y3795181D02*
X39011904Y3842800D01*
X39011904Y3842800D02*
X39059523Y3890420D01*
X64603736Y11534755D02*
X64134780Y11452066D01*
X65177470Y11297445D02*
X64603736Y11534755D01*
X64603736Y11534755D02*
X65061705Y11953983D01*
X63928056Y12624456D02*
X64027283Y12061709D01*
X63977670Y12343083D02*
X64962477Y12516731D01*
X64962477Y12516731D02*
X64838328Y12398133D01*
X64838328Y12398133D02*
X64761075Y12287803D01*
X64761075Y12287803D02*
X64730717Y12185743D01*
X54609580Y4142858D02*
X54657200Y4190477D01*
X54657200Y4190477D02*
X54704819Y4333334D01*
X54704819Y4333334D02*
X54704819Y4428572D01*
X54704819Y4428572D02*
X54657200Y4571429D01*
X54657200Y4571429D02*
X54561961Y4666667D01*
X54561961Y4666667D02*
X54466723Y4714286D01*
X54466723Y4714286D02*
X54276247Y4761905D01*
X54276247Y4761905D02*
X54133390Y4761905D01*
X54133390Y4761905D02*
X53942914Y4714286D01*
X53942914Y4714286D02*
X53847676Y4666667D01*
X53847676Y4666667D02*
X53752438Y4571429D01*
X53752438Y4571429D02*
X53704819Y4428572D01*
X53704819Y4428572D02*
X53704819Y4333334D01*
X53704819Y4333334D02*
X53752438Y4190477D01*
X53752438Y4190477D02*
X53800057Y4142858D01*
X53800057Y3761905D02*
X53752438Y3714286D01*
X53752438Y3714286D02*
X53704819Y3619048D01*
X53704819Y3619048D02*
X53704819Y3380953D01*
X53704819Y3380953D02*
X53752438Y3285715D01*
X53752438Y3285715D02*
X53800057Y3238096D01*
X53800057Y3238096D02*
X53895295Y3190477D01*
X53895295Y3190477D02*
X53990533Y3190477D01*
X53990533Y3190477D02*
X54133390Y3238096D01*
X54133390Y3238096D02*
X54704819Y3809524D01*
X54704819Y3809524D02*
X54704819Y3190477D01*
X53800057Y2809524D02*
X53752438Y2761905D01*
X53752438Y2761905D02*
X53704819Y2666667D01*
X53704819Y2666667D02*
X53704819Y2428572D01*
X53704819Y2428572D02*
X53752438Y2333334D01*
X53752438Y2333334D02*
X53800057Y2285715D01*
X53800057Y2285715D02*
X53895295Y2238096D01*
X53895295Y2238096D02*
X53990533Y2238096D01*
X53990533Y2238096D02*
X54133390Y2285715D01*
X54133390Y2285715D02*
X54704819Y2857143D01*
X54704819Y2857143D02*
X54704819Y2238096D01*
X47142857Y17295181D02*
X47476190Y17771372D01*
X47714285Y17295181D02*
X47714285Y18295181D01*
X47714285Y18295181D02*
X47333333Y18295181D01*
X47333333Y18295181D02*
X47238095Y18247562D01*
X47238095Y18247562D02*
X47190476Y18199943D01*
X47190476Y18199943D02*
X47142857Y18104705D01*
X47142857Y18104705D02*
X47142857Y17961848D01*
X47142857Y17961848D02*
X47190476Y17866610D01*
X47190476Y17866610D02*
X47238095Y17818991D01*
X47238095Y17818991D02*
X47333333Y17771372D01*
X47333333Y17771372D02*
X47714285Y17771372D01*
X46190476Y17295181D02*
X46761904Y17295181D01*
X46476190Y17295181D02*
X46476190Y18295181D01*
X46476190Y18295181D02*
X46571428Y18152324D01*
X46571428Y18152324D02*
X46666666Y18057086D01*
X46666666Y18057086D02*
X46761904Y18009467D01*
X45238095Y17295181D02*
X45809523Y17295181D01*
X45523809Y17295181D02*
X45523809Y18295181D01*
X45523809Y18295181D02*
X45619047Y18152324D01*
X45619047Y18152324D02*
X45714285Y18057086D01*
X45714285Y18057086D02*
X45809523Y18009467D01*
X32954819Y5416667D02*
X32478628Y5750000D01*
X32954819Y5988095D02*
X31954819Y5988095D01*
X31954819Y5988095D02*
X31954819Y5607143D01*
X31954819Y5607143D02*
X32002438Y5511905D01*
X32002438Y5511905D02*
X32050057Y5464286D01*
X32050057Y5464286D02*
X32145295Y5416667D01*
X32145295Y5416667D02*
X32288152Y5416667D01*
X32288152Y5416667D02*
X32383390Y5464286D01*
X32383390Y5464286D02*
X32431009Y5511905D01*
X32431009Y5511905D02*
X32478628Y5607143D01*
X32478628Y5607143D02*
X32478628Y5988095D01*
X31954819Y5083333D02*
X31954819Y4416667D01*
X31954819Y4416667D02*
X32954819Y4845238D01*
X43345238Y24199943D02*
X43440476Y24247562D01*
X43440476Y24247562D02*
X43535714Y24342800D01*
X43535714Y24342800D02*
X43678571Y24485658D01*
X43678571Y24485658D02*
X43773809Y24533277D01*
X43773809Y24533277D02*
X43869047Y24533277D01*
X43821428Y24295181D02*
X43916666Y24342800D01*
X43916666Y24342800D02*
X44011904Y24438039D01*
X44011904Y24438039D02*
X44059523Y24628515D01*
X44059523Y24628515D02*
X44059523Y24961848D01*
X44059523Y24961848D02*
X44011904Y25152324D01*
X44011904Y25152324D02*
X43916666Y25247562D01*
X43916666Y25247562D02*
X43821428Y25295181D01*
X43821428Y25295181D02*
X43630952Y25295181D01*
X43630952Y25295181D02*
X43535714Y25247562D01*
X43535714Y25247562D02*
X43440476Y25152324D01*
X43440476Y25152324D02*
X43392857Y24961848D01*
X43392857Y24961848D02*
X43392857Y24628515D01*
X43392857Y24628515D02*
X43440476Y24438039D01*
X43440476Y24438039D02*
X43535714Y24342800D01*
X43535714Y24342800D02*
X43630952Y24295181D01*
X43630952Y24295181D02*
X43821428Y24295181D01*
X42535714Y25295181D02*
X42726190Y25295181D01*
X42726190Y25295181D02*
X42821428Y25247562D01*
X42821428Y25247562D02*
X42869047Y25199943D01*
X42869047Y25199943D02*
X42964285Y25057086D01*
X42964285Y25057086D02*
X43011904Y24866610D01*
X43011904Y24866610D02*
X43011904Y24485658D01*
X43011904Y24485658D02*
X42964285Y24390420D01*
X42964285Y24390420D02*
X42916666Y24342800D01*
X42916666Y24342800D02*
X42821428Y24295181D01*
X42821428Y24295181D02*
X42630952Y24295181D01*
X42630952Y24295181D02*
X42535714Y24342800D01*
X42535714Y24342800D02*
X42488095Y24390420D01*
X42488095Y24390420D02*
X42440476Y24485658D01*
X42440476Y24485658D02*
X42440476Y24723753D01*
X42440476Y24723753D02*
X42488095Y24818991D01*
X42488095Y24818991D02*
X42535714Y24866610D01*
X42535714Y24866610D02*
X42630952Y24914229D01*
X42630952Y24914229D02*
X42821428Y24914229D01*
X42821428Y24914229D02*
X42916666Y24866610D01*
X42916666Y24866610D02*
X42964285Y24818991D01*
X42964285Y24818991D02*
X43011904Y24723753D01*
X56609580Y31166667D02*
X56657200Y31214286D01*
X56657200Y31214286D02*
X56704819Y31357143D01*
X56704819Y31357143D02*
X56704819Y31452381D01*
X56704819Y31452381D02*
X56657200Y31595238D01*
X56657200Y31595238D02*
X56561961Y31690476D01*
X56561961Y31690476D02*
X56466723Y31738095D01*
X56466723Y31738095D02*
X56276247Y31785714D01*
X56276247Y31785714D02*
X56133390Y31785714D01*
X56133390Y31785714D02*
X55942914Y31738095D01*
X55942914Y31738095D02*
X55847676Y31690476D01*
X55847676Y31690476D02*
X55752438Y31595238D01*
X55752438Y31595238D02*
X55704819Y31452381D01*
X55704819Y31452381D02*
X55704819Y31357143D01*
X55704819Y31357143D02*
X55752438Y31214286D01*
X55752438Y31214286D02*
X55800057Y31166667D01*
X56038152Y30309524D02*
X56704819Y30309524D01*
X55657200Y30547619D02*
X56371485Y30785714D01*
X56371485Y30785714D02*
X56371485Y30166667D01*
X53109580Y4167858D02*
X53157200Y4215477D01*
X53157200Y4215477D02*
X53204819Y4358334D01*
X53204819Y4358334D02*
X53204819Y4453572D01*
X53204819Y4453572D02*
X53157200Y4596429D01*
X53157200Y4596429D02*
X53061961Y4691667D01*
X53061961Y4691667D02*
X52966723Y4739286D01*
X52966723Y4739286D02*
X52776247Y4786905D01*
X52776247Y4786905D02*
X52633390Y4786905D01*
X52633390Y4786905D02*
X52442914Y4739286D01*
X52442914Y4739286D02*
X52347676Y4691667D01*
X52347676Y4691667D02*
X52252438Y4596429D01*
X52252438Y4596429D02*
X52204819Y4453572D01*
X52204819Y4453572D02*
X52204819Y4358334D01*
X52204819Y4358334D02*
X52252438Y4215477D01*
X52252438Y4215477D02*
X52300057Y4167858D01*
X52300057Y3786905D02*
X52252438Y3739286D01*
X52252438Y3739286D02*
X52204819Y3644048D01*
X52204819Y3644048D02*
X52204819Y3405953D01*
X52204819Y3405953D02*
X52252438Y3310715D01*
X52252438Y3310715D02*
X52300057Y3263096D01*
X52300057Y3263096D02*
X52395295Y3215477D01*
X52395295Y3215477D02*
X52490533Y3215477D01*
X52490533Y3215477D02*
X52633390Y3263096D01*
X52633390Y3263096D02*
X53204819Y3834524D01*
X53204819Y3834524D02*
X53204819Y3215477D01*
X53204819Y2263096D02*
X53204819Y2834524D01*
X53204819Y2548810D02*
X52204819Y2548810D01*
X52204819Y2548810D02*
X52347676Y2644048D01*
X52347676Y2644048D02*
X52442914Y2739286D01*
X52442914Y2739286D02*
X52490533Y2834524D01*
D13*
%TO.C,C19*%
X50740000Y6359420D02*
X50740000Y6640580D01*
X51760000Y6359420D02*
X51760000Y6640580D01*
%TO.C,U2*%
X42275000Y4775000D02*
X42535000Y4775000D01*
X47725000Y4775000D02*
X47465000Y4775000D01*
X42275000Y7500000D02*
X42275000Y4775000D01*
X42275000Y7500000D02*
X42275000Y10225000D01*
X47725000Y7500000D02*
X47725000Y4775000D01*
X47725000Y7500000D02*
X47725000Y10225000D01*
X42275000Y10225000D02*
X42535000Y10225000D01*
X47725000Y10225000D02*
X47465000Y10225000D01*
X47795000Y3752500D02*
X47465000Y3992500D01*
X47795000Y4232500D01*
X47795000Y3752500D01*
G36*
X47795000Y3752500D02*
G01*
X47465000Y3992500D01*
X47795000Y4232500D01*
X47795000Y3752500D01*
G37*
%TO.C,C2*%
X57515000Y27988748D02*
X57515000Y28511252D01*
X58985000Y27988748D02*
X58985000Y28511252D01*
%TO.C,C20*%
X40011252Y6265000D02*
X39488748Y6265000D01*
X40011252Y7735000D02*
X39488748Y7735000D01*
%TO.C,F1*%
X4602064Y27090000D02*
X3397936Y27090000D01*
X4602064Y28910000D02*
X3397936Y28910000D01*
%TO.C,C10*%
X51760000Y13140580D02*
X51760000Y12859420D01*
X50740000Y13140580D02*
X50740000Y12859420D01*
%TO.C,C18*%
X56260000Y13140580D02*
X56260000Y12859420D01*
X55240000Y13140580D02*
X55240000Y12859420D01*
%TO.C,Q4*%
X48190000Y22000000D02*
X48190000Y21350000D01*
X48190000Y22000000D02*
X48190000Y22650000D01*
X51310000Y22000000D02*
X51310000Y21350000D01*
X51310000Y22000000D02*
X51310000Y22650000D01*
X51590000Y20597500D02*
X51260000Y20837500D01*
X51590000Y21077500D01*
X51590000Y20597500D01*
G36*
X51590000Y20597500D02*
G01*
X51260000Y20837500D01*
X51590000Y21077500D01*
X51590000Y20597500D01*
G37*
%TO.C,C14*%
X57510000Y9140580D02*
X57510000Y8859420D01*
X56490000Y9140580D02*
X56490000Y8859420D01*
%TO.C,C3*%
X54488748Y22485000D02*
X55011252Y22485000D01*
X54488748Y21015000D02*
X55011252Y21015000D01*
%TO.C,C9*%
X13410000Y30686252D02*
X13410000Y29263748D01*
X11590000Y30686252D02*
X11590000Y29263748D01*
%TO.C,C16*%
X53260000Y13140580D02*
X53260000Y12859420D01*
X52240000Y13140580D02*
X52240000Y12859420D01*
%TO.C,C17*%
X54760000Y13140580D02*
X54760000Y12859420D01*
X53740000Y13140580D02*
X53740000Y12859420D01*
%TO.C,C1*%
X59515000Y27988748D02*
X59515000Y28511252D01*
X60985000Y27988748D02*
X60985000Y28511252D01*
%TO.C,SW1*%
X38800000Y30100000D02*
X38200000Y30100000D01*
X38500000Y29800000D02*
X38800000Y30100000D01*
X38200000Y30100000D02*
X38500000Y29800000D01*
X37700000Y19700000D02*
X37700000Y22500000D01*
X37700000Y32300000D02*
X37700000Y29800000D01*
X32900000Y32300000D02*
X37700000Y32300000D01*
X32800000Y19700000D02*
X37700000Y19700000D01*
X31500000Y26000000D02*
X30500000Y26000000D01*
X31000000Y26500000D02*
X31000000Y25500000D01*
X29200000Y32300000D02*
X24300000Y32300000D01*
X24300000Y19700000D02*
X29200000Y19700000D01*
X24300000Y22300000D02*
X24300000Y19700000D01*
X24300000Y27300000D02*
X24300000Y24700000D01*
X24300000Y32300000D02*
X24300000Y29700000D01*
X34000000Y26000000D02*
G75*
G03*
X28000000Y26000000I-3000000J0D01*
G01*
X28000000Y26000000D02*
G75*
G03*
X34000000Y26000000I3000000J0D01*
G01*
%TO.C,R6*%
X30022500Y2987258D02*
X30022500Y2512742D01*
X28977500Y2987258D02*
X28977500Y2512742D01*
%TO.C,C13*%
X48490000Y12859420D02*
X48490000Y13140580D01*
X49510000Y12859420D02*
X49510000Y13140580D01*
%TO.C,R4*%
X48977500Y4512742D02*
X48977500Y4987258D01*
X50022500Y4512742D02*
X50022500Y4987258D01*
%TO.C,D3*%
X49061500Y27920000D02*
X49061500Y27455000D01*
X49061500Y30545000D02*
X49061500Y30080000D01*
X43713686Y27919173D02*
G75*
G03*
X49061499Y27455170I2787814J1080827D01*
G01*
X44247022Y27919572D02*
G75*
G03*
X48756183Y27920000I2254478J1080428D01*
G01*
X48756184Y30080000D02*
G75*
G03*
X44247021Y30080429I-2254684J-1080000D01*
G01*
X49061499Y30544830D02*
G75*
G03*
X43713686Y30080827I-2559999J-1544830D01*
G01*
%TO.C,L1*%
X16750000Y25900000D02*
X19500000Y25900000D01*
X8000000Y25900000D02*
X10750000Y25900000D01*
X7350000Y25250000D02*
X7350000Y13750000D01*
X20150000Y13750000D02*
X20150000Y25250000D01*
X16750000Y13100000D02*
X19500000Y13100000D01*
X8000000Y13100000D02*
X10750000Y13100000D01*
X20150000Y25250000D02*
G75*
G03*
X19500000Y25900000I-650001J-1D01*
G01*
X8000000Y25900000D02*
G75*
G03*
X7350000Y25250000I1J-650001D01*
G01*
X19500000Y13100000D02*
G75*
G03*
X20150000Y13750000I0J650000D01*
G01*
X7350000Y13750000D02*
G75*
G03*
X8000000Y13100000I650000J0D01*
G01*
%TO.C,G\u002A\u002A\u002A*%
G36*
X28741310Y14372793D02*
G01*
X28746670Y14365637D01*
X28753012Y14355620D01*
X28781682Y14309685D01*
X28817777Y14258005D01*
X28857969Y14206479D01*
X28902712Y14154558D01*
X28952458Y14101695D01*
X29007660Y14047341D01*
X29029667Y14026852D01*
X29078219Y13984296D01*
X29130944Y13941201D01*
X29186638Y13898451D01*
X29244097Y13856929D01*
X29302117Y13817517D01*
X29359496Y13781098D01*
X29415029Y13748554D01*
X29415205Y13748456D01*
X29427483Y13741278D01*
X29437137Y13735041D01*
X29443205Y13730412D01*
X29444720Y13728057D01*
X29442657Y13726708D01*
X29435633Y13722435D01*
X29424195Y13715603D01*
X29408898Y13706539D01*
X29390296Y13695570D01*
X29368943Y13683023D01*
X29345392Y13669226D01*
X29320198Y13654506D01*
X29306431Y13646470D01*
X29279447Y13630708D01*
X29253032Y13615263D01*
X29227992Y13600609D01*
X29205131Y13587215D01*
X29185255Y13575554D01*
X29169169Y13566098D01*
X29157678Y13559317D01*
X29155768Y13558187D01*
X29142946Y13550624D01*
X29125757Y13540516D01*
X29105064Y13528368D01*
X29081732Y13514687D01*
X29056624Y13499979D01*
X29030604Y13484752D01*
X29004535Y13469511D01*
X28991400Y13461836D01*
X28961922Y13444606D01*
X28928918Y13425311D01*
X28893632Y13404678D01*
X28857304Y13383433D01*
X28821179Y13362303D01*
X28786498Y13342015D01*
X28754504Y13323296D01*
X28728046Y13307813D01*
X28698648Y13290612D01*
X28669711Y13273681D01*
X28642059Y13257502D01*
X28616512Y13242556D01*
X28593894Y13229324D01*
X28575026Y13218287D01*
X28560730Y13209927D01*
X28542146Y13199049D01*
X28521828Y13187136D01*
X28502278Y13175655D01*
X28485040Y13165513D01*
X28471657Y13157616D01*
X28469137Y13156128D01*
X28457661Y13149377D01*
X28441818Y13140083D01*
X28422397Y13128710D01*
X28400190Y13115720D01*
X28375989Y13101577D01*
X28350583Y13086742D01*
X28324763Y13071678D01*
X28316859Y13067068D01*
X28291082Y13052025D01*
X28265961Y13037352D01*
X28242287Y13023511D01*
X28220849Y13010967D01*
X28202440Y13000180D01*
X28187850Y12991615D01*
X28177870Y12985733D01*
X28176244Y12984772D01*
X28165172Y12978245D01*
X28149674Y12969134D01*
X28130560Y12957911D01*
X28108637Y12945052D01*
X28084715Y12931030D01*
X28059600Y12916320D01*
X28034103Y12901396D01*
X28031109Y12899644D01*
X28004964Y12884333D01*
X27978807Y12868994D01*
X27953540Y12854159D01*
X27930063Y12840358D01*
X27909280Y12828119D01*
X27892090Y12817973D01*
X27879396Y12810450D01*
X27869326Y12804495D01*
X27855594Y12796502D01*
X27844354Y12790110D01*
X27836559Y12785861D01*
X27833165Y12784294D01*
X27832787Y12785139D01*
X27834407Y12789889D01*
X27838312Y12797447D01*
X27839172Y12798949D01*
X27843425Y12806407D01*
X27850250Y12818395D01*
X27859272Y12834254D01*
X27870117Y12853327D01*
X27882411Y12874954D01*
X27895780Y12898479D01*
X27909850Y12923244D01*
X27913122Y12929004D01*
X27943110Y12981792D01*
X27970583Y13030146D01*
X27996055Y13074972D01*
X28020044Y13117179D01*
X28043064Y13157673D01*
X28065632Y13197362D01*
X28088263Y13237154D01*
X28111475Y13277955D01*
X28135782Y13320673D01*
X28161701Y13366217D01*
X28189748Y13415492D01*
X28197894Y13429803D01*
X28216615Y13462692D01*
X28234915Y13494842D01*
X28252459Y13525665D01*
X28268915Y13554574D01*
X28283948Y13580984D01*
X28297224Y13604308D01*
X28308410Y13623959D01*
X28317171Y13639350D01*
X28323173Y13649896D01*
X28325983Y13654833D01*
X28335113Y13670880D01*
X28346458Y13690825D01*
X28359386Y13713558D01*
X28373268Y13737973D01*
X28387474Y13762960D01*
X28401374Y13787413D01*
X28412749Y13807424D01*
X28425222Y13829367D01*
X28437624Y13851182D01*
X28450305Y13873488D01*
X28463617Y13896902D01*
X28477911Y13922042D01*
X28493539Y13949527D01*
X28510852Y13979973D01*
X28530201Y14013999D01*
X28551938Y14052223D01*
X28576413Y14095263D01*
X28594388Y14126869D01*
X28618400Y14169082D01*
X28639609Y14206356D01*
X28658184Y14238985D01*
X28674295Y14267267D01*
X28688110Y14291495D01*
X28699800Y14311966D01*
X28709533Y14328976D01*
X28717478Y14342819D01*
X28723805Y14353791D01*
X28728682Y14362188D01*
X28732279Y14368306D01*
X28734765Y14372439D01*
X28736309Y14374883D01*
X28737080Y14375935D01*
X28737784Y14375999D01*
X28741310Y14372793D01*
G37*
G36*
X30244290Y17024889D02*
G01*
X30247014Y17020563D01*
X30252570Y17011258D01*
X30260760Y16997319D01*
X30271386Y16979087D01*
X30284251Y16956904D01*
X30299156Y16931115D01*
X30315904Y16902060D01*
X30334298Y16870083D01*
X30354138Y16835527D01*
X30375229Y16798733D01*
X30397371Y16760045D01*
X30420366Y16719805D01*
X30428196Y16706093D01*
X30446706Y16673680D01*
X30468017Y16636361D01*
X30491928Y16594490D01*
X30518239Y16548417D01*
X30546747Y16498497D01*
X30577251Y16445081D01*
X30609550Y16388523D01*
X30643442Y16329175D01*
X30678726Y16267390D01*
X30715201Y16203521D01*
X30752664Y16137920D01*
X30790915Y16070940D01*
X30829753Y16002934D01*
X30868975Y15934254D01*
X30908381Y15865253D01*
X30947768Y15796284D01*
X30986937Y15727699D01*
X31025684Y15659852D01*
X31039276Y15636051D01*
X31075316Y15572929D01*
X31110492Y15511308D01*
X31144677Y15451406D01*
X31177749Y15393440D01*
X31209583Y15337630D01*
X31240054Y15284192D01*
X31269039Y15233346D01*
X31296413Y15185309D01*
X31322052Y15140299D01*
X31345832Y15098536D01*
X31367628Y15060235D01*
X31387317Y15025617D01*
X31404774Y14994899D01*
X31419875Y14968300D01*
X31432495Y14946036D01*
X31442512Y14928327D01*
X31449799Y14915391D01*
X31454233Y14907446D01*
X31455691Y14904709D01*
X31455626Y14904666D01*
X31452210Y14902624D01*
X31444066Y14897820D01*
X31431789Y14890602D01*
X31415975Y14881321D01*
X31397218Y14870325D01*
X31376115Y14857965D01*
X31353261Y14844590D01*
X31350803Y14843152D01*
X31324250Y14827615D01*
X31293758Y14809768D01*
X31260645Y14790384D01*
X31226229Y14770234D01*
X31191827Y14750089D01*
X31158759Y14730722D01*
X31128342Y14712904D01*
X31106772Y14700286D01*
X31082885Y14686356D01*
X31061129Y14673717D01*
X31042048Y14662682D01*
X31026185Y14653564D01*
X31014082Y14646676D01*
X31006281Y14642329D01*
X31003326Y14640839D01*
X31002469Y14641527D01*
X30998513Y14646139D01*
X30992293Y14654119D01*
X30984712Y14664329D01*
X30980652Y14669727D01*
X30969278Y14683770D01*
X30956395Y14698607D01*
X30944082Y14711806D01*
X30925601Y14729772D01*
X30881735Y14766538D01*
X30832315Y14800738D01*
X30777464Y14832326D01*
X30717302Y14861257D01*
X30651949Y14887484D01*
X30581527Y14910961D01*
X30506157Y14931641D01*
X30425959Y14949479D01*
X30341054Y14964428D01*
X30251563Y14976442D01*
X30228490Y14978925D01*
X30194469Y14982103D01*
X30159087Y14984925D01*
X30123854Y14987293D01*
X30090281Y14989107D01*
X30059879Y14990269D01*
X30034158Y14990680D01*
X29987362Y14992231D01*
X29940397Y14996959D01*
X29915910Y15000480D01*
X29823896Y15015976D01*
X29737390Y15034294D01*
X29656323Y15055461D01*
X29580627Y15079503D01*
X29510234Y15106444D01*
X29445076Y15136310D01*
X29385085Y15169126D01*
X29330193Y15204919D01*
X29280332Y15243712D01*
X29267135Y15255037D01*
X29258017Y15263229D01*
X29252426Y15268972D01*
X29249716Y15273033D01*
X29249237Y15276178D01*
X29250340Y15279174D01*
X29250857Y15280138D01*
X29254344Y15286449D01*
X29260464Y15297373D01*
X29269254Y15312972D01*
X29280749Y15333309D01*
X29294983Y15358446D01*
X29311995Y15388448D01*
X29331818Y15423376D01*
X29354488Y15463294D01*
X29380042Y15508264D01*
X29408515Y15558349D01*
X29439942Y15613613D01*
X29474360Y15674117D01*
X29511803Y15739925D01*
X29552308Y15811099D01*
X29563291Y15830397D01*
X29582086Y15863425D01*
X29602450Y15899216D01*
X29623465Y15936154D01*
X29644211Y15972623D01*
X29663769Y16007007D01*
X29681219Y16037690D01*
X29697642Y16066567D01*
X29716605Y16099906D01*
X29737007Y16135774D01*
X29758014Y16172704D01*
X29778794Y16209232D01*
X29798513Y16243892D01*
X29816337Y16275219D01*
X29825820Y16291885D01*
X29856515Y16345834D01*
X29884432Y16394900D01*
X29909811Y16439509D01*
X29932895Y16480088D01*
X29953927Y16517062D01*
X29973149Y16550857D01*
X29990802Y16581899D01*
X30007130Y16610614D01*
X30022375Y16637428D01*
X30036778Y16662766D01*
X30042372Y16672606D01*
X30056505Y16697463D01*
X30072559Y16725692D01*
X30089729Y16755878D01*
X30107212Y16786608D01*
X30124202Y16816466D01*
X30139895Y16844039D01*
X30151134Y16863795D01*
X30165422Y16888940D01*
X30179298Y16913392D01*
X30192226Y16936204D01*
X30203668Y16956426D01*
X30213088Y16973114D01*
X30219950Y16985318D01*
X30223409Y16991456D01*
X30231040Y17004713D01*
X30237414Y17015395D01*
X30241945Y17022535D01*
X30244048Y17025167D01*
X30244290Y17024889D01*
G37*
G36*
X30200588Y13017005D02*
G01*
X30200650Y13016924D01*
X30212871Y13001103D01*
X30222484Y12990100D01*
X30230457Y12983610D01*
X30237760Y12981329D01*
X30245362Y12982954D01*
X30254232Y12988180D01*
X30265340Y12996705D01*
X30279549Y13007217D01*
X30309192Y13024008D01*
X30339989Y13035077D01*
X30371395Y13040359D01*
X30402867Y13039787D01*
X30433861Y13033296D01*
X30463835Y13020819D01*
X30474895Y13013834D01*
X30490708Y13001271D01*
X30508306Y12985049D01*
X30526805Y12966039D01*
X30545321Y12945113D01*
X30562971Y12923140D01*
X30568804Y12915326D01*
X30579480Y12900495D01*
X30591458Y12883367D01*
X30604034Y12864996D01*
X30616501Y12846435D01*
X30628154Y12828741D01*
X30638286Y12812966D01*
X30646193Y12800166D01*
X30651167Y12791395D01*
X30654165Y12785810D01*
X30657427Y12781114D01*
X30659737Y12780442D01*
X30661230Y12784238D01*
X30662047Y12792946D01*
X30662323Y12807011D01*
X30662199Y12826877D01*
X30661820Y12846711D01*
X30659326Y12905091D01*
X30654845Y12966537D01*
X30648544Y13029006D01*
X30640590Y13090452D01*
X30640233Y13092895D01*
X30636825Y13113562D01*
X30633149Y13130178D01*
X30628697Y13144732D01*
X30622959Y13159210D01*
X30597886Y13212030D01*
X30561832Y13275765D01*
X30519654Y13339051D01*
X30471418Y13401797D01*
X30417192Y13463910D01*
X30357040Y13525301D01*
X30355102Y13527168D01*
X30341117Y13540371D01*
X30325187Y13555026D01*
X30308128Y13570419D01*
X30290755Y13585839D01*
X30273884Y13600572D01*
X30258330Y13613903D01*
X30244910Y13625121D01*
X30234439Y13633512D01*
X30227733Y13638363D01*
X30224196Y13640991D01*
X30221872Y13644076D01*
X30222477Y13644720D01*
X30227371Y13648148D01*
X30236543Y13653999D01*
X30249223Y13661796D01*
X30264644Y13671064D01*
X30282036Y13681327D01*
X30302356Y13693230D01*
X30326545Y13707424D01*
X30351236Y13721934D01*
X30374462Y13735605D01*
X30394256Y13747282D01*
X30395899Y13748252D01*
X30411940Y13757674D01*
X30426007Y13765852D01*
X30437252Y13772296D01*
X30444825Y13776520D01*
X30447875Y13778037D01*
X30448195Y13776625D01*
X30448456Y13769991D01*
X30448477Y13758860D01*
X30448257Y13744267D01*
X30447799Y13727249D01*
X30447290Y13713555D01*
X30446200Y13694326D01*
X30444721Y13679445D01*
X30442717Y13667712D01*
X30440057Y13657926D01*
X30435610Y13638837D01*
X30434015Y13616498D01*
X30436076Y13595869D01*
X30438950Y13586604D01*
X30444876Y13573602D01*
X30452780Y13559541D01*
X30461879Y13545537D01*
X30471392Y13532703D01*
X30480537Y13522155D01*
X30488533Y13515009D01*
X30494598Y13512379D01*
X30494661Y13512380D01*
X30499551Y13514829D01*
X30507071Y13521264D01*
X30516229Y13530610D01*
X30526031Y13541794D01*
X30535486Y13553742D01*
X30543600Y13565381D01*
X30552173Y13580399D01*
X30563320Y13609010D01*
X30568463Y13638425D01*
X30567637Y13668168D01*
X30560876Y13697762D01*
X30548217Y13726730D01*
X30529693Y13754596D01*
X30526753Y13758378D01*
X30516163Y13773105D01*
X30507747Y13786580D01*
X30502172Y13797669D01*
X30500100Y13805234D01*
X30500174Y13805572D01*
X30503399Y13809005D01*
X30510204Y13814175D01*
X30518949Y13820030D01*
X30527996Y13825515D01*
X30535707Y13829579D01*
X30540443Y13831168D01*
X30542249Y13829551D01*
X30546726Y13823511D01*
X30552953Y13814043D01*
X30560169Y13802258D01*
X30562892Y13797629D01*
X30570406Y13783970D01*
X30575356Y13772776D01*
X30578549Y13761988D01*
X30580788Y13749545D01*
X30582699Y13738398D01*
X30589401Y13710511D01*
X30599112Y13679654D01*
X30611396Y13647284D01*
X30614966Y13638468D01*
X30618523Y13628707D01*
X30620000Y13622189D01*
X30619676Y13617420D01*
X30617832Y13612905D01*
X30616985Y13611297D01*
X30612939Y13603869D01*
X30606752Y13592690D01*
X30599100Y13578977D01*
X30590659Y13563948D01*
X30588320Y13559781D01*
X30579328Y13543485D01*
X30570876Y13527777D01*
X30563822Y13514267D01*
X30559024Y13504565D01*
X30556532Y13498890D01*
X30548574Y13472117D01*
X30546304Y13444853D01*
X30549722Y13418122D01*
X30558832Y13392949D01*
X30558977Y13392658D01*
X30565821Y13380571D01*
X30573735Y13369002D01*
X30581708Y13359197D01*
X30588731Y13352401D01*
X30593793Y13349859D01*
X30596693Y13351098D01*
X30603254Y13356684D01*
X30611985Y13365993D01*
X30622103Y13378173D01*
X30632826Y13392372D01*
X30638762Y13401013D01*
X30650070Y13419004D01*
X30662611Y13440449D01*
X30675609Y13463930D01*
X30688286Y13488027D01*
X30699864Y13511321D01*
X30709564Y13532392D01*
X30714583Y13544017D01*
X30719819Y13556975D01*
X30723248Y13567397D01*
X30725343Y13577127D01*
X30726578Y13588008D01*
X30727429Y13601884D01*
X30727774Y13612514D01*
X30726671Y13646101D01*
X30722604Y13679893D01*
X30715892Y13710886D01*
X30714516Y13714988D01*
X30709747Y13726317D01*
X30702409Y13741857D01*
X30692883Y13760842D01*
X30681550Y13782503D01*
X30668789Y13806070D01*
X30659411Y13823141D01*
X30649194Y13841876D01*
X30641519Y13856251D01*
X30636105Y13866901D01*
X30632669Y13874462D01*
X30630929Y13879569D01*
X30630605Y13882856D01*
X30631412Y13884959D01*
X30633070Y13886513D01*
X30635416Y13888195D01*
X30644349Y13893685D01*
X30653564Y13898321D01*
X30661222Y13901247D01*
X30665486Y13901607D01*
X30668757Y13898461D01*
X30675240Y13891248D01*
X30684176Y13880872D01*
X30694843Y13868213D01*
X30706519Y13854150D01*
X30718483Y13839563D01*
X30730014Y13825332D01*
X30740388Y13812338D01*
X30748886Y13801460D01*
X30754784Y13793579D01*
X30757362Y13789574D01*
X30757456Y13789309D01*
X30758100Y13781990D01*
X30757121Y13769787D01*
X30754600Y13753762D01*
X30750538Y13719855D01*
X30750799Y13681014D01*
X30755915Y13642446D01*
X30765685Y13605588D01*
X30779911Y13571873D01*
X30785201Y13561039D01*
X30788050Y13552338D01*
X30788017Y13544616D01*
X30784804Y13536443D01*
X30778112Y13526390D01*
X30767643Y13513026D01*
X30744636Y13482123D01*
X30719048Y13441536D01*
X30697321Y13399679D01*
X30680442Y13358306D01*
X30677001Y13348181D01*
X30673972Y13337918D01*
X30672057Y13328470D01*
X30671011Y13318070D01*
X30670586Y13304952D01*
X30670536Y13287351D01*
X30671600Y13260125D01*
X30676755Y13224035D01*
X30686267Y13192101D01*
X30700226Y13164044D01*
X30718723Y13139584D01*
X30719026Y13139254D01*
X30731133Y13127996D01*
X30745305Y13117743D01*
X30760409Y13109008D01*
X30775312Y13102302D01*
X30788878Y13098139D01*
X30799975Y13097029D01*
X30807469Y13099486D01*
X30809156Y13101863D01*
X30811907Y13109432D01*
X30813889Y13119416D01*
X30814858Y13126201D01*
X30821837Y13158934D01*
X30832394Y13192545D01*
X30845820Y13225262D01*
X30861408Y13255314D01*
X30878451Y13280931D01*
X30878927Y13281552D01*
X30889574Y13296809D01*
X30896411Y13310557D01*
X30899581Y13324183D01*
X30899228Y13339077D01*
X30895496Y13356627D01*
X30888530Y13378222D01*
X30885949Y13385563D01*
X30882278Y13396698D01*
X30879714Y13406311D01*
X30878016Y13415954D01*
X30876940Y13427184D01*
X30876245Y13441555D01*
X30875688Y13460620D01*
X30875497Y13491512D01*
X30876942Y13532082D01*
X30880156Y13572083D01*
X30884987Y13610122D01*
X30891285Y13644804D01*
X30898899Y13674739D01*
X30903530Y13691348D01*
X30907805Y13712949D01*
X30908793Y13730823D01*
X30906591Y13745866D01*
X30905846Y13748003D01*
X30902738Y13754041D01*
X30897286Y13762577D01*
X30889207Y13773990D01*
X30878221Y13788659D01*
X30864045Y13806966D01*
X30846400Y13829288D01*
X30825004Y13856007D01*
X30746970Y13953001D01*
X30759392Y13960843D01*
X30759569Y13960954D01*
X30768681Y13966330D01*
X30774494Y13968147D01*
X30778802Y13966433D01*
X30783399Y13961217D01*
X30785189Y13959019D01*
X30790937Y13952179D01*
X30800015Y13941484D01*
X30811977Y13927457D01*
X30826379Y13910617D01*
X30842774Y13891486D01*
X30860718Y13870585D01*
X30879765Y13848435D01*
X30893019Y13833002D01*
X30911269Y13811640D01*
X30928054Y13791863D01*
X30942935Y13774196D01*
X30955476Y13759160D01*
X30965237Y13747280D01*
X30971781Y13739078D01*
X30974670Y13735077D01*
X30974714Y13734994D01*
X30978488Y13723800D01*
X30978156Y13711413D01*
X30973536Y13696836D01*
X30964448Y13679077D01*
X30956239Y13664095D01*
X30944611Y13638565D01*
X30935484Y13611490D01*
X30927997Y13580543D01*
X30927782Y13579496D01*
X30925370Y13566860D01*
X30923715Y13555439D01*
X30922732Y13543739D01*
X30922334Y13530271D01*
X30922438Y13513543D01*
X30922959Y13492064D01*
X30924522Y13459422D01*
X30927525Y13429770D01*
X30932289Y13402252D01*
X30939174Y13374821D01*
X30948534Y13345431D01*
X30952612Y13332062D01*
X30955076Y13320278D01*
X30955287Y13312574D01*
X30954664Y13310424D01*
X30951200Y13302302D01*
X30945641Y13291362D01*
X30938851Y13279346D01*
X30924304Y13253284D01*
X30902158Y13207001D01*
X30881937Y13156546D01*
X30863959Y13103102D01*
X30848543Y13047853D01*
X30836005Y12991983D01*
X30826664Y12936675D01*
X30820838Y12883114D01*
X30818844Y12832482D01*
X30818847Y12830702D01*
X30820021Y12795543D01*
X30823477Y12765090D01*
X30829469Y12738187D01*
X30838253Y12713676D01*
X30842140Y12706030D01*
X30850083Y12690403D01*
X30856803Y12679968D01*
X30872923Y12660422D01*
X30891805Y12643046D01*
X30912220Y12628766D01*
X30932939Y12618504D01*
X30952733Y12613186D01*
X30964738Y12611576D01*
X30966614Y12658021D01*
X30967956Y12681275D01*
X30968784Y12688945D01*
X31008298Y12688945D01*
X31009574Y12665158D01*
X31012380Y12643656D01*
X31016623Y12625717D01*
X31022211Y12612623D01*
X31025651Y12607715D01*
X31031460Y12603075D01*
X31038210Y12602628D01*
X31046574Y12606598D01*
X31057227Y12615207D01*
X31070842Y12628676D01*
X31096820Y12658980D01*
X31123314Y12697235D01*
X31147702Y12740435D01*
X31169720Y12788007D01*
X31189106Y12839379D01*
X31205597Y12893979D01*
X31218931Y12951235D01*
X31225773Y12985478D01*
X31218431Y12991423D01*
X31216992Y12992523D01*
X31212371Y12994956D01*
X31206126Y12996234D01*
X31196722Y12996556D01*
X31182626Y12996124D01*
X31181529Y12996075D01*
X31166583Y12995054D01*
X31155256Y12993207D01*
X31145075Y12989960D01*
X31133565Y12984739D01*
X31118437Y12975760D01*
X31098502Y12959567D01*
X31080156Y12939882D01*
X31064958Y12918218D01*
X31057397Y12903474D01*
X31048807Y12882856D01*
X31040117Y12858528D01*
X31031726Y12831773D01*
X31024037Y12803875D01*
X31017449Y12776118D01*
X31012363Y12749785D01*
X31010700Y12738253D01*
X31008643Y12713737D01*
X31008298Y12688945D01*
X30968784Y12688945D01*
X30972854Y12726652D01*
X30980541Y12770827D01*
X30990772Y12812982D01*
X31003304Y12852299D01*
X31017893Y12887960D01*
X31034294Y12919149D01*
X31052263Y12945046D01*
X31068107Y12962427D01*
X31094400Y12984599D01*
X31123715Y13002768D01*
X31154982Y13016401D01*
X31187137Y13024970D01*
X31219111Y13027944D01*
X31240230Y13027944D01*
X31245036Y13041227D01*
X31246850Y13046437D01*
X31250573Y13057504D01*
X31255450Y13072251D01*
X31261057Y13089391D01*
X31266970Y13107642D01*
X31267176Y13108279D01*
X31271710Y13122308D01*
X31277897Y13141398D01*
X31285464Y13164713D01*
X31294140Y13191420D01*
X31303654Y13220685D01*
X31313736Y13251672D01*
X31324113Y13283549D01*
X31334515Y13315480D01*
X31340254Y13333088D01*
X31351458Y13367460D01*
X31360966Y13396644D01*
X31368940Y13421158D01*
X31375540Y13441523D01*
X31380928Y13458256D01*
X31385264Y13471878D01*
X31388710Y13482908D01*
X31391428Y13491864D01*
X31393577Y13499266D01*
X31395320Y13505632D01*
X31396816Y13511483D01*
X31398229Y13517337D01*
X31399718Y13523713D01*
X31401445Y13531131D01*
X31410202Y13573388D01*
X31417936Y13624410D01*
X31422689Y13675133D01*
X31424430Y13724537D01*
X31423129Y13771598D01*
X31418753Y13815296D01*
X31411273Y13854608D01*
X31408262Y13866709D01*
X31404672Y13880442D01*
X31401037Y13893120D01*
X31397085Y13905334D01*
X31392545Y13917678D01*
X31387146Y13930744D01*
X31380615Y13945126D01*
X31372683Y13961417D01*
X31363076Y13980209D01*
X31351524Y14002096D01*
X31337756Y14027671D01*
X31321499Y14057526D01*
X31302482Y14092255D01*
X31289593Y14115766D01*
X31275972Y14140624D01*
X31263471Y14163451D01*
X31252402Y14183672D01*
X31243082Y14200713D01*
X31235825Y14213998D01*
X31230946Y14222953D01*
X31228758Y14227002D01*
X31228386Y14227845D01*
X31228215Y14229764D01*
X31229254Y14232042D01*
X31231924Y14234954D01*
X31236647Y14238773D01*
X31243845Y14243774D01*
X31253940Y14250231D01*
X31267354Y14258417D01*
X31284509Y14268607D01*
X31305827Y14281074D01*
X31331729Y14296093D01*
X31362637Y14313936D01*
X31364541Y14315038D01*
X31373265Y14320114D01*
X31386253Y14327697D01*
X31402674Y14337301D01*
X31421696Y14348437D01*
X31442486Y14360620D01*
X31464212Y14373363D01*
X31486491Y14386430D01*
X31513957Y14402529D01*
X31542340Y14419155D01*
X31570062Y14435385D01*
X31595548Y14450295D01*
X31617220Y14462963D01*
X31685843Y14503049D01*
X31691101Y14494493D01*
X31691746Y14493396D01*
X31695292Y14487252D01*
X31701698Y14476094D01*
X31710806Y14460201D01*
X31722456Y14439852D01*
X31736489Y14415324D01*
X31752745Y14386896D01*
X31771067Y14354846D01*
X31791294Y14319454D01*
X31813268Y14280998D01*
X31836829Y14239755D01*
X31861818Y14196005D01*
X31888075Y14150026D01*
X31915443Y14102097D01*
X31943761Y14052496D01*
X31972870Y14001502D01*
X31981801Y13985856D01*
X32008726Y13938686D01*
X32037320Y13888592D01*
X32067460Y13835792D01*
X32099019Y13780507D01*
X32131871Y13722956D01*
X32165892Y13663359D01*
X32200956Y13601937D01*
X32236936Y13538908D01*
X32273709Y13474493D01*
X32311148Y13408912D01*
X32349127Y13342384D01*
X32387522Y13275129D01*
X32426206Y13207367D01*
X32465054Y13139318D01*
X32503942Y13071202D01*
X32542742Y13003239D01*
X32552882Y12985478D01*
X32581330Y12935648D01*
X32619580Y12868649D01*
X32657367Y12802462D01*
X32694565Y12737307D01*
X32731049Y12673404D01*
X32766693Y12610972D01*
X32801371Y12550231D01*
X32834959Y12491402D01*
X32867330Y12434704D01*
X32898360Y12380357D01*
X32927922Y12328580D01*
X32955891Y12279594D01*
X32982142Y12233618D01*
X33006549Y12190873D01*
X33028986Y12151577D01*
X33049329Y12115952D01*
X33067451Y12084216D01*
X33083227Y12056589D01*
X33096532Y12033292D01*
X33107240Y12014544D01*
X33115226Y12000565D01*
X33120363Y11991575D01*
X33122527Y11987794D01*
X33123464Y11986130D01*
X33127034Y11978940D01*
X33128480Y11974511D01*
X33128392Y11974482D01*
X33124234Y11974313D01*
X33113901Y11974149D01*
X33097456Y11973988D01*
X33074963Y11973833D01*
X33046486Y11973681D01*
X33012090Y11973535D01*
X32971837Y11973393D01*
X32925793Y11973256D01*
X32874022Y11973124D01*
X32816586Y11972996D01*
X32753551Y11972874D01*
X32684981Y11972757D01*
X32610939Y11972644D01*
X32531490Y11972537D01*
X32446697Y11972435D01*
X32356625Y11972339D01*
X32261337Y11972247D01*
X32160899Y11972161D01*
X32055373Y11972081D01*
X31944824Y11972006D01*
X31829315Y11971937D01*
X31708912Y11971873D01*
X31583678Y11971815D01*
X31453676Y11971763D01*
X31318972Y11971717D01*
X31179629Y11971677D01*
X31035711Y11971643D01*
X30887282Y11971615D01*
X30734407Y11971593D01*
X30577148Y11971577D01*
X30415572Y11971567D01*
X30249740Y11971564D01*
X30243766Y11971564D01*
X30072632Y11971566D01*
X29907662Y11971573D01*
X29748774Y11971583D01*
X29595885Y11971597D01*
X29448912Y11971616D01*
X29307771Y11971640D01*
X29172380Y11971667D01*
X29042655Y11971700D01*
X28918514Y11971737D01*
X28799873Y11971779D01*
X28686649Y11971826D01*
X28578759Y11971878D01*
X28476121Y11971936D01*
X28378651Y11971998D01*
X28286266Y11972066D01*
X28198882Y11972140D01*
X28116418Y11972219D01*
X28038790Y11972303D01*
X27965914Y11972394D01*
X27897708Y11972490D01*
X27834089Y11972592D01*
X27774973Y11972701D01*
X27720278Y11972815D01*
X27669921Y11972936D01*
X27623817Y11973064D01*
X27581885Y11973197D01*
X27544042Y11973338D01*
X27510204Y11973485D01*
X27480287Y11973639D01*
X27454210Y11973800D01*
X27431889Y11973967D01*
X27413241Y11974142D01*
X27398183Y11974325D01*
X27386632Y11974514D01*
X27378504Y11974711D01*
X27373717Y11974916D01*
X27372188Y11975128D01*
X27372246Y11975238D01*
X27375655Y11977975D01*
X27383704Y11983352D01*
X27395692Y11990931D01*
X27410913Y12000273D01*
X27428663Y12010941D01*
X27448239Y12022494D01*
X27448663Y12022742D01*
X27471709Y12036226D01*
X27498541Y12051924D01*
X27527582Y12068913D01*
X27557252Y12086271D01*
X27585976Y12103073D01*
X27612176Y12118398D01*
X27621733Y12123988D01*
X27648868Y12139863D01*
X27679260Y12157646D01*
X27711380Y12176442D01*
X27743700Y12195357D01*
X27774691Y12213497D01*
X27802824Y12229966D01*
X27807647Y12232790D01*
X27829578Y12245629D01*
X27855921Y12261050D01*
X27885894Y12278596D01*
X27918716Y12297809D01*
X27953603Y12318231D01*
X27989774Y12339405D01*
X28026448Y12360872D01*
X28062841Y12382174D01*
X28098173Y12402855D01*
X28114393Y12412349D01*
X28148410Y12432263D01*
X28182117Y12451999D01*
X28214880Y12471184D01*
X28246063Y12489446D01*
X28275029Y12506413D01*
X28301143Y12521712D01*
X28323770Y12534972D01*
X28342273Y12545819D01*
X28356017Y12553881D01*
X28358103Y12555105D01*
X28378393Y12567005D01*
X28402509Y12581139D01*
X28429048Y12596683D01*
X28456606Y12612817D01*
X28483778Y12628717D01*
X28509161Y12643562D01*
X28520171Y12649999D01*
X28547346Y12665895D01*
X28577728Y12683672D01*
X28609819Y12702455D01*
X28642121Y12721366D01*
X28673138Y12739530D01*
X28701372Y12756070D01*
X28713914Y12763418D01*
X28743614Y12780816D01*
X28749167Y12784068D01*
X29976564Y12784068D01*
X29976575Y12757364D01*
X29982219Y12731315D01*
X29993054Y12706771D01*
X30008639Y12684581D01*
X30028531Y12665594D01*
X30052291Y12650659D01*
X30054633Y12649505D01*
X30065245Y12644549D01*
X30073966Y12641383D01*
X30082830Y12639562D01*
X30093875Y12638636D01*
X30109134Y12638160D01*
X30111111Y12638121D01*
X30133282Y12638654D01*
X30153532Y12641332D01*
X30173562Y12646594D01*
X30195074Y12654877D01*
X30219772Y12666619D01*
X30231511Y12672966D01*
X30251102Y12686305D01*
X30264783Y12700427D01*
X30272635Y12715721D01*
X30274743Y12732579D01*
X30271189Y12751392D01*
X30262058Y12772552D01*
X30247432Y12796450D01*
X30241259Y12805782D01*
X30231590Y12821412D01*
X30222929Y12836520D01*
X30216612Y12848840D01*
X30212227Y12859098D01*
X30204527Y12880578D01*
X30200219Y12895115D01*
X30251748Y12895115D01*
X30251829Y12887769D01*
X30252334Y12877052D01*
X30253663Y12867823D01*
X30256240Y12858280D01*
X30260489Y12846622D01*
X30266834Y12831045D01*
X30267915Y12828449D01*
X30287340Y12784088D01*
X30306341Y12745248D01*
X30313416Y12732579D01*
X30325303Y12711292D01*
X30344608Y12681581D01*
X30364637Y12655476D01*
X30385774Y12632337D01*
X30399976Y12618627D01*
X30412730Y12607773D01*
X30424716Y12599461D01*
X30437523Y12592467D01*
X30446827Y12588147D01*
X30466461Y12581265D01*
X30484614Y12578817D01*
X30503202Y12580677D01*
X30524140Y12586718D01*
X30533594Y12590272D01*
X30560473Y12603173D01*
X30582141Y12618579D01*
X30599168Y12636957D01*
X30612123Y12658774D01*
X30613422Y12661602D01*
X30617009Y12670759D01*
X30619113Y12679805D01*
X30620101Y12690856D01*
X30620342Y12706030D01*
X30620338Y12707653D01*
X30619885Y12723302D01*
X30618358Y12736601D01*
X30615313Y12750257D01*
X30610302Y12766975D01*
X30609149Y12770523D01*
X30590976Y12817035D01*
X30568594Y12858928D01*
X30541998Y12896206D01*
X30511187Y12928872D01*
X30476155Y12956930D01*
X30436901Y12980386D01*
X30430014Y12983860D01*
X30411201Y12992579D01*
X30395544Y12998225D01*
X30381531Y13001151D01*
X30367649Y13001715D01*
X30352386Y13000273D01*
X30338016Y12997670D01*
X30311391Y12989113D01*
X30289195Y12976388D01*
X30271595Y12959603D01*
X30258760Y12938871D01*
X30255702Y12931418D01*
X30253208Y12921938D01*
X30252006Y12910557D01*
X30251748Y12895115D01*
X30200219Y12895115D01*
X30197582Y12904015D01*
X30192102Y12926908D01*
X30188799Y12946756D01*
X30187325Y12958194D01*
X30185228Y12966425D01*
X30181760Y12970272D01*
X30175927Y12970726D01*
X30166739Y12968777D01*
X30165869Y12968552D01*
X30149672Y12962819D01*
X30130263Y12953683D01*
X30108914Y12941960D01*
X30086899Y12928467D01*
X30065491Y12914022D01*
X30045963Y12899440D01*
X30029588Y12885539D01*
X30017640Y12873135D01*
X30005224Y12855920D01*
X29993131Y12834718D01*
X29983697Y12813207D01*
X29977997Y12793540D01*
X29976564Y12784068D01*
X28749167Y12784068D01*
X28775409Y12799436D01*
X28807800Y12818402D01*
X28839292Y12836838D01*
X28868385Y12853865D01*
X28893583Y12868609D01*
X28902309Y12873713D01*
X28926551Y12887897D01*
X28954591Y12904306D01*
X28985304Y12922280D01*
X29017563Y12941162D01*
X29050242Y12960292D01*
X29082217Y12979010D01*
X29112360Y12996659D01*
X29128723Y13006239D01*
X29838201Y13006239D01*
X29840395Y12986564D01*
X29842321Y12979036D01*
X29851251Y12958816D01*
X29864496Y12941314D01*
X29881059Y12927659D01*
X29899944Y12918982D01*
X29920998Y12914750D01*
X29949110Y12914740D01*
X29978387Y12920794D01*
X30008732Y12932889D01*
X30040043Y12951002D01*
X30050578Y12958576D01*
X30066737Y12972224D01*
X30081515Y12986979D01*
X30093559Y13001448D01*
X30101514Y13014238D01*
X30102083Y13015470D01*
X30107275Y13032490D01*
X30108541Y13050231D01*
X30105672Y13066084D01*
X30105635Y13066183D01*
X30102535Y13071799D01*
X30096096Y13081506D01*
X30086873Y13094540D01*
X30075415Y13110136D01*
X30062277Y13127529D01*
X30048010Y13145955D01*
X30047839Y13146173D01*
X30031804Y13166550D01*
X30019041Y13182534D01*
X30009028Y13194693D01*
X30001245Y13203594D01*
X29995173Y13209807D01*
X29990290Y13213897D01*
X29986078Y13216434D01*
X29982014Y13217985D01*
X29969222Y13220850D01*
X29951828Y13220884D01*
X29934595Y13215784D01*
X29916128Y13205282D01*
X29912878Y13202886D01*
X29900797Y13191432D01*
X29888021Y13176012D01*
X29875685Y13158092D01*
X29864924Y13139139D01*
X29860668Y13129913D01*
X29852606Y13107341D01*
X29846062Y13082027D01*
X29841301Y13055632D01*
X29838592Y13029815D01*
X29838201Y13006239D01*
X29128723Y13006239D01*
X29129876Y13006914D01*
X29159126Y13024040D01*
X29188469Y13041218D01*
X29216990Y13057915D01*
X29243776Y13073594D01*
X29267911Y13087721D01*
X29288481Y13099759D01*
X29304572Y13109175D01*
X29306718Y13110430D01*
X29328600Y13123237D01*
X29351992Y13136933D01*
X29375167Y13150507D01*
X29396398Y13162949D01*
X29413960Y13173246D01*
X29423232Y13178682D01*
X29440458Y13188773D01*
X29461339Y13200997D01*
X29484848Y13214753D01*
X29509955Y13229439D01*
X29535632Y13244454D01*
X29560853Y13259196D01*
X29578281Y13269382D01*
X29603927Y13284376D01*
X29629317Y13299224D01*
X29653422Y13313323D01*
X29675214Y13326074D01*
X29693665Y13336874D01*
X29707746Y13345122D01*
X29713400Y13348436D01*
X29734502Y13360804D01*
X29757447Y13374252D01*
X29779823Y13387366D01*
X29799219Y13398734D01*
X29809810Y13404874D01*
X29823904Y13412823D01*
X29835606Y13419160D01*
X29843926Y13423352D01*
X29847872Y13424868D01*
X29850585Y13423093D01*
X29857118Y13417176D01*
X29866837Y13407639D01*
X29879223Y13395033D01*
X29893756Y13379907D01*
X29909917Y13362811D01*
X29927185Y13344295D01*
X29945042Y13324910D01*
X29962968Y13305205D01*
X29980443Y13285730D01*
X29996948Y13267036D01*
X29998244Y13265554D01*
X30050339Y13204797D01*
X30102543Y13141751D01*
X30153183Y13078470D01*
X30174962Y13050231D01*
X30200588Y13017005D01*
G37*
%TO.C,C15*%
X39488748Y3485000D02*
X40011252Y3485000D01*
X39488748Y2015000D02*
X40011252Y2015000D01*
%TO.C,Y1*%
X62929229Y14849695D02*
X64040577Y8546925D01*
X57955950Y13972771D02*
X59067298Y7670002D01*
X62929228Y14849695D02*
G75*
G03*
X57955950Y13972771I-2486639J-438462D01*
G01*
X59067299Y7670002D02*
G75*
G03*
X64040577Y8546925I2486639J438461D01*
G01*
%TO.C,C22*%
X53740000Y6359420D02*
X53740000Y6640580D01*
X54760000Y6359420D02*
X54760000Y6640580D01*
%TO.C,R11*%
X46737258Y18727500D02*
X46262742Y18727500D01*
X46737258Y19772500D02*
X46262742Y19772500D01*
%TO.C,R7*%
X33022500Y2987258D02*
X33022500Y2512742D01*
X31977500Y2987258D02*
X31977500Y2512742D01*
%TO.C,Q6*%
X41690000Y22000000D02*
X41690000Y21350000D01*
X41690000Y22000000D02*
X41690000Y22650000D01*
X44810000Y22000000D02*
X44810000Y21350000D01*
X44810000Y22000000D02*
X44810000Y22650000D01*
X45090000Y20597500D02*
X44760000Y20837500D01*
X45090000Y21077500D01*
X45090000Y20597500D01*
G36*
X45090000Y20597500D02*
G01*
X44760000Y20837500D01*
X45090000Y21077500D01*
X45090000Y20597500D01*
G37*
%TO.C,C4*%
X55515000Y27988748D02*
X55515000Y28511252D01*
X56985000Y27988748D02*
X56985000Y28511252D01*
%TO.C,C21*%
X52240000Y6359420D02*
X52240000Y6640580D01*
X53260000Y6359420D02*
X53260000Y6640580D01*
%TD*%
M02*
