%TF.GenerationSoftware,KiCad,Pcbnew,7.0.10-7.0.10~ubuntu22.04.1*%
%TF.CreationDate,2024-06-22T11:50:55+05:30*%
%TF.ProjectId,Light-CC,4c696768-742d-4434-932e-6b696361645f,rev?*%
%TF.SameCoordinates,PX4c4b400PY7270e00*%
%TF.FileFunction,Soldermask,Top*%
%TF.FilePolarity,Negative*%
%FSLAX46Y46*%
G04 Gerber Fmt 4.6, Leading zero omitted, Abs format (unit mm)*
G04 Created by KiCad (PCBNEW 7.0.10-7.0.10~ubuntu22.04.1) date 2024-06-22 11:50:55*
%MOMM*%
%LPD*%
G01*
G04 APERTURE LIST*
G04 Aperture macros list*
%AMRoundRect*
0 Rectangle with rounded corners*
0 $1 Rounding radius*
0 $2 $3 $4 $5 $6 $7 $8 $9 X,Y pos of 4 corners*
0 Add a 4 corners polygon primitive as box body*
4,1,4,$2,$3,$4,$5,$6,$7,$8,$9,$2,$3,0*
0 Add four circle primitives for the rounded corners*
1,1,$1+$1,$2,$3*
1,1,$1+$1,$4,$5*
1,1,$1+$1,$6,$7*
1,1,$1+$1,$8,$9*
0 Add four rect primitives between the rounded corners*
20,1,$1+$1,$2,$3,$4,$5,0*
20,1,$1+$1,$4,$5,$6,$7,0*
20,1,$1+$1,$6,$7,$8,$9,0*
20,1,$1+$1,$8,$9,$2,$3,0*%
G04 Aperture macros list end*
%ADD10RoundRect,0.250000X-0.262500X-0.450000X0.262500X-0.450000X0.262500X0.450000X-0.262500X0.450000X0*%
%ADD11R,1.600000X1.600000*%
%ADD12C,1.600000*%
%ADD13RoundRect,0.150000X0.587500X0.150000X-0.587500X0.150000X-0.587500X-0.150000X0.587500X-0.150000X0*%
%ADD14RoundRect,0.250000X1.000000X0.650000X-1.000000X0.650000X-1.000000X-0.650000X1.000000X-0.650000X0*%
%ADD15RoundRect,0.200000X0.200000X0.275000X-0.200000X0.275000X-0.200000X-0.275000X0.200000X-0.275000X0*%
%ADD16RoundRect,0.200000X-0.200000X-0.275000X0.200000X-0.275000X0.200000X0.275000X-0.200000X0.275000X0*%
%ADD17R,1.700000X1.700000*%
%ADD18O,1.700000X1.700000*%
%ADD19RoundRect,0.225000X0.225000X0.250000X-0.225000X0.250000X-0.225000X-0.250000X0.225000X-0.250000X0*%
%ADD20RoundRect,0.375000X0.625000X0.375000X-0.625000X0.375000X-0.625000X-0.375000X0.625000X-0.375000X0*%
%ADD21RoundRect,0.500000X0.500000X1.400000X-0.500000X1.400000X-0.500000X-1.400000X0.500000X-1.400000X0*%
%ADD22RoundRect,0.250000X0.850000X0.350000X-0.850000X0.350000X-0.850000X-0.350000X0.850000X-0.350000X0*%
%ADD23RoundRect,0.249997X2.950003X2.650003X-2.950003X2.650003X-2.950003X-2.650003X2.950003X-2.650003X0*%
%ADD24RoundRect,0.225000X-0.225000X-0.250000X0.225000X-0.250000X0.225000X0.250000X-0.225000X0.250000X0*%
%ADD25C,0.600000*%
%ADD26R,0.600000X1.160000*%
%ADD27R,0.300000X1.160000*%
%ADD28O,1.400000X2.600000*%
%ADD29O,1.600000X2.600000*%
%ADD30RoundRect,0.050000X0.050000X-0.387500X0.050000X0.387500X-0.050000X0.387500X-0.050000X-0.387500X0*%
%ADD31RoundRect,0.050000X0.387500X-0.050000X0.387500X0.050000X-0.387500X0.050000X-0.387500X-0.050000X0*%
%ADD32R,3.200000X3.200000*%
%ADD33RoundRect,0.200000X-0.275000X0.200000X-0.275000X-0.200000X0.275000X-0.200000X0.275000X0.200000X0*%
%ADD34RoundRect,0.150000X-0.512500X-0.150000X0.512500X-0.150000X0.512500X0.150000X-0.512500X0.150000X0*%
%ADD35RoundRect,0.250000X0.325000X0.650000X-0.325000X0.650000X-0.325000X-0.650000X0.325000X-0.650000X0*%
%ADD36RoundRect,0.243750X0.243750X0.456250X-0.243750X0.456250X-0.243750X-0.456250X0.243750X-0.456250X0*%
%ADD37RoundRect,0.250000X-0.325000X-0.650000X0.325000X-0.650000X0.325000X0.650000X-0.325000X0.650000X0*%
%ADD38RoundRect,0.250002X-1.499998X1.499998X-1.499998X-1.499998X1.499998X-1.499998X1.499998X1.499998X0*%
%ADD39C,3.500000*%
%ADD40RoundRect,0.150000X0.150000X-0.587500X0.150000X0.587500X-0.150000X0.587500X-0.150000X-0.587500X0*%
%ADD41RoundRect,0.250000X0.450000X-0.262500X0.450000X0.262500X-0.450000X0.262500X-0.450000X-0.262500X0*%
%ADD42R,1.800000X1.100000*%
%ADD43C,2.800000*%
%ADD44RoundRect,0.249999X1.025001X-1.025001X1.025001X1.025001X-1.025001X1.025001X-1.025001X-1.025001X0*%
%ADD45C,2.550000*%
%ADD46RoundRect,0.250000X-0.650000X1.000000X-0.650000X-1.000000X0.650000X-1.000000X0.650000X1.000000X0*%
%ADD47R,2.000000X2.000000*%
%ADD48C,2.000000*%
%ADD49R,3.000000X2.500000*%
%ADD50R,1.800000X1.800000*%
%ADD51C,1.800000*%
%ADD52C,1.500000*%
G04 APERTURE END LIST*
D10*
%TO.C,R2*%
X19337500Y13750000D03*
X21162500Y13750000D03*
%TD*%
D11*
%TO.C,C8*%
X9000000Y31205112D03*
D12*
X9000000Y28705112D03*
%TD*%
D13*
%TO.C,Q3*%
X19187500Y18300000D03*
X19187500Y20200000D03*
X17312500Y19250000D03*
%TD*%
D14*
%TO.C,D1*%
X19750000Y3500000D03*
X15750000Y3500000D03*
%TD*%
D15*
%TO.C,R21*%
X27825000Y21750000D03*
X26175000Y21750000D03*
%TD*%
D16*
%TO.C,R19*%
X34175000Y21750000D03*
X35825000Y21750000D03*
%TD*%
%TO.C,R22*%
X55000000Y31000000D03*
X56650000Y31000000D03*
%TD*%
D17*
%TO.C,J4*%
X56460000Y2250000D03*
D18*
X59000000Y2250000D03*
X61540000Y2250000D03*
%TD*%
D19*
%TO.C,C12*%
X62025000Y11775000D03*
X60475000Y11775000D03*
%TD*%
D13*
%TO.C,Q1*%
X10687500Y7550000D03*
X10687500Y9450000D03*
X8812500Y8500000D03*
%TD*%
D16*
%TO.C,R5*%
X58425000Y17000000D03*
X60075000Y17000000D03*
%TD*%
D20*
%TO.C,U1*%
X60150000Y22700000D03*
X60150000Y25000000D03*
D21*
X53850000Y25000000D03*
D20*
X60150000Y27300000D03*
%TD*%
D16*
%TO.C,R15*%
X33925000Y30250000D03*
X35575000Y30250000D03*
%TD*%
%TO.C,R9*%
X40675000Y11750000D03*
X42325000Y11750000D03*
%TD*%
D22*
%TO.C,Q2*%
X19300000Y16970000D03*
D23*
X13000000Y19250000D03*
D22*
X19300000Y21530000D03*
%TD*%
D15*
%TO.C,R16*%
X35825000Y23500000D03*
X34175000Y23500000D03*
%TD*%
D24*
%TO.C,C23*%
X33975000Y32000000D03*
X35525000Y32000000D03*
%TD*%
D19*
%TO.C,C11*%
X62775000Y7000000D03*
X61225000Y7000000D03*
%TD*%
D25*
%TO.C,J5*%
X27860000Y4450000D03*
X33640000Y4450000D03*
D26*
X27550000Y5510000D03*
X28350000Y5510000D03*
D27*
X29500000Y5510000D03*
X30500000Y5510000D03*
X31000000Y5510000D03*
X32000000Y5510000D03*
D26*
X33150000Y5510000D03*
X33950000Y5510000D03*
X33950000Y5510000D03*
X33150000Y5510000D03*
D27*
X32500000Y5510000D03*
X31500000Y5510000D03*
X30000000Y5510000D03*
X29000000Y5510000D03*
D26*
X28350000Y5510000D03*
X27550000Y5510000D03*
D28*
X26430000Y4930000D03*
D29*
X26430000Y760000D03*
D28*
X35070000Y4930000D03*
D29*
X35070000Y760000D03*
%TD*%
D16*
%TO.C,R8*%
X40675000Y10250000D03*
X42325000Y10250000D03*
%TD*%
D30*
%TO.C,U3*%
X50850000Y6312500D03*
X51250000Y6312500D03*
X51650000Y6312500D03*
X52050000Y6312500D03*
X52450000Y6312500D03*
X52850000Y6312500D03*
X53250000Y6312500D03*
X53650000Y6312500D03*
X54050000Y6312500D03*
X54450000Y6312500D03*
X54850000Y6312500D03*
X55250000Y6312500D03*
X55650000Y6312500D03*
X56050000Y6312500D03*
D31*
X56887500Y7150000D03*
X56887500Y7550000D03*
X56887500Y7950000D03*
X56887500Y8350000D03*
X56887500Y8750000D03*
X56887500Y9150000D03*
X56887500Y9550000D03*
X56887500Y9950000D03*
X56887500Y10350000D03*
X56887500Y10750000D03*
X56887500Y11150000D03*
X56887500Y11550000D03*
X56887500Y11950000D03*
X56887500Y12350000D03*
D30*
X56050000Y13187500D03*
X55650000Y13187500D03*
X55250000Y13187500D03*
X54850000Y13187500D03*
X54450000Y13187500D03*
X54050000Y13187500D03*
X53650000Y13187500D03*
X53250000Y13187500D03*
X52850000Y13187500D03*
X52450000Y13187500D03*
X52050000Y13187500D03*
X51650000Y13187500D03*
X51250000Y13187500D03*
X50850000Y13187500D03*
D31*
X50012500Y12350000D03*
X50012500Y11950000D03*
X50012500Y11550000D03*
X50012500Y11150000D03*
X50012500Y10750000D03*
X50012500Y10350000D03*
X50012500Y9950000D03*
X50012500Y9550000D03*
X50012500Y9150000D03*
X50012500Y8750000D03*
X50012500Y8350000D03*
X50012500Y7950000D03*
X50012500Y7550000D03*
X50012500Y7150000D03*
D32*
X53450000Y9750000D03*
%TD*%
D33*
%TO.C,R13*%
X46500000Y26575000D03*
X46500000Y24925000D03*
%TD*%
D16*
%TO.C,R10*%
X48925000Y19250000D03*
X50575000Y19250000D03*
%TD*%
D33*
%TO.C,R20*%
X43250000Y26575000D03*
X43250000Y24925000D03*
%TD*%
%TO.C,R12*%
X49750000Y26575000D03*
X49750000Y24925000D03*
%TD*%
D34*
%TO.C,U4*%
X38612500Y5950000D03*
X38612500Y5000000D03*
X38612500Y4050000D03*
X40887500Y4050000D03*
X40887500Y5950000D03*
%TD*%
D35*
%TO.C,C6*%
X9975000Y24750000D03*
X7025000Y24750000D03*
%TD*%
D36*
%TO.C,D4*%
X61250000Y31000000D03*
X59375000Y31000000D03*
%TD*%
D11*
%TO.C,C7*%
X15750000Y31205112D03*
D12*
X15750000Y28705112D03*
%TD*%
D37*
%TO.C,C5*%
X17525000Y24750000D03*
X20475000Y24750000D03*
%TD*%
D38*
%TO.C,J3*%
X3000000Y23500000D03*
D39*
X3000000Y16500000D03*
%TD*%
D16*
%TO.C,R18*%
X26175000Y23500000D03*
X27825000Y23500000D03*
%TD*%
D38*
%TO.C,J1*%
X65750000Y23500000D03*
D39*
X65750000Y16500000D03*
%TD*%
D16*
%TO.C,R17*%
X42425000Y19250000D03*
X44075000Y19250000D03*
%TD*%
D40*
%TO.C,Q5*%
X45550000Y21062500D03*
X47450000Y21062500D03*
X46500000Y22937500D03*
%TD*%
D33*
%TO.C,R3*%
X49500000Y3825000D03*
X49500000Y2175000D03*
%TD*%
D41*
%TO.C,R1*%
X13250000Y7587500D03*
X13250000Y9412500D03*
%TD*%
D19*
%TO.C,C25*%
X27775000Y20000000D03*
X26225000Y20000000D03*
%TD*%
D16*
%TO.C,R14*%
X33925000Y28500000D03*
X35575000Y28500000D03*
%TD*%
D24*
%TO.C,C24*%
X34225000Y20000000D03*
X35775000Y20000000D03*
%TD*%
D42*
%TO.C,RST1*%
X25650000Y13850000D03*
X31850000Y13850000D03*
X25650000Y10150000D03*
X31850000Y10150000D03*
%TD*%
D43*
%TO.C,J2*%
X16590000Y6450000D03*
X16590000Y11250000D03*
D44*
X2790000Y6450000D03*
D45*
X2790000Y11250000D03*
%TD*%
D46*
%TO.C,D2*%
X20750000Y32000000D03*
X20750000Y28000000D03*
%TD*%
D47*
%TO.C,SW1*%
X38500000Y28500000D03*
D48*
X38500000Y23500000D03*
X38500000Y26000000D03*
D49*
X31000000Y20400000D03*
X31000000Y31600000D03*
D48*
X24000000Y28500000D03*
X24000000Y23500000D03*
%TD*%
D50*
%TO.C,D3*%
X49740000Y29000000D03*
D51*
X47581000Y29000000D03*
X45422000Y29000000D03*
X43263000Y29000000D03*
%TD*%
D52*
%TO.C,Y1*%
X60574562Y13662779D03*
X61421965Y8856917D03*
%TD*%
G36*
X455177Y35385879D02*
G01*
X494202Y35327924D01*
X500000Y35290449D01*
X500000Y709552D01*
X480315Y642513D01*
X427511Y596758D01*
X358353Y586814D01*
X294797Y615839D01*
X270273Y644762D01*
X168590Y810692D01*
X159756Y828029D01*
X77149Y1027459D01*
X71136Y1045965D01*
X20745Y1255858D01*
X17701Y1275077D01*
X382Y1495148D01*
X0Y1504876D01*
X0Y34495125D01*
X382Y34504853D01*
X17701Y34724924D01*
X20745Y34744143D01*
X71136Y34954036D01*
X77149Y34972542D01*
X159756Y35171972D01*
X168590Y35189309D01*
X270273Y35355239D01*
X322085Y35402114D01*
X391015Y35413537D01*
X455177Y35385879D01*
G37*
G36*
X68357488Y480315D02*
G01*
X68403243Y427511D01*
X68413187Y358353D01*
X68384162Y294797D01*
X68355239Y270272D01*
X68189308Y168590D01*
X68171971Y159757D01*
X67972541Y77150D01*
X67954035Y71137D01*
X67744142Y20746D01*
X67724924Y17702D01*
X67504854Y382D01*
X67495125Y0D01*
X36374000Y0D01*
X36306961Y19685D01*
X36261206Y72489D01*
X36250000Y124000D01*
X36250000Y376000D01*
X36269685Y443039D01*
X36322489Y488794D01*
X36374000Y500000D01*
X68290449Y500000D01*
X68357488Y480315D01*
G37*
G36*
X25193039Y480315D02*
G01*
X25238794Y427511D01*
X25250000Y376000D01*
X25250000Y124000D01*
X25230315Y56961D01*
X25177511Y11206D01*
X25126000Y0D01*
X1504875Y0D01*
X1495146Y382D01*
X1275075Y17702D01*
X1255857Y20746D01*
X1045964Y71137D01*
X1027458Y77150D01*
X828028Y159757D01*
X810691Y168591D01*
X644761Y270273D01*
X597886Y322084D01*
X586463Y391014D01*
X614120Y455177D01*
X672076Y494202D01*
X709551Y500000D01*
X25126000Y500000D01*
X25193039Y480315D01*
G37*
G36*
X68705203Y35384162D02*
G01*
X68729727Y35355239D01*
X68831409Y35189309D01*
X68840243Y35171972D01*
X68922850Y34972542D01*
X68928863Y34954036D01*
X68979254Y34744143D01*
X68982298Y34724925D01*
X68999618Y34504854D01*
X69000000Y34495125D01*
X69000000Y1504876D01*
X68999618Y1495147D01*
X68982298Y1275076D01*
X68979254Y1255858D01*
X68928863Y1045965D01*
X68922850Y1027459D01*
X68840243Y828029D01*
X68831409Y810692D01*
X68729727Y644762D01*
X68677916Y597887D01*
X68608986Y586464D01*
X68544823Y614121D01*
X68505798Y672077D01*
X68500000Y709552D01*
X68500000Y35290449D01*
X68519685Y35357488D01*
X68572489Y35403243D01*
X68641647Y35413187D01*
X68705203Y35384162D01*
G37*
G36*
X67504853Y35999618D02*
G01*
X67724923Y35982299D01*
X67744142Y35979255D01*
X67954035Y35928864D01*
X67972541Y35922851D01*
X68171971Y35840244D01*
X68189308Y35831410D01*
X68355239Y35729727D01*
X68402114Y35677915D01*
X68413537Y35608986D01*
X68385880Y35544823D01*
X68327924Y35505798D01*
X68290449Y35500000D01*
X709551Y35500000D01*
X642512Y35519685D01*
X596757Y35572489D01*
X586813Y35641647D01*
X615838Y35705203D01*
X644761Y35729727D01*
X810691Y35831410D01*
X828028Y35840244D01*
X1027458Y35922851D01*
X1045964Y35928864D01*
X1255857Y35979255D01*
X1275076Y35982299D01*
X1495147Y35999618D01*
X1504875Y36000000D01*
X67495125Y36000000D01*
X67504853Y35999618D01*
G37*
M02*
