%TF.GenerationSoftware,KiCad,Pcbnew,7.0.10-7.0.10~ubuntu22.04.1*%
%TF.CreationDate,2024-06-22T11:50:55+05:30*%
%TF.ProjectId,Light-CC,4c696768-742d-4434-932e-6b696361645f,rev?*%
%TF.SameCoordinates,PX4c4b400PY7270e00*%
%TF.FileFunction,Paste,Top*%
%TF.FilePolarity,Positive*%
%FSLAX46Y46*%
G04 Gerber Fmt 4.6, Leading zero omitted, Abs format (unit mm)*
G04 Created by KiCad (PCBNEW 7.0.10-7.0.10~ubuntu22.04.1) date 2024-06-22 11:50:55*
%MOMM*%
%LPD*%
G01*
G04 APERTURE LIST*
G04 Aperture macros list*
%AMRoundRect*
0 Rectangle with rounded corners*
0 $1 Rounding radius*
0 $2 $3 $4 $5 $6 $7 $8 $9 X,Y pos of 4 corners*
0 Add a 4 corners polygon primitive as box body*
4,1,4,$2,$3,$4,$5,$6,$7,$8,$9,$2,$3,0*
0 Add four circle primitives for the rounded corners*
1,1,$1+$1,$2,$3*
1,1,$1+$1,$4,$5*
1,1,$1+$1,$6,$7*
1,1,$1+$1,$8,$9*
0 Add four rect primitives between the rounded corners*
20,1,$1+$1,$2,$3,$4,$5,0*
20,1,$1+$1,$4,$5,$6,$7,0*
20,1,$1+$1,$6,$7,$8,$9,0*
20,1,$1+$1,$8,$9,$2,$3,0*%
G04 Aperture macros list end*
%ADD10RoundRect,0.250000X-0.262500X-0.450000X0.262500X-0.450000X0.262500X0.450000X-0.262500X0.450000X0*%
%ADD11RoundRect,0.150000X0.587500X0.150000X-0.587500X0.150000X-0.587500X-0.150000X0.587500X-0.150000X0*%
%ADD12RoundRect,0.250000X1.000000X0.650000X-1.000000X0.650000X-1.000000X-0.650000X1.000000X-0.650000X0*%
%ADD13RoundRect,0.200000X0.200000X0.275000X-0.200000X0.275000X-0.200000X-0.275000X0.200000X-0.275000X0*%
%ADD14RoundRect,0.200000X-0.200000X-0.275000X0.200000X-0.275000X0.200000X0.275000X-0.200000X0.275000X0*%
%ADD15RoundRect,0.225000X0.225000X0.250000X-0.225000X0.250000X-0.225000X-0.250000X0.225000X-0.250000X0*%
%ADD16RoundRect,0.375000X0.625000X0.375000X-0.625000X0.375000X-0.625000X-0.375000X0.625000X-0.375000X0*%
%ADD17RoundRect,0.500000X0.500000X1.400000X-0.500000X1.400000X-0.500000X-1.400000X0.500000X-1.400000X0*%
%ADD18RoundRect,0.250000X0.850000X0.350000X-0.850000X0.350000X-0.850000X-0.350000X0.850000X-0.350000X0*%
%ADD19RoundRect,0.250000X1.275000X1.125000X-1.275000X1.125000X-1.275000X-1.125000X1.275000X-1.125000X0*%
%ADD20RoundRect,0.225000X-0.225000X-0.250000X0.225000X-0.250000X0.225000X0.250000X-0.225000X0.250000X0*%
%ADD21R,0.600000X1.160000*%
%ADD22R,0.300000X1.160000*%
%ADD23RoundRect,0.249999X0.395001X-0.395001X0.395001X0.395001X-0.395001X0.395001X-0.395001X-0.395001X0*%
%ADD24RoundRect,0.050000X0.050000X-0.387500X0.050000X0.387500X-0.050000X0.387500X-0.050000X-0.387500X0*%
%ADD25RoundRect,0.050000X0.387500X-0.050000X0.387500X0.050000X-0.387500X0.050000X-0.387500X-0.050000X0*%
%ADD26RoundRect,0.200000X-0.275000X0.200000X-0.275000X-0.200000X0.275000X-0.200000X0.275000X0.200000X0*%
%ADD27RoundRect,0.150000X-0.512500X-0.150000X0.512500X-0.150000X0.512500X0.150000X-0.512500X0.150000X0*%
%ADD28RoundRect,0.250000X0.325000X0.650000X-0.325000X0.650000X-0.325000X-0.650000X0.325000X-0.650000X0*%
%ADD29RoundRect,0.243750X0.243750X0.456250X-0.243750X0.456250X-0.243750X-0.456250X0.243750X-0.456250X0*%
%ADD30RoundRect,0.250000X-0.325000X-0.650000X0.325000X-0.650000X0.325000X0.650000X-0.325000X0.650000X0*%
%ADD31RoundRect,0.150000X0.150000X-0.587500X0.150000X0.587500X-0.150000X0.587500X-0.150000X-0.587500X0*%
%ADD32RoundRect,0.250000X0.450000X-0.262500X0.450000X0.262500X-0.450000X0.262500X-0.450000X-0.262500X0*%
%ADD33R,1.800000X1.100000*%
%ADD34RoundRect,0.250000X-0.650000X1.000000X-0.650000X-1.000000X0.650000X-1.000000X0.650000X1.000000X0*%
G04 APERTURE END LIST*
D10*
%TO.C,R2*%
X19337500Y13750000D03*
X21162500Y13750000D03*
%TD*%
D11*
%TO.C,Q3*%
X19187500Y18300000D03*
X19187500Y20200000D03*
X17312500Y19250000D03*
%TD*%
D12*
%TO.C,D1*%
X19750000Y3500000D03*
X15750000Y3500000D03*
%TD*%
D13*
%TO.C,R21*%
X27825000Y21750000D03*
X26175000Y21750000D03*
%TD*%
D14*
%TO.C,R19*%
X34175000Y21750000D03*
X35825000Y21750000D03*
%TD*%
%TO.C,R22*%
X55000000Y31000000D03*
X56650000Y31000000D03*
%TD*%
D15*
%TO.C,C12*%
X62025000Y11775000D03*
X60475000Y11775000D03*
%TD*%
D11*
%TO.C,Q1*%
X10687500Y7550000D03*
X10687500Y9450000D03*
X8812500Y8500000D03*
%TD*%
D14*
%TO.C,R5*%
X58425000Y17000000D03*
X60075000Y17000000D03*
%TD*%
D16*
%TO.C,U1*%
X60150000Y22700000D03*
X60150000Y25000000D03*
D17*
X53850000Y25000000D03*
D16*
X60150000Y27300000D03*
%TD*%
D14*
%TO.C,R15*%
X33925000Y30250000D03*
X35575000Y30250000D03*
%TD*%
%TO.C,R9*%
X40675000Y11750000D03*
X42325000Y11750000D03*
%TD*%
D18*
%TO.C,Q2*%
X19300000Y16970000D03*
D19*
X14675000Y17725000D03*
X14675000Y20775000D03*
X11325000Y17725000D03*
X11325000Y20775000D03*
D18*
X19300000Y21530000D03*
%TD*%
D13*
%TO.C,R16*%
X35825000Y23500000D03*
X34175000Y23500000D03*
%TD*%
D20*
%TO.C,C23*%
X33975000Y32000000D03*
X35525000Y32000000D03*
%TD*%
D15*
%TO.C,C11*%
X62775000Y7000000D03*
X61225000Y7000000D03*
%TD*%
D21*
%TO.C,J5*%
X27550000Y5510000D03*
X28350000Y5510000D03*
D22*
X29500000Y5510000D03*
X30500000Y5510000D03*
X31000000Y5510000D03*
X32000000Y5510000D03*
D21*
X33150000Y5510000D03*
X33950000Y5510000D03*
X33950000Y5510000D03*
X33150000Y5510000D03*
D22*
X32500000Y5510000D03*
X31500000Y5510000D03*
X30000000Y5510000D03*
X29000000Y5510000D03*
D21*
X28350000Y5510000D03*
X27550000Y5510000D03*
%TD*%
D14*
%TO.C,R8*%
X40675000Y10250000D03*
X42325000Y10250000D03*
%TD*%
D23*
%TO.C,U3*%
X52650000Y8950000D03*
X54250000Y8950000D03*
X52650000Y10550000D03*
X54250000Y10550000D03*
D24*
X50850000Y6312500D03*
X51250000Y6312500D03*
X51650000Y6312500D03*
X52050000Y6312500D03*
X52450000Y6312500D03*
X52850000Y6312500D03*
X53250000Y6312500D03*
X53650000Y6312500D03*
X54050000Y6312500D03*
X54450000Y6312500D03*
X54850000Y6312500D03*
X55250000Y6312500D03*
X55650000Y6312500D03*
X56050000Y6312500D03*
D25*
X56887500Y7150000D03*
X56887500Y7550000D03*
X56887500Y7950000D03*
X56887500Y8350000D03*
X56887500Y8750000D03*
X56887500Y9150000D03*
X56887500Y9550000D03*
X56887500Y9950000D03*
X56887500Y10350000D03*
X56887500Y10750000D03*
X56887500Y11150000D03*
X56887500Y11550000D03*
X56887500Y11950000D03*
X56887500Y12350000D03*
D24*
X56050000Y13187500D03*
X55650000Y13187500D03*
X55250000Y13187500D03*
X54850000Y13187500D03*
X54450000Y13187500D03*
X54050000Y13187500D03*
X53650000Y13187500D03*
X53250000Y13187500D03*
X52850000Y13187500D03*
X52450000Y13187500D03*
X52050000Y13187500D03*
X51650000Y13187500D03*
X51250000Y13187500D03*
X50850000Y13187500D03*
D25*
X50012500Y12350000D03*
X50012500Y11950000D03*
X50012500Y11550000D03*
X50012500Y11150000D03*
X50012500Y10750000D03*
X50012500Y10350000D03*
X50012500Y9950000D03*
X50012500Y9550000D03*
X50012500Y9150000D03*
X50012500Y8750000D03*
X50012500Y8350000D03*
X50012500Y7950000D03*
X50012500Y7550000D03*
X50012500Y7150000D03*
%TD*%
D26*
%TO.C,R13*%
X46500000Y26575000D03*
X46500000Y24925000D03*
%TD*%
D14*
%TO.C,R10*%
X48925000Y19250000D03*
X50575000Y19250000D03*
%TD*%
D26*
%TO.C,R20*%
X43250000Y26575000D03*
X43250000Y24925000D03*
%TD*%
%TO.C,R12*%
X49750000Y26575000D03*
X49750000Y24925000D03*
%TD*%
D27*
%TO.C,U4*%
X38612500Y5950000D03*
X38612500Y5000000D03*
X38612500Y4050000D03*
X40887500Y4050000D03*
X40887500Y5950000D03*
%TD*%
D28*
%TO.C,C6*%
X9975000Y24750000D03*
X7025000Y24750000D03*
%TD*%
D29*
%TO.C,D4*%
X61250000Y31000000D03*
X59375000Y31000000D03*
%TD*%
D30*
%TO.C,C5*%
X17525000Y24750000D03*
X20475000Y24750000D03*
%TD*%
D14*
%TO.C,R18*%
X26175000Y23500000D03*
X27825000Y23500000D03*
%TD*%
%TO.C,R17*%
X42425000Y19250000D03*
X44075000Y19250000D03*
%TD*%
D31*
%TO.C,Q5*%
X45550000Y21062500D03*
X47450000Y21062500D03*
X46500000Y22937500D03*
%TD*%
D26*
%TO.C,R3*%
X49500000Y3825000D03*
X49500000Y2175000D03*
%TD*%
D32*
%TO.C,R1*%
X13250000Y7587500D03*
X13250000Y9412500D03*
%TD*%
D15*
%TO.C,C25*%
X27775000Y20000000D03*
X26225000Y20000000D03*
%TD*%
D14*
%TO.C,R14*%
X33925000Y28500000D03*
X35575000Y28500000D03*
%TD*%
D20*
%TO.C,C24*%
X34225000Y20000000D03*
X35775000Y20000000D03*
%TD*%
D33*
%TO.C,RST1*%
X25650000Y13850000D03*
X31850000Y13850000D03*
X25650000Y10150000D03*
X31850000Y10150000D03*
%TD*%
D34*
%TO.C,D2*%
X20750000Y32000000D03*
X20750000Y28000000D03*
%TD*%
M02*
