%TF.GenerationSoftware,KiCad,Pcbnew,7.0.10-7.0.10~ubuntu22.04.1*%
%TF.CreationDate,2024-06-22T11:50:55+05:30*%
%TF.ProjectId,Light-CC,4c696768-742d-4434-932e-6b696361645f,rev?*%
%TF.SameCoordinates,PX4c4b400PY7270e00*%
%TF.FileFunction,Legend,Top*%
%TF.FilePolarity,Positive*%
%FSLAX46Y46*%
G04 Gerber Fmt 4.6, Leading zero omitted, Abs format (unit mm)*
G04 Created by KiCad (PCBNEW 7.0.10-7.0.10~ubuntu22.04.1) date 2024-06-22 11:50:55*
%MOMM*%
%LPD*%
G01*
G04 APERTURE LIST*
%ADD10C,0.300000*%
%ADD11C,0.150000*%
%ADD12C,0.120000*%
G04 APERTURE END LIST*
D10*
X61444685Y15611654D02*
X61387542Y15497368D01*
X61387542Y15497368D02*
X61387542Y15325940D01*
X61387542Y15325940D02*
X61444685Y15154511D01*
X61444685Y15154511D02*
X61558971Y15040226D01*
X61558971Y15040226D02*
X61673257Y14983083D01*
X61673257Y14983083D02*
X61901828Y14925940D01*
X61901828Y14925940D02*
X62073257Y14925940D01*
X62073257Y14925940D02*
X62301828Y14983083D01*
X62301828Y14983083D02*
X62416114Y15040226D01*
X62416114Y15040226D02*
X62530400Y15154511D01*
X62530400Y15154511D02*
X62587542Y15325940D01*
X62587542Y15325940D02*
X62587542Y15440226D01*
X62587542Y15440226D02*
X62530400Y15611654D01*
X62530400Y15611654D02*
X62473257Y15668797D01*
X62473257Y15668797D02*
X62073257Y15668797D01*
X62073257Y15668797D02*
X62073257Y15440226D01*
X62587542Y16183083D02*
X61387542Y16183083D01*
X61387542Y16183083D02*
X62587542Y16868797D01*
X62587542Y16868797D02*
X61387542Y16868797D01*
X62587542Y17440226D02*
X61387542Y17440226D01*
X61387542Y17440226D02*
X61387542Y17725940D01*
X61387542Y17725940D02*
X61444685Y17897369D01*
X61444685Y17897369D02*
X61558971Y18011654D01*
X61558971Y18011654D02*
X61673257Y18068797D01*
X61673257Y18068797D02*
X61901828Y18125940D01*
X61901828Y18125940D02*
X62073257Y18125940D01*
X62073257Y18125940D02*
X62301828Y18068797D01*
X62301828Y18068797D02*
X62416114Y18011654D01*
X62416114Y18011654D02*
X62530400Y17897369D01*
X62530400Y17897369D02*
X62587542Y17725940D01*
X62587542Y17725940D02*
X62587542Y17440226D01*
X4618796Y7112458D02*
X5361653Y7112458D01*
X5361653Y7112458D02*
X4961653Y6655315D01*
X4961653Y6655315D02*
X5133082Y6655315D01*
X5133082Y6655315D02*
X5247368Y6598172D01*
X5247368Y6598172D02*
X5304510Y6541029D01*
X5304510Y6541029D02*
X5361653Y6426743D01*
X5361653Y6426743D02*
X5361653Y6141029D01*
X5361653Y6141029D02*
X5304510Y6026743D01*
X5304510Y6026743D02*
X5247368Y5969600D01*
X5247368Y5969600D02*
X5133082Y5912458D01*
X5133082Y5912458D02*
X4790225Y5912458D01*
X4790225Y5912458D02*
X4675939Y5969600D01*
X4675939Y5969600D02*
X4618796Y6026743D01*
X5704510Y7112458D02*
X6104510Y5912458D01*
X6104510Y5912458D02*
X6504510Y7112458D01*
X6790224Y7112458D02*
X7533081Y7112458D01*
X7533081Y7112458D02*
X7133081Y6655315D01*
X7133081Y6655315D02*
X7304510Y6655315D01*
X7304510Y6655315D02*
X7418796Y6598172D01*
X7418796Y6598172D02*
X7475938Y6541029D01*
X7475938Y6541029D02*
X7533081Y6426743D01*
X7533081Y6426743D02*
X7533081Y6141029D01*
X7533081Y6141029D02*
X7475938Y6026743D01*
X7475938Y6026743D02*
X7418796Y5969600D01*
X7418796Y5969600D02*
X7304510Y5912458D01*
X7304510Y5912458D02*
X6961653Y5912458D01*
X6961653Y5912458D02*
X6847367Y5969600D01*
X6847367Y5969600D02*
X6790224Y6026743D01*
D11*
X17333333Y13295181D02*
X17000000Y13771372D01*
X16761905Y13295181D02*
X16761905Y14295181D01*
X16761905Y14295181D02*
X17142857Y14295181D01*
X17142857Y14295181D02*
X17238095Y14247562D01*
X17238095Y14247562D02*
X17285714Y14199943D01*
X17285714Y14199943D02*
X17333333Y14104705D01*
X17333333Y14104705D02*
X17333333Y13961848D01*
X17333333Y13961848D02*
X17285714Y13866610D01*
X17285714Y13866610D02*
X17238095Y13818991D01*
X17238095Y13818991D02*
X17142857Y13771372D01*
X17142857Y13771372D02*
X16761905Y13771372D01*
X17714286Y14199943D02*
X17761905Y14247562D01*
X17761905Y14247562D02*
X17857143Y14295181D01*
X17857143Y14295181D02*
X18095238Y14295181D01*
X18095238Y14295181D02*
X18190476Y14247562D01*
X18190476Y14247562D02*
X18238095Y14199943D01*
X18238095Y14199943D02*
X18285714Y14104705D01*
X18285714Y14104705D02*
X18285714Y14009467D01*
X18285714Y14009467D02*
X18238095Y13866610D01*
X18238095Y13866610D02*
X17666667Y13295181D01*
X17666667Y13295181D02*
X18285714Y13295181D01*
X6859580Y32583334D02*
X6907200Y32535715D01*
X6907200Y32535715D02*
X6954819Y32392858D01*
X6954819Y32392858D02*
X6954819Y32297620D01*
X6954819Y32297620D02*
X6907200Y32154763D01*
X6907200Y32154763D02*
X6811961Y32059525D01*
X6811961Y32059525D02*
X6716723Y32011906D01*
X6716723Y32011906D02*
X6526247Y31964287D01*
X6526247Y31964287D02*
X6383390Y31964287D01*
X6383390Y31964287D02*
X6192914Y32011906D01*
X6192914Y32011906D02*
X6097676Y32059525D01*
X6097676Y32059525D02*
X6002438Y32154763D01*
X6002438Y32154763D02*
X5954819Y32297620D01*
X5954819Y32297620D02*
X5954819Y32392858D01*
X5954819Y32392858D02*
X6002438Y32535715D01*
X6002438Y32535715D02*
X6050057Y32583334D01*
X6383390Y33154763D02*
X6335771Y33059525D01*
X6335771Y33059525D02*
X6288152Y33011906D01*
X6288152Y33011906D02*
X6192914Y32964287D01*
X6192914Y32964287D02*
X6145295Y32964287D01*
X6145295Y32964287D02*
X6050057Y33011906D01*
X6050057Y33011906D02*
X6002438Y33059525D01*
X6002438Y33059525D02*
X5954819Y33154763D01*
X5954819Y33154763D02*
X5954819Y33345239D01*
X5954819Y33345239D02*
X6002438Y33440477D01*
X6002438Y33440477D02*
X6050057Y33488096D01*
X6050057Y33488096D02*
X6145295Y33535715D01*
X6145295Y33535715D02*
X6192914Y33535715D01*
X6192914Y33535715D02*
X6288152Y33488096D01*
X6288152Y33488096D02*
X6335771Y33440477D01*
X6335771Y33440477D02*
X6383390Y33345239D01*
X6383390Y33345239D02*
X6383390Y33154763D01*
X6383390Y33154763D02*
X6431009Y33059525D01*
X6431009Y33059525D02*
X6478628Y33011906D01*
X6478628Y33011906D02*
X6573866Y32964287D01*
X6573866Y32964287D02*
X6764342Y32964287D01*
X6764342Y32964287D02*
X6859580Y33011906D01*
X6859580Y33011906D02*
X6907200Y33059525D01*
X6907200Y33059525D02*
X6954819Y33154763D01*
X6954819Y33154763D02*
X6954819Y33345239D01*
X6954819Y33345239D02*
X6907200Y33440477D01*
X6907200Y33440477D02*
X6859580Y33488096D01*
X6859580Y33488096D02*
X6764342Y33535715D01*
X6764342Y33535715D02*
X6573866Y33535715D01*
X6573866Y33535715D02*
X6478628Y33488096D01*
X6478628Y33488096D02*
X6431009Y33440477D01*
X6431009Y33440477D02*
X6383390Y33345239D01*
X21737557Y19204762D02*
X21689938Y19109524D01*
X21689938Y19109524D02*
X21594700Y19014286D01*
X21594700Y19014286D02*
X21451842Y18871429D01*
X21451842Y18871429D02*
X21404223Y18776191D01*
X21404223Y18776191D02*
X21404223Y18680953D01*
X21642319Y18728572D02*
X21594700Y18633334D01*
X21594700Y18633334D02*
X21499461Y18538096D01*
X21499461Y18538096D02*
X21308985Y18490477D01*
X21308985Y18490477D02*
X20975652Y18490477D01*
X20975652Y18490477D02*
X20785176Y18538096D01*
X20785176Y18538096D02*
X20689938Y18633334D01*
X20689938Y18633334D02*
X20642319Y18728572D01*
X20642319Y18728572D02*
X20642319Y18919048D01*
X20642319Y18919048D02*
X20689938Y19014286D01*
X20689938Y19014286D02*
X20785176Y19109524D01*
X20785176Y19109524D02*
X20975652Y19157143D01*
X20975652Y19157143D02*
X21308985Y19157143D01*
X21308985Y19157143D02*
X21499461Y19109524D01*
X21499461Y19109524D02*
X21594700Y19014286D01*
X21594700Y19014286D02*
X21642319Y18919048D01*
X21642319Y18919048D02*
X21642319Y18728572D01*
X20642319Y19490477D02*
X20642319Y20109524D01*
X20642319Y20109524D02*
X21023271Y19776191D01*
X21023271Y19776191D02*
X21023271Y19919048D01*
X21023271Y19919048D02*
X21070890Y20014286D01*
X21070890Y20014286D02*
X21118509Y20061905D01*
X21118509Y20061905D02*
X21213747Y20109524D01*
X21213747Y20109524D02*
X21451842Y20109524D01*
X21451842Y20109524D02*
X21547080Y20061905D01*
X21547080Y20061905D02*
X21594700Y20014286D01*
X21594700Y20014286D02*
X21642319Y19919048D01*
X21642319Y19919048D02*
X21642319Y19633334D01*
X21642319Y19633334D02*
X21594700Y19538096D01*
X21594700Y19538096D02*
X21547080Y19490477D01*
X12261905Y3045181D02*
X12261905Y4045181D01*
X12261905Y4045181D02*
X12500000Y4045181D01*
X12500000Y4045181D02*
X12642857Y3997562D01*
X12642857Y3997562D02*
X12738095Y3902324D01*
X12738095Y3902324D02*
X12785714Y3807086D01*
X12785714Y3807086D02*
X12833333Y3616610D01*
X12833333Y3616610D02*
X12833333Y3473753D01*
X12833333Y3473753D02*
X12785714Y3283277D01*
X12785714Y3283277D02*
X12738095Y3188039D01*
X12738095Y3188039D02*
X12642857Y3092800D01*
X12642857Y3092800D02*
X12500000Y3045181D01*
X12500000Y3045181D02*
X12261905Y3045181D01*
X13785714Y3045181D02*
X13214286Y3045181D01*
X13500000Y3045181D02*
X13500000Y4045181D01*
X13500000Y4045181D02*
X13404762Y3902324D01*
X13404762Y3902324D02*
X13309524Y3807086D01*
X13309524Y3807086D02*
X13214286Y3759467D01*
X23357142Y21045181D02*
X23023809Y21521372D01*
X22785714Y21045181D02*
X22785714Y22045181D01*
X22785714Y22045181D02*
X23166666Y22045181D01*
X23166666Y22045181D02*
X23261904Y21997562D01*
X23261904Y21997562D02*
X23309523Y21949943D01*
X23309523Y21949943D02*
X23357142Y21854705D01*
X23357142Y21854705D02*
X23357142Y21711848D01*
X23357142Y21711848D02*
X23309523Y21616610D01*
X23309523Y21616610D02*
X23261904Y21568991D01*
X23261904Y21568991D02*
X23166666Y21521372D01*
X23166666Y21521372D02*
X22785714Y21521372D01*
X23738095Y21949943D02*
X23785714Y21997562D01*
X23785714Y21997562D02*
X23880952Y22045181D01*
X23880952Y22045181D02*
X24119047Y22045181D01*
X24119047Y22045181D02*
X24214285Y21997562D01*
X24214285Y21997562D02*
X24261904Y21949943D01*
X24261904Y21949943D02*
X24309523Y21854705D01*
X24309523Y21854705D02*
X24309523Y21759467D01*
X24309523Y21759467D02*
X24261904Y21616610D01*
X24261904Y21616610D02*
X23690476Y21045181D01*
X23690476Y21045181D02*
X24309523Y21045181D01*
X25261904Y21045181D02*
X24690476Y21045181D01*
X24976190Y21045181D02*
X24976190Y22045181D01*
X24976190Y22045181D02*
X24880952Y21902324D01*
X24880952Y21902324D02*
X24785714Y21807086D01*
X24785714Y21807086D02*
X24690476Y21759467D01*
X31357142Y22045181D02*
X31023809Y22521372D01*
X30785714Y22045181D02*
X30785714Y23045181D01*
X30785714Y23045181D02*
X31166666Y23045181D01*
X31166666Y23045181D02*
X31261904Y22997562D01*
X31261904Y22997562D02*
X31309523Y22949943D01*
X31309523Y22949943D02*
X31357142Y22854705D01*
X31357142Y22854705D02*
X31357142Y22711848D01*
X31357142Y22711848D02*
X31309523Y22616610D01*
X31309523Y22616610D02*
X31261904Y22568991D01*
X31261904Y22568991D02*
X31166666Y22521372D01*
X31166666Y22521372D02*
X30785714Y22521372D01*
X32309523Y22045181D02*
X31738095Y22045181D01*
X32023809Y22045181D02*
X32023809Y23045181D01*
X32023809Y23045181D02*
X31928571Y22902324D01*
X31928571Y22902324D02*
X31833333Y22807086D01*
X31833333Y22807086D02*
X31738095Y22759467D01*
X32785714Y22045181D02*
X32976190Y22045181D01*
X32976190Y22045181D02*
X33071428Y22092800D01*
X33071428Y22092800D02*
X33119047Y22140420D01*
X33119047Y22140420D02*
X33214285Y22283277D01*
X33214285Y22283277D02*
X33261904Y22473753D01*
X33261904Y22473753D02*
X33261904Y22854705D01*
X33261904Y22854705D02*
X33214285Y22949943D01*
X33214285Y22949943D02*
X33166666Y22997562D01*
X33166666Y22997562D02*
X33071428Y23045181D01*
X33071428Y23045181D02*
X32880952Y23045181D01*
X32880952Y23045181D02*
X32785714Y22997562D01*
X32785714Y22997562D02*
X32738095Y22949943D01*
X32738095Y22949943D02*
X32690476Y22854705D01*
X32690476Y22854705D02*
X32690476Y22616610D01*
X32690476Y22616610D02*
X32738095Y22521372D01*
X32738095Y22521372D02*
X32785714Y22473753D01*
X32785714Y22473753D02*
X32880952Y22426134D01*
X32880952Y22426134D02*
X33071428Y22426134D01*
X33071428Y22426134D02*
X33166666Y22473753D01*
X33166666Y22473753D02*
X33214285Y22521372D01*
X33214285Y22521372D02*
X33261904Y22616610D01*
X55182142Y31975181D02*
X54848809Y32451372D01*
X54610714Y31975181D02*
X54610714Y32975181D01*
X54610714Y32975181D02*
X54991666Y32975181D01*
X54991666Y32975181D02*
X55086904Y32927562D01*
X55086904Y32927562D02*
X55134523Y32879943D01*
X55134523Y32879943D02*
X55182142Y32784705D01*
X55182142Y32784705D02*
X55182142Y32641848D01*
X55182142Y32641848D02*
X55134523Y32546610D01*
X55134523Y32546610D02*
X55086904Y32498991D01*
X55086904Y32498991D02*
X54991666Y32451372D01*
X54991666Y32451372D02*
X54610714Y32451372D01*
X55563095Y32879943D02*
X55610714Y32927562D01*
X55610714Y32927562D02*
X55705952Y32975181D01*
X55705952Y32975181D02*
X55944047Y32975181D01*
X55944047Y32975181D02*
X56039285Y32927562D01*
X56039285Y32927562D02*
X56086904Y32879943D01*
X56086904Y32879943D02*
X56134523Y32784705D01*
X56134523Y32784705D02*
X56134523Y32689467D01*
X56134523Y32689467D02*
X56086904Y32546610D01*
X56086904Y32546610D02*
X55515476Y31975181D01*
X55515476Y31975181D02*
X56134523Y31975181D01*
X56515476Y32879943D02*
X56563095Y32927562D01*
X56563095Y32927562D02*
X56658333Y32975181D01*
X56658333Y32975181D02*
X56896428Y32975181D01*
X56896428Y32975181D02*
X56991666Y32927562D01*
X56991666Y32927562D02*
X57039285Y32879943D01*
X57039285Y32879943D02*
X57086904Y32784705D01*
X57086904Y32784705D02*
X57086904Y32689467D01*
X57086904Y32689467D02*
X57039285Y32546610D01*
X57039285Y32546610D02*
X56467857Y31975181D01*
X56467857Y31975181D02*
X57086904Y31975181D01*
X53584819Y1916667D02*
X54299104Y1916667D01*
X54299104Y1916667D02*
X54441961Y1869048D01*
X54441961Y1869048D02*
X54537200Y1773810D01*
X54537200Y1773810D02*
X54584819Y1630953D01*
X54584819Y1630953D02*
X54584819Y1535715D01*
X53918152Y2821429D02*
X54584819Y2821429D01*
X53537200Y2583334D02*
X54251485Y2345239D01*
X54251485Y2345239D02*
X54251485Y2964286D01*
X63607142Y11390420D02*
X63559523Y11342800D01*
X63559523Y11342800D02*
X63416666Y11295181D01*
X63416666Y11295181D02*
X63321428Y11295181D01*
X63321428Y11295181D02*
X63178571Y11342800D01*
X63178571Y11342800D02*
X63083333Y11438039D01*
X63083333Y11438039D02*
X63035714Y11533277D01*
X63035714Y11533277D02*
X62988095Y11723753D01*
X62988095Y11723753D02*
X62988095Y11866610D01*
X62988095Y11866610D02*
X63035714Y12057086D01*
X63035714Y12057086D02*
X63083333Y12152324D01*
X63083333Y12152324D02*
X63178571Y12247562D01*
X63178571Y12247562D02*
X63321428Y12295181D01*
X63321428Y12295181D02*
X63416666Y12295181D01*
X63416666Y12295181D02*
X63559523Y12247562D01*
X63559523Y12247562D02*
X63607142Y12199943D01*
X64559523Y11295181D02*
X63988095Y11295181D01*
X64273809Y11295181D02*
X64273809Y12295181D01*
X64273809Y12295181D02*
X64178571Y12152324D01*
X64178571Y12152324D02*
X64083333Y12057086D01*
X64083333Y12057086D02*
X63988095Y12009467D01*
X64940476Y12199943D02*
X64988095Y12247562D01*
X64988095Y12247562D02*
X65083333Y12295181D01*
X65083333Y12295181D02*
X65321428Y12295181D01*
X65321428Y12295181D02*
X65416666Y12247562D01*
X65416666Y12247562D02*
X65464285Y12199943D01*
X65464285Y12199943D02*
X65511904Y12104705D01*
X65511904Y12104705D02*
X65511904Y12009467D01*
X65511904Y12009467D02*
X65464285Y11866610D01*
X65464285Y11866610D02*
X64892857Y11295181D01*
X64892857Y11295181D02*
X65511904Y11295181D01*
X9654761Y5549943D02*
X9559523Y5597562D01*
X9559523Y5597562D02*
X9464285Y5692800D01*
X9464285Y5692800D02*
X9321428Y5835658D01*
X9321428Y5835658D02*
X9226190Y5883277D01*
X9226190Y5883277D02*
X9130952Y5883277D01*
X9178571Y5645181D02*
X9083333Y5692800D01*
X9083333Y5692800D02*
X8988095Y5788039D01*
X8988095Y5788039D02*
X8940476Y5978515D01*
X8940476Y5978515D02*
X8940476Y6311848D01*
X8940476Y6311848D02*
X8988095Y6502324D01*
X8988095Y6502324D02*
X9083333Y6597562D01*
X9083333Y6597562D02*
X9178571Y6645181D01*
X9178571Y6645181D02*
X9369047Y6645181D01*
X9369047Y6645181D02*
X9464285Y6597562D01*
X9464285Y6597562D02*
X9559523Y6502324D01*
X9559523Y6502324D02*
X9607142Y6311848D01*
X9607142Y6311848D02*
X9607142Y5978515D01*
X9607142Y5978515D02*
X9559523Y5788039D01*
X9559523Y5788039D02*
X9464285Y5692800D01*
X9464285Y5692800D02*
X9369047Y5645181D01*
X9369047Y5645181D02*
X9178571Y5645181D01*
X10559523Y5645181D02*
X9988095Y5645181D01*
X10273809Y5645181D02*
X10273809Y6645181D01*
X10273809Y6645181D02*
X10178571Y6502324D01*
X10178571Y6502324D02*
X10083333Y6407086D01*
X10083333Y6407086D02*
X9988095Y6359467D01*
X59083333Y17975181D02*
X58750000Y18451372D01*
X58511905Y17975181D02*
X58511905Y18975181D01*
X58511905Y18975181D02*
X58892857Y18975181D01*
X58892857Y18975181D02*
X58988095Y18927562D01*
X58988095Y18927562D02*
X59035714Y18879943D01*
X59035714Y18879943D02*
X59083333Y18784705D01*
X59083333Y18784705D02*
X59083333Y18641848D01*
X59083333Y18641848D02*
X59035714Y18546610D01*
X59035714Y18546610D02*
X58988095Y18498991D01*
X58988095Y18498991D02*
X58892857Y18451372D01*
X58892857Y18451372D02*
X58511905Y18451372D01*
X59988095Y18975181D02*
X59511905Y18975181D01*
X59511905Y18975181D02*
X59464286Y18498991D01*
X59464286Y18498991D02*
X59511905Y18546610D01*
X59511905Y18546610D02*
X59607143Y18594229D01*
X59607143Y18594229D02*
X59845238Y18594229D01*
X59845238Y18594229D02*
X59940476Y18546610D01*
X59940476Y18546610D02*
X59988095Y18498991D01*
X59988095Y18498991D02*
X60035714Y18403753D01*
X60035714Y18403753D02*
X60035714Y18165658D01*
X60035714Y18165658D02*
X59988095Y18070420D01*
X59988095Y18070420D02*
X59940476Y18022800D01*
X59940476Y18022800D02*
X59845238Y17975181D01*
X59845238Y17975181D02*
X59607143Y17975181D01*
X59607143Y17975181D02*
X59511905Y18022800D01*
X59511905Y18022800D02*
X59464286Y18070420D01*
X52988095Y22295181D02*
X52988095Y21485658D01*
X52988095Y21485658D02*
X53035714Y21390420D01*
X53035714Y21390420D02*
X53083333Y21342800D01*
X53083333Y21342800D02*
X53178571Y21295181D01*
X53178571Y21295181D02*
X53369047Y21295181D01*
X53369047Y21295181D02*
X53464285Y21342800D01*
X53464285Y21342800D02*
X53511904Y21390420D01*
X53511904Y21390420D02*
X53559523Y21485658D01*
X53559523Y21485658D02*
X53559523Y22295181D01*
X54559523Y21295181D02*
X53988095Y21295181D01*
X54273809Y21295181D02*
X54273809Y22295181D01*
X54273809Y22295181D02*
X54178571Y22152324D01*
X54178571Y22152324D02*
X54083333Y22057086D01*
X54083333Y22057086D02*
X53988095Y22009467D01*
X30857142Y29045181D02*
X30523809Y29521372D01*
X30285714Y29045181D02*
X30285714Y30045181D01*
X30285714Y30045181D02*
X30666666Y30045181D01*
X30666666Y30045181D02*
X30761904Y29997562D01*
X30761904Y29997562D02*
X30809523Y29949943D01*
X30809523Y29949943D02*
X30857142Y29854705D01*
X30857142Y29854705D02*
X30857142Y29711848D01*
X30857142Y29711848D02*
X30809523Y29616610D01*
X30809523Y29616610D02*
X30761904Y29568991D01*
X30761904Y29568991D02*
X30666666Y29521372D01*
X30666666Y29521372D02*
X30285714Y29521372D01*
X31809523Y29045181D02*
X31238095Y29045181D01*
X31523809Y29045181D02*
X31523809Y30045181D01*
X31523809Y30045181D02*
X31428571Y29902324D01*
X31428571Y29902324D02*
X31333333Y29807086D01*
X31333333Y29807086D02*
X31238095Y29759467D01*
X32714285Y30045181D02*
X32238095Y30045181D01*
X32238095Y30045181D02*
X32190476Y29568991D01*
X32190476Y29568991D02*
X32238095Y29616610D01*
X32238095Y29616610D02*
X32333333Y29664229D01*
X32333333Y29664229D02*
X32571428Y29664229D01*
X32571428Y29664229D02*
X32666666Y29616610D01*
X32666666Y29616610D02*
X32714285Y29568991D01*
X32714285Y29568991D02*
X32761904Y29473753D01*
X32761904Y29473753D02*
X32761904Y29235658D01*
X32761904Y29235658D02*
X32714285Y29140420D01*
X32714285Y29140420D02*
X32666666Y29092800D01*
X32666666Y29092800D02*
X32571428Y29045181D01*
X32571428Y29045181D02*
X32333333Y29045181D01*
X32333333Y29045181D02*
X32238095Y29092800D01*
X32238095Y29092800D02*
X32190476Y29140420D01*
X43833333Y11295181D02*
X43500000Y11771372D01*
X43261905Y11295181D02*
X43261905Y12295181D01*
X43261905Y12295181D02*
X43642857Y12295181D01*
X43642857Y12295181D02*
X43738095Y12247562D01*
X43738095Y12247562D02*
X43785714Y12199943D01*
X43785714Y12199943D02*
X43833333Y12104705D01*
X43833333Y12104705D02*
X43833333Y11961848D01*
X43833333Y11961848D02*
X43785714Y11866610D01*
X43785714Y11866610D02*
X43738095Y11818991D01*
X43738095Y11818991D02*
X43642857Y11771372D01*
X43642857Y11771372D02*
X43261905Y11771372D01*
X44309524Y11295181D02*
X44500000Y11295181D01*
X44500000Y11295181D02*
X44595238Y11342800D01*
X44595238Y11342800D02*
X44642857Y11390420D01*
X44642857Y11390420D02*
X44738095Y11533277D01*
X44738095Y11533277D02*
X44785714Y11723753D01*
X44785714Y11723753D02*
X44785714Y12104705D01*
X44785714Y12104705D02*
X44738095Y12199943D01*
X44738095Y12199943D02*
X44690476Y12247562D01*
X44690476Y12247562D02*
X44595238Y12295181D01*
X44595238Y12295181D02*
X44404762Y12295181D01*
X44404762Y12295181D02*
X44309524Y12247562D01*
X44309524Y12247562D02*
X44261905Y12199943D01*
X44261905Y12199943D02*
X44214286Y12104705D01*
X44214286Y12104705D02*
X44214286Y11866610D01*
X44214286Y11866610D02*
X44261905Y11771372D01*
X44261905Y11771372D02*
X44309524Y11723753D01*
X44309524Y11723753D02*
X44404762Y11676134D01*
X44404762Y11676134D02*
X44595238Y11676134D01*
X44595238Y11676134D02*
X44690476Y11723753D01*
X44690476Y11723753D02*
X44738095Y11771372D01*
X44738095Y11771372D02*
X44785714Y11866610D01*
X14164761Y14199943D02*
X14069523Y14247562D01*
X14069523Y14247562D02*
X13974285Y14342800D01*
X13974285Y14342800D02*
X13831428Y14485658D01*
X13831428Y14485658D02*
X13736190Y14533277D01*
X13736190Y14533277D02*
X13640952Y14533277D01*
X13688571Y14295181D02*
X13593333Y14342800D01*
X13593333Y14342800D02*
X13498095Y14438039D01*
X13498095Y14438039D02*
X13450476Y14628515D01*
X13450476Y14628515D02*
X13450476Y14961848D01*
X13450476Y14961848D02*
X13498095Y15152324D01*
X13498095Y15152324D02*
X13593333Y15247562D01*
X13593333Y15247562D02*
X13688571Y15295181D01*
X13688571Y15295181D02*
X13879047Y15295181D01*
X13879047Y15295181D02*
X13974285Y15247562D01*
X13974285Y15247562D02*
X14069523Y15152324D01*
X14069523Y15152324D02*
X14117142Y14961848D01*
X14117142Y14961848D02*
X14117142Y14628515D01*
X14117142Y14628515D02*
X14069523Y14438039D01*
X14069523Y14438039D02*
X13974285Y14342800D01*
X13974285Y14342800D02*
X13879047Y14295181D01*
X13879047Y14295181D02*
X13688571Y14295181D01*
X14498095Y15199943D02*
X14545714Y15247562D01*
X14545714Y15247562D02*
X14640952Y15295181D01*
X14640952Y15295181D02*
X14879047Y15295181D01*
X14879047Y15295181D02*
X14974285Y15247562D01*
X14974285Y15247562D02*
X15021904Y15199943D01*
X15021904Y15199943D02*
X15069523Y15104705D01*
X15069523Y15104705D02*
X15069523Y15009467D01*
X15069523Y15009467D02*
X15021904Y14866610D01*
X15021904Y14866610D02*
X14450476Y14295181D01*
X14450476Y14295181D02*
X15069523Y14295181D01*
X31357142Y23545181D02*
X31023809Y24021372D01*
X30785714Y23545181D02*
X30785714Y24545181D01*
X30785714Y24545181D02*
X31166666Y24545181D01*
X31166666Y24545181D02*
X31261904Y24497562D01*
X31261904Y24497562D02*
X31309523Y24449943D01*
X31309523Y24449943D02*
X31357142Y24354705D01*
X31357142Y24354705D02*
X31357142Y24211848D01*
X31357142Y24211848D02*
X31309523Y24116610D01*
X31309523Y24116610D02*
X31261904Y24068991D01*
X31261904Y24068991D02*
X31166666Y24021372D01*
X31166666Y24021372D02*
X30785714Y24021372D01*
X32309523Y23545181D02*
X31738095Y23545181D01*
X32023809Y23545181D02*
X32023809Y24545181D01*
X32023809Y24545181D02*
X31928571Y24402324D01*
X31928571Y24402324D02*
X31833333Y24307086D01*
X31833333Y24307086D02*
X31738095Y24259467D01*
X33166666Y24545181D02*
X32976190Y24545181D01*
X32976190Y24545181D02*
X32880952Y24497562D01*
X32880952Y24497562D02*
X32833333Y24449943D01*
X32833333Y24449943D02*
X32738095Y24307086D01*
X32738095Y24307086D02*
X32690476Y24116610D01*
X32690476Y24116610D02*
X32690476Y23735658D01*
X32690476Y23735658D02*
X32738095Y23640420D01*
X32738095Y23640420D02*
X32785714Y23592800D01*
X32785714Y23592800D02*
X32880952Y23545181D01*
X32880952Y23545181D02*
X33071428Y23545181D01*
X33071428Y23545181D02*
X33166666Y23592800D01*
X33166666Y23592800D02*
X33214285Y23640420D01*
X33214285Y23640420D02*
X33261904Y23735658D01*
X33261904Y23735658D02*
X33261904Y23973753D01*
X33261904Y23973753D02*
X33214285Y24068991D01*
X33214285Y24068991D02*
X33166666Y24116610D01*
X33166666Y24116610D02*
X33071428Y24164229D01*
X33071428Y24164229D02*
X32880952Y24164229D01*
X32880952Y24164229D02*
X32785714Y24116610D01*
X32785714Y24116610D02*
X32738095Y24068991D01*
X32738095Y24068991D02*
X32690476Y23973753D01*
X37107142Y31640420D02*
X37059523Y31592800D01*
X37059523Y31592800D02*
X36916666Y31545181D01*
X36916666Y31545181D02*
X36821428Y31545181D01*
X36821428Y31545181D02*
X36678571Y31592800D01*
X36678571Y31592800D02*
X36583333Y31688039D01*
X36583333Y31688039D02*
X36535714Y31783277D01*
X36535714Y31783277D02*
X36488095Y31973753D01*
X36488095Y31973753D02*
X36488095Y32116610D01*
X36488095Y32116610D02*
X36535714Y32307086D01*
X36535714Y32307086D02*
X36583333Y32402324D01*
X36583333Y32402324D02*
X36678571Y32497562D01*
X36678571Y32497562D02*
X36821428Y32545181D01*
X36821428Y32545181D02*
X36916666Y32545181D01*
X36916666Y32545181D02*
X37059523Y32497562D01*
X37059523Y32497562D02*
X37107142Y32449943D01*
X37488095Y32449943D02*
X37535714Y32497562D01*
X37535714Y32497562D02*
X37630952Y32545181D01*
X37630952Y32545181D02*
X37869047Y32545181D01*
X37869047Y32545181D02*
X37964285Y32497562D01*
X37964285Y32497562D02*
X38011904Y32449943D01*
X38011904Y32449943D02*
X38059523Y32354705D01*
X38059523Y32354705D02*
X38059523Y32259467D01*
X38059523Y32259467D02*
X38011904Y32116610D01*
X38011904Y32116610D02*
X37440476Y31545181D01*
X37440476Y31545181D02*
X38059523Y31545181D01*
X38392857Y32545181D02*
X39011904Y32545181D01*
X39011904Y32545181D02*
X38678571Y32164229D01*
X38678571Y32164229D02*
X38821428Y32164229D01*
X38821428Y32164229D02*
X38916666Y32116610D01*
X38916666Y32116610D02*
X38964285Y32068991D01*
X38964285Y32068991D02*
X39011904Y31973753D01*
X39011904Y31973753D02*
X39011904Y31735658D01*
X39011904Y31735658D02*
X38964285Y31640420D01*
X38964285Y31640420D02*
X38916666Y31592800D01*
X38916666Y31592800D02*
X38821428Y31545181D01*
X38821428Y31545181D02*
X38535714Y31545181D01*
X38535714Y31545181D02*
X38440476Y31592800D01*
X38440476Y31592800D02*
X38392857Y31640420D01*
X64357142Y6640420D02*
X64309523Y6592800D01*
X64309523Y6592800D02*
X64166666Y6545181D01*
X64166666Y6545181D02*
X64071428Y6545181D01*
X64071428Y6545181D02*
X63928571Y6592800D01*
X63928571Y6592800D02*
X63833333Y6688039D01*
X63833333Y6688039D02*
X63785714Y6783277D01*
X63785714Y6783277D02*
X63738095Y6973753D01*
X63738095Y6973753D02*
X63738095Y7116610D01*
X63738095Y7116610D02*
X63785714Y7307086D01*
X63785714Y7307086D02*
X63833333Y7402324D01*
X63833333Y7402324D02*
X63928571Y7497562D01*
X63928571Y7497562D02*
X64071428Y7545181D01*
X64071428Y7545181D02*
X64166666Y7545181D01*
X64166666Y7545181D02*
X64309523Y7497562D01*
X64309523Y7497562D02*
X64357142Y7449943D01*
X65309523Y6545181D02*
X64738095Y6545181D01*
X65023809Y6545181D02*
X65023809Y7545181D01*
X65023809Y7545181D02*
X64928571Y7402324D01*
X64928571Y7402324D02*
X64833333Y7307086D01*
X64833333Y7307086D02*
X64738095Y7259467D01*
X66261904Y6545181D02*
X65690476Y6545181D01*
X65976190Y6545181D02*
X65976190Y7545181D01*
X65976190Y7545181D02*
X65880952Y7402324D01*
X65880952Y7402324D02*
X65785714Y7307086D01*
X65785714Y7307086D02*
X65690476Y7259467D01*
X23954819Y2666667D02*
X24669104Y2666667D01*
X24669104Y2666667D02*
X24811961Y2619048D01*
X24811961Y2619048D02*
X24907200Y2523810D01*
X24907200Y2523810D02*
X24954819Y2380953D01*
X24954819Y2380953D02*
X24954819Y2285715D01*
X23954819Y3619048D02*
X23954819Y3142858D01*
X23954819Y3142858D02*
X24431009Y3095239D01*
X24431009Y3095239D02*
X24383390Y3142858D01*
X24383390Y3142858D02*
X24335771Y3238096D01*
X24335771Y3238096D02*
X24335771Y3476191D01*
X24335771Y3476191D02*
X24383390Y3571429D01*
X24383390Y3571429D02*
X24431009Y3619048D01*
X24431009Y3619048D02*
X24526247Y3666667D01*
X24526247Y3666667D02*
X24764342Y3666667D01*
X24764342Y3666667D02*
X24859580Y3619048D01*
X24859580Y3619048D02*
X24907200Y3571429D01*
X24907200Y3571429D02*
X24954819Y3476191D01*
X24954819Y3476191D02*
X24954819Y3238096D01*
X24954819Y3238096D02*
X24907200Y3142858D01*
X24907200Y3142858D02*
X24859580Y3095239D01*
X43833333Y9795181D02*
X43500000Y10271372D01*
X43261905Y9795181D02*
X43261905Y10795181D01*
X43261905Y10795181D02*
X43642857Y10795181D01*
X43642857Y10795181D02*
X43738095Y10747562D01*
X43738095Y10747562D02*
X43785714Y10699943D01*
X43785714Y10699943D02*
X43833333Y10604705D01*
X43833333Y10604705D02*
X43833333Y10461848D01*
X43833333Y10461848D02*
X43785714Y10366610D01*
X43785714Y10366610D02*
X43738095Y10318991D01*
X43738095Y10318991D02*
X43642857Y10271372D01*
X43642857Y10271372D02*
X43261905Y10271372D01*
X44404762Y10366610D02*
X44309524Y10414229D01*
X44309524Y10414229D02*
X44261905Y10461848D01*
X44261905Y10461848D02*
X44214286Y10557086D01*
X44214286Y10557086D02*
X44214286Y10604705D01*
X44214286Y10604705D02*
X44261905Y10699943D01*
X44261905Y10699943D02*
X44309524Y10747562D01*
X44309524Y10747562D02*
X44404762Y10795181D01*
X44404762Y10795181D02*
X44595238Y10795181D01*
X44595238Y10795181D02*
X44690476Y10747562D01*
X44690476Y10747562D02*
X44738095Y10699943D01*
X44738095Y10699943D02*
X44785714Y10604705D01*
X44785714Y10604705D02*
X44785714Y10557086D01*
X44785714Y10557086D02*
X44738095Y10461848D01*
X44738095Y10461848D02*
X44690476Y10414229D01*
X44690476Y10414229D02*
X44595238Y10366610D01*
X44595238Y10366610D02*
X44404762Y10366610D01*
X44404762Y10366610D02*
X44309524Y10318991D01*
X44309524Y10318991D02*
X44261905Y10271372D01*
X44261905Y10271372D02*
X44214286Y10176134D01*
X44214286Y10176134D02*
X44214286Y9985658D01*
X44214286Y9985658D02*
X44261905Y9890420D01*
X44261905Y9890420D02*
X44309524Y9842800D01*
X44309524Y9842800D02*
X44404762Y9795181D01*
X44404762Y9795181D02*
X44595238Y9795181D01*
X44595238Y9795181D02*
X44690476Y9842800D01*
X44690476Y9842800D02*
X44738095Y9890420D01*
X44738095Y9890420D02*
X44785714Y9985658D01*
X44785714Y9985658D02*
X44785714Y10176134D01*
X44785714Y10176134D02*
X44738095Y10271372D01*
X44738095Y10271372D02*
X44690476Y10318991D01*
X44690476Y10318991D02*
X44595238Y10366610D01*
X48074819Y8988096D02*
X48884342Y8988096D01*
X48884342Y8988096D02*
X48979580Y9035715D01*
X48979580Y9035715D02*
X49027200Y9083334D01*
X49027200Y9083334D02*
X49074819Y9178572D01*
X49074819Y9178572D02*
X49074819Y9369048D01*
X49074819Y9369048D02*
X49027200Y9464286D01*
X49027200Y9464286D02*
X48979580Y9511905D01*
X48979580Y9511905D02*
X48884342Y9559524D01*
X48884342Y9559524D02*
X48074819Y9559524D01*
X48074819Y9940477D02*
X48074819Y10559524D01*
X48074819Y10559524D02*
X48455771Y10226191D01*
X48455771Y10226191D02*
X48455771Y10369048D01*
X48455771Y10369048D02*
X48503390Y10464286D01*
X48503390Y10464286D02*
X48551009Y10511905D01*
X48551009Y10511905D02*
X48646247Y10559524D01*
X48646247Y10559524D02*
X48884342Y10559524D01*
X48884342Y10559524D02*
X48979580Y10511905D01*
X48979580Y10511905D02*
X49027200Y10464286D01*
X49027200Y10464286D02*
X49074819Y10369048D01*
X49074819Y10369048D02*
X49074819Y10083334D01*
X49074819Y10083334D02*
X49027200Y9988096D01*
X49027200Y9988096D02*
X48979580Y9940477D01*
X48454819Y25107143D02*
X47978628Y24773810D01*
X48454819Y24535715D02*
X47454819Y24535715D01*
X47454819Y24535715D02*
X47454819Y24916667D01*
X47454819Y24916667D02*
X47502438Y25011905D01*
X47502438Y25011905D02*
X47550057Y25059524D01*
X47550057Y25059524D02*
X47645295Y25107143D01*
X47645295Y25107143D02*
X47788152Y25107143D01*
X47788152Y25107143D02*
X47883390Y25059524D01*
X47883390Y25059524D02*
X47931009Y25011905D01*
X47931009Y25011905D02*
X47978628Y24916667D01*
X47978628Y24916667D02*
X47978628Y24535715D01*
X48454819Y26059524D02*
X48454819Y25488096D01*
X48454819Y25773810D02*
X47454819Y25773810D01*
X47454819Y25773810D02*
X47597676Y25678572D01*
X47597676Y25678572D02*
X47692914Y25583334D01*
X47692914Y25583334D02*
X47740533Y25488096D01*
X47454819Y26392858D02*
X47454819Y27011905D01*
X47454819Y27011905D02*
X47835771Y26678572D01*
X47835771Y26678572D02*
X47835771Y26821429D01*
X47835771Y26821429D02*
X47883390Y26916667D01*
X47883390Y26916667D02*
X47931009Y26964286D01*
X47931009Y26964286D02*
X48026247Y27011905D01*
X48026247Y27011905D02*
X48264342Y27011905D01*
X48264342Y27011905D02*
X48359580Y26964286D01*
X48359580Y26964286D02*
X48407200Y26916667D01*
X48407200Y26916667D02*
X48454819Y26821429D01*
X48454819Y26821429D02*
X48454819Y26535715D01*
X48454819Y26535715D02*
X48407200Y26440477D01*
X48407200Y26440477D02*
X48359580Y26392858D01*
X49107142Y17295181D02*
X48773809Y17771372D01*
X48535714Y17295181D02*
X48535714Y18295181D01*
X48535714Y18295181D02*
X48916666Y18295181D01*
X48916666Y18295181D02*
X49011904Y18247562D01*
X49011904Y18247562D02*
X49059523Y18199943D01*
X49059523Y18199943D02*
X49107142Y18104705D01*
X49107142Y18104705D02*
X49107142Y17961848D01*
X49107142Y17961848D02*
X49059523Y17866610D01*
X49059523Y17866610D02*
X49011904Y17818991D01*
X49011904Y17818991D02*
X48916666Y17771372D01*
X48916666Y17771372D02*
X48535714Y17771372D01*
X50059523Y17295181D02*
X49488095Y17295181D01*
X49773809Y17295181D02*
X49773809Y18295181D01*
X49773809Y18295181D02*
X49678571Y18152324D01*
X49678571Y18152324D02*
X49583333Y18057086D01*
X49583333Y18057086D02*
X49488095Y18009467D01*
X50678571Y18295181D02*
X50773809Y18295181D01*
X50773809Y18295181D02*
X50869047Y18247562D01*
X50869047Y18247562D02*
X50916666Y18199943D01*
X50916666Y18199943D02*
X50964285Y18104705D01*
X50964285Y18104705D02*
X51011904Y17914229D01*
X51011904Y17914229D02*
X51011904Y17676134D01*
X51011904Y17676134D02*
X50964285Y17485658D01*
X50964285Y17485658D02*
X50916666Y17390420D01*
X50916666Y17390420D02*
X50869047Y17342800D01*
X50869047Y17342800D02*
X50773809Y17295181D01*
X50773809Y17295181D02*
X50678571Y17295181D01*
X50678571Y17295181D02*
X50583333Y17342800D01*
X50583333Y17342800D02*
X50535714Y17390420D01*
X50535714Y17390420D02*
X50488095Y17485658D01*
X50488095Y17485658D02*
X50440476Y17676134D01*
X50440476Y17676134D02*
X50440476Y17914229D01*
X50440476Y17914229D02*
X50488095Y18104705D01*
X50488095Y18104705D02*
X50535714Y18199943D01*
X50535714Y18199943D02*
X50583333Y18247562D01*
X50583333Y18247562D02*
X50678571Y18295181D01*
X45204819Y25107143D02*
X44728628Y24773810D01*
X45204819Y24535715D02*
X44204819Y24535715D01*
X44204819Y24535715D02*
X44204819Y24916667D01*
X44204819Y24916667D02*
X44252438Y25011905D01*
X44252438Y25011905D02*
X44300057Y25059524D01*
X44300057Y25059524D02*
X44395295Y25107143D01*
X44395295Y25107143D02*
X44538152Y25107143D01*
X44538152Y25107143D02*
X44633390Y25059524D01*
X44633390Y25059524D02*
X44681009Y25011905D01*
X44681009Y25011905D02*
X44728628Y24916667D01*
X44728628Y24916667D02*
X44728628Y24535715D01*
X44300057Y25488096D02*
X44252438Y25535715D01*
X44252438Y25535715D02*
X44204819Y25630953D01*
X44204819Y25630953D02*
X44204819Y25869048D01*
X44204819Y25869048D02*
X44252438Y25964286D01*
X44252438Y25964286D02*
X44300057Y26011905D01*
X44300057Y26011905D02*
X44395295Y26059524D01*
X44395295Y26059524D02*
X44490533Y26059524D01*
X44490533Y26059524D02*
X44633390Y26011905D01*
X44633390Y26011905D02*
X45204819Y25440477D01*
X45204819Y25440477D02*
X45204819Y26059524D01*
X44204819Y26678572D02*
X44204819Y26773810D01*
X44204819Y26773810D02*
X44252438Y26869048D01*
X44252438Y26869048D02*
X44300057Y26916667D01*
X44300057Y26916667D02*
X44395295Y26964286D01*
X44395295Y26964286D02*
X44585771Y27011905D01*
X44585771Y27011905D02*
X44823866Y27011905D01*
X44823866Y27011905D02*
X45014342Y26964286D01*
X45014342Y26964286D02*
X45109580Y26916667D01*
X45109580Y26916667D02*
X45157200Y26869048D01*
X45157200Y26869048D02*
X45204819Y26773810D01*
X45204819Y26773810D02*
X45204819Y26678572D01*
X45204819Y26678572D02*
X45157200Y26583334D01*
X45157200Y26583334D02*
X45109580Y26535715D01*
X45109580Y26535715D02*
X45014342Y26488096D01*
X45014342Y26488096D02*
X44823866Y26440477D01*
X44823866Y26440477D02*
X44585771Y26440477D01*
X44585771Y26440477D02*
X44395295Y26488096D01*
X44395295Y26488096D02*
X44300057Y26535715D01*
X44300057Y26535715D02*
X44252438Y26583334D01*
X44252438Y26583334D02*
X44204819Y26678572D01*
X51704819Y25107143D02*
X51228628Y24773810D01*
X51704819Y24535715D02*
X50704819Y24535715D01*
X50704819Y24535715D02*
X50704819Y24916667D01*
X50704819Y24916667D02*
X50752438Y25011905D01*
X50752438Y25011905D02*
X50800057Y25059524D01*
X50800057Y25059524D02*
X50895295Y25107143D01*
X50895295Y25107143D02*
X51038152Y25107143D01*
X51038152Y25107143D02*
X51133390Y25059524D01*
X51133390Y25059524D02*
X51181009Y25011905D01*
X51181009Y25011905D02*
X51228628Y24916667D01*
X51228628Y24916667D02*
X51228628Y24535715D01*
X51704819Y26059524D02*
X51704819Y25488096D01*
X51704819Y25773810D02*
X50704819Y25773810D01*
X50704819Y25773810D02*
X50847676Y25678572D01*
X50847676Y25678572D02*
X50942914Y25583334D01*
X50942914Y25583334D02*
X50990533Y25488096D01*
X50800057Y26440477D02*
X50752438Y26488096D01*
X50752438Y26488096D02*
X50704819Y26583334D01*
X50704819Y26583334D02*
X50704819Y26821429D01*
X50704819Y26821429D02*
X50752438Y26916667D01*
X50752438Y26916667D02*
X50800057Y26964286D01*
X50800057Y26964286D02*
X50895295Y27011905D01*
X50895295Y27011905D02*
X50990533Y27011905D01*
X50990533Y27011905D02*
X51133390Y26964286D01*
X51133390Y26964286D02*
X51704819Y26392858D01*
X51704819Y26392858D02*
X51704819Y27011905D01*
X38988095Y7945181D02*
X38988095Y7135658D01*
X38988095Y7135658D02*
X39035714Y7040420D01*
X39035714Y7040420D02*
X39083333Y6992800D01*
X39083333Y6992800D02*
X39178571Y6945181D01*
X39178571Y6945181D02*
X39369047Y6945181D01*
X39369047Y6945181D02*
X39464285Y6992800D01*
X39464285Y6992800D02*
X39511904Y7040420D01*
X39511904Y7040420D02*
X39559523Y7135658D01*
X39559523Y7135658D02*
X39559523Y7945181D01*
X40464285Y7611848D02*
X40464285Y6945181D01*
X40226190Y7992800D02*
X39988095Y7278515D01*
X39988095Y7278515D02*
X40607142Y7278515D01*
X8083333Y22390420D02*
X8035714Y22342800D01*
X8035714Y22342800D02*
X7892857Y22295181D01*
X7892857Y22295181D02*
X7797619Y22295181D01*
X7797619Y22295181D02*
X7654762Y22342800D01*
X7654762Y22342800D02*
X7559524Y22438039D01*
X7559524Y22438039D02*
X7511905Y22533277D01*
X7511905Y22533277D02*
X7464286Y22723753D01*
X7464286Y22723753D02*
X7464286Y22866610D01*
X7464286Y22866610D02*
X7511905Y23057086D01*
X7511905Y23057086D02*
X7559524Y23152324D01*
X7559524Y23152324D02*
X7654762Y23247562D01*
X7654762Y23247562D02*
X7797619Y23295181D01*
X7797619Y23295181D02*
X7892857Y23295181D01*
X7892857Y23295181D02*
X8035714Y23247562D01*
X8035714Y23247562D02*
X8083333Y23199943D01*
X8940476Y23295181D02*
X8750000Y23295181D01*
X8750000Y23295181D02*
X8654762Y23247562D01*
X8654762Y23247562D02*
X8607143Y23199943D01*
X8607143Y23199943D02*
X8511905Y23057086D01*
X8511905Y23057086D02*
X8464286Y22866610D01*
X8464286Y22866610D02*
X8464286Y22485658D01*
X8464286Y22485658D02*
X8511905Y22390420D01*
X8511905Y22390420D02*
X8559524Y22342800D01*
X8559524Y22342800D02*
X8654762Y22295181D01*
X8654762Y22295181D02*
X8845238Y22295181D01*
X8845238Y22295181D02*
X8940476Y22342800D01*
X8940476Y22342800D02*
X8988095Y22390420D01*
X8988095Y22390420D02*
X9035714Y22485658D01*
X9035714Y22485658D02*
X9035714Y22723753D01*
X9035714Y22723753D02*
X8988095Y22818991D01*
X8988095Y22818991D02*
X8940476Y22866610D01*
X8940476Y22866610D02*
X8845238Y22914229D01*
X8845238Y22914229D02*
X8654762Y22914229D01*
X8654762Y22914229D02*
X8559524Y22866610D01*
X8559524Y22866610D02*
X8511905Y22818991D01*
X8511905Y22818991D02*
X8464286Y22723753D01*
X59574405Y32295181D02*
X59574405Y33295181D01*
X59574405Y33295181D02*
X59812500Y33295181D01*
X59812500Y33295181D02*
X59955357Y33247562D01*
X59955357Y33247562D02*
X60050595Y33152324D01*
X60050595Y33152324D02*
X60098214Y33057086D01*
X60098214Y33057086D02*
X60145833Y32866610D01*
X60145833Y32866610D02*
X60145833Y32723753D01*
X60145833Y32723753D02*
X60098214Y32533277D01*
X60098214Y32533277D02*
X60050595Y32438039D01*
X60050595Y32438039D02*
X59955357Y32342800D01*
X59955357Y32342800D02*
X59812500Y32295181D01*
X59812500Y32295181D02*
X59574405Y32295181D01*
X61002976Y32961848D02*
X61002976Y32295181D01*
X60764881Y33342800D02*
X60526786Y32628515D01*
X60526786Y32628515D02*
X61145833Y32628515D01*
X14109580Y33083334D02*
X14157200Y33035715D01*
X14157200Y33035715D02*
X14204819Y32892858D01*
X14204819Y32892858D02*
X14204819Y32797620D01*
X14204819Y32797620D02*
X14157200Y32654763D01*
X14157200Y32654763D02*
X14061961Y32559525D01*
X14061961Y32559525D02*
X13966723Y32511906D01*
X13966723Y32511906D02*
X13776247Y32464287D01*
X13776247Y32464287D02*
X13633390Y32464287D01*
X13633390Y32464287D02*
X13442914Y32511906D01*
X13442914Y32511906D02*
X13347676Y32559525D01*
X13347676Y32559525D02*
X13252438Y32654763D01*
X13252438Y32654763D02*
X13204819Y32797620D01*
X13204819Y32797620D02*
X13204819Y32892858D01*
X13204819Y32892858D02*
X13252438Y33035715D01*
X13252438Y33035715D02*
X13300057Y33083334D01*
X13204819Y33416668D02*
X13204819Y34083334D01*
X13204819Y34083334D02*
X14204819Y33654763D01*
X22083333Y24390420D02*
X22035714Y24342800D01*
X22035714Y24342800D02*
X21892857Y24295181D01*
X21892857Y24295181D02*
X21797619Y24295181D01*
X21797619Y24295181D02*
X21654762Y24342800D01*
X21654762Y24342800D02*
X21559524Y24438039D01*
X21559524Y24438039D02*
X21511905Y24533277D01*
X21511905Y24533277D02*
X21464286Y24723753D01*
X21464286Y24723753D02*
X21464286Y24866610D01*
X21464286Y24866610D02*
X21511905Y25057086D01*
X21511905Y25057086D02*
X21559524Y25152324D01*
X21559524Y25152324D02*
X21654762Y25247562D01*
X21654762Y25247562D02*
X21797619Y25295181D01*
X21797619Y25295181D02*
X21892857Y25295181D01*
X21892857Y25295181D02*
X22035714Y25247562D01*
X22035714Y25247562D02*
X22083333Y25199943D01*
X22988095Y25295181D02*
X22511905Y25295181D01*
X22511905Y25295181D02*
X22464286Y24818991D01*
X22464286Y24818991D02*
X22511905Y24866610D01*
X22511905Y24866610D02*
X22607143Y24914229D01*
X22607143Y24914229D02*
X22845238Y24914229D01*
X22845238Y24914229D02*
X22940476Y24866610D01*
X22940476Y24866610D02*
X22988095Y24818991D01*
X22988095Y24818991D02*
X23035714Y24723753D01*
X23035714Y24723753D02*
X23035714Y24485658D01*
X23035714Y24485658D02*
X22988095Y24390420D01*
X22988095Y24390420D02*
X22940476Y24342800D01*
X22940476Y24342800D02*
X22845238Y24295181D01*
X22845238Y24295181D02*
X22607143Y24295181D01*
X22607143Y24295181D02*
X22511905Y24342800D01*
X22511905Y24342800D02*
X22464286Y24390420D01*
X2666666Y27795181D02*
X2666666Y27080896D01*
X2666666Y27080896D02*
X2619047Y26938039D01*
X2619047Y26938039D02*
X2523809Y26842800D01*
X2523809Y26842800D02*
X2380952Y26795181D01*
X2380952Y26795181D02*
X2285714Y26795181D01*
X3047619Y27795181D02*
X3666666Y27795181D01*
X3666666Y27795181D02*
X3333333Y27414229D01*
X3333333Y27414229D02*
X3476190Y27414229D01*
X3476190Y27414229D02*
X3571428Y27366610D01*
X3571428Y27366610D02*
X3619047Y27318991D01*
X3619047Y27318991D02*
X3666666Y27223753D01*
X3666666Y27223753D02*
X3666666Y26985658D01*
X3666666Y26985658D02*
X3619047Y26890420D01*
X3619047Y26890420D02*
X3571428Y26842800D01*
X3571428Y26842800D02*
X3476190Y26795181D01*
X3476190Y26795181D02*
X3190476Y26795181D01*
X3190476Y26795181D02*
X3095238Y26842800D01*
X3095238Y26842800D02*
X3047619Y26890420D01*
X26357142Y24545181D02*
X26023809Y25021372D01*
X25785714Y24545181D02*
X25785714Y25545181D01*
X25785714Y25545181D02*
X26166666Y25545181D01*
X26166666Y25545181D02*
X26261904Y25497562D01*
X26261904Y25497562D02*
X26309523Y25449943D01*
X26309523Y25449943D02*
X26357142Y25354705D01*
X26357142Y25354705D02*
X26357142Y25211848D01*
X26357142Y25211848D02*
X26309523Y25116610D01*
X26309523Y25116610D02*
X26261904Y25068991D01*
X26261904Y25068991D02*
X26166666Y25021372D01*
X26166666Y25021372D02*
X25785714Y25021372D01*
X27309523Y24545181D02*
X26738095Y24545181D01*
X27023809Y24545181D02*
X27023809Y25545181D01*
X27023809Y25545181D02*
X26928571Y25402324D01*
X26928571Y25402324D02*
X26833333Y25307086D01*
X26833333Y25307086D02*
X26738095Y25259467D01*
X27880952Y25116610D02*
X27785714Y25164229D01*
X27785714Y25164229D02*
X27738095Y25211848D01*
X27738095Y25211848D02*
X27690476Y25307086D01*
X27690476Y25307086D02*
X27690476Y25354705D01*
X27690476Y25354705D02*
X27738095Y25449943D01*
X27738095Y25449943D02*
X27785714Y25497562D01*
X27785714Y25497562D02*
X27880952Y25545181D01*
X27880952Y25545181D02*
X28071428Y25545181D01*
X28071428Y25545181D02*
X28166666Y25497562D01*
X28166666Y25497562D02*
X28214285Y25449943D01*
X28214285Y25449943D02*
X28261904Y25354705D01*
X28261904Y25354705D02*
X28261904Y25307086D01*
X28261904Y25307086D02*
X28214285Y25211848D01*
X28214285Y25211848D02*
X28166666Y25164229D01*
X28166666Y25164229D02*
X28071428Y25116610D01*
X28071428Y25116610D02*
X27880952Y25116610D01*
X27880952Y25116610D02*
X27785714Y25068991D01*
X27785714Y25068991D02*
X27738095Y25021372D01*
X27738095Y25021372D02*
X27690476Y24926134D01*
X27690476Y24926134D02*
X27690476Y24735658D01*
X27690476Y24735658D02*
X27738095Y24640420D01*
X27738095Y24640420D02*
X27785714Y24592800D01*
X27785714Y24592800D02*
X27880952Y24545181D01*
X27880952Y24545181D02*
X28071428Y24545181D01*
X28071428Y24545181D02*
X28166666Y24592800D01*
X28166666Y24592800D02*
X28214285Y24640420D01*
X28214285Y24640420D02*
X28261904Y24735658D01*
X28261904Y24735658D02*
X28261904Y24926134D01*
X28261904Y24926134D02*
X28214285Y25021372D01*
X28214285Y25021372D02*
X28166666Y25068991D01*
X28166666Y25068991D02*
X28071428Y25116610D01*
X65416666Y27795181D02*
X65416666Y27080896D01*
X65416666Y27080896D02*
X65369047Y26938039D01*
X65369047Y26938039D02*
X65273809Y26842800D01*
X65273809Y26842800D02*
X65130952Y26795181D01*
X65130952Y26795181D02*
X65035714Y26795181D01*
X66416666Y26795181D02*
X65845238Y26795181D01*
X66130952Y26795181D02*
X66130952Y27795181D01*
X66130952Y27795181D02*
X66035714Y27652324D01*
X66035714Y27652324D02*
X65940476Y27557086D01*
X65940476Y27557086D02*
X65845238Y27509467D01*
X42607142Y17295181D02*
X42273809Y17771372D01*
X42035714Y17295181D02*
X42035714Y18295181D01*
X42035714Y18295181D02*
X42416666Y18295181D01*
X42416666Y18295181D02*
X42511904Y18247562D01*
X42511904Y18247562D02*
X42559523Y18199943D01*
X42559523Y18199943D02*
X42607142Y18104705D01*
X42607142Y18104705D02*
X42607142Y17961848D01*
X42607142Y17961848D02*
X42559523Y17866610D01*
X42559523Y17866610D02*
X42511904Y17818991D01*
X42511904Y17818991D02*
X42416666Y17771372D01*
X42416666Y17771372D02*
X42035714Y17771372D01*
X43559523Y17295181D02*
X42988095Y17295181D01*
X43273809Y17295181D02*
X43273809Y18295181D01*
X43273809Y18295181D02*
X43178571Y18152324D01*
X43178571Y18152324D02*
X43083333Y18057086D01*
X43083333Y18057086D02*
X42988095Y18009467D01*
X43892857Y18295181D02*
X44559523Y18295181D01*
X44559523Y18295181D02*
X44130952Y17295181D01*
X44550057Y21904762D02*
X44502438Y21809524D01*
X44502438Y21809524D02*
X44407200Y21714286D01*
X44407200Y21714286D02*
X44264342Y21571429D01*
X44264342Y21571429D02*
X44216723Y21476191D01*
X44216723Y21476191D02*
X44216723Y21380953D01*
X44454819Y21428572D02*
X44407200Y21333334D01*
X44407200Y21333334D02*
X44311961Y21238096D01*
X44311961Y21238096D02*
X44121485Y21190477D01*
X44121485Y21190477D02*
X43788152Y21190477D01*
X43788152Y21190477D02*
X43597676Y21238096D01*
X43597676Y21238096D02*
X43502438Y21333334D01*
X43502438Y21333334D02*
X43454819Y21428572D01*
X43454819Y21428572D02*
X43454819Y21619048D01*
X43454819Y21619048D02*
X43502438Y21714286D01*
X43502438Y21714286D02*
X43597676Y21809524D01*
X43597676Y21809524D02*
X43788152Y21857143D01*
X43788152Y21857143D02*
X44121485Y21857143D01*
X44121485Y21857143D02*
X44311961Y21809524D01*
X44311961Y21809524D02*
X44407200Y21714286D01*
X44407200Y21714286D02*
X44454819Y21619048D01*
X44454819Y21619048D02*
X44454819Y21428572D01*
X43454819Y22761905D02*
X43454819Y22285715D01*
X43454819Y22285715D02*
X43931009Y22238096D01*
X43931009Y22238096D02*
X43883390Y22285715D01*
X43883390Y22285715D02*
X43835771Y22380953D01*
X43835771Y22380953D02*
X43835771Y22619048D01*
X43835771Y22619048D02*
X43883390Y22714286D01*
X43883390Y22714286D02*
X43931009Y22761905D01*
X43931009Y22761905D02*
X44026247Y22809524D01*
X44026247Y22809524D02*
X44264342Y22809524D01*
X44264342Y22809524D02*
X44359580Y22761905D01*
X44359580Y22761905D02*
X44407200Y22714286D01*
X44407200Y22714286D02*
X44454819Y22619048D01*
X44454819Y22619048D02*
X44454819Y22380953D01*
X44454819Y22380953D02*
X44407200Y22285715D01*
X44407200Y22285715D02*
X44359580Y22238096D01*
X48454819Y2833334D02*
X47978628Y2500001D01*
X48454819Y2261906D02*
X47454819Y2261906D01*
X47454819Y2261906D02*
X47454819Y2642858D01*
X47454819Y2642858D02*
X47502438Y2738096D01*
X47502438Y2738096D02*
X47550057Y2785715D01*
X47550057Y2785715D02*
X47645295Y2833334D01*
X47645295Y2833334D02*
X47788152Y2833334D01*
X47788152Y2833334D02*
X47883390Y2785715D01*
X47883390Y2785715D02*
X47931009Y2738096D01*
X47931009Y2738096D02*
X47978628Y2642858D01*
X47978628Y2642858D02*
X47978628Y2261906D01*
X47454819Y3166668D02*
X47454819Y3785715D01*
X47454819Y3785715D02*
X47835771Y3452382D01*
X47835771Y3452382D02*
X47835771Y3595239D01*
X47835771Y3595239D02*
X47883390Y3690477D01*
X47883390Y3690477D02*
X47931009Y3738096D01*
X47931009Y3738096D02*
X48026247Y3785715D01*
X48026247Y3785715D02*
X48264342Y3785715D01*
X48264342Y3785715D02*
X48359580Y3738096D01*
X48359580Y3738096D02*
X48407200Y3690477D01*
X48407200Y3690477D02*
X48454819Y3595239D01*
X48454819Y3595239D02*
X48454819Y3309525D01*
X48454819Y3309525D02*
X48407200Y3214287D01*
X48407200Y3214287D02*
X48359580Y3166668D01*
X13704819Y5583334D02*
X13228628Y5250001D01*
X13704819Y5011906D02*
X12704819Y5011906D01*
X12704819Y5011906D02*
X12704819Y5392858D01*
X12704819Y5392858D02*
X12752438Y5488096D01*
X12752438Y5488096D02*
X12800057Y5535715D01*
X12800057Y5535715D02*
X12895295Y5583334D01*
X12895295Y5583334D02*
X13038152Y5583334D01*
X13038152Y5583334D02*
X13133390Y5535715D01*
X13133390Y5535715D02*
X13181009Y5488096D01*
X13181009Y5488096D02*
X13228628Y5392858D01*
X13228628Y5392858D02*
X13228628Y5011906D01*
X13704819Y6535715D02*
X13704819Y5964287D01*
X13704819Y6250001D02*
X12704819Y6250001D01*
X12704819Y6250001D02*
X12847676Y6154763D01*
X12847676Y6154763D02*
X12942914Y6059525D01*
X12942914Y6059525D02*
X12990533Y5964287D01*
X23357142Y19640420D02*
X23309523Y19592800D01*
X23309523Y19592800D02*
X23166666Y19545181D01*
X23166666Y19545181D02*
X23071428Y19545181D01*
X23071428Y19545181D02*
X22928571Y19592800D01*
X22928571Y19592800D02*
X22833333Y19688039D01*
X22833333Y19688039D02*
X22785714Y19783277D01*
X22785714Y19783277D02*
X22738095Y19973753D01*
X22738095Y19973753D02*
X22738095Y20116610D01*
X22738095Y20116610D02*
X22785714Y20307086D01*
X22785714Y20307086D02*
X22833333Y20402324D01*
X22833333Y20402324D02*
X22928571Y20497562D01*
X22928571Y20497562D02*
X23071428Y20545181D01*
X23071428Y20545181D02*
X23166666Y20545181D01*
X23166666Y20545181D02*
X23309523Y20497562D01*
X23309523Y20497562D02*
X23357142Y20449943D01*
X23738095Y20449943D02*
X23785714Y20497562D01*
X23785714Y20497562D02*
X23880952Y20545181D01*
X23880952Y20545181D02*
X24119047Y20545181D01*
X24119047Y20545181D02*
X24214285Y20497562D01*
X24214285Y20497562D02*
X24261904Y20449943D01*
X24261904Y20449943D02*
X24309523Y20354705D01*
X24309523Y20354705D02*
X24309523Y20259467D01*
X24309523Y20259467D02*
X24261904Y20116610D01*
X24261904Y20116610D02*
X23690476Y19545181D01*
X23690476Y19545181D02*
X24309523Y19545181D01*
X25214285Y20545181D02*
X24738095Y20545181D01*
X24738095Y20545181D02*
X24690476Y20068991D01*
X24690476Y20068991D02*
X24738095Y20116610D01*
X24738095Y20116610D02*
X24833333Y20164229D01*
X24833333Y20164229D02*
X25071428Y20164229D01*
X25071428Y20164229D02*
X25166666Y20116610D01*
X25166666Y20116610D02*
X25214285Y20068991D01*
X25214285Y20068991D02*
X25261904Y19973753D01*
X25261904Y19973753D02*
X25261904Y19735658D01*
X25261904Y19735658D02*
X25214285Y19640420D01*
X25214285Y19640420D02*
X25166666Y19592800D01*
X25166666Y19592800D02*
X25071428Y19545181D01*
X25071428Y19545181D02*
X24833333Y19545181D01*
X24833333Y19545181D02*
X24738095Y19592800D01*
X24738095Y19592800D02*
X24690476Y19640420D01*
X30857142Y27545181D02*
X30523809Y28021372D01*
X30285714Y27545181D02*
X30285714Y28545181D01*
X30285714Y28545181D02*
X30666666Y28545181D01*
X30666666Y28545181D02*
X30761904Y28497562D01*
X30761904Y28497562D02*
X30809523Y28449943D01*
X30809523Y28449943D02*
X30857142Y28354705D01*
X30857142Y28354705D02*
X30857142Y28211848D01*
X30857142Y28211848D02*
X30809523Y28116610D01*
X30809523Y28116610D02*
X30761904Y28068991D01*
X30761904Y28068991D02*
X30666666Y28021372D01*
X30666666Y28021372D02*
X30285714Y28021372D01*
X31809523Y27545181D02*
X31238095Y27545181D01*
X31523809Y27545181D02*
X31523809Y28545181D01*
X31523809Y28545181D02*
X31428571Y28402324D01*
X31428571Y28402324D02*
X31333333Y28307086D01*
X31333333Y28307086D02*
X31238095Y28259467D01*
X32666666Y28211848D02*
X32666666Y27545181D01*
X32428571Y28592800D02*
X32190476Y27878515D01*
X32190476Y27878515D02*
X32809523Y27878515D01*
X37357142Y19640420D02*
X37309523Y19592800D01*
X37309523Y19592800D02*
X37166666Y19545181D01*
X37166666Y19545181D02*
X37071428Y19545181D01*
X37071428Y19545181D02*
X36928571Y19592800D01*
X36928571Y19592800D02*
X36833333Y19688039D01*
X36833333Y19688039D02*
X36785714Y19783277D01*
X36785714Y19783277D02*
X36738095Y19973753D01*
X36738095Y19973753D02*
X36738095Y20116610D01*
X36738095Y20116610D02*
X36785714Y20307086D01*
X36785714Y20307086D02*
X36833333Y20402324D01*
X36833333Y20402324D02*
X36928571Y20497562D01*
X36928571Y20497562D02*
X37071428Y20545181D01*
X37071428Y20545181D02*
X37166666Y20545181D01*
X37166666Y20545181D02*
X37309523Y20497562D01*
X37309523Y20497562D02*
X37357142Y20449943D01*
X37738095Y20449943D02*
X37785714Y20497562D01*
X37785714Y20497562D02*
X37880952Y20545181D01*
X37880952Y20545181D02*
X38119047Y20545181D01*
X38119047Y20545181D02*
X38214285Y20497562D01*
X38214285Y20497562D02*
X38261904Y20449943D01*
X38261904Y20449943D02*
X38309523Y20354705D01*
X38309523Y20354705D02*
X38309523Y20259467D01*
X38309523Y20259467D02*
X38261904Y20116610D01*
X38261904Y20116610D02*
X37690476Y19545181D01*
X37690476Y19545181D02*
X38309523Y19545181D01*
X39166666Y20211848D02*
X39166666Y19545181D01*
X38928571Y20592800D02*
X38690476Y19878515D01*
X38690476Y19878515D02*
X39309523Y19878515D01*
X27726190Y15145181D02*
X27392857Y15621372D01*
X27154762Y15145181D02*
X27154762Y16145181D01*
X27154762Y16145181D02*
X27535714Y16145181D01*
X27535714Y16145181D02*
X27630952Y16097562D01*
X27630952Y16097562D02*
X27678571Y16049943D01*
X27678571Y16049943D02*
X27726190Y15954705D01*
X27726190Y15954705D02*
X27726190Y15811848D01*
X27726190Y15811848D02*
X27678571Y15716610D01*
X27678571Y15716610D02*
X27630952Y15668991D01*
X27630952Y15668991D02*
X27535714Y15621372D01*
X27535714Y15621372D02*
X27154762Y15621372D01*
X28107143Y15192800D02*
X28250000Y15145181D01*
X28250000Y15145181D02*
X28488095Y15145181D01*
X28488095Y15145181D02*
X28583333Y15192800D01*
X28583333Y15192800D02*
X28630952Y15240420D01*
X28630952Y15240420D02*
X28678571Y15335658D01*
X28678571Y15335658D02*
X28678571Y15430896D01*
X28678571Y15430896D02*
X28630952Y15526134D01*
X28630952Y15526134D02*
X28583333Y15573753D01*
X28583333Y15573753D02*
X28488095Y15621372D01*
X28488095Y15621372D02*
X28297619Y15668991D01*
X28297619Y15668991D02*
X28202381Y15716610D01*
X28202381Y15716610D02*
X28154762Y15764229D01*
X28154762Y15764229D02*
X28107143Y15859467D01*
X28107143Y15859467D02*
X28107143Y15954705D01*
X28107143Y15954705D02*
X28154762Y16049943D01*
X28154762Y16049943D02*
X28202381Y16097562D01*
X28202381Y16097562D02*
X28297619Y16145181D01*
X28297619Y16145181D02*
X28535714Y16145181D01*
X28535714Y16145181D02*
X28678571Y16097562D01*
X28964286Y16145181D02*
X29535714Y16145181D01*
X29250000Y15145181D02*
X29250000Y16145181D01*
X30392857Y15145181D02*
X29821429Y15145181D01*
X30107143Y15145181D02*
X30107143Y16145181D01*
X30107143Y16145181D02*
X30011905Y16002324D01*
X30011905Y16002324D02*
X29916667Y15907086D01*
X29916667Y15907086D02*
X29821429Y15859467D01*
X4204819Y8416667D02*
X4919104Y8416667D01*
X4919104Y8416667D02*
X5061961Y8369048D01*
X5061961Y8369048D02*
X5157200Y8273810D01*
X5157200Y8273810D02*
X5204819Y8130953D01*
X5204819Y8130953D02*
X5204819Y8035715D01*
X4300057Y8845239D02*
X4252438Y8892858D01*
X4252438Y8892858D02*
X4204819Y8988096D01*
X4204819Y8988096D02*
X4204819Y9226191D01*
X4204819Y9226191D02*
X4252438Y9321429D01*
X4252438Y9321429D02*
X4300057Y9369048D01*
X4300057Y9369048D02*
X4395295Y9416667D01*
X4395295Y9416667D02*
X4490533Y9416667D01*
X4490533Y9416667D02*
X4633390Y9369048D01*
X4633390Y9369048D02*
X5204819Y8797620D01*
X5204819Y8797620D02*
X5204819Y9416667D01*
X20011905Y33795181D02*
X20011905Y34795181D01*
X20011905Y34795181D02*
X20250000Y34795181D01*
X20250000Y34795181D02*
X20392857Y34747562D01*
X20392857Y34747562D02*
X20488095Y34652324D01*
X20488095Y34652324D02*
X20535714Y34557086D01*
X20535714Y34557086D02*
X20583333Y34366610D01*
X20583333Y34366610D02*
X20583333Y34223753D01*
X20583333Y34223753D02*
X20535714Y34033277D01*
X20535714Y34033277D02*
X20488095Y33938039D01*
X20488095Y33938039D02*
X20392857Y33842800D01*
X20392857Y33842800D02*
X20250000Y33795181D01*
X20250000Y33795181D02*
X20011905Y33795181D01*
X20964286Y34699943D02*
X21011905Y34747562D01*
X21011905Y34747562D02*
X21107143Y34795181D01*
X21107143Y34795181D02*
X21345238Y34795181D01*
X21345238Y34795181D02*
X21440476Y34747562D01*
X21440476Y34747562D02*
X21488095Y34699943D01*
X21488095Y34699943D02*
X21535714Y34604705D01*
X21535714Y34604705D02*
X21535714Y34509467D01*
X21535714Y34509467D02*
X21488095Y34366610D01*
X21488095Y34366610D02*
X20916667Y33795181D01*
X20916667Y33795181D02*
X21535714Y33795181D01*
D12*
%TO.C,R2*%
X20022936Y14485000D02*
X20477064Y14485000D01*
X20022936Y13015000D02*
X20477064Y13015000D01*
%TO.C,C8*%
X10475000Y32759887D02*
X10475000Y32259887D01*
X10725000Y32509887D02*
X10225000Y32509887D01*
X11580000Y29955112D02*
X6420000Y29955112D01*
X11580000Y29915112D02*
X6420000Y29915112D01*
X11579000Y29875112D02*
X6421000Y29875112D01*
X11578000Y29835112D02*
X6422000Y29835112D01*
X11576000Y29795112D02*
X6424000Y29795112D01*
X11573000Y29755112D02*
X6427000Y29755112D01*
X11569000Y29715112D02*
X10040000Y29715112D01*
X7960000Y29715112D02*
X6431000Y29715112D01*
X11565000Y29675112D02*
X10040000Y29675112D01*
X7960000Y29675112D02*
X6435000Y29675112D01*
X11561000Y29635112D02*
X10040000Y29635112D01*
X7960000Y29635112D02*
X6439000Y29635112D01*
X11556000Y29595112D02*
X10040000Y29595112D01*
X7960000Y29595112D02*
X6444000Y29595112D01*
X11550000Y29555112D02*
X10040000Y29555112D01*
X7960000Y29555112D02*
X6450000Y29555112D01*
X11543000Y29515112D02*
X10040000Y29515112D01*
X7960000Y29515112D02*
X6457000Y29515112D01*
X11536000Y29475112D02*
X10040000Y29475112D01*
X7960000Y29475112D02*
X6464000Y29475112D01*
X11528000Y29435112D02*
X10040000Y29435112D01*
X7960000Y29435112D02*
X6472000Y29435112D01*
X11520000Y29395112D02*
X10040000Y29395112D01*
X7960000Y29395112D02*
X6480000Y29395112D01*
X11511000Y29355112D02*
X10040000Y29355112D01*
X7960000Y29355112D02*
X6489000Y29355112D01*
X11501000Y29315112D02*
X10040000Y29315112D01*
X7960000Y29315112D02*
X6499000Y29315112D01*
X11491000Y29275112D02*
X10040000Y29275112D01*
X7960000Y29275112D02*
X6509000Y29275112D01*
X11480000Y29234112D02*
X10040000Y29234112D01*
X7960000Y29234112D02*
X6520000Y29234112D01*
X11468000Y29194112D02*
X10040000Y29194112D01*
X7960000Y29194112D02*
X6532000Y29194112D01*
X11455000Y29154112D02*
X10040000Y29154112D01*
X7960000Y29154112D02*
X6545000Y29154112D01*
X11442000Y29114112D02*
X10040000Y29114112D01*
X7960000Y29114112D02*
X6558000Y29114112D01*
X11428000Y29074112D02*
X10040000Y29074112D01*
X7960000Y29074112D02*
X6572000Y29074112D01*
X11414000Y29034112D02*
X10040000Y29034112D01*
X7960000Y29034112D02*
X6586000Y29034112D01*
X11398000Y28994112D02*
X10040000Y28994112D01*
X7960000Y28994112D02*
X6602000Y28994112D01*
X11382000Y28954112D02*
X10040000Y28954112D01*
X7960000Y28954112D02*
X6618000Y28954112D01*
X11365000Y28914112D02*
X10040000Y28914112D01*
X7960000Y28914112D02*
X6635000Y28914112D01*
X11348000Y28874112D02*
X10040000Y28874112D01*
X7960000Y28874112D02*
X6652000Y28874112D01*
X11329000Y28834112D02*
X10040000Y28834112D01*
X7960000Y28834112D02*
X6671000Y28834112D01*
X11310000Y28794112D02*
X10040000Y28794112D01*
X7960000Y28794112D02*
X6690000Y28794112D01*
X11290000Y28754112D02*
X10040000Y28754112D01*
X7960000Y28754112D02*
X6710000Y28754112D01*
X11268000Y28714112D02*
X10040000Y28714112D01*
X7960000Y28714112D02*
X6732000Y28714112D01*
X11247000Y28674112D02*
X10040000Y28674112D01*
X7960000Y28674112D02*
X6753000Y28674112D01*
X11224000Y28634112D02*
X10040000Y28634112D01*
X7960000Y28634112D02*
X6776000Y28634112D01*
X11200000Y28594112D02*
X10040000Y28594112D01*
X7960000Y28594112D02*
X6800000Y28594112D01*
X11175000Y28554112D02*
X10040000Y28554112D01*
X7960000Y28554112D02*
X6825000Y28554112D01*
X11149000Y28514112D02*
X10040000Y28514112D01*
X7960000Y28514112D02*
X6851000Y28514112D01*
X11122000Y28474112D02*
X10040000Y28474112D01*
X7960000Y28474112D02*
X6878000Y28474112D01*
X11095000Y28434112D02*
X10040000Y28434112D01*
X7960000Y28434112D02*
X6905000Y28434112D01*
X11065000Y28394112D02*
X10040000Y28394112D01*
X7960000Y28394112D02*
X6935000Y28394112D01*
X11035000Y28354112D02*
X10040000Y28354112D01*
X7960000Y28354112D02*
X6965000Y28354112D01*
X11004000Y28314112D02*
X10040000Y28314112D01*
X7960000Y28314112D02*
X6996000Y28314112D01*
X10971000Y28274112D02*
X10040000Y28274112D01*
X7960000Y28274112D02*
X7029000Y28274112D01*
X10937000Y28234112D02*
X10040000Y28234112D01*
X7960000Y28234112D02*
X7063000Y28234112D01*
X10901000Y28194112D02*
X10040000Y28194112D01*
X7960000Y28194112D02*
X7099000Y28194112D01*
X10864000Y28154112D02*
X10040000Y28154112D01*
X7960000Y28154112D02*
X7136000Y28154112D01*
X10826000Y28114112D02*
X10040000Y28114112D01*
X7960000Y28114112D02*
X7174000Y28114112D01*
X10785000Y28074112D02*
X10040000Y28074112D01*
X7960000Y28074112D02*
X7215000Y28074112D01*
X10743000Y28034112D02*
X10040000Y28034112D01*
X7960000Y28034112D02*
X7257000Y28034112D01*
X10699000Y27994112D02*
X10040000Y27994112D01*
X7960000Y27994112D02*
X7301000Y27994112D01*
X10653000Y27954112D02*
X10040000Y27954112D01*
X7960000Y27954112D02*
X7347000Y27954112D01*
X10605000Y27914112D02*
X10040000Y27914112D01*
X7960000Y27914112D02*
X7395000Y27914112D01*
X10554000Y27874112D02*
X10040000Y27874112D01*
X7960000Y27874112D02*
X7446000Y27874112D01*
X10500000Y27834112D02*
X10040000Y27834112D01*
X7960000Y27834112D02*
X7500000Y27834112D01*
X10443000Y27794112D02*
X10040000Y27794112D01*
X7960000Y27794112D02*
X7557000Y27794112D01*
X10383000Y27754112D02*
X10040000Y27754112D01*
X7960000Y27754112D02*
X7617000Y27754112D01*
X10319000Y27714112D02*
X10040000Y27714112D01*
X7960000Y27714112D02*
X7681000Y27714112D01*
X10251000Y27674112D02*
X10040000Y27674112D01*
X7960000Y27674112D02*
X7749000Y27674112D01*
X10178000Y27634112D02*
X7822000Y27634112D01*
X10098000Y27594112D02*
X7902000Y27594112D01*
X10011000Y27554112D02*
X7989000Y27554112D01*
X9915000Y27514112D02*
X8085000Y27514112D01*
X9805000Y27474112D02*
X8195000Y27474112D01*
X9677000Y27434112D02*
X8323000Y27434112D01*
X9518000Y27394112D02*
X8482000Y27394112D01*
X9284000Y27354112D02*
X8716000Y27354112D01*
X11620000Y29955112D02*
G75*
G03*
X6380000Y29955112I-2620000J0D01*
G01*
X6380000Y29955112D02*
G75*
G03*
X11620000Y29955112I2620000J0D01*
G01*
%TO.C,Q3*%
X18250000Y17690000D02*
X18900000Y17690000D01*
X18250000Y17690000D02*
X17600000Y17690000D01*
X18250000Y20810000D02*
X18900000Y20810000D01*
X18250000Y20810000D02*
X17600000Y20810000D01*
X19652500Y17410000D02*
X19172500Y17410000D01*
X19412500Y17740000D01*
X19652500Y17410000D01*
G36*
X19652500Y17410000D02*
G01*
X19172500Y17410000D01*
X19412500Y17740000D01*
X19652500Y17410000D01*
G37*
%TO.C,D1*%
X21260000Y1850000D02*
X21260000Y5150000D01*
X21260000Y1850000D02*
X15750000Y1850000D01*
X21260000Y5150000D02*
X15750000Y5150000D01*
%TO.C,R21*%
X27237258Y21227500D02*
X26762742Y21227500D01*
X27237258Y22272500D02*
X26762742Y22272500D01*
%TO.C,R19*%
X34762742Y22272500D02*
X35237258Y22272500D01*
X34762742Y21227500D02*
X35237258Y21227500D01*
%TO.C,R22*%
X55587742Y31522500D02*
X56062258Y31522500D01*
X55587742Y30477500D02*
X56062258Y30477500D01*
%TO.C,J4*%
X55130000Y920000D02*
X55130000Y2250000D01*
X56460000Y920000D02*
X55130000Y920000D01*
X57730000Y920000D02*
X62870000Y920000D01*
X57730000Y920000D02*
X57730000Y3580000D01*
X62870000Y920000D02*
X62870000Y3580000D01*
X57730000Y3580000D02*
X62870000Y3580000D01*
%TO.C,C12*%
X61390580Y11265000D02*
X61109420Y11265000D01*
X61390580Y12285000D02*
X61109420Y12285000D01*
%TO.C,Q1*%
X9750000Y6940000D02*
X10400000Y6940000D01*
X9750000Y6940000D02*
X9100000Y6940000D01*
X9750000Y10060000D02*
X10400000Y10060000D01*
X9750000Y10060000D02*
X9100000Y10060000D01*
X11152500Y6660000D02*
X10672500Y6660000D01*
X10912500Y6990000D01*
X11152500Y6660000D01*
G36*
X11152500Y6660000D02*
G01*
X10672500Y6660000D01*
X10912500Y6990000D01*
X11152500Y6660000D01*
G37*
%TO.C,G\u002A\u002A\u002A*%
G36*
X36379073Y17746839D02*
G01*
X36429332Y17731405D01*
X36465199Y17719633D01*
X36494179Y17717076D01*
X36518314Y17720754D01*
X36558960Y17724857D01*
X36599470Y17716977D01*
X36641951Y17698411D01*
X36671524Y17688381D01*
X36707496Y17682891D01*
X36717576Y17682539D01*
X36766221Y17676497D01*
X36807858Y17656554D01*
X36843962Y17624796D01*
X36869243Y17603546D01*
X36896478Y17595182D01*
X36912347Y17594374D01*
X36953014Y17585273D01*
X36997739Y17560037D01*
X37044414Y17521072D01*
X37090934Y17470786D01*
X37135192Y17411583D01*
X37175084Y17345871D01*
X37208501Y17276055D01*
X37222083Y17240481D01*
X37234079Y17208190D01*
X37244241Y17184684D01*
X37250534Y17174626D01*
X37250863Y17174539D01*
X37256861Y17182978D01*
X37265230Y17204275D01*
X37268955Y17216058D01*
X37291445Y17276494D01*
X37322654Y17338371D01*
X37360396Y17399066D01*
X37402482Y17455958D01*
X37446725Y17506422D01*
X37490939Y17547837D01*
X37532936Y17577578D01*
X37570529Y17593023D01*
X37584628Y17594616D01*
X37612184Y17599229D01*
X37639227Y17615335D01*
X37656254Y17630225D01*
X37704838Y17667615D01*
X37751617Y17686848D01*
X37793247Y17687870D01*
X37823120Y17687563D01*
X37861130Y17697615D01*
X37884842Y17706896D01*
X37919851Y17720496D01*
X37944720Y17726262D01*
X37966684Y17725295D01*
X37982276Y17721728D01*
X38009447Y17716816D01*
X38035095Y17719405D01*
X38068305Y17730478D01*
X38070194Y17731219D01*
X38130948Y17748173D01*
X38183413Y17747734D01*
X38217727Y17735973D01*
X38244449Y17726632D01*
X38265446Y17731089D01*
X38295920Y17739638D01*
X38336187Y17741190D01*
X38377997Y17736251D01*
X38413103Y17725329D01*
X38420101Y17721579D01*
X38456927Y17706986D01*
X38494449Y17702077D01*
X38542776Y17693550D01*
X38572801Y17677654D01*
X38618028Y17657024D01*
X38651090Y17653231D01*
X38701861Y17647311D01*
X38752030Y17631422D01*
X38793513Y17608373D01*
X38803169Y17600377D01*
X38838572Y17580297D01*
X38877033Y17572145D01*
X38934545Y17560505D01*
X38975324Y17539609D01*
X39000293Y17508562D01*
X39010378Y17466469D01*
X39010276Y17443193D01*
X39007682Y17394715D01*
X39007318Y17360030D01*
X39009518Y17333481D01*
X39014615Y17309416D01*
X39019048Y17294307D01*
X39025917Y17268102D01*
X39025781Y17247789D01*
X39017619Y17224460D01*
X39008977Y17206384D01*
X38991635Y17158014D01*
X38988003Y17120808D01*
X38983265Y17073548D01*
X38966341Y17028555D01*
X38940513Y16994203D01*
X38925366Y16972629D01*
X38925723Y16948480D01*
X38924744Y16917381D01*
X38912568Y16879714D01*
X38892149Y16842382D01*
X38868134Y16813817D01*
X38850603Y16792329D01*
X38842273Y16771589D01*
X38842170Y16769855D01*
X38833741Y16731574D01*
X38811578Y16690101D01*
X38779267Y16651288D01*
X38758506Y16633225D01*
X38722557Y16599758D01*
X38701109Y16566445D01*
X38699693Y16562681D01*
X38674938Y16516270D01*
X38636083Y16482235D01*
X38597026Y16463978D01*
X38563180Y16448140D01*
X38542363Y16427401D01*
X38535641Y16415370D01*
X38508577Y16380030D01*
X38465179Y16350702D01*
X38419833Y16332678D01*
X38383167Y16321504D01*
X38458910Y16270558D01*
X38531058Y16218985D01*
X38589383Y16169916D01*
X38638442Y16119232D01*
X38671093Y16078754D01*
X38733965Y15979171D01*
X38781241Y15868334D01*
X38813031Y15745921D01*
X38828456Y15626116D01*
X38834794Y15574541D01*
X38844969Y15530411D01*
X38857813Y15497096D01*
X38872163Y15477964D01*
X38880845Y15474693D01*
X38893811Y15467852D01*
X38916388Y15449456D01*
X38945369Y15422697D01*
X38977546Y15390766D01*
X39009713Y15356854D01*
X39038662Y15324154D01*
X39061187Y15295856D01*
X39062778Y15293650D01*
X39107894Y15221106D01*
X39149049Y15137323D01*
X39182303Y15050605D01*
X39190135Y15025308D01*
X39198486Y14991076D01*
X39203999Y14953360D01*
X39207109Y14907352D01*
X39208251Y14848247D01*
X39208270Y14825039D01*
X39207779Y14768011D01*
X39206189Y14725358D01*
X39202843Y14691922D01*
X39197082Y14662545D01*
X39188249Y14632070D01*
X39180857Y14610116D01*
X39134537Y14499654D01*
X39075490Y14400731D01*
X39057260Y14375654D01*
X39036043Y14343461D01*
X39019790Y14311351D01*
X39013577Y14292616D01*
X39008350Y14272048D01*
X38998188Y14236804D01*
X38984261Y14190770D01*
X38967737Y14137830D01*
X38954764Y14097231D01*
X38936559Y14039801D01*
X38919658Y13984601D01*
X38905382Y13936090D01*
X38895052Y13898723D01*
X38891034Y13882308D01*
X38877316Y13835965D01*
X38855243Y13779759D01*
X38827698Y13719812D01*
X38797567Y13662241D01*
X38767735Y13613166D01*
X38756866Y13597733D01*
X38720563Y13553837D01*
X38674220Y13504845D01*
X38623439Y13456163D01*
X38573819Y13413195D01*
X38536485Y13385031D01*
X38501939Y13363722D01*
X38459441Y13340568D01*
X38424528Y13323544D01*
X38384920Y13303503D01*
X38346302Y13280569D01*
X38320120Y13262054D01*
X38270182Y13224617D01*
X38209907Y13184291D01*
X38143788Y13143658D01*
X38076322Y13105299D01*
X38012002Y13071798D01*
X37955323Y13045734D01*
X37920873Y13032731D01*
X37895253Y13020198D01*
X37862345Y12998387D01*
X37828771Y12971742D01*
X37824967Y12968391D01*
X37723889Y12888879D01*
X37617566Y12825483D01*
X37508582Y12779669D01*
X37473214Y12768863D01*
X37440474Y12760824D01*
X37407091Y12755256D01*
X37368543Y12751775D01*
X37320304Y12749999D01*
X37257850Y12749545D01*
X37245311Y12749572D01*
X37185471Y12749957D01*
X37140478Y12751074D01*
X37105644Y12753519D01*
X37076278Y12757888D01*
X37047690Y12764777D01*
X37015190Y12774782D01*
X36995460Y12781322D01*
X36878079Y12830616D01*
X36771151Y12896255D01*
X36701037Y12953422D01*
X36666763Y12981984D01*
X36626756Y13009577D01*
X36577113Y13038623D01*
X36513931Y13071544D01*
X36497769Y13079576D01*
X36439184Y13109882D01*
X36377250Y13144263D01*
X36318430Y13178989D01*
X36269185Y13210332D01*
X36258423Y13217693D01*
X36244772Y13226818D01*
X36693153Y13226818D01*
X36701837Y13194510D01*
X36726171Y13157218D01*
X36763578Y13116993D01*
X36811480Y13075888D01*
X36867300Y13035956D01*
X36928461Y12999248D01*
X36992385Y12967818D01*
X37043213Y12948047D01*
X37091951Y12932424D01*
X37131481Y12922773D01*
X37170274Y12917688D01*
X37216802Y12915760D01*
X37238820Y12915561D01*
X37303628Y12917480D01*
X37361858Y12923327D01*
X37400013Y12930652D01*
X37470128Y12954446D01*
X37542015Y12988917D01*
X37611565Y13031254D01*
X37674667Y13078647D01*
X37727214Y13128289D01*
X37765096Y13177368D01*
X37767972Y13182227D01*
X37788892Y13224044D01*
X37796105Y13256129D01*
X37789223Y13283044D01*
X37767861Y13309350D01*
X37756332Y13319738D01*
X37713689Y13349564D01*
X37659600Y13374977D01*
X37591252Y13397099D01*
X37518653Y13414403D01*
X37457504Y13423886D01*
X37382944Y13430223D01*
X37300854Y13433364D01*
X37217116Y13433262D01*
X37137611Y13429866D01*
X37068219Y13423128D01*
X37038625Y13418391D01*
X36947394Y13397578D01*
X36867868Y13372389D01*
X36801474Y13343617D01*
X36749643Y13312055D01*
X36713804Y13278495D01*
X36695386Y13243731D01*
X36693153Y13226818D01*
X36244772Y13226818D01*
X36211945Y13248761D01*
X36162802Y13279341D01*
X36117662Y13305391D01*
X36090276Y13319606D01*
X36048568Y13340849D01*
X36006604Y13364301D01*
X35973384Y13384930D01*
X35973045Y13385160D01*
X35928407Y13419318D01*
X35878354Y13463643D01*
X35828059Y13513016D01*
X35782696Y13562322D01*
X35747439Y13606443D01*
X35743208Y13612493D01*
X35710581Y13665438D01*
X35678748Y13726154D01*
X35650590Y13788388D01*
X35628994Y13845885D01*
X35618799Y13882308D01*
X35611783Y13909860D01*
X35599949Y13951503D01*
X35584621Y14002781D01*
X35567121Y14059237D01*
X35556443Y14092721D01*
X35754956Y14092721D01*
X35762046Y14011774D01*
X35779543Y13926538D01*
X35799844Y13860639D01*
X35826887Y13791233D01*
X35855586Y13734478D01*
X35889999Y13683634D01*
X35934188Y13631963D01*
X35943682Y13621855D01*
X36029321Y13542782D01*
X36117758Y13482875D01*
X36208859Y13442196D01*
X36302492Y13420807D01*
X36382583Y13417774D01*
X36433505Y13422379D01*
X36472199Y13431767D01*
X36499814Y13444184D01*
X36537668Y13471935D01*
X36563752Y13508712D01*
X36579279Y13557254D01*
X36585463Y13620297D01*
X36585692Y13637901D01*
X36576163Y13745239D01*
X36548352Y13852012D01*
X36503419Y13955735D01*
X36442525Y14053924D01*
X36388121Y14118731D01*
X36693269Y14118731D01*
X36702722Y14023170D01*
X36729848Y13933615D01*
X36773321Y13851517D01*
X36831815Y13778327D01*
X36904001Y13715498D01*
X36988554Y13664480D01*
X37084146Y13626725D01*
X37159705Y13608452D01*
X37207156Y13603722D01*
X37265781Y13603558D01*
X37327871Y13607504D01*
X37375478Y13613762D01*
X37876274Y13613762D01*
X37882916Y13550479D01*
X37898900Y13498274D01*
X37924079Y13459798D01*
X37935482Y13449732D01*
X37982204Y13425530D01*
X38041739Y13410978D01*
X38109854Y13406179D01*
X38182311Y13411240D01*
X38254877Y13426266D01*
X38298235Y13440700D01*
X38389560Y13485619D01*
X38475725Y13546140D01*
X38553777Y13619158D01*
X38620763Y13701563D01*
X38673729Y13790249D01*
X38706009Y13869787D01*
X38721848Y13938186D01*
X38731036Y14017781D01*
X38733238Y14101280D01*
X38728120Y14181389D01*
X38722132Y14221004D01*
X38702697Y14300208D01*
X38677419Y14361423D01*
X38645453Y14405553D01*
X38605954Y14433496D01*
X38558076Y14446155D01*
X38511416Y14445704D01*
X38452312Y14434600D01*
X38394237Y14412922D01*
X38334604Y14379160D01*
X38270827Y14331806D01*
X38200319Y14269348D01*
X38185999Y14255697D01*
X38108454Y14176466D01*
X38045767Y14101340D01*
X37995134Y14026073D01*
X37953750Y13946418D01*
X37918811Y13858128D01*
X37913853Y13843578D01*
X37891597Y13762963D01*
X37879119Y13685474D01*
X37876274Y13613762D01*
X37375478Y13613762D01*
X37385717Y13615108D01*
X37425846Y13624124D01*
X37521666Y13661400D01*
X37607035Y13712739D01*
X37680501Y13776317D01*
X37740611Y13850313D01*
X37785913Y13932905D01*
X37814954Y14022271D01*
X37826281Y14116589D01*
X37826384Y14126539D01*
X37817088Y14221016D01*
X37790301Y14310073D01*
X37747678Y14392190D01*
X37690874Y14465847D01*
X37621543Y14529526D01*
X37541341Y14581708D01*
X37451921Y14620873D01*
X37354938Y14645502D01*
X37252047Y14654077D01*
X37251800Y14654077D01*
X37146397Y14645878D01*
X37050330Y14620836D01*
X36961981Y14578286D01*
X36879726Y14517561D01*
X36848529Y14488392D01*
X36783668Y14413865D01*
X36737155Y14336175D01*
X36707800Y14252491D01*
X36694416Y14159984D01*
X36693269Y14118731D01*
X36388121Y14118731D01*
X36366831Y14144092D01*
X36334492Y14175676D01*
X36253330Y14243664D01*
X36172565Y14297782D01*
X36093837Y14337400D01*
X36018781Y14361890D01*
X35949036Y14370622D01*
X35886239Y14362966D01*
X35865409Y14355980D01*
X35824837Y14329541D01*
X35793214Y14287791D01*
X35770832Y14232935D01*
X35757982Y14167176D01*
X35754956Y14092721D01*
X35556443Y14092721D01*
X35555005Y14097231D01*
X35537343Y14152640D01*
X35521425Y14203853D01*
X35508419Y14247021D01*
X35499489Y14278290D01*
X35496214Y14291399D01*
X35487211Y14315077D01*
X35469556Y14347687D01*
X35446759Y14382868D01*
X35442301Y14389091D01*
X35374829Y14496457D01*
X35326661Y14606839D01*
X35297790Y14720272D01*
X35289883Y14816460D01*
X35452049Y14816460D01*
X35456339Y14750842D01*
X35465180Y14695240D01*
X35466884Y14688270D01*
X35486657Y14626745D01*
X35512642Y14567714D01*
X35542859Y14514058D01*
X35575326Y14468658D01*
X35608063Y14434392D01*
X35639088Y14414142D01*
X35658376Y14409847D01*
X35681398Y14415693D01*
X35706115Y14435112D01*
X35720296Y14450614D01*
X35753076Y14499359D01*
X35783260Y14564146D01*
X35810286Y14641588D01*
X35833592Y14728292D01*
X35852614Y14820872D01*
X35866791Y14915936D01*
X35875559Y15010095D01*
X35876971Y15055431D01*
X36063587Y15055431D01*
X36065838Y14965952D01*
X36081985Y14880591D01*
X36111838Y14801123D01*
X36155209Y14729322D01*
X36211906Y14666963D01*
X36281742Y14615820D01*
X36364524Y14577667D01*
X36366366Y14577030D01*
X36438003Y14560540D01*
X36518469Y14555681D01*
X36600964Y14562356D01*
X36678688Y14580471D01*
X36681662Y14581452D01*
X36782315Y14624818D01*
X36873851Y14683528D01*
X36954716Y14755491D01*
X37023354Y14838613D01*
X37078211Y14930801D01*
X37117730Y15029963D01*
X37140357Y15134005D01*
X37145293Y15205398D01*
X37139725Y15278639D01*
X37361626Y15278639D01*
X37364002Y15177656D01*
X37383981Y15074395D01*
X37421646Y14970573D01*
X37430271Y14952039D01*
X37489013Y14850577D01*
X37560379Y14763964D01*
X37644263Y14692310D01*
X37733577Y14639113D01*
X37831868Y14599579D01*
X37927470Y14579248D01*
X38020900Y14578052D01*
X38095428Y14591085D01*
X38170471Y14618456D01*
X38240019Y14660967D01*
X38288660Y14701904D01*
X38346684Y14769170D01*
X38389631Y14847112D01*
X38417291Y14933729D01*
X38429454Y15027021D01*
X38426868Y15098577D01*
X38574477Y15098577D01*
X38577934Y15002857D01*
X38587073Y14908240D01*
X38601242Y14816718D01*
X38619786Y14730282D01*
X38642051Y14650925D01*
X38667383Y14580637D01*
X38695128Y14521410D01*
X38724633Y14475236D01*
X38755243Y14444107D01*
X38786305Y14430013D01*
X38794210Y14429385D01*
X38817832Y14436116D01*
X38845585Y14457615D01*
X38860124Y14472527D01*
X38914175Y14545270D01*
X38955198Y14631418D01*
X38982547Y14729258D01*
X38995183Y14829923D01*
X38993911Y14934494D01*
X38976565Y15030878D01*
X38942362Y15123049D01*
X38934267Y15139674D01*
X38902452Y15193803D01*
X38863518Y15246161D01*
X38820356Y15294015D01*
X38775855Y15334631D01*
X38732906Y15365276D01*
X38694400Y15383216D01*
X38673010Y15386770D01*
X38640968Y15378299D01*
X38615335Y15352679D01*
X38596004Y15309599D01*
X38582870Y15248748D01*
X38575827Y15169816D01*
X38574477Y15098577D01*
X38426868Y15098577D01*
X38425913Y15124988D01*
X38406456Y15225628D01*
X38370875Y15326942D01*
X38357202Y15356803D01*
X38301187Y15450758D01*
X38230237Y15533414D01*
X38146388Y15603153D01*
X38051679Y15658355D01*
X37948144Y15697402D01*
X37919192Y15704906D01*
X37829283Y15717133D01*
X37740464Y15712409D01*
X37655630Y15691704D01*
X37577677Y15655989D01*
X37509504Y15606235D01*
X37459286Y15550777D01*
X37409351Y15466915D01*
X37376770Y15375630D01*
X37361626Y15278639D01*
X37139725Y15278639D01*
X37137691Y15305388D01*
X37113896Y15396847D01*
X37075193Y15478422D01*
X37022868Y15548762D01*
X36958208Y15606514D01*
X36882498Y15650326D01*
X36797024Y15678845D01*
X36703074Y15690719D01*
X36683483Y15690978D01*
X36580787Y15681225D01*
X36483925Y15652970D01*
X36392644Y15606099D01*
X36306692Y15540497D01*
X36267420Y15502494D01*
X36197343Y15419040D01*
X36142111Y15330833D01*
X36101534Y15239646D01*
X36075423Y15147253D01*
X36063587Y15055431D01*
X35876971Y15055431D01*
X35878357Y15099961D01*
X35874622Y15182142D01*
X35863791Y15253251D01*
X35857489Y15277360D01*
X35838015Y15324467D01*
X35812989Y15353929D01*
X35782026Y15365702D01*
X35744740Y15359737D01*
X35700746Y15335989D01*
X35649657Y15294412D01*
X35601831Y15246588D01*
X35537863Y15164051D01*
X35489887Y15070780D01*
X35466560Y15000885D01*
X35457152Y14948734D01*
X35452318Y14884842D01*
X35452049Y14816460D01*
X35289883Y14816460D01*
X35288212Y14836789D01*
X35297921Y14956426D01*
X35326912Y15079217D01*
X35332343Y15096161D01*
X35367904Y15183370D01*
X35415522Y15269809D01*
X35471745Y15350335D01*
X35533124Y15419803D01*
X35573967Y15456443D01*
X35604194Y15481692D01*
X35625596Y15503782D01*
X35640192Y15527171D01*
X35650000Y15556314D01*
X35657039Y15595666D01*
X35657598Y15600464D01*
X35833431Y15600464D01*
X35834939Y15568905D01*
X35838911Y15551056D01*
X35839974Y15549590D01*
X35853522Y15543679D01*
X35875870Y15546614D01*
X35909917Y15559055D01*
X35938734Y15572098D01*
X35975944Y15590657D01*
X36011546Y15610817D01*
X36048804Y15634802D01*
X36090984Y15664834D01*
X36141353Y15703138D01*
X36203175Y15751935D01*
X36204692Y15753146D01*
X36278275Y15813827D01*
X36349105Y15875890D01*
X36415595Y15937656D01*
X36476159Y15997447D01*
X36523857Y16047922D01*
X36734408Y16047922D01*
X36736508Y16019081D01*
X36754171Y15966842D01*
X36789178Y15917396D01*
X36839393Y15872082D01*
X36902674Y15832242D01*
X36976884Y15799214D01*
X37059884Y15774338D01*
X37149534Y15758954D01*
X37152307Y15758653D01*
X37188943Y15754710D01*
X37218184Y15751506D01*
X37234414Y15749657D01*
X37235346Y15749539D01*
X37248552Y15749867D01*
X37276800Y15751751D01*
X37315687Y15754868D01*
X37352577Y15758131D01*
X37448885Y15771354D01*
X37536232Y15792029D01*
X37612027Y15819238D01*
X37673678Y15852064D01*
X37716231Y15887020D01*
X37742144Y15924495D01*
X37760587Y15970033D01*
X37767556Y16013719D01*
X37767554Y16014129D01*
X37757986Y16062694D01*
X37731407Y16112736D01*
X37690055Y16162389D01*
X37649136Y16198380D01*
X37816615Y16198380D01*
X37824241Y16173222D01*
X37845894Y16138300D01*
X37879733Y16095257D01*
X37923918Y16045732D01*
X37976610Y15991365D01*
X38035969Y15933797D01*
X38100154Y15874667D01*
X38167327Y15815617D01*
X38235646Y15758287D01*
X38303273Y15704316D01*
X38368367Y15655344D01*
X38429089Y15613013D01*
X38483598Y15578963D01*
X38530055Y15554833D01*
X38545645Y15548447D01*
X38576022Y15538294D01*
X38595500Y15536626D01*
X38606433Y15546035D01*
X38611174Y15569113D01*
X38612077Y15608451D01*
X38611975Y15621495D01*
X38608136Y15695508D01*
X38596998Y15761032D01*
X38576690Y15825918D01*
X38546893Y15894770D01*
X38519781Y15946330D01*
X38490189Y15989370D01*
X38452110Y16032259D01*
X38437989Y16046490D01*
X38358919Y16113841D01*
X38273889Y16164413D01*
X38180520Y16199207D01*
X38076431Y16219227D01*
X38015747Y16224207D01*
X37940060Y16226446D01*
X37882931Y16224757D01*
X37843762Y16219063D01*
X37821958Y16209286D01*
X37816615Y16198380D01*
X37649136Y16198380D01*
X37636168Y16209786D01*
X37571986Y16253062D01*
X37499747Y16290349D01*
X37421690Y16319782D01*
X37390243Y16328705D01*
X37326144Y16339682D01*
X37252754Y16343533D01*
X37178978Y16340254D01*
X37113720Y16329840D01*
X37109756Y16328857D01*
X37038617Y16305783D01*
X36967162Y16273723D01*
X36899298Y16235152D01*
X36838932Y16192545D01*
X36789971Y16148378D01*
X36756322Y16105124D01*
X36756189Y16104896D01*
X36740197Y16073623D01*
X36734408Y16047922D01*
X36523857Y16047922D01*
X36529209Y16053586D01*
X36573159Y16104394D01*
X36606421Y16148193D01*
X36627408Y16183306D01*
X36634538Y16207640D01*
X36627316Y16220468D01*
X36604914Y16229812D01*
X36566230Y16235863D01*
X36510164Y16238814D01*
X36453807Y16239087D01*
X36339597Y16229498D01*
X36233878Y16203554D01*
X36137869Y16162199D01*
X36052784Y16106378D01*
X35979842Y16037035D01*
X35920257Y15955114D01*
X35875247Y15861559D01*
X35848406Y15769153D01*
X35841875Y15730078D01*
X35837081Y15685783D01*
X35834206Y15641001D01*
X35833431Y15600464D01*
X35657598Y15600464D01*
X35663327Y15649684D01*
X35663870Y15654890D01*
X35680136Y15767605D01*
X35704475Y15865906D01*
X35737995Y15953635D01*
X35765680Y16007597D01*
X35811931Y16076511D01*
X35871644Y16146542D01*
X35939793Y16212487D01*
X36011355Y16269140D01*
X36031037Y16282445D01*
X36106498Y16331443D01*
X36070114Y16342532D01*
X36015037Y16365839D01*
X35974362Y16397085D01*
X35954188Y16425979D01*
X35934561Y16453295D01*
X35903715Y16470460D01*
X35898735Y16472181D01*
X35861543Y16490616D01*
X35827028Y16518219D01*
X35800629Y16549784D01*
X35788168Y16577949D01*
X35774315Y16604401D01*
X35743652Y16634149D01*
X35736045Y16640014D01*
X35701021Y16672800D01*
X35672239Y16712101D01*
X35653363Y16752025D01*
X35647846Y16781744D01*
X35640161Y16802256D01*
X35623902Y16818546D01*
X35601760Y16840377D01*
X35581955Y16872060D01*
X35567862Y16906491D01*
X35562859Y16936565D01*
X35563897Y16944812D01*
X35563605Y16966209D01*
X35551473Y16993235D01*
X35538026Y17013737D01*
X35517088Y17048407D01*
X35507164Y17081059D01*
X35504719Y17110324D01*
X35498418Y17156590D01*
X35484239Y17198901D01*
X35482738Y17201947D01*
X35465714Y17246506D01*
X35465339Y17259742D01*
X35608769Y17259742D01*
X35616194Y17240615D01*
X35635728Y17215005D01*
X35663260Y17187325D01*
X35694678Y17161984D01*
X35708361Y17152903D01*
X35736338Y17132589D01*
X35745800Y17118096D01*
X35737016Y17110207D01*
X35710254Y17109702D01*
X35694250Y17111794D01*
X35667928Y17113452D01*
X35657681Y17107845D01*
X35657615Y17107042D01*
X35663980Y17095934D01*
X35681161Y17074334D01*
X35706292Y17045699D01*
X35727430Y17022947D01*
X35755742Y16992098D01*
X35777401Y16966479D01*
X35789835Y16949260D01*
X35791581Y16943787D01*
X35778937Y16940062D01*
X35755089Y16938179D01*
X35749999Y16938123D01*
X35714080Y16938123D01*
X35756674Y16894585D01*
X35787933Y16865453D01*
X35822000Y16837857D01*
X35840769Y16824735D01*
X35863923Y16807924D01*
X35877473Y16793887D01*
X35879087Y16788654D01*
X35868296Y16781608D01*
X35844994Y16775555D01*
X35834384Y16774000D01*
X35792863Y16769116D01*
X35821835Y16741473D01*
X35843817Y16724325D01*
X35877389Y16702495D01*
X35916546Y16679799D01*
X35931236Y16671952D01*
X35970757Y16650382D01*
X35992867Y16634984D01*
X35998072Y16624125D01*
X35986874Y16616176D01*
X35959778Y16609507D01*
X35951024Y16607926D01*
X35916500Y16601921D01*
X35965346Y16576966D01*
X36004938Y16558754D01*
X36049227Y16541235D01*
X36067923Y16534804D01*
X36105521Y16521787D01*
X36125666Y16511408D01*
X36129885Y16501687D01*
X36119710Y16490642D01*
X36107964Y16482938D01*
X36077011Y16464115D01*
X36118871Y16452991D01*
X36151173Y16445576D01*
X36192881Y16437528D01*
X36228088Y16431674D01*
X36278406Y16422199D01*
X36312904Y16411597D01*
X36330041Y16400402D01*
X36331692Y16395729D01*
X36325721Y16384876D01*
X36311198Y16367043D01*
X36309711Y16365408D01*
X36287730Y16341441D01*
X36385423Y16347286D01*
X36438082Y16352046D01*
X36493605Y16359655D01*
X36542480Y16368736D01*
X36556410Y16372048D01*
X36654165Y16404111D01*
X36735367Y16445789D01*
X36800760Y16497610D01*
X36851085Y16560099D01*
X36870287Y16594403D01*
X36901479Y16657763D01*
X36853489Y16706980D01*
X36779932Y16775802D01*
X36689043Y16849479D01*
X36582157Y16927099D01*
X36460611Y17007754D01*
X36325741Y17090534D01*
X36178884Y17174529D01*
X36116769Y17208434D01*
X36075291Y17231126D01*
X36049655Y17246182D01*
X36040266Y17253682D01*
X36047532Y17253707D01*
X36071860Y17246339D01*
X36113655Y17231659D01*
X36155846Y17216218D01*
X36333877Y17143746D01*
X36508059Y17059750D01*
X36674140Y16966552D01*
X36827871Y16866472D01*
X36916956Y16800552D01*
X36979567Y16751691D01*
X37012552Y16769455D01*
X37049213Y16795324D01*
X37084771Y16830680D01*
X37113939Y16869423D01*
X37131435Y16905455D01*
X37131973Y16907305D01*
X37143274Y16984376D01*
X37136888Y17057509D01*
X37377624Y17057509D01*
X37378492Y16983652D01*
X37395585Y16916470D01*
X37428932Y16857074D01*
X37478563Y16806573D01*
X37519510Y16779077D01*
X37549674Y16761892D01*
X37639019Y16829725D01*
X37714946Y16883849D01*
X37803938Y16941426D01*
X37900677Y16999282D01*
X37999847Y17054243D01*
X38096131Y17103137D01*
X38101036Y17105490D01*
X38140787Y17123879D01*
X38189166Y17145286D01*
X38243020Y17168425D01*
X38299199Y17192006D01*
X38354551Y17214741D01*
X38405927Y17235343D01*
X38450174Y17252523D01*
X38484141Y17264992D01*
X38504678Y17271464D01*
X38508536Y17272083D01*
X38503090Y17267784D01*
X38483417Y17256179D01*
X38452602Y17239023D01*
X38413728Y17218072D01*
X38412538Y17217440D01*
X38275074Y17141769D01*
X38144522Y17064685D01*
X38022867Y16987535D01*
X37912093Y16911668D01*
X37814184Y16838434D01*
X37731125Y16769182D01*
X37675818Y16716648D01*
X37627828Y16667533D01*
X37658636Y16604952D01*
X37704285Y16534069D01*
X37765774Y16474276D01*
X37842619Y16425922D01*
X37934338Y16389359D01*
X37968603Y16379733D01*
X38011719Y16369356D01*
X38047863Y16362577D01*
X38084173Y16358522D01*
X38127788Y16356315D01*
X38167291Y16355387D01*
X38249314Y16353923D01*
X38222377Y16378888D01*
X38206343Y16396172D01*
X38200275Y16407810D01*
X38200800Y16409211D01*
X38212362Y16412638D01*
X38238466Y16417082D01*
X38274200Y16421748D01*
X38287368Y16423212D01*
X38331654Y16428768D01*
X38374181Y16435523D01*
X38406743Y16442151D01*
X38410436Y16443099D01*
X38452295Y16454346D01*
X38421343Y16473169D01*
X38403599Y16485869D01*
X38399371Y16496107D01*
X38410190Y16505866D01*
X38437585Y16517127D01*
X38461384Y16525035D01*
X38502917Y16540168D01*
X38546520Y16558775D01*
X38563961Y16567196D01*
X38612807Y16592152D01*
X38578283Y16598157D01*
X38547743Y16604717D01*
X38532901Y16612292D01*
X38534212Y16622674D01*
X38552130Y16637653D01*
X38587113Y16659022D01*
X38594883Y16663472D01*
X38634211Y16686624D01*
X38671282Y16709731D01*
X38699624Y16728721D01*
X38705413Y16732975D01*
X38739404Y16758875D01*
X38696737Y16766158D01*
X38669747Y16771631D01*
X38651990Y16776841D01*
X38649044Y16778469D01*
X38652545Y16787015D01*
X38667561Y16801812D01*
X38672251Y16805614D01*
X38693843Y16822899D01*
X38724135Y16847603D01*
X38756845Y16874601D01*
X38759223Y16876577D01*
X38817961Y16925423D01*
X38776442Y16928428D01*
X38751079Y16931443D01*
X38736390Y16935474D01*
X38734923Y16937062D01*
X38741235Y16946063D01*
X38758263Y16965861D01*
X38783142Y16993204D01*
X38803307Y17014683D01*
X38831962Y17045550D01*
X38854713Y17071386D01*
X38868680Y17088846D01*
X38871692Y17094230D01*
X38863077Y17098083D01*
X38841485Y17098677D01*
X38831768Y17097979D01*
X38800185Y17097035D01*
X38784077Y17102515D01*
X38783513Y17115645D01*
X38798565Y17137650D01*
X38829302Y17169756D01*
X38836251Y17176459D01*
X38872838Y17213252D01*
X38894031Y17239473D01*
X38900091Y17256239D01*
X38891282Y17264665D01*
X38867865Y17265867D01*
X38857038Y17264876D01*
X38829132Y17263099D01*
X38815943Y17266684D01*
X38813077Y17274652D01*
X38818013Y17297969D01*
X38831108Y17331678D01*
X38849793Y17369844D01*
X38867435Y17400225D01*
X38881651Y17423543D01*
X38890158Y17439034D01*
X38891230Y17441918D01*
X38882123Y17443841D01*
X38857439Y17445986D01*
X38821130Y17448071D01*
X38784451Y17449571D01*
X38740492Y17451680D01*
X38703917Y17454569D01*
X38679046Y17457827D01*
X38670438Y17460459D01*
X38671321Y17471654D01*
X38683274Y17489031D01*
X38684499Y17490360D01*
X38697310Y17507741D01*
X38699538Y17519209D01*
X38699191Y17519629D01*
X38681802Y17525314D01*
X38649106Y17525259D01*
X38604393Y17519714D01*
X38550955Y17508930D01*
X38547095Y17508015D01*
X38511160Y17500157D01*
X38483089Y17495409D01*
X38467778Y17494558D01*
X38466499Y17495065D01*
X38461133Y17512592D01*
X38467400Y17536196D01*
X38480923Y17555539D01*
X38490593Y17566384D01*
X38491625Y17572407D01*
X38481779Y17573568D01*
X38458814Y17569828D01*
X38420489Y17561145D01*
X38390698Y17553917D01*
X38341247Y17543165D01*
X38309023Y17539803D01*
X38293016Y17544200D01*
X38292218Y17556727D01*
X38305621Y17577753D01*
X38310279Y17583443D01*
X38325292Y17602357D01*
X38332129Y17613172D01*
X38331897Y17614154D01*
X38317266Y17610658D01*
X38290348Y17601602D01*
X38256813Y17589135D01*
X38222328Y17575404D01*
X38192562Y17562559D01*
X38180438Y17556744D01*
X38154335Y17544354D01*
X38135204Y17536937D01*
X38130665Y17536000D01*
X38118620Y17543872D01*
X38115398Y17563490D01*
X38121639Y17588858D01*
X38124400Y17594721D01*
X38138970Y17622897D01*
X38112120Y17613470D01*
X38090972Y17602941D01*
X38060884Y17584220D01*
X38028212Y17561274D01*
X38026846Y17560253D01*
X37997891Y17539141D01*
X37975088Y17523610D01*
X37962779Y17516598D01*
X37962100Y17516462D01*
X37947780Y17524889D01*
X37938422Y17544909D01*
X37937526Y17568633D01*
X37938007Y17570788D01*
X37944350Y17596060D01*
X37900114Y17565625D01*
X37868712Y17541083D01*
X37839678Y17513663D01*
X37829318Y17501903D01*
X37807438Y17480775D01*
X37790992Y17478301D01*
X37780639Y17494193D01*
X37777058Y17524985D01*
X37776577Y17560423D01*
X37695627Y17474201D01*
X37614677Y17387978D01*
X37600694Y17424718D01*
X37586710Y17461459D01*
X37535817Y17397501D01*
X37472077Y17308037D01*
X37424446Y17220811D01*
X37392951Y17136932D01*
X37377624Y17057509D01*
X37136888Y17057509D01*
X37136058Y17067011D01*
X37110439Y17154894D01*
X37066533Y17247708D01*
X37004453Y17345137D01*
X36944353Y17423089D01*
X36920600Y17451831D01*
X36908433Y17414966D01*
X36896267Y17378102D01*
X36814726Y17464378D01*
X36733185Y17550654D01*
X36732707Y17515216D01*
X36728612Y17482399D01*
X36717384Y17467761D01*
X36698920Y17471265D01*
X36673115Y17492872D01*
X36672877Y17493119D01*
X36642970Y17522158D01*
X36609877Y17551385D01*
X36601561Y17558194D01*
X36579571Y17575126D01*
X36569506Y17580260D01*
X36568400Y17574447D01*
X36570469Y17567101D01*
X36573973Y17539003D01*
X36567234Y17518249D01*
X36553519Y17508333D01*
X36536095Y17512751D01*
X36527365Y17520999D01*
X36511040Y17535504D01*
X36483305Y17555553D01*
X36449931Y17577384D01*
X36416689Y17597234D01*
X36389348Y17611341D01*
X36387678Y17612070D01*
X36360627Y17623675D01*
X36375398Y17595110D01*
X36384046Y17568851D01*
X36382792Y17547359D01*
X36372283Y17536417D01*
X36368789Y17536000D01*
X36355039Y17541243D01*
X36333750Y17554132D01*
X36329862Y17556842D01*
X36307275Y17569334D01*
X36274077Y17583733D01*
X36236931Y17597595D01*
X36202502Y17608474D01*
X36177457Y17613925D01*
X36173645Y17614154D01*
X36173096Y17607717D01*
X36183261Y17591529D01*
X36189720Y17583443D01*
X36206055Y17560533D01*
X36208408Y17546203D01*
X36195769Y17540083D01*
X36167130Y17541802D01*
X36121484Y17550989D01*
X36109302Y17553917D01*
X36060263Y17565655D01*
X36027939Y17572324D01*
X36010160Y17573867D01*
X36004756Y17570227D01*
X36009558Y17561347D01*
X36018258Y17551526D01*
X36031778Y17530799D01*
X36036029Y17510988D01*
X36030988Y17497695D01*
X36018496Y17495933D01*
X35966341Y17509886D01*
X35927348Y17518892D01*
X35896064Y17523937D01*
X35867036Y17526005D01*
X35850871Y17526231D01*
X35820593Y17525181D01*
X35800092Y17522459D01*
X35794384Y17519534D01*
X35800428Y17508429D01*
X35815027Y17490866D01*
X35815589Y17490265D01*
X35828150Y17472707D01*
X35829823Y17460764D01*
X35829452Y17460327D01*
X35817170Y17456968D01*
X35789802Y17453715D01*
X35751798Y17451003D01*
X35720324Y17449630D01*
X35678396Y17447964D01*
X35644858Y17446070D01*
X35623761Y17444214D01*
X35618538Y17443004D01*
X35623151Y17433607D01*
X35635255Y17412105D01*
X35652245Y17383124D01*
X35652521Y17382661D01*
X35671332Y17347802D01*
X35686207Y17314296D01*
X35693107Y17292597D01*
X35699710Y17259581D01*
X35654240Y17264706D01*
X35624686Y17266049D01*
X35609885Y17262215D01*
X35608769Y17259742D01*
X35465339Y17259742D01*
X35464601Y17285770D01*
X35477904Y17323049D01*
X35486588Y17344142D01*
X35488663Y17365798D01*
X35484510Y17395865D01*
X35482034Y17408044D01*
X35476007Y17454397D01*
X35481504Y17490189D01*
X35499902Y17521557D01*
X35510075Y17533081D01*
X35539950Y17553606D01*
X35581833Y17568355D01*
X35628483Y17574899D01*
X35635149Y17575023D01*
X35659260Y17578977D01*
X35674060Y17588442D01*
X35674226Y17588721D01*
X35696269Y17610930D01*
X35732726Y17630239D01*
X35778487Y17644478D01*
X35820864Y17650974D01*
X35872140Y17658686D01*
X35910124Y17673277D01*
X35919606Y17679132D01*
X35957284Y17696905D01*
X36001386Y17702077D01*
X36035949Y17704817D01*
X36066706Y17711717D01*
X36075735Y17715336D01*
X36126648Y17732750D01*
X36183903Y17735677D01*
X36215941Y17731994D01*
X36254784Y17728279D01*
X36282592Y17732278D01*
X36294572Y17737315D01*
X36333804Y17749359D01*
X36379073Y17746839D01*
G37*
%TO.C,R5*%
X59012742Y17522500D02*
X59487258Y17522500D01*
X59012742Y16477500D02*
X59487258Y16477500D01*
%TO.C,U1*%
X58850000Y21590000D02*
X55090000Y21590000D01*
X58850000Y28410000D02*
X55090000Y28410000D01*
X55090000Y21590000D02*
X55090000Y22850000D01*
X55090000Y28410000D02*
X55090000Y27150000D01*
X60370000Y21360000D02*
X59890000Y21360000D01*
X60130000Y21690000D01*
X60370000Y21360000D01*
G36*
X60370000Y21360000D02*
G01*
X59890000Y21360000D01*
X60130000Y21690000D01*
X60370000Y21360000D01*
G37*
%TO.C,R15*%
X34512742Y30772500D02*
X34987258Y30772500D01*
X34512742Y29727500D02*
X34987258Y29727500D01*
%TO.C,R9*%
X41262742Y12272500D02*
X41737258Y12272500D01*
X41262742Y11227500D02*
X41737258Y11227500D01*
%TO.C,Q2*%
X17570000Y15800000D02*
X17570000Y16070000D01*
X17570000Y22700000D02*
X17570000Y22430000D01*
X11150000Y15800000D02*
X17570000Y15800000D01*
X11150000Y22700000D02*
X17570000Y22700000D01*
X19230000Y15780000D02*
X18750000Y15780000D01*
X18990000Y16110000D01*
X19230000Y15780000D01*
G36*
X19230000Y15780000D02*
G01*
X18750000Y15780000D01*
X18990000Y16110000D01*
X19230000Y15780000D01*
G37*
%TO.C,R16*%
X35237258Y22977500D02*
X34762742Y22977500D01*
X35237258Y24022500D02*
X34762742Y24022500D01*
%TO.C,C23*%
X34609420Y32510000D02*
X34890580Y32510000D01*
X34609420Y31490000D02*
X34890580Y31490000D01*
%TO.C,C11*%
X62140580Y6490000D02*
X61859420Y6490000D01*
X62140580Y7510000D02*
X61859420Y7510000D01*
%TO.C,J5*%
X26280000Y3670000D02*
X26280000Y1870000D01*
X26280000Y-1840000D02*
X26280000Y-380000D01*
X35220000Y3670000D02*
X35220000Y1870000D01*
X35220000Y-1840000D02*
X26280000Y-1840000D01*
X35220000Y-1840000D02*
X35220000Y-380000D01*
%TO.C,R8*%
X41262742Y10772500D02*
X41737258Y10772500D01*
X41262742Y9727500D02*
X41737258Y9727500D01*
%TO.C,U3*%
X50490000Y6140000D02*
X50080000Y6140000D01*
X57060000Y6140000D02*
X56410000Y6140000D01*
X49840000Y6790000D02*
X49840000Y6440000D01*
X57060000Y6790000D02*
X57060000Y6140000D01*
X49840000Y12710000D02*
X49840000Y13360000D01*
X57060000Y12710000D02*
X57060000Y13360000D01*
X49840000Y13360000D02*
X50490000Y13360000D01*
X57060000Y13360000D02*
X56410000Y13360000D01*
X49840000Y6140000D02*
X49510000Y5900000D01*
X49510000Y6380000D01*
X49840000Y6140000D01*
G36*
X49840000Y6140000D02*
G01*
X49510000Y5900000D01*
X49510000Y6380000D01*
X49840000Y6140000D01*
G37*
%TO.C,R13*%
X47022500Y25987258D02*
X47022500Y25512742D01*
X45977500Y25987258D02*
X45977500Y25512742D01*
%TO.C,R10*%
X49512742Y19772500D02*
X49987258Y19772500D01*
X49512742Y18727500D02*
X49987258Y18727500D01*
%TO.C,R20*%
X43772500Y25987258D02*
X43772500Y25512742D01*
X42727500Y25987258D02*
X42727500Y25512742D01*
%TO.C,R12*%
X50272500Y25987258D02*
X50272500Y25512742D01*
X49227500Y25987258D02*
X49227500Y25512742D01*
%TO.C,U4*%
X39750000Y6560000D02*
X38950000Y6560000D01*
X39750000Y6560000D02*
X40550000Y6560000D01*
X39750000Y3440000D02*
X38950000Y3440000D01*
X39750000Y3440000D02*
X40550000Y3440000D01*
X38450000Y6510000D02*
X38210000Y6840000D01*
X38690000Y6840000D01*
X38450000Y6510000D01*
G36*
X38450000Y6510000D02*
G01*
X38210000Y6840000D01*
X38690000Y6840000D01*
X38450000Y6510000D01*
G37*
%TO.C,C6*%
X9211252Y23840000D02*
X7788748Y23840000D01*
X9211252Y25660000D02*
X7788748Y25660000D01*
%TO.C,D4*%
X61997500Y30040000D02*
X61997500Y31960000D01*
X61997500Y31960000D02*
X59312500Y31960000D01*
X59312500Y30040000D02*
X61997500Y30040000D01*
%TO.C,C7*%
X17225000Y32759887D02*
X17225000Y32259887D01*
X17475000Y32509887D02*
X16975000Y32509887D01*
X18330000Y29955112D02*
X13170000Y29955112D01*
X18330000Y29915112D02*
X13170000Y29915112D01*
X18329000Y29875112D02*
X13171000Y29875112D01*
X18328000Y29835112D02*
X13172000Y29835112D01*
X18326000Y29795112D02*
X13174000Y29795112D01*
X18323000Y29755112D02*
X13177000Y29755112D01*
X18319000Y29715112D02*
X16790000Y29715112D01*
X14710000Y29715112D02*
X13181000Y29715112D01*
X18315000Y29675112D02*
X16790000Y29675112D01*
X14710000Y29675112D02*
X13185000Y29675112D01*
X18311000Y29635112D02*
X16790000Y29635112D01*
X14710000Y29635112D02*
X13189000Y29635112D01*
X18306000Y29595112D02*
X16790000Y29595112D01*
X14710000Y29595112D02*
X13194000Y29595112D01*
X18300000Y29555112D02*
X16790000Y29555112D01*
X14710000Y29555112D02*
X13200000Y29555112D01*
X18293000Y29515112D02*
X16790000Y29515112D01*
X14710000Y29515112D02*
X13207000Y29515112D01*
X18286000Y29475112D02*
X16790000Y29475112D01*
X14710000Y29475112D02*
X13214000Y29475112D01*
X18278000Y29435112D02*
X16790000Y29435112D01*
X14710000Y29435112D02*
X13222000Y29435112D01*
X18270000Y29395112D02*
X16790000Y29395112D01*
X14710000Y29395112D02*
X13230000Y29395112D01*
X18261000Y29355112D02*
X16790000Y29355112D01*
X14710000Y29355112D02*
X13239000Y29355112D01*
X18251000Y29315112D02*
X16790000Y29315112D01*
X14710000Y29315112D02*
X13249000Y29315112D01*
X18241000Y29275112D02*
X16790000Y29275112D01*
X14710000Y29275112D02*
X13259000Y29275112D01*
X18230000Y29234112D02*
X16790000Y29234112D01*
X14710000Y29234112D02*
X13270000Y29234112D01*
X18218000Y29194112D02*
X16790000Y29194112D01*
X14710000Y29194112D02*
X13282000Y29194112D01*
X18205000Y29154112D02*
X16790000Y29154112D01*
X14710000Y29154112D02*
X13295000Y29154112D01*
X18192000Y29114112D02*
X16790000Y29114112D01*
X14710000Y29114112D02*
X13308000Y29114112D01*
X18178000Y29074112D02*
X16790000Y29074112D01*
X14710000Y29074112D02*
X13322000Y29074112D01*
X18164000Y29034112D02*
X16790000Y29034112D01*
X14710000Y29034112D02*
X13336000Y29034112D01*
X18148000Y28994112D02*
X16790000Y28994112D01*
X14710000Y28994112D02*
X13352000Y28994112D01*
X18132000Y28954112D02*
X16790000Y28954112D01*
X14710000Y28954112D02*
X13368000Y28954112D01*
X18115000Y28914112D02*
X16790000Y28914112D01*
X14710000Y28914112D02*
X13385000Y28914112D01*
X18098000Y28874112D02*
X16790000Y28874112D01*
X14710000Y28874112D02*
X13402000Y28874112D01*
X18079000Y28834112D02*
X16790000Y28834112D01*
X14710000Y28834112D02*
X13421000Y28834112D01*
X18060000Y28794112D02*
X16790000Y28794112D01*
X14710000Y28794112D02*
X13440000Y28794112D01*
X18040000Y28754112D02*
X16790000Y28754112D01*
X14710000Y28754112D02*
X13460000Y28754112D01*
X18018000Y28714112D02*
X16790000Y28714112D01*
X14710000Y28714112D02*
X13482000Y28714112D01*
X17997000Y28674112D02*
X16790000Y28674112D01*
X14710000Y28674112D02*
X13503000Y28674112D01*
X17974000Y28634112D02*
X16790000Y28634112D01*
X14710000Y28634112D02*
X13526000Y28634112D01*
X17950000Y28594112D02*
X16790000Y28594112D01*
X14710000Y28594112D02*
X13550000Y28594112D01*
X17925000Y28554112D02*
X16790000Y28554112D01*
X14710000Y28554112D02*
X13575000Y28554112D01*
X17899000Y28514112D02*
X16790000Y28514112D01*
X14710000Y28514112D02*
X13601000Y28514112D01*
X17872000Y28474112D02*
X16790000Y28474112D01*
X14710000Y28474112D02*
X13628000Y28474112D01*
X17845000Y28434112D02*
X16790000Y28434112D01*
X14710000Y28434112D02*
X13655000Y28434112D01*
X17815000Y28394112D02*
X16790000Y28394112D01*
X14710000Y28394112D02*
X13685000Y28394112D01*
X17785000Y28354112D02*
X16790000Y28354112D01*
X14710000Y28354112D02*
X13715000Y28354112D01*
X17754000Y28314112D02*
X16790000Y28314112D01*
X14710000Y28314112D02*
X13746000Y28314112D01*
X17721000Y28274112D02*
X16790000Y28274112D01*
X14710000Y28274112D02*
X13779000Y28274112D01*
X17687000Y28234112D02*
X16790000Y28234112D01*
X14710000Y28234112D02*
X13813000Y28234112D01*
X17651000Y28194112D02*
X16790000Y28194112D01*
X14710000Y28194112D02*
X13849000Y28194112D01*
X17614000Y28154112D02*
X16790000Y28154112D01*
X14710000Y28154112D02*
X13886000Y28154112D01*
X17576000Y28114112D02*
X16790000Y28114112D01*
X14710000Y28114112D02*
X13924000Y28114112D01*
X17535000Y28074112D02*
X16790000Y28074112D01*
X14710000Y28074112D02*
X13965000Y28074112D01*
X17493000Y28034112D02*
X16790000Y28034112D01*
X14710000Y28034112D02*
X14007000Y28034112D01*
X17449000Y27994112D02*
X16790000Y27994112D01*
X14710000Y27994112D02*
X14051000Y27994112D01*
X17403000Y27954112D02*
X16790000Y27954112D01*
X14710000Y27954112D02*
X14097000Y27954112D01*
X17355000Y27914112D02*
X16790000Y27914112D01*
X14710000Y27914112D02*
X14145000Y27914112D01*
X17304000Y27874112D02*
X16790000Y27874112D01*
X14710000Y27874112D02*
X14196000Y27874112D01*
X17250000Y27834112D02*
X16790000Y27834112D01*
X14710000Y27834112D02*
X14250000Y27834112D01*
X17193000Y27794112D02*
X16790000Y27794112D01*
X14710000Y27794112D02*
X14307000Y27794112D01*
X17133000Y27754112D02*
X16790000Y27754112D01*
X14710000Y27754112D02*
X14367000Y27754112D01*
X17069000Y27714112D02*
X16790000Y27714112D01*
X14710000Y27714112D02*
X14431000Y27714112D01*
X17001000Y27674112D02*
X16790000Y27674112D01*
X14710000Y27674112D02*
X14499000Y27674112D01*
X16928000Y27634112D02*
X14572000Y27634112D01*
X16848000Y27594112D02*
X14652000Y27594112D01*
X16761000Y27554112D02*
X14739000Y27554112D01*
X16665000Y27514112D02*
X14835000Y27514112D01*
X16555000Y27474112D02*
X14945000Y27474112D01*
X16427000Y27434112D02*
X15073000Y27434112D01*
X16268000Y27394112D02*
X15232000Y27394112D01*
X16034000Y27354112D02*
X15466000Y27354112D01*
X18370000Y29955112D02*
G75*
G03*
X13130000Y29955112I-2620000J0D01*
G01*
X13130000Y29955112D02*
G75*
G03*
X18370000Y29955112I2620000J0D01*
G01*
%TO.C,C5*%
X18288748Y25660000D02*
X19711252Y25660000D01*
X18288748Y23840000D02*
X19711252Y23840000D01*
%TO.C,R18*%
X26762742Y24022500D02*
X27237258Y24022500D01*
X26762742Y22977500D02*
X27237258Y22977500D01*
%TO.C,R17*%
X43012742Y19772500D02*
X43487258Y19772500D01*
X43012742Y18727500D02*
X43487258Y18727500D01*
%TO.C,Q5*%
X44940000Y22000000D02*
X44940000Y21350000D01*
X44940000Y22000000D02*
X44940000Y22650000D01*
X48060000Y22000000D02*
X48060000Y21350000D01*
X48060000Y22000000D02*
X48060000Y22650000D01*
X44990000Y20837500D02*
X44660000Y20597500D01*
X44660000Y21077500D01*
X44990000Y20837500D01*
G36*
X44990000Y20837500D02*
G01*
X44660000Y20597500D01*
X44660000Y21077500D01*
X44990000Y20837500D01*
G37*
%TO.C,R3*%
X50022500Y3237258D02*
X50022500Y2762742D01*
X48977500Y3237258D02*
X48977500Y2762742D01*
%TO.C,R1*%
X12515000Y8272936D02*
X12515000Y8727064D01*
X13985000Y8272936D02*
X13985000Y8727064D01*
%TO.C,C25*%
X27140580Y19490000D02*
X26859420Y19490000D01*
X27140580Y20510000D02*
X26859420Y20510000D01*
%TO.C,R14*%
X34512742Y29022500D02*
X34987258Y29022500D01*
X34512742Y27977500D02*
X34987258Y27977500D01*
%TO.C,C24*%
X34859420Y20510000D02*
X35140580Y20510000D01*
X34859420Y19490000D02*
X35140580Y19490000D01*
%TO.C,RST1*%
X26030000Y10960000D02*
X26030000Y13040000D01*
X27300000Y14720000D02*
X26810000Y14230000D01*
X27300000Y14720000D02*
X30200000Y14720000D01*
X27300000Y9280000D02*
X26810000Y9770000D01*
X27300000Y9280000D02*
X30200000Y9280000D01*
X30200000Y14720000D02*
X30690000Y14230000D01*
X30200000Y9280000D02*
X30690000Y9770000D01*
X31470000Y10960000D02*
X31470000Y13040000D01*
%TO.C,J2*%
X4325000Y5190000D02*
X15330000Y5190000D01*
X4325000Y7710000D02*
X15330000Y7710000D01*
X4325000Y9990000D02*
X15330000Y9990000D01*
X4325000Y12510000D02*
X15330000Y12510000D01*
%TO.C,D2*%
X22400000Y33510000D02*
X19100000Y33510000D01*
X22400000Y33510000D02*
X22400000Y28000000D01*
X19100000Y33510000D02*
X19100000Y28000000D01*
%TD*%
M02*
